<?xml version="1.0" standalone="no"?>
<!DOCTYPE svg PUBLIC "-//W3C//DTD SVG 1.1//EN" "http://www.w3.org/Graphics/SVG/1.1/DTD/svg11.dtd" >
<svg xmlns="http://www.w3.org/2000/svg">
<metadata></metadata>
<defs>
<font id="lassigueregular" horiz-adv-x="1024" >
<font-face units-per-em="2048" ascent="1638" descent="-410" />
<missing-glyph horiz-adv-x="286" />
<glyph horiz-adv-x="2048" />
<glyph horiz-adv-x="2048" />
<glyph unicode="&#xd;" horiz-adv-x="2048" />
<glyph unicode=" "  horiz-adv-x="286" />
<glyph unicode="&#x09;" horiz-adv-x="286" />
<glyph unicode="&#xa0;" horiz-adv-x="286" />
<glyph unicode="!" horiz-adv-x="505" d="M84 -48.5q-3 4.5 8 15.5q-3 10 -3 13.5t5 14.5t6 13q13 22 54 36.5t55 29.5h33l-13 -66q-14 0 -16 -6t-1.5 -8t4.5 -7t5 -7h6q-7 -17 -22.5 -26t-38.5 -15t-33 -11q2 5 -6 13l-23 -17q0 6 -8.5 14.5t-11.5 13zM121 266q-10 55 12.5 154.5t20.5 148.5q7 13 20.5 38.5 t20.5 39.5q5 19 10.5 35.5t13.5 32.5l13 26t17 26.5t15 21.5t18 23.5t17 21.5q5 9 17 31.5t19 34t21.5 26.5t32.5 24q3 1 12 6t15 7.5t13.5 4t13 -3t8.5 -14.5q1 -8 9 -21t10 -20t-9 -24q-39 -15 -66 -49.5t-52.5 -79.5t-47.5 -68q-12 -50 -20 -77.5t-10 -32t-4.5 -9.5 t-5 -12t-9.5 -38t-19 -89q6 -35 3.5 -106.5t2.5 -106.5q0 -46 -28 -61q-10 1 -16.5 0t-13 0.5t-13.5 5.5q-10 14 -17 51t-24 53z" />
<glyph unicode="&#x22;" horiz-adv-x="360" d="M72.5 1290.5q-1.5 5.5 0 12t7.5 10.5q-1 7 5 18.5t7 14.5q1 8 12.5 20.5t14.5 17.5q4 4 10.5 13.5t12.5 15.5t14 8q4 -2 13 -4t14.5 -5.5t6.5 -10.5q-16 -22 -25 -52.5t-3 -54.5q-5 -15 -5.5 -29.5t1 -31.5t0.5 -27q1 -9 -0.5 -34t4.5 -31q-7 -6 -2 -18t-2 -19 q7 -3 1 -9.5t-5 -9.5q-3 -6 -5.5 -18t-5.5 -18q-5 -1 -13 -5.5t-11.5 -5.5t-12.5 2l5 2q-4 11 -6.5 23t-5.5 26t-5 23q0 3 -1.5 14t-0.5 17q2 9 -2.5 29.5t0.5 29.5q-5 4 -4.5 20.5t0.5 18.5q-4 1 -4.5 4.5t0.5 7.5t0 7q-1 6 -4.5 14.5t-5 14zM227 1210q3 3 1.5 16t4.5 15 q0 14 11.5 35t13.5 29q6 0 24 4t29.5 2t16.5 -15q9 -10 3 -41t-5 -41q-12 -32 -19 -40l4 -7q-6 -3 -6.5 -14t-1.5 -14q0 -40 -8 -54q-1 -3 -7.5 -8.5t-4.5 -9.5q-2 -1 -14.5 -8.5t-20.5 -9.5q-9 2 -10.5 9t0 18t0.5 16q-7 13 -2 41t-5 41q4 25 -4 36z" />
<glyph unicode="#" d="M92 592q1 5 8 10q3 3 7.5 12t8 14.5t10.5 9t15 -2.5q52 -28 109 -31v2q2 6 10 42.5t15 64.5t19.5 58t24.5 40q2 1 8 7.5t10 9t10 5.5t11 0.5t9 -10.5q2 -5 9 -11.5t11.5 -10.5t6 -12t-6.5 -15q-18 -19 -46 -84t-28 -88q0 -12 31 -6q23 4 26.5 1t8.5 -2.5t24 9.5 q16 7 33 91t31 96q1 1 8 7.5t11 9t10 5.5t11 0.5t9 -10.5q2 -4 9 -10t11 -10t6 -12t-5 -15q-13 -17 -40 -75.5t-24 -74.5q3 -5 7.5 -3l13.5 6t14 3q27 -4 36 -7t5.5 -16.5t-29.5 -41.5q-32 14 -67 -6q-8 -4 -12.5 -9.5t-6 -8.5t-3.5 -13.5t-3 -15.5q-4 -13 0 -25t4 -27 q0 -9 27 -2q19 7 49 4q10 -1 27 2.5t26 2.5q27 -4 36.5 -7.5t6 -17.5t-30.5 -41q-73 0 -157 -10q-3 -1 -4 -5.5t-0.5 -10.5t-1.5 -9q-4 -10 -32 -110.5t-30 -106.5q-6 -16 -9 -23t-9 -13.5t-12 -3t-15 13.5t-22 30q1 3 3 7.5t8.5 18.5t12 28.5t13 34t13.5 36.5t11 36t7.5 33 t2 25.5t-5.5 16.5q-12 12 -17.5 15t-7 0.5t-8 -5.5t-18.5 -2q-28 0 -33 -2q-3 0 -2 -4q1 -3 0 -4q-6 -10 -32.5 -112.5t-28.5 -106.5q-6 -16 -9 -22.5t-9 -13t-12 -3.5t-15.5 13t-22.5 30q64 192 64 231q1 4 -2 5.5t-8 2.5t-7 2t-10 6t-11.5 8.5t-7.5 8.5t-3 10t8 10 q5 4 10.5 15.5t12 16.5t18.5 1q2 -1 6 -4.5t6.5 -5.5t3.5 0q4 15 11 26.5t11 16.5t3.5 14.5t-7.5 24.5q-7 13 -27.5 12.5t-40 -4t-38.5 7.5q-2 2 -9 6.5t-11 8t-8 8.5t-3 10zM267.5 463q-0.5 -3 2 -7t9.5 -14q5 -7 8 -14q1 -3 2 -2q5 8 26 6q36 -5 43 8q7 14 18.5 30t16 23 t3.5 18.5t-13 25.5q-16 20 -24.5 22t-27 -8.5t-36.5 -13.5q-4 -1 -7 -4.5t-4.5 -9t-2 -9.5t-1.5 -11t-1 -9q-2 -11 -4.5 -18t-4.5 -8.5t-2.5 -4.5z" />
<glyph unicode="$" horiz-adv-x="405" d="M59 118q1 49 17 83q1 1 3 9t7 9q6 1 18 8.5t23 5.5q9 -2 22 5.5t19 17.5q3 7 4 11t1 6.5t-1 8.5t-2 11q-2 21 -11.5 45.5t-17 40.5t-7.5 41t13 53q1 1 2 4q20 41 39 45q21 4 35 2v11q2 4 5 10.5t4.5 10t5 8.5t8.5 9l-4 9q4 2 5.5 6t2.5 10t2 10q5 42 12 54q2 3 6.5 5.5 t7.5 5t1 5.5q27 13 36 16q9 -3 10 -10.5t-1.5 -19t-1.5 -15.5q6 -13 -2 -40t-1 -42q-4 -27 3 -37q-2 -3 -2.5 -15t-6.5 -15l-2 -4q32 -20 39 -41q3 -13 13.5 -25t12 -19t-8.5 -36q-5 -11 -14 -12t-19 4.5t-21.5 8.5t-21.5 -1l-29 -11q-28 -10 -35 -26q-6 -11 -4 -16 q3 -12 6.5 -19t5.5 -13.5t3 -21.5q0 -11 6 -37.5t3.5 -50.5t-18.5 -57q-16 -35 -34 -51q-1 -6 -5 -17.5t-6.5 -21t-1.5 -17.5q-2 -5 -5.5 -13.5t-7 -14.5t-9.5 -11l4 -6q-4 -3 -5.5 -7.5t-2.5 -10.5t-2 -10q-5 -40 -13 -54q-1 -2 -6 -4.5t-7.5 -5t-0.5 -6.5q-3 -1 -16 -7 t-21 -7q-9 2 -10 9t2 18t2 16q-6 13 1.5 40.5t-1.5 41.5q8 25 0 36q2 3 2.5 12.5t1.5 12.5q-4 0 -6 2q-24 22 -23 71z" />
<glyph unicode="%" horiz-adv-x="768" d="M150 433.5q-1 21.5 0 36.5t6 42.5t6 40.5q3 30 7.5 45t8.5 17.5t11.5 8t13.5 15.5q14 24 24.5 39.5t17.5 25.5t21.5 21t20 15.5t30 20t37.5 23.5q20 12 40 -18t20 -57q0 -40 -6 -74.5t-12 -53.5t-23 -62t-25 -66q-7 -19 -25 -40.5t-22 -27.5q-30 -38 -65 -41 q-35 -6 -54 16q-15 16 -23 34t-9 39.5zM180 -66q-1 55 37 150t43 143q46 62 85 122.5t69 96.5t96 99q7 9 21.5 28.5t23.5 30.5t25.5 23t35.5 18q3 1 13.5 5t16.5 5t14 1.5t12.5 -4.5t5.5 -15q-1 -7 3 -17t7.5 -17t1.5 -16.5t-12 -17.5q-40 -9 -72.5 -38t-64.5 -70t-58 -60 q-23 -57 -42 -90t-31 -47t-24.5 -30t-31.5 -53t-43 -101q1 -36 -12.5 -107.5t-13.5 -105.5q-8 -44 -39 -55q-6 1 -13 2t-10 1t-8 2.5t-10 6.5q-8 16 -9 53.5t-16 56.5zM239 463.5q2 -20.5 27 -29.5q11 -4 17 3.5t10.5 21.5t9.5 20q17 21 29 47.5t15.5 53t-9 46.5t-41.5 25 q-23 4 -34 -6.5t-11 -30.5v-45q1 -18 -7 -51.5t-6 -54zM435 17q0 16 5 54.5t6 49.5q3 31 7.5 46.5t9 18t12 8t12.5 15.5q17 27 27 43t27 31t22 19t35.5 23t42.5 27q18 12 37.5 -18t21.5 -58q0 -40 -6 -74.5t-12 -53.5t-22.5 -61.5t-24.5 -66.5q-5 -15 -13 -25.5t-19 -21.5 t-17 -20q-10 -15 -28 -27.5t-36 -13.5q-37 -3 -53 16q-19 20 -26.5 46.5t-7.5 42.5zM525.5 32q2.5 -20 27.5 -28q10 -4 16 2.5t11 20.5t10 20q17 21 29 47.5t15.5 53t-9 46.5t-41.5 25q-23 4 -34 -6.5t-11 -30.5v-45q1 -17 -7.5 -51t-6 -54z" />
<glyph unicode="&#x26;" horiz-adv-x="948" d="M25 664q29 42 133.5 100t191.5 106t88 76q-1 7 5.5 18.5t7.5 14.5q1 8 12.5 21.5t13.5 17.5q4 4 10.5 13.5t12.5 15.5t14 8q3 -2 10 -3.5t11.5 -3t8.5 -5t5 -9.5q-5 -7 -14 -17t-11 -13t-5.5 -14.5t1.5 -20.5q-15 -39 1 -50t54.5 -7t86.5 -5q68 -13 118.5 -37t85 -69 t37.5 -106t-34.5 -153t-120.5 -204q-97 -132 -193.5 -214.5t-220.5 -127.5q-1 0 -15 -5t-18.5 -6.5t-17 -5t-18.5 -3.5t-15.5 0.5t-15.5 4t-11 9.5q-55 67 -43 166q0 5 -1.5 16t-1.5 20.5t3 16.5q13 40 27 61.5t53 67.5q76 94 164 151q23 15 47.5 4.5t26.5 -34.5 q1 -30 -5.5 -58t-25 -56t-32.5 -47.5t-44.5 -47t-43.5 -38.5t-46 -38q-25 -18 -4 -78q7 -33 63 -33q80 1 188.5 96.5t188.5 229.5q37 60 49 258q6 110 -100 181q-69 47 -132 50q-37 1 -38 -18q1 -8 -0.5 -44t4.5 -42q-7 -6 -2 -18t-2 -19q7 -3 1 -9t-5 -9q-3 -6 -5 -18.5 t-5 -18.5q-4 -1 -12.5 -5.5t-12 -5t-12.5 2.5l4 2q-5 14 -9.5 39.5t-6.5 32.5q0 3 -1.5 13.5t-0.5 16.5q2 9 -2.5 30t0.5 30q-16 28 -90 -1t-143.5 -74t-92.5 -69q-69 -69 -91 -60q-11 5 -7 30zM305 256q0 -14 14 -14q19 -1 32 12.5t18 26.5t12.5 40.5t9.5 34.5l-6 31 q-11 2 -19.5 0t-14 -10t-8.5 -13.5t-7.5 -18t-5.5 -15.5q-26 -59 -25 -74z" />
<glyph unicode="'" horiz-adv-x="350" d="M250 1096h2q0 12 3 36t3 37q3 5 5 15t5 14q3 8 5.5 30t9.5 32q-1 8 3.5 20.5t4.5 15.5q-4 1 -0.5 9t2.5 10q2 11 1 20.5t1.5 18t11.5 12.5q1 7 11 15t12 12q3 6 9 10.5t15 9t13 8.5q6 3 14.5 10t16.5 11.5t16 3.5q3 -3 10 -8t11 -10.5t3 -12.5q-56 -42 -59 -94 q-9 -12 -14 -25.5t-9.5 -31.5t-7.5 -27q-1 -7 -9.5 -28t-6.5 -35q-9 -4 -8.5 -16.5t-8.5 -16.5q4 -7 -2.5 -11t-7.5 -8q-3 -4 -8.5 -14t-11.5 -16q-4 0 -12 -2t-13.5 -1t-9.5 7z" />
<glyph unicode="(" horiz-adv-x="1073" d="M61 -178q17 168 48 293l34 145q1 2 11 27t12 35q6 35 20 80t26 74.5t32 77t24 56.5q2 5 15 49q2 3 10.5 18t11.5 21q3 7 9 27.5t12 30.5l20 32t21 37q12 36 18 52q14 17 39 69t43 72q0 17 6 26q19 30 43.5 89t40.5 84q3 4 6.5 22t7.5 25q25 44 65.5 125t63.5 116 q6 9 18 38.5t19 41.5q4 7 19.5 26.5t21.5 30.5q44 72 87.5 120.5t101.5 78.5q5 2 17.5 12t19.5 13q24 12 40 12q3 0 16 -11t28 -29t29 -40t16 -43.5t-8.5 -39.5t-47 -29t-96.5 -11q-14 0 -27.5 -8.5t-25 -23t-19.5 -27t-15.5 -27t-8.5 -16.5q-2 -3 -13 -13t-14 -14 q-21 -35 -62.5 -114t-60.5 -113q-2 -3 -12.5 -12t-13.5 -15q-3 -5 -8 -20.5t-9 -22.5q-81 -137 -211 -340q-1 -2 -9.5 -9t-10.5 -11q-7 -11 -15.5 -35t-15.5 -35q-1 -1 -5.5 -4t-8.5 -6.5t-6 -7.5t-4 -18.5t-5 -20.5q-5 -6 -19.5 -19.5t-19.5 -19.5q-8 -16 -18.5 -50.5 t-17.5 -47.5q-3 -5 -8 -27t-9 -31q-11 -21 -33 -51q-1 -2 0 -3.5t2 -6t1 -8.5q-1 -16 -23 -70q-2 -4 -4 -16.5t-4 -18.5q-3 -9 -23 -33q-1 -4 -1.5 -16t-2.5 -18q-1 -3 -8 -12.5t-8 -14.5q-1 -3 0.5 -22.5t-0.5 -28.5q-5 -25 -17.5 -65t-22.5 -71t-11 -34q-1 -4 -1 -15.5 t-1 -17.5q-2 -9 -12 -45.5t-11 -50.5q0 -5 1 -19t1 -22q0 -3 -3.5 -18t-2.5 -21q0 -5 0.5 -30.5t1 -32t1 -28.5t2 -31t3.5 -27.5t5 -29.5t6.5 -26t9 -28t12.5 -25q2 -13 6 -19q11 -21 38.5 -42t53.5 -27q27 -10 51 -10h33q20 0 41 -10q15 -7 -7 -10q-2 -1 -5 -1t-11.5 -3.5 t-19.5 -9t-18 -7.5q-14 -4 -47 -4q-10 0 -43 6t-52 14q-10 4 -21 11.5t-27 22t-23 19.5q-3 3 -8 17t-7 18q-5 9 -16 49q-33 91 -23 197z" />
<glyph unicode=")" horiz-adv-x="1073" d="M63 -409.5q-2 21.5 8.5 39.5t47 29t96.5 11q14 0 27.5 8.5t25 23.5t19.5 27.5t15.5 27t8.5 16.5q2 3 13 12.5t14 13.5q21 35 62 114.5t61 113.5q2 3 12.5 11.5t13.5 14.5q3 5 8 20.5t9 22.5q81 137 211 340q1 2 9.5 9t10.5 12q7 11 15.5 34.5t15.5 34.5q1 1 5.5 4.5 t8.5 7t6 7.5t4 18.5t5 20.5q5 6 19.5 19.5t19.5 19.5q8 16 18.5 50.5t17.5 47.5q3 4 7.5 25.5t9.5 31.5q5 14 33 51q1 2 0.5 3.5t-1.5 6.5t-1 9q3 30 22 70l3 14q3 13 5 20q3 9 23 33q1 3 1 16t3 19q1 3 8 12.5t8 14.5q1 3 -0.5 22.5t0.5 28.5q5 25 17.5 65t22.5 71t11 34 t0.5 14.5t1.5 17.5q2 14 12 49t11 48q0 5 -1 19t-1 22q0 3 3.5 18t2.5 21q0 5 -0.5 30.5t-1 32t-1 28.5t-2 31t-3.5 27.5t-5 29.5t-6.5 26t-9 28t-12.5 25q-2 12 -6 18q-11 21 -38.5 42.5t-53.5 27.5q-27 10 -51 10h-33q-20 0 -41 9q-15 7 7 10q2 1 5 1t11.5 4t19.5 9.5 t18 7.5q14 4 47 4q10 0 43 -6t52 -14q10 -4 21.5 -12t27 -22t22.5 -20q3 -3 8 -17t7 -18q3 -6 8 -24t8 -25q33 -97 23 -196q-13 -134 -48 -293l-34 -146q0 -1 -11 -25.5t-12 -35.5q-6 -35 -21 -81.5t-25 -72.5t-32.5 -79.5t-23.5 -55.5q-2 -5 -15 -49q-2 -4 -10.5 -18 t-11.5 -21t-9 -27t-12 -30q-4 -8 -19.5 -32.5t-21.5 -37.5q-9 -27 -18 -51q-14 -17 -39 -69t-43 -72q0 -18 -6 -27q-19 -30 -43.5 -88.5t-40.5 -83.5q-3 -4 -6.5 -22t-7.5 -25q-25 -45 -66 -126.5t-63 -115.5q-6 -9 -18 -38.5t-19 -41.5q-4 -7 -19.5 -26.5t-21.5 -30.5 q-44 -72 -87.5 -120.5t-101.5 -78.5q-5 -2 -17 -11.5t-19 -12.5q-24 -12 -41 -12q-3 0 -16 11t-28 29t-29 39.5t-16 43z" />
<glyph unicode="*" horiz-adv-x="604" d="M71.5 669q-6.5 19 6.5 40q10 11 23 17.5t31 12t26 9.5q19 10 45 4l4 6q6 -2 17.5 3t13.5 5q5 0 10 2t4 6t-5 6t-7.5 3t-10 2.5t-10.5 2.5q-15 3 -31 15q-8 4 -20 20q-4 6 -13.5 16t-14.5 19t-5 19q0 19 14.5 37.5t36.5 17.5q14 -1 24.5 -7.5t22.5 -19t17 -16.5 q15 -10 18 -35h8q-1 -5 2 -9t8 -7.5t7 -6.5l4 -4t4 -3.5t4 1.5q4 4 4.5 10t-1 14.5t-1.5 12.5q-2 15 2 37q2 8 13 31q3 6 7 17t6.5 18t8 15t12.5 13q14 12 38.5 12t29.5 -20q2 -19 0.5 -27.5t-8 -27.5t-8.5 -27q-5 -21 -25 -41l2 -6q-4 -3 -6 -7.5t-3.5 -11.5t-2.5 -10 q-7 -14 -4 -14q6 -1 11.5 2t12.5 10.5t10 10.5q5 4 35 22q4 2 8.5 3.5t11.5 3.5t11 3q8 1 24.5 6t24 6.5t21.5 -1.5q16 -7 22.5 -26t-6.5 -40q-10 -11 -23 -17.5t-31 -12t-26 -9.5q-19 -10 -45 -4l-4 -6q-6 2 -17.5 -3t-13.5 -5q-5 0 -10 -2t-4 -6t5 -6.5t7.5 -3.5 t10.5 -2.5t10 -2.5q15 -3 30 -14q8 -4 21 -21q4 -6 13.5 -15.5t15 -18.5t4.5 -19q0 -19 -15 -37.5t-37 -17.5q-14 1 -24.5 7.5t-22 19t-16.5 16.5q-15 10 -18 35h-9q1 5 -1.5 8.5t-7.5 7t-7 6.5l-4 4t-4 3.5t-4 -1.5q-4 -4 -4.5 -10t1 -14.5t1.5 -12.5q2 -14 -2 -36 q-2 -8 -13 -31q-2 -6 -6.5 -17.5t-7.5 -18.5t-8.5 -15t-12.5 -13q-15 -12 -38 -11.5t-29 20.5q-2 19 -0.5 27t8 27t8.5 27q5 21 25 41l-2 7q4 3 6 7.5t3.5 11t2.5 9.5q3 7 4 9t0 6q-6 1 -11.5 -2t-13 -11t-10.5 -10q-8 -6 -34 -22q-4 -2 -31 -11q-8 -1 -24.5 -6t-24 -6 t-21.5 2q-16 7 -22.5 26z" />
<glyph unicode="+" horiz-adv-x="684" d="M111 219q2 10 12.5 25.5t21.5 15.5q22 0 64 -14q59 -13 78 -13q8 0 25 -3t20 -3q19 -3 28 6q16 19 19 46q3 13 5.5 43t6.5 47q5 22 47 68t66 46q9 0 21.5 -6.5t11.5 -15.5l-5 -8q-48 -68 -69 -113t-33 -111h6q12 0 38.5 5.5t33.5 9.5l35 10q16 0 51.5 -27t32.5 -45 q-2 -10 -13 -25.5t-22 -15.5q-7 0 -16.5 2.5t-20 7t-14.5 5.5q-35 14 -58 14q-3 0 -45 6q-20 3 -26 -6q-18 -21 -21 -47q-3 -13 -5.5 -42t-6.5 -46q-5 -22 -47 -68.5t-66 -46.5q-9 0 -21 7t-9 16l2 6q6 9 21 30t22 31q34 45 48 80.5t11 81.5q-1 4 -3.5 6t-9 1t-11.5 -2 t-15.5 -3.5t-15.5 -3.5q-10 -2 -28 -7t-24 -7q-31 -9 -36 -9q-16 0 -52.5 26.5t-33.5 45.5z" />
<glyph unicode="," horiz-adv-x="268" d="M102 49q3 3 2 16t5 15q0 14 11 34.5t13 28.5q6 0 24 4.5t29.5 2.5t16.5 -15q9 -10 3 -41t-5 -41q-2 -4 -4 -11t-3.5 -10.5t-4.5 -9t-7 -10.5l4 -6q-6 -3 -6.5 -14.5t-1.5 -14.5q0 -39 -8 -53q-1 -3 -7.5 -8.5t-4.5 -9.5q-3 -2 -15 -9.5t-20 -9.5q-9 2 -10.5 9t0 18 t0.5 16q-7 13 -2 41t-5 41q4 26 -4 37z" />
<glyph unicode="-" horiz-adv-x="684" d="M111 281q2 8 12 14t22 6q4 0 44 5t51 1q14 -3 40.5 2.5t34.5 5.5q7 0 22 -5t23 -3q35 13 67 14t73.5 -3t72.5 -3q25 2 41.5 -13.5t12.5 -37.5q-2 -10 -13 -25.5t-22 -15.5q-9 0 -27 7t-24 8q-114 12 -152.5 10t-93 -10.5t-98.5 -8.5q-18 0 -53.5 16.5t-32.5 35.5z" />
<glyph unicode="." horiz-adv-x="278" d="M57 10.5q-1 3.5 0 9.5t1.5 10t2.5 10.5t3.5 10.5t4 11t3.5 10q8 24 26 33t48 12.5t47 11.5q9 4 23 1t11 -13q-9 -26 -4.5 -50.5t-5.5 -44.5t-43 -24q-8 -1 -23.5 -4t-26 -5t-24.5 -1.5t-26 4.5q-5 2 -8.5 4.5t-5.5 6.5t-3 7.5z" />
<glyph unicode="/" horiz-adv-x="950" d="M117 49q-4 30 0 66t12.5 80t11.5 65q12 90 48 182t90 201.5t81 181.5q10 30 43 74.5t43 63.5q30 57 62.5 109t48 74t57 75.5t48.5 62.5q16 21 47 70.5t56.5 80t53.5 44.5q4 2 11.5 6t13 6.5t13.5 5.5t11.5 2t8.5 -4.5t4.5 -13t-2.5 -23.5q-6 -24 -1.5 -45.5t-1 -45 t-28.5 -36.5q-69 -39 -146.5 -130.5t-134.5 -192.5q-30 -53 -53.5 -93.5t-35 -58t-20.5 -32t-10.5 -15t-5 -8t-4 -10.5t-7.5 -22.5t-15.5 -42.5t-27.5 -73.5t-44 -113.5q-64 -166 -125 -408q-7 -26 -10 -35.5t-11.5 -29.5t-19 -29.5t-24.5 -11.5q-35 -7 -37 24z" />
<glyph unicode="0" horiz-adv-x="329" d="M-6 23q5 72 37 186q1 4 7 29t9 35t11.5 27.5t19.5 29.5q57 57 69 76q23 34 43 50.5t56 34.5t53 29q2 2 8 2q8 0 15.5 -13t17.5 -15q12 -2 14.5 -17.5t0 -33t1.5 -31.5q6 -6 4 -25t-3.5 -26t-8 -26t-8.5 -26q-49 -176 -188 -334q-36 -42 -46 -49q-12 -12 -36 -12 q-25 0 -44.5 18t-21.5 41q-1 14 -5.5 27.5t-4.5 22.5zM138 144q3 -39 18 -35q7 3 14 8.5t11.5 11t9 15t7 15t6 17.5t4.5 16.5t4 16.5t3 14q2 7 8 24t9 29.5t4 24.5q3 21 -1 46.5t-20 25.5q-8 0 -10 -2q-25 -21 -45 -95l-13 -47q-10 -35 -9 -85z" />
<glyph unicode="1" horiz-adv-x="241" d="M-51 -88q3 8 18.5 24t18.5 25q2 6 10.5 14.5t11.5 14.5l60 92q7 12 31 81t34 89q24 56 29 74l2 14q-2 2 -9 6t-8 8q-11 25 -2 43q3 6 15.5 27t18 28t17.5 20t26.5 18.5t33.5 7.5l8 -11q15 -91 -2 -155q-4 -14 -11 -28t-18 -32t-16 -28q-5 -9 -22.5 -49t-34.5 -60 q-6 -8 -14.5 -27t-14.5 -26q-7 -8 -19.5 -20.5t-19.5 -20t-16.5 -19t-16.5 -22.5q-14 -24 -54.5 -52t-55.5 -48v7v5z" />
<glyph unicode="2" horiz-adv-x="292" d="M-6 23q-14 12 0 59q9 36 31 56.5t56 38t52 34.5q44 38 49 61q3 12 -3 24t-15 15q-11 3 -16 16t-9 17q-2 3 -2 5t2.5 6.5t3.5 6.5q9 34 43.5 75.5t65.5 41.5q30 0 43 -43q2 -4 12.5 -9.5t14.5 -8.5q17 -17 4 -72q-9 -34 -23.5 -54t-38 -38t-31.5 -27q-40 -43 -75 -65 q-6 -6 -6 -15q-4 -13 0.5 -23.5t14.5 -21.5t13 -16q4 -8 16 -12t23.5 -4.5t19.5 -6t5 -16.5q-6 -24 -15.5 -31.5t-25.5 -10.5t-27 -11q-18 -12 -63 -12q-78 0 -119 41z" />
<glyph unicode="3" horiz-adv-x="339" d="M-6.5 -15.5q-15.5 9.5 0.5 27.5q14 15 60.5 32t62.5 38q2 2 6 20q7 26 -19.5 91t-25.5 67q1 5 19.5 8.5t25.5 3.5q14 0 45.5 19.5t34.5 32.5q2 2 2 4q-3 29 -17 47.5t-31 26t-33 13.5t-23.5 16.5t-2.5 27.5l4 12q20 8 31 8q7 0 25 -2.5t28 -1.5q4 0 4 6l3 4h4q5 0 30 -10 q43 -8 67.5 -25.5t31.5 -52.5q8 -31 4 -51q-7 -27 -46 -69t-44 -60v-8q-1 -11 5 -28.5t3 -28.5q-10 -39 -29.5 -60.5t-48 -35.5t-37.5 -21q-61 -53 -108 -58q-16 -2 -31.5 7.5z" />
<glyph unicode="4" horiz-adv-x="520" d="M-227 -967q4 15 20.5 45.5t20.5 47.5q5 16 25 51t24 43q20 37 45 117.5t43 115.5q52 108 61 127q32 78 68 133q13 19 31.5 60t33.5 63q16 24 35 75.5t29 70.5q6 13 19.5 35t17.5 30q7 14 28 63t37 76q1 1 2 4t2 5q2 9 -3.5 19t-12.5 11q-20 2 -59.5 -15t-57.5 -17 q-31 0 -62 17t-38 44q-1 5 -13.5 19.5t-9.5 25.5q2 14 10.5 27t16.5 21t24.5 22t22.5 20q2 1 10 8.5t11 10t10 8t11.5 7.5t11 3.5t12.5 1.5q13 -2 16.5 -17.5t1.5 -42.5t-2 -34q1 -10 4.5 -17t6.5 -9.5t12.5 -7.5t13.5 -7h8q107 0 148 53q12 16 52.5 101.5t63.5 111.5 q10 12 29.5 37.5t35 45t32.5 36.5q5 5 20.5 21.5t29.5 31t23 21.5q16 11 76 36t74 25q17 0 31.5 -5.5t11.5 -16.5q-5 -33 -21.5 -61.5t-42.5 -39.5q-8 -4 -22.5 11.5t-24.5 15.5q-26 0 -47.5 -22t-41.5 -58t-30 -47q-22 -25 -81 -162.5t-82 -167.5q-4 -6 -47.5 -81 t-59.5 -93v-10q-3 -8 -17.5 -26.5t-15.5 -31.5l-20 -14q-14 -27 -42.5 -95.5t-51.5 -105.5q-82 -129 -113 -215q-17 -51 -51 -102q-19 -29 -43.5 -93t-42.5 -93q-13 -23 -39 -79t-45 -85q-9 -13 -25.5 -57t-36.5 -62q-29 -29 -49 -29q-14 0 -19.5 15t-2.5 30z" />
<glyph unicode="5" horiz-adv-x="380" d="M12.5 26q-0.5 6 0 10t1.5 8t3.5 7t5.5 4q39 13 122 17q7 0 11.5 -12.5t11.5 -10.5q33 8 47 68q1 4 4.5 13.5t5.5 17t2 14.5q0 2 1 12t0 15.5t-5 9.5q-11 9 -28 31t-31 30q-84 55 -80 197l4 14q28 12 41 12q20 0 50.5 -22.5t53.5 -22.5q14 0 17 2q22 11 39 11 q9 0 25.5 -2.5t25.5 -2.5q4 0 11 1.5t11 1.5q1 0 4 -3.5t5 -3.5q3 0 8.5 1t7.5 1q12 0 26 -26t11 -39l-4 -8q-39 -39 -107 -39q-38 0 -47 4q-3 0 -2.5 3t2.5 5q2 10 19 25t18 18q4 13 -15.5 23t-35.5 10q-25 0 -40.5 -9.5t-14.5 -29.5q3 -28 22 -52.5t45 -37.5q5 -2 12 -6 t11 -6t9.5 -3.5t10.5 -1.5l2 2q13 -5 18.5 -24.5t8.5 -24.5q4 -6 4.5 -14t-0.5 -13t-5 -17.5t-5 -14.5q-15 -61 -93.5 -147.5t-134.5 -86.5q-60 0 -71 35q-2 8 -8.5 16.5t-6.5 14.5q0 2 -1 8l-1.5 9t-1 9z" />
<glyph unicode="6" horiz-adv-x="374" d="M-84 10q8 37 37 37q25 0 31 8q11 10 27.5 24t23 20.5t14 21t12.5 35.5q15 57 74 170q3 6 1.5 19.5t0.5 19.5q4 16 11 31t19 31t19.5 25.5t24.5 28.5t22 25q19 26 39 26q9 0 11 -2q6 -9 2 -20q-2 -10 -16 -26.5t-17 -24.5q-4 -10 -40.5 -82t-45.5 -111q-16 -58 10 -96 l4 -2q9 0 19.5 6t26 17.5t18.5 13.5q11 7 33.5 25t40.5 27t36 9q14 0 17.5 -15t-0.5 -28q-6 -25 -30.5 -59.5t-47.5 -59.5t-60.5 -63t-48.5 -49q-4 -5 -13 -15.5t-13.5 -15.5t-12.5 -12t-18 -12q-35 -13 -41 -13h-10q-2 9 -12 21t-13 18q-5 14 -2 30.5t-3.5 30t-25.5 13.5 q-15 0 -36 -19t-31 -22l-12 -12q-3 2 -11.5 6.5t-12 9t-1.5 10.5zM166 102q-8 -32 6 -32q7 0 19.5 8.5t26.5 21t18 15.5v2q2 8 16 18.5t16 18.5v8l-5 4q-5 4 -9 4h-4q-5 -4 -42 -25.5t-42 -42.5z" />
<glyph unicode="7" horiz-adv-x="290" d="M4 -145q0 3 1 8.5t1 7.5q6 22 30.5 64t29.5 65l2 4q15 20 22 51q6 21 21 58t20 57q3 10 8 30.5t8 30.5l-6 7l19 65q0 1 6 10.5t13.5 22.5t10.5 22l-8 17q-55 -14 -94 -72q-12 -17 -42 -20q-24 -2 -22 14q0 3 1 6q4 12 14.5 24t21.5 21.5t30.5 21.5t30.5 18t32 16.5 t26 13.5q18 9 35.5 20.5t41 29t34.5 24.5h8q25 0 31 -11q6 -14 -2 -47q-6 -20 -26.5 -63t-25.5 -66l-2 -6q-13 -6 -16 -20v-7q0 -1 2 -3.5t3.5 -5t0.5 -3.5l-2 -6h-2q-19 -25 -41.5 -77.5t-40.5 -78.5q-17 -25 -45.5 -74.5t-40.5 -68.5q-6 -9 -16.5 -27.5t-17 -28.5 t-18.5 -22.5t-26 -21.5h-10z" />
<glyph unicode="8" horiz-adv-x="313" d="M-6 -8q-3 42 14 108q13 55 35 72q5 3 16 8t18 10t9 13q1 4 -6 3q-21 -2 -23 -1q-13 8 -4 35q3 18 15 43q4 9 7 13.5t12.5 10.5t12.5 8q65 49 109 62q24 7 42 27.5t27.5 41t29.5 39t48 21.5l6 -10q14 -83 -2 -152q-15 -53 -43 -84l-12 -35l8 -6q3 -28 -6 -59 q-15 -61 -93 -147.5t-134 -86.5q-3 0 -9.5 1t-9.5 1l-2 2q-45 14 -51 33q-2 6 -8 14.5t-6 14.5zM123 113q2 -8 2 -37q-1 -34 4 -35q1 0 4 2q33 29 44.5 53t21.5 74q3 9 -4 18t-19 9q-29 0 -47 -60zM166 303q-3 -10 4.5 -13.5t20 -7t18.5 -10.5q8 -5 18 -0.5t17 11.5 q12 16 20 57l4 12q-11 17 -24 17q-21 0 -47 -22.5t-31 -43.5z" />
<glyph unicode="9" horiz-adv-x="376" d="M38 203q-4 8 3 41q9 36 43 73t69.5 61t77.5 46q22 12 111 74h8q26 0 31 -11q6 -14 -2 -51q-7 -26 -27.5 -72t-25.5 -59q-2 -5 -9 -11.5t-8 -10.5v-4q0 -2 3.5 -7.5t2.5 -7.5l-2 -4h-2q-19 -25 -41.5 -77.5t-40.5 -78.5t-47 -77.5t-39 -67.5q-6 -8 -20 -33t-26 -39.5 t-31 -25.5h-11l2 14q4 28 31 77t31 58q4 10 11.5 27.5t12 30t7.5 24.5q4 14 16 41t16 43q11 28 17 62q1 4 -3.5 5t-11.5 1q-22 0 -57 -35q-43 -39 -61 -27q-24 13 -28 21zM139 309q-6 -30 8 -30q19 0 64 30q16 9 31 53l-9 19q-82 -21 -94 -72z" />
<glyph unicode=":" d="M37 70q14 30 47 51.5t66 21.5l6 -22q3 -4 12 -12.5t14 -14.5t4.5 -15t-10.5 -18q-49 -45 -94 -53q-22 -3 -37.5 20.5t-7.5 41.5zM96 459q14 30 47 51.5t66 21.5l6 -22q3 -4 12 -12.5t14 -14t5 -14.5t-10 -18q-50 -46 -95 -54q-22 -3 -37.5 20.5t-7.5 41.5z" />
<glyph unicode=";" d="M96 459q14 30 47 51.5t66 21.5l6 -22q3 -4 12 -12.5t14 -14t5 -14.5t-10 -18q-50 -46 -95 -54q-22 -3 -37.5 20.5t-7.5 41.5zM102 49q3 3 2 16t5 15q0 14 11 34.5t13 28.5q6 0 24 4.5t29.5 2.5t16.5 -15q9 -10 3 -41t-5 -41q-2 -4 -4 -11t-3.5 -10.5t-4.5 -9t-7 -10.5 l4 -6q-6 -3 -6.5 -14.5t-1.5 -14.5q0 -39 -8 -53q-1 -3 -7.5 -8.5t-4.5 -9.5q-3 -2 -15 -9.5t-20 -9.5q-9 2 -10.5 9t0 18t0.5 16q-7 13 -2 41t-5 41q4 26 -4 37z" />
<glyph unicode="&#x3c;" horiz-adv-x="405" d="M78 696q-2 9 15 39t18 35q2 12 13.5 21.5t33 19.5t24.5 12q10 5 15.5 12.5t7 7.5t16.5 -1q6 -2 19 -3t18 -3q9 -4 29 -0.5t26 -1.5q4 -3 20 -8.5t21 -12.5q5 -14 -14 -14q-50 0 -147 -72q-8 -6 -20.5 -30t-12.5 -25q-18 -25 10 -78q2 -4 5 -11.5t6 -12.5t7 -9t16 -8 t17 -8q5 -2 8.5 -5.5t8.5 -11t8 -10.5q6 -5 13.5 -14.5t14.5 -15.5t15 -9q7 -3 21.5 -12t25.5 -10q6 0 11 -7.5t3 -13.5q-2 -7 -6 -10.5t-11 -3.5t-12.5 0.5t-14.5 2t-13 1.5q-8 1 -16.5 5t-13 6.5t-15 11.5t-12.5 10q-6 5 -15 13t-17 14.5t-18 11.5q-41 23 -59 57 q-19 35 -37 74q-8 13 -8.5 35t-3.5 32z" />
<glyph unicode="=" horiz-adv-x="684" d="M111 281q2 8 12 14t22 6q4 0 44 5t51 1q14 -3 40.5 2.5t34.5 5.5q7 0 22 -5t23 -3q35 13 67 14t73.5 -3t72.5 -3q25 2 41.5 -13.5t12.5 -37.5q-2 -10 -13 -25.5t-22 -15.5q-9 0 -27 7t-24 8q-114 12 -152.5 10t-93 -10.5t-98.5 -8.5q-18 0 -53.5 16.5t-32.5 35.5z M117 453q0 8 11 14t24 6q5 0 43.5 4t50.5 2q14 -5 41.5 0.5t34.5 5.5q6 0 21.5 -4.5t23.5 -1.5q35 13 66.5 14t73 -3t73.5 -3q23 1 39.5 -15t13.5 -36q-2 -10 -13.5 -25.5t-23.5 -15.5q-7 0 -25.5 7t-25.5 8q-113 12 -151 10t-93 -10.5t-100 -8.5q-18 0 -53 16.5t-31 35.5z " />
<glyph unicode="&#x3e;" horiz-adv-x="405" d="M78 455q-3 7 2 9.5t12 2.5q48 0 150 72q7 6 17.5 28t14.5 27q16 25 -12 78q-2 4 -5 11.5t-6 12.5t-7 9q-5 5 -16.5 9.5t-14.5 6.5q-5 2 -9.5 6t-9.5 11t-8 10q-4 4 -12.5 14.5t-15.5 16.5t-15 9q-7 3 -20.5 11.5t-24.5 9.5q-7 0 -11.5 6.5t-4.5 13.5q5 15 24 16t33 -3 q22 -4 58 -35q4 -3 20.5 -17.5t28.5 -21.5q40 -21 59 -57q29 -56 39 -72q6 -14 6 -36.5t4 -33.5q2 -9 -14.5 -38.5t-17.5 -34.5q-2 -12 -14 -22t-33.5 -20t-24.5 -12q-8 -4 -13 -9.5t-5.5 -7t-5.5 -2.5t-13 3q-38 5 -39 6q-8 3 -28 -1.5t-27 1.5q-3 2 -19.5 8.5t-21.5 14.5z " />
<glyph unicode="?" horiz-adv-x="466" d="M144 16.5q1 9.5 2.5 17t6 20.5t5.5 18q9 24 27 33t47.5 12.5t46.5 11.5q9 4 23.5 1t10.5 -13q-8 -26 -3.5 -50.5t-6 -44.5t-43.5 -24q-8 -1 -23.5 -4t-26 -5t-24.5 -1.5t-26 4.5q-9 3 -13 9t-3 15.5zM170 393q-9 36 0.5 64.5t31 60t29.5 55.5q19 62 15 78q-3 11 -14.5 19 t-20.5 6q-11 -2 -21 7.5t-16 10.5q-4 0 -4 19q-9 34 2 85.5t39 67.5q29 14 57 -18q5 -2 17 -2.5t16 -1.5q24 -6 37 -62q8 -24 5.5 -48.5t-6.5 -36t-12.5 -30.5t-11.5 -32q-4 -15 -4.5 -33t-9.5 -35q0 -1 -15 -36.5t-28 -69t-12 -35.5q2 -8 15 -31t10 -44t-31 -52 q-6 -6 -22 13.5t-30 45t-16 35.5z" />
<glyph unicode="@" horiz-adv-x="948" d="M27 691v3q-3 2 24.5 28t59 54t34.5 33q10 10 23 18.5t23 12.5t29 11t28 11q53 23 144 31t162 4.5t108 -10.5q68 -13 122.5 -39t95 -74.5t50 -112t-24.5 -158t-117 -206.5q-4 -6 -24.5 -34t-32 -43t-35.5 -45.5t-41 -49t-44 -45t-48.5 -41.5t-49.5 -31.5t-52.5 -23 t-52.5 -6.5t-54 10q-40 13 -53 88q-4 5 -10 3t-15 -9q-14 -13 -46.5 -48.5t-59 -56.5t-57.5 -31q-19 -7 -38 -2t-20 21q-8 37 19 92q10 25 39 90q36 94 65 135q60 92 146 129q17 7 22.5 -7t3.5 -32q-28 -115 -84 -129q-4 -1 -14 -3t-13.5 -2.5t-11 -3t-11 -5t-8 -6.5 t-7.5 -10q-26 -51 -37 -101q-1 -4 -4 -13t-4 -14.5t-3 -13.5t-2 -13t0.5 -10.5t4 -8.5t8.5 -4q30 -4 51 16t42 61.5t30 53.5q3 5 61 106v14q10 8 28.5 29.5t34.5 32t35 8.5q8 -1 9.5 -5.5t-2 -11t-7.5 -14t-8 -16t-4 -14.5q-1 -21 -7 -49t-11 -48t-5 -45t9 -45 q42 -105 150.5 -9t207.5 261q38 62 48 94q23 78 -7 201q-24 96 -104.5 155t-181.5 69.5t-213.5 -28t-196.5 -124.5q-45 -45 -76 -53q-25 -6 -20 29z" />
<glyph unicode="A" horiz-adv-x="1523" d="M-20 539q1 1 0.5 5t1.5 9q9 26 74 70t91 53q46 17 91 37q156 65 309 90q16 3 67.5 12.5t69.5 11.5q11 1 58 5.5t71 7.5q28 59 33 78l55 135q1 3 16.5 37.5t35.5 80t32 70.5q21 47 64 162q2 6 5.5 21.5t4.5 17.5q7 19 25.5 39.5t43.5 31.5q11 5 23 9l16.5 5.5t10 5t8 8.5 t6.5 15q7 22 12 99l4 6q3 6 2 8q0 34 2 41q4 9 9.5 23t12 33t9.5 28q-3 7 0 14q2 5 15 13.5t24 11.5q50 16 70 16h4q29 -5 40 -49q6 -25 6 -45q0 -14 -3 -24q-2 -5 -15 -32t-14 -42v-23.5v-47.5q1 -59 2 -138v-71.5v-55.5q-1 -28 -7 -89t-7 -77q-5 -75 -35 -170 q-3 -11 -12 -56t-17 -63q-3 -7 -4 -26.5t-4 -28.5l29 -6q1 0 14.5 1.5t18.5 0.5q11 0 94 -23q2 -1 11 -6t18.5 -10.5t13.5 -9.5q18 -24 20 -27q3 -3 3.5 -11t-0.5 -19.5t-1 -12.5q0 -2 3 -10q2 -5 2 -9q0 -2 -1 -3q-6 -25 -24 -43q-9 -9 -37 -29q-1 -1 -8 -2.5t-10 -3.5 q-6 -3 -22 -16t-24 -17q-10 0 -16 -2q-1 0 -14.5 -10.5t-25.5 -16.5t-21 -4l-3 1q2 2 -1 3q-3 0 -10 -7t-11 -9q-12 -8 -26 -13t-21.5 -10.5t-13.5 -21.5q-5 -19 -2 -31q8 -18 11 -32t3 -34.5v-25.5q0 -3 4.5 -8.5t5.5 -9.5q0 -1 -1 -4t-1.5 -5.5t0.5 -5.5q10 -15 16 -34 t8 -27.5t5.5 -35.5t3.5 -30t5.5 -12t6.5 -14q0 -8 6 -56q6 -42 6 -64v-7q0 -12 7.5 -40.5t3.5 -41.5q-4 -7 -8 -29l3 -6q3 -6 3 -10v-21q-1 -3 -8 -18.5t-7 -20.5q-1 -8 1 -24.5t1 -24.5q0 -9 -4 -20t-11 -26.5t-9 -20.5q-1 -3 -1 -11t-1 -14q-2 -14 -12 -41l-11 -27 q-4 -7 -23 -39.5t-22 -35.5q-23 -14 -53 -19q-8 -8 -16 -6q-9 2 -13 10q1 4 8 18t7 21q1 5 -2 14t-3 11q2 4 7 24q0 13 -5 57q-4 36 -4 59v9q0 2 3 15t2 18q0 15 -3.5 51.5t-3.5 55.5q0 2 4 10l5 10l-5 10q14 124 15 166q0 2 -1.5 11t-2 15.5t1.5 16.5q2 20 8 69t8 68 q1 2 -8 37q0 5 8 21q4 34 2 55q0 2 -3.5 15.5t-4.5 21.5l2 6q2 6 2 10q0 3 -3.5 10l-4.5 9q-1 -1 -4 -6q-9 -22 -11 -77.5t-4 -66.5q0 -3 -6 -16t-6 -19q-1 -10 -1 -36.5t-1 -38.5t-7.5 -39t-8.5 -41q0 -1 2 -7t2 -10q-2 -14 -9 -54t-8 -60q0 -1 2 -8t1 -11 q-2 -13 -3.5 -41.5t-3.5 -42.5q0 -6 6 -22.5t7 -24.5q1 -37 1 -72q0 -58 -3 -110q-1 2 -10.5 15t-14.5 20v20q0 6 -1 30.5t-1 35.5q1 11 1 37v30q0 52 1 62q0 1 -1.5 18.5t-0.5 28.5q11 164 23 239q1 8 1 39.5t1 42.5q1 3 3.5 11.5t4.5 17.5t2 20q0 22 10 77q8 44 7 64 q0 7 -1 11q-4 0 -24 -4q-15 -4 -51.5 -17t-55.5 -18q-6 -2 -20 -3t-21 -3q-18 -5 -67.5 -14.5t-82.5 -22t-59 -35.5q-20 -18 -39.5 -54t-30.5 -67.5t-19 -59.5l-9 -28q-6 -17 -2 -21t9.5 -6.5t4.5 -6.5q-1 -2 -15.5 -7.5t-17.5 -9.5q-10 -14 -33 -67t-34 -74q-8 -19 -39 -98 q-6 -15 -17.5 -37.5t-22.5 -43.5l-11 -20q0 -1 -8 -23t-16.5 -47.5t-18 -53t-12.5 -38.5q-89 -289 -117 -389q-5 -2 -15 -8t-17.5 -10t-10.5 -4q-3 1 -19 2t-20 2q-5 0 -9 4t-3 8q2 5 10 21t10 24q1 3 0 11.5t0 11.5q5 13 16.5 41.5t20 51t12.5 42.5q8 31 66 180q2 7 6.5 24 t11.5 38q2 8 9 26.5t10 26.5q2 3 1.5 9t0.5 9q3 10 14 31t14 27q2 7 4 27.5t2 23.5q0 4 6 15t7 14t1 10t1 10q7 29 21.5 73.5t17.5 49.5q1 3 14.5 36t52 127t82.5 203l1 2q-1 2 -5 3q-2 0 -29.5 -7t-42.5 -8q-23 -1 -77.5 -1t-79.5 -1q-4 0 -19.5 -2.5t-19.5 -1.5 q-4 0 -55.5 5t-55.5 5q-2 1 -10 4.5t-15 6t-10 2.5q-16 2 -22 -13q-7 -18 5 -50.5t28 -57.5q1 -2 6 -5t6 -5q2 -2 5.5 -9.5t6.5 -9.5q7 -4 25 -16.5t34 -22.5t29 -14q64 -29 74 -31q45 0 53 -2q6 0 6 -16q-12 2 -36.5 4.5t-28.5 3.5q-3 0 -16.5 5t-29 11t-16.5 6h-20 q-3 0 -12 8.5t-13 8.5q-3 1 -5.5 -2t-6.5 -2q-3 1 -14 9t-15 11q-2 1 -10.5 2t-11.5 2q-21 13 -37 35q-2 2 -10 4t-10 4q-70 82 -72 119l2 6q2 6 2 10q0 2 0.5 10t0.5 13t-2 11.5t-5 9.5q-1 1 -27.5 16t-34.5 24q-16 18 -28 46q-9 22 -9 39q0 4 1 8zM49 539q-1 -2 -1 -4 q0 -13 30 -43q34 -34 49 -41q56 87 298 179l6 3t5 2l6 2q41 17 99 33q11 3 55.5 16.5t62.5 18.5q17 5 50 13t49 13q15 4 18 12q1 4 2 11t2 10q-6 1 -19 4.5t-18 3.5h-49h-20q-166 0 -371 -78q-7 -3 -26 -8t-25 -8q-12 -6 -48.5 -22.5t-49.5 -24.5q-90 -55 -105 -92zM180 416 q1 -1 20.5 -10t24.5 -11q4 0 5.5 1.5t5.5 0.5q2 -1 15.5 -9.5t18.5 -8.5q5 -1 12 1l7 1q64 -11 131 -11q15 0 31 1q38 0 120 12q3 0 14.5 1t19 3t11.5 6q12 15 22 32.5t21 41t17 35.5q2 2 2.5 10.5t1.5 9.5q24 42 25 45t0.5 11t1.5 8q24 32 24 57v6q-21 0 -31 1.5t-33 -2.5 l-34.5 -6t-36 -8t-36.5 -9.5t-36.5 -10.5t-36.5 -10q-2 -1 -9.5 -5.5t-10.5 -4.5q-37 -8 -115 -45t-119 -68q-26 -21 -53 -65zM774 422q172 33 354 92q-1 8 -2 24.5t-2 22.5t-6.5 18t-5.5 17q-1 4 4 13.5t4 11.5q-5 2 -9 13.5t-5 12.5q-5 8 -16.5 22t-14.5 19q-3 4 -8 7 t-10.5 6t-7.5 4q-24 16 -25 16q-3 1 -27 -3.5t-54.5 -9.5t-45.5 -6q-23 -40 -48.5 -102t-35.5 -82q-3 -6 -16.5 -30.5t-14.5 -28.5q-2 -4 -8 -37zM952 823q13 -3 35.5 -10.5l42 -14t21.5 -7.5q9 -2 63.5 6t63.5 12q27 160 27 309q0 63 -5 123q0 9 -20 19q-30 -57 -85 -159.5 t-92 -172.5t-38 -72zM1120 745q22 -34 41 -43l6 17q3 6 -2 22q-1 0 -4.5 3.5t-7.5 3.5q-5 1 -17 -1t-16 -2zM1171 -61v-6q0 -21 11 -64q1 -3 -1 -26.5t1.5 -43t19.5 -22.5q15 0 27 4q14 27 14 67q0 16 -2 33q0 9 5 30.5t5 29.5q0 5 -1 16.5t-1 15.5q0 20 -5.5 56.5 t-6.5 52.5l4 14q0 3 -2 8.5t-4.5 12t-3.5 8.5q-3 7 -9 30.5t-10 34.5q-2 3 -0.5 15.5t0.5 15.5q-6 6 -12 6q-2 -10 -8 -129q-1 -13 -8.5 -45.5t-7.5 -52.5q0 -9 -2.5 -30.5t-2.5 -30.5zM1174 659q0 -29 24 -63q6 8 6.5 22.5t1.5 18.5q0 1 5 18.5t9 36t3 35t-11 18.5h-24 q-2 -5 -7.5 -14t-6.5 -12q10 -7 10 -12q-11 -43 -10 -48zM1247 551q28 4 101 33q10 4 49 37q2 0 7.5 1t6.5 1q17 17 37 47q4 8 4 18q0 15 -16 23q-2 1 -9.5 2t-9.5 2q-3 1 -6.5 6.5t-5.5 5.5q-1 1 -53 18q-2 0 -12 -1.5t-15 -0.5q-4 0 -10 6t-10 7h-27l-4 -11 q-1 -13 -2.5 -38t-3.5 -45t-6 -37q-15 -67 -15 -74z" />
<glyph unicode="B" horiz-adv-x="1691" d="M39 532q-1 3 -1 9q0 11 3 33q4 34 8 53q45 112 53 133q1 2 8.5 11.5t10.5 14.5q80 144 196 295q8 4 13 9q44 67 106 129q229 225 408 321q4 2 51 31t68 37q61 31 88 41q32 13 83 30t88 28t40 11t8 -3t8 -3q1 0 11.5 4.5t23.5 9t22 5.5q25 5 65 9.5t66.5 6.5t32.5 2 q86 0 150 -33q3 -1 10 -12.5t10 -11.5q2 0 5.5 3t6.5 3q16 0 37 -29q1 -1 1 -6t1 -8.5t4 -3.5q7 0 11 6q0 -2 -1.5 -12.5t-1 -17.5t4.5 -7q3 0 4 3t4 3q4 0 6 -7.5t2.5 -17t1.5 -12.5q16 -23 16 -72q0 -39 -10 -94q0 -16 -2 -30q-5 -21 -24.5 -68t-36 -83.5t-17.5 -37.5 q-38 -69 -102 -155.5t-109 -133.5l-10 7q21 28 67.5 84t67.5 84q11 16 39.5 60t38.5 60q1 2 2 10t2 11q36 65 39 84q1 5 15 160q3 30 -11 47q2 8 6 28q-29 77 -53 101q-3 2 -15.5 2t-17.5 2l-2 8q-2 8 -6 8q-3 0 -10 -10t-10 -10t-16.5 8t-16.5 8q-1 0 -5 -8t-9 -8 q-3 0 -3 3t-3 3t-10.5 -10.5t-10.5 -10.5q-2 0 -15 3t-18 3q5 11 8 31q-1 3 -10 0.5t-10 -2.5q-3 0 -6 -2t-6 -2l-15 -4q7 27 9 31q-1 4 -9 4q-2 0 -4 -1.5t-5 -5t-5.5 -7.5l-7.5 -12t-10 -15q0 10 2 20q-3 4 -23 4q-10 0 -37 -22q0 -2 10 -21q-1 0 -6.5 -4t-7.5 -4 q-9 0 -14 23q1 2 10 -2q11 16 12 24l6 19q0 1 -1 3l-2 1h-3q-4 0 -11.5 -10.5t-10.5 -10.5q-2 0 -5 2.5t-5 -2.5q-5 -9 4 -18q-5 0 -13 8q-2 -9 0 -18q-13 -13 -18 -7q13 35 12 37q2 0 6 4q-6 9 -12 9q-3 0 -9 -7.5t-9 -7.5t-4.5 2.5t-3 7t-1.5 5.5q-5 -5 -6 -13 q-2 -4 4 -39q-3 2 -7.5 10t-8 14.5t-6.5 6.5q-4 0 -4 -8q-21 0 -35 -8q-4 -4 -14 -19q-1 0 -0.5 3t1 7.5t-0.5 10.5q-17 -17 -25 -17q-3 0 -8 5.5t-8 5.5q-2 0 -12 -10.5t-13 -10.5t-5 1.5t-4 4.5t-3 4q-17 -28 -21 -38q-5 2 -11 15t-9 13q-2 0 -9 -7t-10 -7t-4 2t-4 2 q-2 0 -5 -3t-7.5 -8t-7.5 -7q-11 -9 -37 -13q-1 -1 -6 -7.5t-8 -6.5t-8.5 5t-8.5 5t-39 -25.5t-39 -25.5t-1 5t-1 5q-5 0 -16.5 -17.5t-13.5 -25.5q-2 -4 0 -8q4 4 6 4q-7 -17 -25 -29q8 16 6 19q-8 -10 -15 -19.5t-9.5 -13t-6 -6t-8.5 -2.5q-3 0 -2 10t-2 10q-18 0 -30 -10 q-37 -29 -60 -41q-10 -6 -45 -41q-2 -3 -15 -21.5t-20 -27.5q-6 -6 -20 -11.5t-19 -10.5q-33 -29 -63 -62q-2 -2 -6.5 -8.5t-10.5 -16t-10 -14.5q-6 0 -8 -2q-7 -8 -21.5 -26.5t-21.5 -26.5q-1 -1 -6 -3t-8 -5q-7 -8 -39 -50t-43 -53q-2 -2 -8 -13t-7 -13q-3 -5 -15 -17.5 t-17 -19.5q-11 -20 -23 -47q-3 -4 -11.5 -13t-10.5 -14q-5 -9 -40 -71t-57.5 -108.5t-29.5 -76.5l-3.5 -10.5t-3 -10.5t-1.5 -10.5t-0.5 -17t2.5 -23.5q1 -9 18 -43q27 -57 58.5 -101t41.5 -62q3 -4 3.5 -19t-1.5 -24q-5 -22 -24.5 -56t-26.5 -41q-12 -6 -24 -6 q-17 0 -64 70q-3 7 -15 21.5t-18 27.5q-1 3 -2 15t-2 14q-3 6 -14 14t-14 18q-6 22 -15.5 68.5t-13.5 64.5zM281 -387q4 15 12 52.5t10 43.5q7 34 141 185q8 9 36.5 35.5t39.5 41.5q2 15 16.5 40t16.5 32q4 25 18 82l4 2q1 5 1 8t-0.5 5t-0.5 3q3 10 10.5 34t10.5 34 q10 64 20 106q-2 13 -14 29q-9 9 -25 20t-20 11q-2 0 -9.5 -5t-10.5 -5t-14.5 11t-18.5 21q-6 9 -6 41q0 2 1 6.5t2.5 10.5l2.5 10q7 27 28.5 57t55.5 66.5t37 40.5q3 5 8.5 6t7.5 2q1 1 11 12.5t16 16.5q34 23 37 43q2 6 12 91.5t12 92.5q7 35 25 70t30 41q1 0 3 1t6.5 3 t9.5 4q7 15 21 28.5t24 20t12 6.5q8 0 21.5 -12.5t13.5 -22.5q0 -63 -6 -100q-2 -17 -14 -59t-15 -60q0 -22 10 -22q1 0 21 6t48.5 14.5t47.5 11.5q15 3 27.5 6t16.5 4.5t11 2t17 0.5q3 0 6 -2t6 -2t12.5 6t12.5 6q16 0 43 0.5t48 1t23 0.5q9 0 13 -12q8 -2 27 -2t28 -3 q6 -2 21 -10t18 -8q17 0 36 15.5t46.5 43t50.5 43.5q0 -10 -2 -14q-3 -3 -15.5 -17t-19.5 -20q-27 -20 -29 -20q-3 0 -1 2t-1 2t-8.5 -7t-12 -18t-9.5 -14q-3 -9 4 -16q11 -5 36.5 -16.5t47.5 -23t39 -24.5l16 -21q16 -21 27 -28q6 -3 26 -31q2 -4 10 -8l7 -4q19 -23 28 -47 q15 -44 17 -90v-9q0 -25 -4 -61q-5 -44 -9 -55q-1 -4 -7 -20.5t-14.5 -38t-12.5 -33.5q-15 -46 -49.5 -102t-61.5 -77q-5 -3 -14 -15.5t-17 -23t-10 -10.5q-3 0 -2 3t-2 3t-7 -6t-8.5 -13.5t-5.5 -8.5q-5 -7 -40 -35q-6 -5 -19.5 -15.5t-19.5 -15.5q-2 -2 -6.5 -9t-6.5 -9 q-2 -1 -32 -24.5t-61.5 -45.5t-41.5 -22q-3 0 -3 2t-3 2q-2 0 -13 -10t-25.5 -22.5t-22.5 -16.5q-70 -32 -97 -48l-2 11q-34 -25 -47 -31q-11 -3 -30.5 -10t-33 -12t-16.5 -5t-3 3.5t-3 3.5t-18 -8.5t-21 -10.5q-93 -27 -110 -31q-2 0 -10 -6t-11 -6t-5 5t-5 5t-42 -15 t-42 -15t-6 5t-6 5q-8 0 -17 -19q-26 -79 -35 -157q-8 -43 -26 -88q-5 -12 -31.5 -43t-34.5 -31h-16q-32 0 -32 60t30 120q-3 3 -5 14.5t-3.5 21t-3.5 9.5q-3 0 -8.5 -3t-8.5 -3q-15 0 -24 6q-23 23 -37 29q-2 1 -13.5 0.5t-15.5 1.5q-4 3 -11.5 20.5t-10.5 22.5zM422 -301 q12 -12 24 -12q10 0 15 9t10 29q0 3 0.5 5t1.5 4l3 13q2 13 2.5 21t-3.5 11q-7 0 -26.5 -26t-22.5 -38zM582 -315h8q20 -1 52 3q40 4 48 5q5 1 16.5 9.5t14.5 8.5q26 0 56 7.5t68 21t48 16.5q5 2 23.5 3.5t25.5 4.5q7 4 18.5 10.5t18.5 10.5q29 18 76.5 42t58.5 30 q198 128 305 253q97 114 125 224q3 14 3.5 16t1.5 10.5t1 10t-1 15.5t-1 26q0 3 1 8t1 8q-6 12 -6 14q-1 6 0 20l2 15q-8 24 -8 51q-8 -2 -15 13t-13 35t-9 24q-24 29 -31 29q-3 0 -3 -3t-3 -3q-6 0 -17.5 26t-29.5 21q-1 1 -1 6.5t-1 9.5t-4 4t-11.5 -5t-10.5 -5 q-11 0 -24 20.5t-19 20.5q-3 0 -7.5 -5t-7.5 -5t-4 5t-4 5t-4.5 -1.5t-3 -4.5t-2.5 -4h-29q-22 0 -67 18l-7 -20q-8 3 -22 -8.5t-32.5 -28.5t-29.5 -23q-15 -8 -38.5 -13.5t-30.5 -8.5q-5 -2 -19 -13.5t-16 -11.5q-3 0 -8 10q-10 -15 -23 -28t-18 -13q-3 0 -5 3.5t-5 3.5 t-30 -16.5t-36 -18.5q-18 -4 -56.5 -16.5t-54.5 -16.5q-4 -12 -6 -16q-2 -18 -13.5 -51t-12.5 -37q-2 -7 -7 -21.5t-8 -25.5t-4 -15q-1 -3 -1 -4.5t0.5 -2l1 -1t0.5 -2.5t-1 -6l-53 -222q2 0 3.5 -2t4.5 -2t78 35t78 35t4 -2t4 -2t6.5 2.5t7.5 6.5t6 5q16 7 41.5 12t32.5 5 q8 0 11.5 -1t9.5 -6t4 -17t-4 -34q-4 -4 -27.5 -31t-38.5 -38q-8 -6 -36 -20.5t-38 -24.5q-3 -2 -10.5 -11t-9.5 -10q-7 -4 -21.5 -9.5t-19.5 -8.5q-27 -19 -76.5 -61.5t-66.5 -55.5q-11 -33 -15 -49q-10 -55 -28 -137zM745 1397q0 2 8.5 9.5t12.5 6.5q-3 2 -21 -16z M797 543h20h1q9 -1 91 33q87 36 146 63q52 25 116 70q-5 4 -12 0t-15 -11t-11 -8q-4 -4 -29 -1t-29 3q-9 0 -28 -8t-25 -8q-2 0 -8 1.5t-8 0.5q-67 -47 -101 -47q-2 0 -9 -2t-9 -2q-11 -11 -15 -19q-5 -3 -13 -4t-11 -4q-35 -31 -51 -57zM891 1495q5 7 8 23q13 0 16 -7 q-12 -19 -22 -22zM934 1509l8 19q6 0 6 -12zM1006 1556q6 0 11.5 -2t6.5 -2q-3 0 -9 2t-9 2zM1118 1595q4 -11 2 -18q-2 4 -2 18zM1466 1622l9 18q6 0 6 -18h-15zM1581 1651h10q4 0 4.5 -5.5t3.5 -5.5t4.5 3.5t4.5 3.5t9.5 -8.5t10.5 -8.5q0 -4 -6 -16q0 -19 12 -31l-6 -22 q-2 2 -4 8t-4.5 11t-5.5 5t-5 -3t-5 -3t-6.5 14.5t-8.5 33t-8 24.5zM1675 1565h8q6 0 13.5 -22t7.5 -30l8 -8q0 -3 3 -17.5t3 -21.5q0 -30 -10 -75q2 10 2 24q0 30 -12 72q-1 4 -3.5 8t-7 7.5t-6.5 6.5q-6 18 -6 56z" />
<glyph unicode="C" horiz-adv-x="1073" d="M-115 -459q17 175 47 293l35 146q1 2 11 26.5t12 34.5q6 35 20 80.5t25.5 74.5t32.5 77.5t24 56.5l14 49q2 3 11 18t12 21q3 7 9 27t12 30q3 5 18.5 31t21.5 39q1 3 19 51q14 17 39 69t43 72q0 18 6 27q19 30 43.5 88.5t40.5 83.5q3 4 6.5 22t7.5 25q25 45 66 126.5 t63 115.5q6 9 18 38.5t19 41.5q4 7 19.5 26.5t21.5 30.5q44 72 87.5 120.5t101.5 78.5q5 2 17 11.5t19 12.5q24 12 41 12q41 0 82 -32q4 -4 19.5 -13t21.5 -14q1 -2 5.5 -10t7.5 -10q36 -17 63 -74q2 -5 8.5 -12t11.5 -7q4 0 9.5 2.5t9.5 2.5q15 0 26 -16t11 -40 q-1 -9 -11 -35t-10 -39q0 -4 3.5 -11t2.5 -11q-2 -35 -14 -94q-4 -18 -20 -49v-12.5t-4 -14.5q-1 -2 -15 -19.5t-18 -25.5q-10 -23 -27 -88q-4 -18 -4 -57q-2 -10 -14 -33q-5 -14 -10.5 -44.5t-15.5 -59.5t-30 -54q-3 -4 -8 -7t-13 -7t-11 -6q-8 -5 -20 -13.5t-18 -12 t-17 -6.5t-25 -3q-9 0 -34 18.5t-22 30.5l64 250q1 5 8 12q6 21 20.5 67t26.5 83t13 41q7 28 7 46q0 12 -3 21q-2 7 -17 27q-2 4 -3.5 16.5t-4.5 18.5q0 10 6 16q-14 8 -46.5 42t-53.5 34q-14 0 -27.5 -8.5t-25 -23.5t-19.5 -27.5t-15.5 -27t-8.5 -16.5q-2 -3 -13 -12.5 t-14 -13.5q-21 -35 -62 -114.5t-61 -113.5q-3 -3 -13.5 -12t-13.5 -14t-7.5 -20.5t-8.5 -22.5q-81 -137 -211 -340q-1 -1 -9.5 -9t-10.5 -12q-7 -12 -15.5 -35t-15.5 -34q-1 -1 -6 -4.5t-9 -7t-6 -7.5t-3.5 -18.5t-4.5 -20.5q-5 -6 -19.5 -19.5t-19.5 -19.5 q-8 -16 -18.5 -50.5t-17.5 -47.5q-3 -5 -8 -26.5t-9 -30.5q-10 -21 -33 -51q-1 -2 -0.5 -3.5t1.5 -6.5t1 -9q-2 -19 -22 -70q-2 -4 -4 -16.5t-4 -17.5q-3 -9 -23 -33q-1 -4 -1.5 -16.5t-2.5 -18.5q-1 -3 -8 -12.5t-8 -14.5q-1 -3 0.5 -22.5t-0.5 -28.5q-5 -25 -17.5 -65 t-23 -71t-11.5 -34q-1 -4 -1 -15.5t-1 -17.5q-2 -8 -11.5 -44.5t-10.5 -51.5q0 -4 1 -19t1 -22q0 -3 -3.5 -18t-2.5 -21q0 -5 0.5 -30.5t1 -32t1 -28.5t2 -31t3.5 -27.5t5 -29.5t6.5 -26t9 -28t12.5 -25q2 -12 6 -18q11 -21 38.5 -42.5t53.5 -27.5q27 -10 51 -10h33 q11 0 61.5 15t79.5 32q77 43 179 125q59 48 120 109q47 47 60 65q17 23 28 41q1 2 5.5 13.5t9.5 17.5q1 2 7 8t7 8l9 14q8 13 14 13q21 0 16 -27q-4 -15 -22.5 -39.5t-39 -46t-22.5 -24.5q-27 -36 -33 -41q-119 -119 -217 -181q-6 -4 -22.5 -19t-26.5 -20q-11 -6 -43 -23 t-52 -27t-46 -20.5t-43 -12.5q-4 0 -22.5 -9t-26.5 -12q-14 -4 -48 -4q-9 0 -42 6t-52 14q-10 4 -21.5 12t-27 22t-22.5 20q-3 3 -8 16.5t-7 17.5q-4 8 -16 50q-25 70 -25 148q0 24 2 48zM778 -293q6 6 2 21q15 -10 17 -17q-6 -6 -6 -10q-1 0 -13 6zM820 -108q-2 10 -1 12 l12 47l6 -2q6 -2 11 -2q7 0 22 12l4 -18t2.5 -11t0.5 -7t-0.5 -7.5t-2.5 -11.5q-1 -2 -4.5 -11t-3.5 -14q-1 -2 -3.5 -3t-7 -2t-7.5 -3q-1 -2 0 -8t0 -10q0 -5 -4.5 -20t-5.5 -21q7 -13 6 -17t-4 -7t-8 -7t-7 -6q-3 7 -3 28.5t-1 26.5q1 2 -3 10q-3 6 -3 11z" />
<glyph unicode="D" horiz-adv-x="1921" d="M215 -333q0 12 6 28q3 3 14 13t17 15t15.5 11.5t17.5 9.5q5 3 14 4.5t21.5 3t19.5 2.5q9 3 41 15t43 16q6 2 27 7.5t37 13t30 20.5q7 28 17.5 84l13.5 72q38 188 43 231q1 8 9 28.5t9 28.5q0 2 19 99q38 218 98 465q72 305 98 403q0 8 -4 8q-7 0 -25 5t-20 5 q-4 0 -17.5 -6t-17.5 -6t-4.5 6.5t-3.5 7.5q-3 0 -17 -6.5t-18 -5.5q-3 0 -5.5 2t-6.5 2q-3 0 -11.5 -5.5t-10.5 -6.5q-105 -18 -107 -18q-3 0 -24 5t-25 5q-3 0 -13 -4t-14 -4t-50 2t-50 2q-3 0 -20 11.5t-25 14.5q-26 7 -39 13q-29 19 -30.5 45t17.5 51t52 45q33 13 67 20 q3 1 13 10t14 11q66 30 158 59q4 1 18 10.5t21 12.5q145 53 233 76q4 1 15 4.5t16 3.5q52 8 117 8q8 -1 24 -12.5t28 -23.5l11 -11q4 0 4 2t4 2q3 0 11 -21l8 -20q4 0 5 2t5 2t8 -8.5t4 -15.5t-4.5 -21t-6 -21.5t4.5 -15.5q-1 -2 -5.5 -5t-6.5 -5q4 -2 4 -7.5t-1.5 -13 t-0.5 -12.5h-12q-4 0 -14 19.5t-15 35.5q-1 3 -1.5 18.5t-2.5 20.5q-1 1 -21 11q-11 -22 -12 -25q-1 -4 -1.5 -20.5t-2.5 -24.5q-2 -10 -10 -40t-11 -48q-3 -21 -16 -49q0 -15 6 -21q20 -20 37 -24q3 0 13 6t14 8q10 13 12 25q2 6 -1 20t-1 19l6 28q2 0 4.5 2t5.5 2 q4 0 9.5 -7.5t7.5 -14.5t-4 -60q0 -4 -11 -26q78 -25 99 -25q3 0 9 4t9 4q2 0 15 -4.5t20 -3.5q11 -16 16 -16q4 0 13 2t12 2q11 0 30 -5t34.5 -10t35 -12t21.5 -8q8 -2 43.5 -9t52.5 -15q8 -2 21.5 -12.5t17.5 -12.5q3 -1 11.5 -2t12.5 -2q1 -1 4.5 -8t8.5 -7 q23 -4 40 -11.5t38.5 -22t29.5 -19.5q19 -11 40 -29t34 -31t37 -39.5t33 -35.5q5 -3 9 -19t5 -18q2 -3 19 -20.5t20 -30.5q8 -21 18 -106q0 -10 5.5 -29t5.5 -25q0 -24 -13 -102l-8 -16t-15.5 -29t-13.5 -25l-16 -43q-16 -43 -33 -63l-6 -3q-6 -3 -10 -7q-4 -3 -13.5 -18 t-13.5 -19q-3 -3 -29.5 -31t-44.5 -44.5t-32 -23.5q-8 -4 -34.5 -29.5t-41.5 -35.5q-77 -53 -123 -70q-12 -12 -16 -14q-2 -1 -8 -1t-9 -1q-111 -67 -123 -74q-10 -5 -34.5 -14.5t-42.5 -20.5q-7 -4 -44.5 -15.5t-54.5 -19.5q-73 -34 -141 -49q-3 0 -10.5 -6.5t-11.5 -7.5 q-17 -5 -75.5 -27t-86.5 -24q-3 0 -8 -3.5t-11 -9t-8 -6.5l-22 -5.5t-34 -10.5t-28 -14q-13 -8 -22 -35l-58 -201q-1 -5 -10 -19t-10 -20q-2 -6 -2.5 -14.5t-1.5 -11.5q-4 -16 -10 -35.5t-14.5 -42t-12.5 -35.5q-4 -16 -2 -25l-2 -6q-6 -20 -23 -41q-16 0 -52 -8l-36 -8 q-19 3 -16 31q3 27 41 190q5 24 17.5 82t19.5 90l-70 4q-4 -1 -11.5 -8t-11.5 -8q-8 -4 -29 -9t-32 -10q-10 -5 -24.5 -16t-25 -16.5t-20.5 -4.5q-11 0 -39 7q-7 0 -11 6q-6 6 -5 19zM455 1376q16 -13 35 -21.5t31 -11.5t31 -6.5t26 -5.5q36 -8 94.5 -18t100 -16.5 t46.5 -6.5q4 0 12 6t11 15q18 108 22 159q0 5 -11 15t-15 10q-40 0 -146 -18q-5 -1 -18.5 -9.5t-18.5 -9.5q-3 -1 -14 -0.5t-14 -1.5q-20 -13 -87 -35t-85 -45zM666 -123q17 0 49 8q10 3 33.5 13t43 19t21.5 9q4 -1 3 -4q2 -2 3 -2q4 0 64.5 20.5t64.5 20.5q3 0 6.5 -2 t6.5 -2h1q24 1 160 55q139 56 164 68q34 19 117 64.5t98 54.5q44 31 107 86q5 5 15 14t13 12q8 8 23.5 27t17.5 22q3 3 7.5 5.5t7.5 4.5t4 3q27 32 43 43q4 16 8 20q4 8 15.5 19.5t13.5 15.5q45 88 51 117q2 10 1 21.5t-3 15.5l-13 -13l5 21l7 4q7 4 9 16q3 11 7 54t15 67 q-2 3 -4 13.5t-4 11.5q-4 2 -6 2q-4 0 -15.5 -11.5t-15.5 -11.5q-7 1 -9.5 4t-1 8.5t3.5 11t5 12t4 9.5q-14 6 -14 17l4 8q-4 25 -20 41q-1 1 -1 7t-1 7q-5 3 -15 12.5t-14 10.5q-1 1 -1 5.5t-1.5 7.5t-5.5 3q-5 0 -25 -16q-2 14 4 32q-8 8 -22 26.5t-24 32t-13 13.5t-8 -6 t-8 -6t-4.5 4.5t-4.5 5.5q-4 0 -6 -5t-6 -5q-5 1 -5.5 8t1.5 10l-8 -8q2 9 3 15.5t-1.5 10.5t-4 6.5t-7 3.5t-7.5 1h-9.5h-8.5q-2 0 -19 11.5t-26 13.5q-1 1 -1 4.5t-1.5 6t-5.5 3.5q-3 0 -6.5 -5t-6.5 -5q-6 1 -18.5 12.5t-15.5 13.5q-16 8 -43.5 17.5t-32.5 9.5 q-4 1 -6 -1.5t-6 -2.5q-5 1 -10 9t-7 9q-1 1 -51 13q-3 1 -7.5 9.5t-8.5 8.5q-2 0 -9.5 -3t-13.5 -5t-8 0l-4 8q-73 -4 -88 -4h-4q-12 0 -19 18q-15 -19 -28.5 -17.5t-22.5 -0.5q-37 -23 -68 -62q-7 -8 -17 -32t-17 -33q4 -4 9.5 -18t2.5 -21q-2 -10 -23 -31q-7 -9 -20 -49 l-2 4q0 48 8 68q1 7 10.5 18.5t10.5 14.5q4 14 -9.5 29.5t-13.5 27.5q-1 6 2 16t8 21t6 16q-5 -3 -24.5 -14.5t-28.5 -14.5q-45 -154 -70 -260q-29 -109 -26 -131q15 18 25 43t17 52.5t9 33.5q1 2 5.5 24.5t12.5 38.5t21 15q12 0 4 -51q-1 -4 -20.5 -49.5t-26.5 -65.5 q-2 -5 -2 -13.5t-2 -12.5q-1 -4 -5.5 -12.5t-4.5 -10.5q-9 -35 -27.5 -92t-22.5 -74q-1 -5 -7.5 -35.5t-12.5 -42.5q-48 -93 -51 -104q-1 -5 -11.5 -51t-24.5 -109.5t-22 -99.5q-1 -5 -1 -17t-1 -16q-24 -110 -28 -133q-7 -40 -7 -64q0 -8 1 -14zM940 752q-1 4 -1 10 q0 10 3 24q4 9 12 20t13 11q9 0 9 -10t-3 -16q-1 -6 -2.5 -10t-2.5 -5t-3.5 -3t-3.5 -3q0 -4 2 -8q-13 -10 -23 -10zM956 864v8q0 16 5 48q7 18 14 18q6 -6 6 -18q0 -10 -4 -25q-12 -29 -14 -33q-5 0 -7 2z" />
<glyph unicode="E" horiz-adv-x="1806" d="M305 1573q-1 4 -1 9q0 20 11 48q7 19 30 32.5t39.5 17t23.5 3.5q3 -1 13.5 -11t16.5 -13q34 -16 46 -26q3 -4 21 -6q12 -2 21 -3q4 0 113 -13.5t113 -13.5q2 -1 18.5 1t38 4.5t33.5 1.5q126 -10 209 -31q4 0 11.5 5t12.5 5q6 -1 129 -16t129 -15q2 -1 25 -7.5t44 -12.5 t25 -6q4 -1 11.5 4t11.5 4q4 0 109.5 -18.5t109.5 -18.5q4 -1 4 -8t4 -8q4 0 16.5 5t16.5 5q4 -1 10 -7t9 -7q64 -20 190 -72q12 -5 42 -33.5t36 -32.5q11 -7 15 -36q1 -8 1 -17q0 -21 -8 -41q-2 -6 -9 -18t-17.5 -27t-14.5 -22q-91 -59 -113 -66q-23 -7 -54 -11.5t-38 -2.5 q-3 1 -16.5 9.5t-20.5 8.5l17 43q20 19 48.5 31t50.5 17.5t45 22.5t36 46q-8 45 -31 65q-4 4 -10.5 7t-16.5 6t-12 4l-6 14q-6 13 -12 14q-3 0 -13 -2t-14 -2q-4 1 -28.5 25t-28.5 25t-23 -3.5t-24 -3.5q-4 0 -19 9t-18 10t-27.5 -2.5t-27.5 -3.5q-11 3 -11 14 q-38 0 -110 18q-2 0 -22 -1t-34 -1.5t-22 0.5q-3 0 -14.5 4.5t-24 10t-14.5 6.5q-4 0 -19 -3t-20 -3q-20 0 -53.5 7.5t-42.5 8.5q-8 1 -30 -4.5t-24 -5.5l-21 10q-21 10 -26 10q-12 2 -23 2q-53 0 -75 -53q-1 -3 -61 -174q0 -3 -1.5 -12t-1.5 -12q-2 -9 -8.5 -28.5 t-11 -34.5t-7.5 -33t3 -25q95 -152 100 -348q32 -5 92.5 -10t75.5 -7q38 -4 98.5 -12.5t102 -16t47.5 -8.5q4 -1 58.5 1t58.5 1q4 0 23.5 -9t23.5 -9q3 -1 17 3t18 3q5 0 3.5 -6t2.5 -6q4 -1 11 4t11 4q4 0 5.5 -6.5t5.5 -7.5q5 0 57.5 -1t56.5 -1q4 -1 7 -8t6 -7 q30 -3 43.5 -43t-4.5 -57q-8 -8 -21 -6q-12 2 -34.5 27t-37.5 26q-52 4 -94 12l-1 6q0 6 -5 7q-3 0 -13.5 -8t-13.5 -7q-10 1 -68 -1q-34 -1 -59 -1h-28q-4 0 -16 -6t-13 -6q-20 -2 -43 -2t-50.5 1t-41.5 1q-15 -13 -43 -10t-45 0q-16 -11 -19 -15q-13 -1 -39 -6t-47 -9 t-24 -3q-5 1 -8 4.5t-7 3.5q-6 0 -63 -25q-14 -9 -23 -32q-3 -6 -15.5 -48.5t-18.5 -58.5q-96 -179 -123 -325q-3 -7 -10.5 -27.5t-12.5 -32.5q35 1 151 9q85 6 140 7q19 0 35 -1q23 -1 65 -6t47 -7q6 0 66.5 -22t95.5 -37q16 -7 32.5 -17t37.5 -23.5t31 -19.5v-34 q-22 -22 -29 -19q-3 0 -6.5 3.5t-7.5 4.5t-15.5 18t-15.5 17q-4 1 -39 -6t-39 -6t-16.5 11t-16.5 11q-4 0 -12 -11.5t-12 -10.5q-3 1 -5 5t-3.5 8.5t-3.5 7t-5 1.5q-62 -13 -91 -13q-9 0 -15 1q-4 1 -33 8.5t-33 8.5q-14 2 -38 -4.5t-40 -4.5q-5 0 -12.5 5t-9.5 6 q-4 0 -7 -4t-5 -5q-12 -9 -28.5 -11.5t-28 -1.5t-21.5 -1q-3 -1 -12.5 -5t-16 -6t-10.5 -1q-4 0 -4 3.5t-4 4.5q-4 0 -34.5 -14t-39.5 -19q-21 -9 -52.5 -43.5t-47.5 -48.5q-59 -121 -80 -176q-3 -6 -9.5 -42t-11.5 -50q-10 -25 -30 -45q-18 -18 -29 -17h-2q-5 1 -4 8v2.5 v2.5q-7 4 -23 6l-16 2q-13 0 -17 31q11 30 29 102q3 10 15 35.5t16 38.5q-1 4 -3 10t-3 11.5t0 12.5q2 12 12 49t10 54q0 5 -8 11.5t-10 10.5q-4 10 -4 36q0 18 2 44q0 1 10 31q3 9 7 17.5t5 11.5q3 5 13.5 14.5t13.5 17.5q3 6 8 54q5 33 7.5 69.5t4 82.5t2.5 67 q1 22 11 75.5t12 71.5q1 9 0 28.5t0 31.5q0 16 6 49t6 49q1 7 -5.5 26.5t-6.5 34.5q-1 12 0.5 34.5t1.5 36.5t-4 15q-4 0 -14.5 -11.5t-14.5 -10.5q-8 0 -12 16q-3 10 -6 35.5t-6 32.5l8 16q8 8 27 21t24 12q13 0 29 -16q3 4 8 14q4 10 20 89t25 136q1 9 -4 33t-6 31 q-13 6 -30 37.5t-21 35.5q-6 7 -19.5 40t-34.5 55q-9 10 -28 38t-29 39q-17 17 -49 33q-30 17 -65 36t-61 34t-57 35q-14 10 -14 49zM715 1405q12 -16 37 -36.5t32 -22.5h11q4 8 11 24t13 28.5t12 22.5q7 9 29 28t27 26q-13 5 -37 21t-27 17h-2q-15 0 -51 -22 q-38 -24 -49 -53q-6 -21 -6 -33zM760 240q14 6 30.5 8t24.5 4.5t19.5 17.5t23.5 47q3 7 12.5 47t23 95t21.5 86q-1 3 -2.5 7t-2 6t-2 3.5t-3.5 1.5q-10 2 -22.5 -3.5t-25.5 -14.5t-15 -10q-6 -3 -17 -6t-14 -5q-14 -38 -18.5 -61.5t-11 -66.5t-19.5 -101q-4 -20 -3 -36 q-1 -10 1 -19zM860 803l45 -6l8 22v6q0 37 -12 71q-13 38 -14 50l-15 -35q-2 -6 -8 -54q-4 -35 -5 -48q0 -4 1 -6z" />
<glyph unicode="F" horiz-adv-x="1787" d="M240 1143q0 2 2 8.5t2 9.5q0 1 -1 3t-1.5 5t0.5 7q20 67 123 174q6 6 22 14q107 90 166 129l8 3q8 3 10 5q4 2 15 13t16 14t62 41q7 4 32 17.5t39 21.5q12 6 40.5 20.5t51.5 26t37 16.5l2 3q2 3 4.5 5t6.5 2l4 -2q7 0 30 9q3 1 8 4.5t12 8.5t11 7q29 3 66 18 q63 27 163 43q13 3 113 3l12 6q1 -1 2 -4.5t2 -4.5q23 0 43 -8q2 -1 7 -4.5t8 -3.5q4 0 5 1t5 1q5 0 21 -8q7 -4 38 -35q8 -8 9 -8q6 -18 16 -23q26 -55 53 -88q4 4 18.5 11t20.5 12q4 0 17 3t16 3q2 0 7 -5.5t11 -12.5t9 -9l-2 -13q-3 -12 -5 -17q7 -11 -2 -33q4 -4 4 -12 q-1 -7 -8 -31.5t-7 -30.5t3 -22q47 -5 55 -41q1 -3 0 -7t-3 -10t-3 -10l4 -4q-4 -17 -10 -37q4 -2 5.5 -5.5t1.5 -6t-1.5 -9t-1.5 -8.5q-13 -38 -30 -67q-2 -4 -8.5 -15t-13.5 -21t-13 -17q-18 -27 -39 -45q-16 -14 -22.5 -25.5t-12.5 -36.5q-2 -9 0 -14q0 -14 -8 -19 q0 -6 2 -19t2 -20q0 -13 -6 -32.5t-6 -34.5q19 -9 77.5 -33.5t65.5 -24.5q4 -1 5 1q0 2 3 2t13.5 -4.5t25 -10.5t21.5 -8q2 0 9 -1t9 -1q3 -1 7.5 -6t6.5 -6q1 0 16.5 -3.5t22.5 -5.5q12 -3 27 -18q2 -1 9.5 -1t10.5 -1q50 -17 84 -41q0 -1 3.5 -6.5t6.5 -10.5q4 -5 6 -11 q2 -4 1 -7q-1 -6 -17 -14q-14 -7 -28 -11l-13 -5h-2q-6 0 -6 14q-6 15 -33 20.5t-32 10.5q-33 22 -37 22q-3 1 -11 -1.5t-10 -2.5q-8 0 -22 7t-26 15l-11 7q-3 0 -5.5 -1t-6.5 -1q-2 0 -20.5 6t-44.5 14.5t-44 11.5q-4 1 -22 1.5t-27 2.5q-4 1 -16.5 5.5t-18.5 5.5 q-14 4 -57 4q-3 0 -5 -2.5t-3 -3.5l-5 6q-16 -33 -18 -39q-3 -11 2 -22t12 -11q4 0 6.5 1t6.5 1q3 0 12.5 -2.5t22.5 -6t20 -5.5l2 -2q1 -3 2.5 -4.5t5.5 -1.5q6 0 14 -0.5t11 -0.5t9 -1t11.5 -3.5t14.5 -6.5t22 -11l-2 -10q-9 -6 -18 -6q-3 0 -7 4.5t-8 5.5q-1 0 -8 -4.5 t-12 -3.5q-4 0 -38.5 4t-37.5 4t-17 6t-18 6q-2 0 -12.5 -2t-17.5 -2q-8 -22 -22 -59.5t-24.5 -65.5t-11.5 -30q-7 -28 -4 -48q20 1 33 0.5t32 1t40 5.5q23 6 68.5 13t55.5 9q2 0 15 2t20 4q4 1 19.5 7t19.5 6t5 -3q0 -1 1 -2q0 -2 -3 -5.5t-3 -4.5q-4 0 -15.5 -3t-15.5 -3 q-3 0 -4 1.5t-4 2.5q-2 0 -11 -10t-15 -10q-4 0 -5.5 1t-5.5 1q-17 0 -57 -15q-6 -2 -39.5 -11t-52.5 -13q-2 0 -22 -1t-31 -5q-36 -12 -41 -13q-2 -1 -11 -10q-12 -37 -33 -102t-36.5 -112t-16.5 -50t-24.5 -115.5t-24.5 -115.5t-14 -29t-14 -29q0 -1 1.5 -15t2 -26 t-1.5 -26q-30 -109 -31 -115q-1 -2 0.5 -8t1.5 -8q-2 -11 -18 -74.5t-19 -91.5q0 -5 -8 -21q-5 -19 -13 -57.5t-8 -40.5q0 -1 -0.5 -1.5t-0.5 -1t-0.5 -2.5t-1 -4.5t-2 -7.5t-3.5 -11.5t-5 -16.5t-6.5 -22.5t-9 -30t-11.5 -37.5q-22 -60 -25 -64q-6 -9 -32 -15 q-17 -4 -27 -4q-5 0 -9 1q-4 4 -5.5 8t-1.5 7t1.5 9.5t1.5 10.5q2 18 12 57.5t11 46.5q15 59 164 586q1 3 2 9t2 9q4 22 53 205q1 4 0 15.5t0 15.5q6 38 4 59q0 5 4 18t4 19q-1 13 -8.5 45t-9.5 45q0 23 2 29q1 5 5 8t5 4h12q9 -12 11.5 -28t2.5 -25.5t1 -9.5q13 0 16 -3 l2 3q1 9 16 57q12 38 12 60q0 6 -1 10h-15q-1 0 -7.5 -0.5t-13 -0.5t-11.5 1q-1 0 -4 -2.5t-7 -2.5q-20 0 -90 9q-107 13 -139 22q-73 19 -131 55q-1 1 -7.5 12.5t-12.5 16.5q-21 14 -39 55q-1 2 -9.5 12t-9.5 17q-4 5 -3.5 26t7.5 31q12 12 25 17q24 8 53 8q3 0 57 -6 q2 0 9 -4.5t10 -5.5q2 -2 9 -2t9 -2q23 -11 36 -18.5t30.5 -23.5t23.5 -34q-13 -8 -20 -8q-5 0 -24.5 6.5t-30.5 13.5q-5 3 -14 12t-13 11q-11 7 -32 12.5t-29 5.5h-7q-1 -1 -3 -0.5t-3 -0.5t-2 -5q-3 -11 15.5 -47t23.5 -41q6 -5 23 -23.5t26 -25.5q25 -15 45 -25 q9 -5 23 -8.5t33.5 -6.5t27.5 -5q3 -1 11 -5t14 -4q3 0 7.5 1t6.5 1q4 0 17.5 -5t17.5 -5q25 -2 47 -2q30 0 53 4q9 42 21.5 90t20 83t12.5 81q-12 12 -15 12q-4 0 -6 -1t-6 -1q-10 0 -47 31q-2 2 -14 2q-1 6 -9 13t-15.5 11t-17.5 9l-12 6q-5 3 -14 9t-21.5 15.5 t-19.5 14.5q-2 2 -6.5 3t-11 1.5t-9.5 1.5q-4 0 -7 5.5t-1 11.5q1 6 29 24q-12 12 -43 12q-18 0 -43 -4q-21 0 -33 2q-6 1 -23 4.5t-26 4.5q-19 0 -184 12q-58 7 -60 7l-1 3q-2 2 -5 2q-2 0 -8.5 -2t-9.5 -2.5t-121 27.5q-2 1 -8.5 3.5t-12 4.5t-8.5 2t-6.5 -2t-7.5 -2 q-3 0 -18 6.5t-23 7.5q-18 2 -35.5 10t-28 15.5t-27.5 22t-26 20.5q-14 7 -22 45zM305 1161q15 -26 33.5 -45t42.5 -31t40.5 -18.5t46.5 -14.5t42 -12q5 -2 22 -3t23 -3q95 -18 207 -24q187 -9 250 -17q9 -1 33.5 -5.5t27.5 -5.5q4 0 13.5 3t23 7t18.5 5q4 2 17 4.5t16 4.5 q4 2 26.5 8.5t29.5 13.5q21 16 49 49q2 2 10 2q14 14 14 21l56 192q-5 1 -5 4q21 41 29 64q7 25 0 57q4 18 3 27t-5.5 26.5t-5.5 26.5l2 8q-3 6 -8.5 17.5t-7.5 15.5q-7 14 -43 55q-6 6 -24.5 20.5t-25.5 22.5q-2 1 -6.5 2t-5.5 2t0 3.5t0 3.5q-4 2 -16 10t-15 8 q-4 0 -12.5 -6t-11.5 -6q-4 0 -9 5t-8 5q-4 0 -7.5 -3t-6.5 -3q-4 0 -16 2t-17 2q-1 2 0 4q-2 2 -4 2q-3 0 -12 -1t-12 -1q-1 0 -5 -4t-8 -4q-3 0 -8 2t-8 2q-21 0 -41 -10l-4 -4q-29 0 -33 -2q-3 -1 -8 -5t-8 -4t-2 2t-2 2q-4 0 -18.5 -6.5t-18.5 -7.5q-17 -1 -40 -8 t-40 -14t-46 -19.5t-42 -17.5q-6 -2 -20.5 -11.5t-20.5 -11.5q-67 -29 -188 -104q-5 -3 -17.5 -11.5t-17.5 -11.5q-84 -58 -123 -100q-15 -15 -25 -23q-2 -4 -6 -4q-4 -10 -20 -35.5t-17 -27.5q-2 -5 -4 -31q-1 -13 -1 -22t1 -13zM1098 926q0 -9 6 -15q5 -6 18.5 -10 t16.5 -6q21 -13 43 -35q7 -1 22 -9.5t19 -8.5h12q1 3 5 10t5 10q1 4 3 20t3 21q-3 5 -20.5 13t-24.5 8q-3 0 -6.5 -1t-5.5 -1q-4 0 -9.5 5t-8.5 5t-15.5 -3t-15.5 -3q-1 0 -19 6q-3 0 -14 -1t-14 -1l2 -2q0 -1 -2 -2zM1513 1235l7 -2q0 6 8 6q-1 3 -3 5t-4 3t-3 2z M1526 1260q4 0 4 -7q2 2 16 23l-4 1q-3 1 -8 1l2 -6q-10 -3 -10 -12zM1661 588h1q4 0 12 4q10 6 12 6q8 0 8 -10h-33zM1702 598l16 -4q-10 0 -16 4zM1767 614l15 -4q-2 0 -7 -2t-6 -2q-2 6 -2 8z" />
<glyph unicode="G" horiz-adv-x="2000" d="M39 190q8 21 43.5 25t44.5 -2q17 -2 55.5 -14t57.5 -23q5 -3 18 -14t21 -15q14 -8 63 -20q25 -8 125 -23q26 -4 69.5 -9.5t75.5 -8.5t35 -4q13 0 31 6q-23 12 -35 14h-18q-3 0 -8 2.5l-12 6t-11 4.5q-3 1 -12.5 1t-14.5 1q-4 1 -18 7.5t-23 8.5q-34 12 -69 27q-6 6 -6 12 l34 -6q6 0 8 -4q0 -1 1 -2q39 -7 110 -31q22 -15 27 -16q4 -1 23.5 -1t23.5 -1q4 0 5.5 -1t1.5 -3t1 -3q9 -2 30 -6t29 -6q4 -4 11 -6q3 0 8 2t8 2q44 -11 53 -12q6 -1 22.5 -1t20.5 -1q2 0 37 3t82 7t70 6q7 0 24.5 4.5t18.5 9.5q0 1 5 20.5t9 29.5q1 4 0.5 19.5t1.5 19.5 q6 16 9 50t5 44q1 5 7 19.5t8 21.5q0 6 -6 12q14 66 16 107q0 4 3.5 19t4.5 21q1 9 -1 29.5t-1 30.5q1 12 8.5 45.5t6.5 50.5l-4 11q-3 10 -3 16q0 3 1 7.5t1.5 8t1 8t0.5 7.5v6t-1 4.5t-3 1.5q-9 2 -69 7q-35 2 -56 2q-14 0 -22 -1q-18 -3 -34.5 -3.5t-36.5 0.5t-27 1 q-2 0 -5.5 -1t-8 -2.5l-7.5 -2.5t-12 1t-14 1q-9 -1 -34 -7.5t-34 -7.5q-140 -18 -270 -73q-10 -4 -35 -12t-49.5 -17.5t-44.5 -19.5q-104 -55 -144 -105q-23 -39 -28 -53q-3 -8 -3 -19q0 -31 28 -81q38 -66 63 -82q4 -3 17 -7.5t17 -7.5q11 -8 39.5 -21t36.5 -30l-4 -10 l-16 2q-5 1 -8.5 5t-4.5 5q-10 4 -25 9.5t-18.5 7t-12 5.5t-14.5 8.5t-18 12.5q-10 0 -14 4q-59 41 -76 58q-23 23 -47 59q-1 2 -2 9t-2 9t-11 10.5t-11 14.5q-8 32 -5 55q0 4 4.5 13.5t4.5 13.5t-3 8t-9.5 9t-8.5 7q1 2 12 19q24 24 82 53.5t74 40.5q25 17 54.5 30.5 t78.5 31.5t68 26h10q100 38 152 45q1 1 12.5 6.5t17.5 6.5q261 45 373 49q28 0 90 10q-2 24 -5.5 48t-9 58t-9.5 58q0 4 6 16q-6 12 -6 14q-1 3 0.5 15.5t-0.5 17.5q-1 4 -9 25t-10 33q0 3 2 25t-4 26q-4 7 -19.5 12.5t-21.5 5.5q-4 1 -6.5 0t-5.5 0q-4 0 -12.5 6.5 t-12.5 6.5q-4 1 -8 0t-8 0q-27 9 -49 20q-4 2 -9.5 11.5t-9.5 11.5q-14 11 -24.5 31.5t-12.5 33.5q-3 16 -3 31q0 33 14 65q7 22 20 43q16 20 29 33q1 0 1.5 2t2 5t4.5 5q3 3 6.5 9t5.5 8q139 113 269 153q133 39 211 39h8q9 0 33.5 -4t27.5 -4q13 -4 53 -31l15 -7 q15 -7 20 -11t15.5 -13.5t14.5 -22t3 -28.5v-55q-4 -16 -14 -41.5t-13 -30.5q-3 -10 -43 -45q-18 -12 -28 -12q-11 -3 -37 -6q-9 -2 -27 4q-1 0 -33 8q-25 0 -49 -6q-3 -1 -10.5 -2t-11.5 -2.5t-10.5 -3.5t-12 -6t-10.5 -10q-16 -16 -30.5 -44t-18.5 -40q-4 -13 4 -13 q10 -2 48 19t42 22q39 8 66 35q9 3 20 0q3 0 27 -12q2 -6 4 -8q-53 -47 -94 -66q-3 -1 -8 -7t-9 -7q-7 -3 -23 -6.5t-24 -6.5q-1 -1 -9 -7t-11 -7q-1 -1 -3.5 -5t-3.5 -5q-5 -3 -25 -9t-28 -10q-7 -7 -8 -12q-1 -3 -2 -10.5t-2 -9.5q-1 -11 -8 -34t-8 -30q-15 -120 -17 -147 q0 -20 4 -56q1 -6 -4.5 -26.5t-1.5 -33.5t25 -17q1 0 15.5 1.5t21.5 0.5q110 -10 129 -15q4 0 43.5 -7.5t90 -18.5t74.5 -19q9 -2 30 -9.5t32 -10.5q1 -1 0 -3t0 -3.5t4 -1.5q4 -1 7 1t7 1q9 0 68 -31q65 -34 82 -49q3 -2 19.5 -16t22.5 -19.5t16 -17t16 -21.5 q31 -51 31 -98q0 -7 -1 -15q0 -2 4 -10q-6 -40 -8 -49q-5 -12 -13 -19t-13 -16q-8 -15 -48 -41.5t-45 -30.5q-1 0 -7 -1t-9 -1q-2 -1 -4 -5.5t-4 -6.5q-7 -6 -23 -12q-3 -1 -13.5 -2t-20.5 -3t-17 -5q-10 -4 -32 -19t-37 -20q-2 -1 -10.5 0.5t-10.5 1.5q-4 -1 -22 -5t-27 -5 q-11 -11 -14 -13q-5 -2 -23 -3.5t-27 -4.5q-29 -10 -64.5 -20t-64.5 -21q-4 -1 -18 0.5t-21 -0.5q-14 -6 -53 -16q-6 -3 -12 -9q-5 -1 -18.5 -2t-20.5 -2q-3 -1 -13 -9t-14 -7l-3 1v2l-3 1h-2q-16 0 -94 -33l-4 -10q5 -7 16 -10q4 -1 10.5 0t12.5 0l4 -8q-12 -6 -33 -6 q-8 -3 -17.5 -11.5t-11.5 -13.5q-2 -3 -2 -5t1 -3t1 -2q-14 -60 -38 -119q-4 -17 -13 -29q-10 -15 -10 -24q1 -20 -15.5 -48.5t-17.5 -31.5q-27 -97 -30 -107q-2 -7 -9.5 -19t-9.5 -16q-5 -10 -10 -32.5t-8 -30.5q-1 -3 -4.5 -9t-4.5 -9v-13q-2 -7 -10 -21.5t-10 -21.5 q-3 -12 -7 -36.5t-7 -36.5q-1 -7 -10.5 -31.5t-10.5 -38.5q-1 -15 -6 -40.5t-6 -35.5q-1 -9 -1 -40.5t-1 -43.5q0 -4 -4.5 -13t-3.5 -13q0 -3 3.5 -13t2.5 -16q-1 -10 -7 -34t-6 -36q0 -11 5 -43t6 -51q1 -7 1 -25.5t1.5 -34t5.5 -28.5q4 -17 8 -58t6 -55q1 -6 6.5 -20.5 t9 -25t1.5 -13.5q-5 -13 -18 -23t-23 -10h-2q-16 4 -41 29q-1 6 2.5 14.5t3.5 11.5q0 1 3 28.5t-1 33.5l-10 20q0 1 2.5 7.5t1.5 9.5q0 1 -4 10.5t-2 15.5q5 18 5 47q0 11 -1 23q-2 44 0 55q2 9 -6 44.5t-9 50.5q-1 8 3.5 27.5t5.5 25.5q0 5 -7 12q2 4 2 9.5t-1 13.5t-1 12 q1 3 3 10t3.5 13.5t0.5 11.5q0 3 -4.5 11.5t-4.5 10.5q11 11 11 15q-1 2 -3 5.5t-2 5.5v7q21 71 31 152q0 3 5.5 10.5t6.5 11.5q1 3 2 15t3 18q4 8 10 14q-8 12 -4 23q12 38 34 100.5t38.5 108.5t17.5 49l41 98q1 3 0 8t0 8q0 1 6.5 8.5t7.5 12.5q2 16 16 57t13 62 q5 9 10 12q1 4 4 13.5t6.5 19t6.5 19t2 15.5t-7 7q-3 1 -24 -6q-5 -1 -15 0.5t-20 -0.5t-21 -9q1 -4 11 -6t27.5 -3.5t25.5 -2.5q1 0 3 -2t3.5 -5.5t1.5 -8.5q-5 1 -19 0t-18 0t-3 4q-2 2 -3 2q-6 1 -12.5 0.5t-20 -1.5t-20.5 -1q-19 1 -56.5 8t-58.5 8q-3 0 -123 6 q-21 1 -61.5 0.5t-62.5 -1t-33 0.5q-3 0 -17.5 6t-17.5 7q-3 0 -14 -3.5t-17 -3.5q-1 0 -26 2.5t-48.5 -0.5t-27.5 -16q-1 -3 2.5 -17.5t3.5 -21.5q-23 7 -52.5 39.5t-56.5 36.5q-3 1 -18 -1.5t-19 -2.5q-31 -4 -55 2q-4 0 -24.5 8t-24.5 8q-3 1 -8.5 0t-9.5 0 q-45 15 -64 27q-1 1 -3 9.5t-7 8.5q-4 1 -6 0t-6 0q-19 3 -26 17q-4 8 -4 15t3 13zM463 -55l6 16l8 -6q1 -1 0.5 -2.5t-1 -3.5t-1 -3.5t-0.5 -2.5zM496 -82q4 4 16 10q8 -13 6 -20q-6 -3 -10 -2q-7 2 -12 12zM526 -115q1 0 5.5 1.5t9.5 0.5q2 0 18 -24q15 -22 23 -27 q-6 -6 -15 -4q-9 0 -16 10q-1 2 -3.5 11t-4.5 14q-5 5 -13 8q-1 1 -2 5t-2 5zM600 -238l4 13l8 -2l-4 -11h-8zM625 -268q23 -4 34 -25l-16 -24q0 5 -3 13.5t-8 19.5t-7 16zM649 -332l10 15q-2 -3 1 -4t7 -2t5 -3q11 -38 33 -65l-5 -10q-4 -2 -12 -2q-5 1 -14 10q0 8 1.5 10 t-4 13l-7 14t-8 13t-7.5 11zM1063 1364q-6 -17 -6 -33q0 -22 11 -43q20 -38 65 -45q24 -6 32 -4l6 18q1 3 5.5 29t5.5 29q1 2 13 19.5t28 41t24 37.5q6 9 45 60q3 4 14.5 14.5t12.5 13.5l10 29q-9 -3 -65.5 -24t-81.5 -33q-53 -23 -92 -62q-17 -17 -27 -47zM1163 117 q111 13 414 84q8 2 22.5 8.5t25.5 11.5t13 4l4 -1q-1 -1 0 -2t3 -1q3 0 19 9.5t22 11.5q3 1 9 1t7 1q10 3 32.5 15t28.5 15q6 2 17 2q2 2 15.5 11.5t24.5 19t13 15.5q2 3 2.5 11t3.5 11q4 1 7.5 -0.5t6.5 -1.5q6 -2 17 4q32 42 35 49q3 3 0.5 10.5t-2.5 8.5q1 5 8 14 q8 11 8 15t-9 23q-9 21 -3 30q-3 3 -10 8.5t-12.5 11t-8.5 10.5q-2 2 -3.5 12.5t-4.5 12.5q-18 10 -37.5 24t-49 37t-32.5 25q-1 1 -7 2t-7 2q-18 18 -29 21q-8 3 -23.5 7t-19.5 5q-3 1 -10 6t-11 6q-16 4 -65 4q-3 1 -9.5 7.5t-8.5 7.5q-16 12 -33 12q-3 1 -22.5 3.5 t-28.5 4.5q-2 0 -11 -2.5t-12 -1.5q-4 0 -16.5 5t-16.5 5q-7 2 -51.5 9t-71.5 8q-5 0 -12 -3t-10 -4q-5 -1 -17.5 0t-17.5 0q-10 -10 -14 -16q-1 -2 1 -25.5t3.5 -49t-0.5 -46.5q-1 -10 -4.5 -37.5t-3.5 -40.5q0 -8 2 -23t2 -20q-12 -120 -15 -137q-6 -31 -23.5 -111 t-23.5 -118z" />
<glyph unicode="H" horiz-adv-x="1585" d="M-434 662q7 19 45.5 33t52.5 12q6 -1 14.5 -7.5t15.5 -13t15 -15.5l8 -9q6 -6 26.5 -17.5t35.5 -25.5t22 -35q1 1 3 4t4 4.5t6 1.5q16 -5 30 -16q2 -1 11 -29q6 0 13.5 -4.5t10.5 -5.5q4 0 10 3t9 3q0 -8 4 -12.5t8 -4.5q30 0 49 -8q48 -16 53 -16q3 -1 11.5 1.5 t11.5 2.5q4 0 9 -4t9 -4q4 -1 11 1.5t10 2.5q4 0 8.5 -2.5t7.5 -3.5h16q16 0 38 -0.5t48 -0.5h53t46 1q12 1 41 1t41 1q2 0 11.5 -0.5t15.5 -0.5t14.5 2t13.5 5q4 3 12 16t13 17q7 5 27.5 18t33.5 22t14 13q1 2 5 30t10 66.5t10 61.5q1 7 9.5 35.5t10.5 43.5q8 76 17 101 q3 7 7.5 37.5t8.5 44.5q11 42 31.5 114.5t36.5 126.5t16 56q1 4 7.5 11.5t7.5 10.5q41 144 112 221q5 7 69 38q62 30 78 30h1q9 -2 25.5 -11.5t17.5 -15.5q2 -14 -7 -51q-7 -21 -19 -35.5t-28.5 -28.5t-25.5 -26q-35 -44 -64 -94q2 -2 -41 -115q-3 -29 -25.5 -91t-27.5 -83 q-9 -35 -23.5 -105.5t-23.5 -105.5q-51 -184 -74 -305q-2 -7 10 -25q2 -2 11 -2h13q51 0 278 9q40 10 65 10q12 -1 27 -1q26 0 60 2q53 4 58 17q7 29 13 62q2 13 16 45q0 2 -2 6q1 2 14 56t25 81q3 7 7 27t7 28q1 2 -1 9t-1 10t4.5 9.5t6 12t2.5 9.5q3 22 26 120 q11 44 17 58l12 12q-11 6 -8 18q0 3 4.5 12.5t5.5 12.5q6 56 25.5 153t21.5 150q0 2 2.5 11t1.5 12q0 4 -3 9.5t-3 8.5q-1 7 2 28t2 29q0 6 -7 28.5t-7 35.5l3 6q3 6 3 10q2 12 -12 45q0 1 -2 1.5t-4.5 1t-4.5 1.5q-4 8 -10 22t-8 19q-1 2 -6.5 6t-7.5 7q4 24 18 32 q18 15 47 15q4 -1 4 -4.5t4 -3.5q4 -1 14 12t26 26q13 11 26 11h4q14 0 37 -28.5t24 -47.5q0 -25 2 -39q0 -12 -6 -38t-6 -38q0 -22 0.5 -30.5t-1.5 -22t-3 -17.5t-4.5 -17.5t-5.5 -22.5q-5 -23 -9 -71.5t-6 -64.5q-2 -11 -8 -36t-8 -37q-3 -13 -6 -44t-6 -44 q-3 -18 -14.5 -62t-14.5 -59q-4 -18 -18 -55t-19 -56q-2 -5 -2 -20t-2 -19q0 -3 -2 -7.5t-5.5 -10.5t-4.5 -10q-4 -13 -6 -40.5t-6 -41.5q-3 -10 -15.5 -44t-17.5 -52q-9 -34 -25 -102.5t-20 -86.5l1 -2q2 -2 5 -2q3 -1 15.5 3.5t17.5 4.5q82 8 135 35q52 25 61 51 q-7 8 -18 31t-17 29q0 1 2.5 2t5 4t3.5 6q1 5 1 6.5t-3 6t-4 7.5q4 1 13.5 7t12.5 6q13 -1 37 -40q21 -35 21 -47q0 -9 -26 -39q-22 -26 -30 -32q-12 1 -29.5 -11t-19.5 -12q-15 -4 -46 -14t-51 -16t-24 -6q-4 1 -4 3t-4 3q-6 0 -28 -11.5t-25 -17.5q-2 -3 -3.5 -13 t-2.5 -12q-21 -37 -23 -45l-9 -36q-9 -35 -21.5 -80t-22.5 -72q0 -2 -3.5 -8t-4.5 -10q-10 -32 -22 -91t-17 -77q-3 -9 -7.5 -33.5t-7.5 -34.5q-32 -110 -38 -125q-7 -17 -12 -38t-10 -48.5t-7 -36.5q-1 -3 -6 -21t-8 -26q-3 -10 -14 -30t-15 -29q-10 -27 -22 -73.5 t-20 -80.5t-9 -37l-70 -194q0 -1 -12 -22t-17 -44q-4 -15 -15 -46.5t-15 -43.5q-25 -71 -27 -82q-3 -1 -16.5 -9.5t-18.5 -8.5q-4 1 -4 2.5t-4 1.5q-3 1 -18 -4.5t-17 -5.5q-4 1 -6 3q-2 1 -6 1q-3 1 -21 -13q-17 -14 -21 -14h-1q-9 1 -13.5 16t-2.5 21q1 5 15 27t15 26 q2 3 2 15v29t2 28q2 14 11 44.5t10 33.5q3 13 6.5 35t6 39t3.5 20t13 20.5t16 28.5q2 2 0.5 11.5t-0.5 13.5q7 14 20 14q4 -1 13.5 -9t13.5 -9q12 -1 21.5 11t15.5 23.5t10 10.5q4 0 5 -1.5t0.5 -5t0.5 -4.5q4 4 4 27q0 7 -10 14q4 16 16 45t15 39q2 3 2.5 11t1.5 10 q3 15 14.5 53t14.5 55q4 22 12 46.5t20 54.5t17 47q1 2 0.5 11t1.5 13q4 20 28 113q2 9 11.5 30.5t11.5 30.5q2 6 3 23t3 24q6 25 26.5 83t26.5 87q1 6 4 20.5t5.5 27t5.5 20.5q0 2 5.5 16.5t6.5 22.5q0 4 -1 10t-1 10q0 9 12 13q5 12 9 68.5t-5 60.5q-5 1 -29 -1.5 t-26 -2.5q-3 0 -10 2.5t-10 3.5q-13 1 -32 -6.5t-36 -10.5q-9 -2 -28.5 -2.5t-24.5 -1.5l-10 -5q-10 -6 -15 -5q-4 0 -6 2t-6 2q-7 1 -47 -12q-4 -1 -19.5 -1.5t-23.5 -2.5q-21 -6 -80 -20.5t-82 -24.5q3 -6 3.5 -7.5t-2.5 -7t-3 -6.5l4 -8q-2 -4 -2 -8q-6 0 -10 -4 q-1 2 0.5 9t1.5 9l-8 2q-4 -4 -5 -10q-4 -7 -11.5 -39.5t-4.5 -50.5q2 -12 23.5 -34.5t25.5 -27.5q6 -9 33.5 -43t38.5 -51q5 -8 14 -16.5t22 -19t17 -13.5q0 -4 1 -13.5t1 -17.5t-2 -12q-2 -6 -9.5 -17.5t-12.5 -15.5h-76q-4 0 -24.5 7.5t-24.5 7.5q-4 1 -5.5 0.5 t-3.5 -1.5t-4 -1q-4 1 -17.5 9.5t-16.5 8.5l-27 4l-8 -24q-2 -5 -9 -76t-8 -99q-1 -6 -4 -16.5t-7 -22.5t-5 -16q-1 -3 -5 -17t-5 -22q0 -4 1.5 -19t2 -25.5t-1.5 -26.5q-3 -26 -16.5 -78.5t-16.5 -65.5q-39 -7 -45 -6q-1 0 -10 1t-14.5 2.5t-10.5 6t-4 11.5q0 4 12.5 43.5 t14.5 60.5q2 8 -2 33q-1 14 5 40.5t7 35.5q0 32 -8 86q-10 36 -15 63q-1 2 -6.5 11t-7.5 16q-4 10 -10 35t-10 34q-24 60 -64 121q-6 9 -24.5 28t-22.5 23q-2 2 -8.5 13.5t-11.5 13.5l12 20q3 -5 15 -17.5t16 -18.5q7 -8 24 -16.5t21 -12.5q10 -9 27 -41.5t22 -40.5 q24 -30 36 -53.5t20.5 -53t10.5 -34.5q0 -1 3.5 -27.5t11.5 -38.5q4 3 8 19q1 2 6 71q7 47 8 60q2 14 7.5 35t6 29t-1.5 32q-3 14 -11 25t-20.5 22.5t-17.5 17.5q-2 3 -24.5 32t-26.5 44q-12 40 -12 78q0 41 14 80q2 4 4.5 16t5.5 19l-26 2q-4 0 -8.5 -3t-8.5 -3 q-4 1 -4 4.5t-4 3.5q-4 1 -31 -10q-3 -1 -10 2t-10 2q-21 -4 -36.5 -4.5t-30.5 1t-23 1.5q-13 0 -39.5 1t-28.5 1q-3 1 -26 2.5t-53.5 3.5t-45.5 4q-4 0 -17 5t-17 5q-8 3 -19 -14q-4 0 -16 1t-15 1q-32 8 -47 8q-12 3 -53 -4q-24 -3 -51 6q-5 0 -55 25q-2 1 -37 17.5 t-51 27.5q-5 3 -14 21t-15 24q-1 1 -9.5 4.5t-9.5 5.5q-26 53 -24 62zM852 -671q-3 -10 -3 -16.5t3 -10.5q3 9 7 28t7 27q-8 -8 -14 -28zM858 -635q1 3 5 15.5t4.5 18.5t-3.5 13q-4 -8 -5 -27t-1 -20zM877 -657q10 25 32 69q1 6 33 106t33 103l45 123q0 1 6 22.5t12 45.5 l13.5 54t11.5 50q1 9 1 22t1 17q9 41 49 158q2 3 2 7.5t-1 9.5t-1 7q1 10 7.5 32.5t6.5 29.5q0 5 -2.5 17.5t-3 20t3.5 17.5q12 -4 13 -4l10 33q-3 3 -11 6.5t-10 5.5q1 6 5.5 26t3.5 27l-19 2q1 -5 3 -11t3.5 -9.5t-0.5 -8.5t-8 -10q-1 -9 -1.5 -24t-1 -24.5t-1.5 -12.5 q-2 -7 -9 -5q-2 1 -3 1q-1 -3 -0.5 -6.5t1.5 -9.5t1 -9q-14 -17 -21 -41q-1 -5 1 -15t1 -13q-5 -19 -18 -51.5t-16 -43.5q-6 -15 -10.5 -41.5t-6.5 -33.5q-8 -16 -8 -17q0 -19 8 -39q-20 -36 -20 -49q-1 -7 -2 -21.5t-2 -25t-2 -14.5q-4 -11 -20 -27.5t-17 -19.5t-1.5 -55.5 t-2.5 -57.5q-2 -3 -10.5 -7t-12.5 -3q-5 -14 4 -23q-15 -96 -20 -117q-3 -10 -14 -18t-19 -4l-8 -6q1 -4 4.5 -12.5t3.5 -10.5q3 7 10 10l2 -6q-3 -17 -12 -26q6 -11 2 -19q-16 -50 -18 -71zM1200 553q5 -1 10 -1q13 0 31 7q4 33 14 51q-4 4 -4 11q2 7 6.5 19t7 21t3.5 15 t3.5 20.5t4.5 23.5t6 19.5t10 16.5q0 50 27 92q0 2 -2.5 9.5t-1.5 12.5q6 18 12.5 55t7.5 40q4 19 17 49q2 4 6 9.5t6.5 9.5t3.5 7q10 123 12 129q0 1 6.5 8.5t12.5 22.5l-10 -2q-2 1 1 23t-6 24l2 6l3 2l1 -4q2 -4 3.5 -6t5.5 -2t6 1t2 2v1l4 12q-1 1 -1 5.5t-1 5.5 q-10 -1 -37 4l-4 -15q-2 -4 -4 -25.5t-4 -29.5q-2 -6 -9.5 -14.5t-7.5 -9.5q-2 -6 -8.5 -28t-9.5 -30q-1 -4 3 -9l3 -5q-3 -13 -6.5 -37t-7.5 -43.5t-10 -36.5q-27 -53 -27 -55q-2 -8 -3.5 -22t-2.5 -17t1.5 -10t2.5 -8q0 -3 -3 -12.5t-3 -12.5q-1 -3 -1 -8t-1 -8.5t-4 -6.5 q-6 18 -4 27q0 -2 -3.5 -5t-5.5 -7q-1 -4 -2 -20.5t-2 -22.5q-2 -17 -14 -60q-7 -33 -23 -55q2 -9 1 -14.5t-5 -14t-4 -10.5q-1 -4 -2 -18t-2 -19q-2 -2 -6 -15q-4 -12 -5 -24q0 -17 11 -18zM1374 1786l4 12q3 0 6 -4t2 -10z" />
<glyph unicode="I" horiz-adv-x="653" d="M-37 -668l10 15q1 2 5 22.5t8 39t6 22.5l20 47q3 -6 0 -15q2 0 6 -8q4 2 72 156l-6 12q3 5 5 19t5 20q33 68 33 100q0 3 6 11.5t6 11.5q33 104 35 109q2 4 3 11.5t1.5 17t1.5 14.5q1 4 12.5 30t12.5 37q2 25 14.5 63.5t13.5 43.5q1 3 9 37t12 55v37q2 10 13.5 36.5 t13.5 42.5q5 26 8 74t4 53q8 24 8 25q2 12 18.5 119.5t16.5 116.5l6 37q5 36 10 72.5t4 39.5q4 3 9.5 47.5t10 89.5t5.5 47q1 3 -3 13.5t-3 13.5q1 5 7 24.5t7 28.5q0 5 -1 13t-1 14.5t2 11.5q2 8 13 65t20 87q1 3 0 12t0 14q1 4 10.5 28t9.5 40q0 17 7 49q0 1 -1 3t-2 4.5 t0 6.5q0 1 4 6.5t5 8.5q0 23 -4 69q-1 10 -14.5 21.5t-16.5 15.5q7 16 8.5 35.5t0 40.5t-0.5 29q16 91 25 121q4 16 10 28q8 18 11.5 24t15.5 15t38 21q3 0 10.5 -1.5t12.5 -0.5q23 6 28 6h1q15 0 24 -9q31 -38 49 -67q3 -9 17 -37q2 -2 -0.5 -10.5t-1.5 -11.5 q0 -8 4.5 -30.5t5.5 -31.5q1 -11 16 -74q1 -3 -0.5 -11.5t-1.5 -10.5l5 -6q5 -6 5 -9q-1 -28 -1.5 -53.5t6 -52.5t20.5 -45q-9 -30 -33 -50.5t-55 -13.5q-7 2 -19 16t-12 25q0 3 8.5 18.5t8.5 24.5q0 1 -3.5 9.5t-3.5 13.5q0 3 4.5 12t4.5 15q4 32 4 49q-1 9 -3 32t-3 31 q-1 6 -8 22t-9 21q-1 3 -1 8t0.5 12.5t0.5 10.5q0 6 -2 9.5t-7.5 7.5t-8.5 8q-6 -4 -10 -17q-2 -3 -7 -21.5t-11.5 -43t-10.5 -37.5q-7 -19 -28.5 -71t-30.5 -79q0 -2 1 -3t2.5 -1.5t2.5 -1.5q-20 -52 -31 -121q-4 -22 -18.5 -76t-16.5 -77q-2 -18 -9.5 -57t-10.5 -56l1 -1 l5 -1q-5 -12 -7.5 -53t-3.5 -83t-1 -46q-1 -5 -3.5 -19t-3.5 -21.5t-0.5 -18t4.5 -19.5l-2 -76q-1 -2 -5.5 -28t-11.5 -63t-13 -63q-5 -14 -15 -28l2 -6q7 2 13 2q0 -6 -9.5 -20.5t-9.5 -20.5q-1 -6 0.5 -17.5t1.5 -13.5t-3 -10t-3 -10q0 -71 -2 -84q-2 -8 -7.5 -31 t-8.5 -33q-15 -65 -27 -110q-8 -8 -13.5 -19.5t-10.5 -29.5t-7 -27t-5.5 -34t-4.5 -28l-7 -19q-7 -18 -7 -28l3 -5q3 -5 3 -9q-4 -16 -19 -48.5t-20 -49.5q0 -2 1 -9.5t1.5 -14t-0.5 -13.5q-1 -5 -6.5 -14.5t-8 -18t0.5 -14.5q-4 -9 -7.5 -20.5t-5.5 -23t-2 -12.5l-15 -15 t-15 -17q-1 -2 -0.5 -15t-1.5 -18q-11 -33 -15 -49q-2 -8 -4 -28t-4 -30q-2 -9 -16 -34t-15 -39q-4 -48 -24 -99q-2 -3 -5.5 -8t-8.5 -11t-7 -9q-1 -1 -7 -16t-12 -28q-6 -12 -18 -22q-10 -8 -20 -8h-4q-2 1 -14.5 11t-18.5 11zM158 66l6 10q2 -2 0.5 -6t-6.5 -4zM205 291 q1 4 7 11.5t7 10.5q-2 -5 -2 -17t-2 -17q-5 0 -9 4q-3 2 -2 5q0 1 1 3zM219 324v8q0 32 14 80q2 6 1.5 23.5t1.5 19.5l8 8q1 -10 0 -20q0 -24 -4 -54q-1 -2 -10 -26.5t-11 -38.5zM240 489l10 21q-3 -3 2 -18q-4 -3 -12 -3zM496 1423q0 16 2 19q1 3 3.5 4t4.5 1t4.5 -0.5 t3.5 -0.5q-1 -1 -3 -3.5t-2.5 -4t-1.5 -3.5t0 -3t3 -2l-6 -15q-3 0 -5.5 3t-2.5 5z" />
<glyph unicode="J" horiz-adv-x="1167" d="M51 352q-1 4 -1 9q0 9 5 20q6 20 33.5 36t48.5 13q3 0 27.5 -6t28.5 -6q3 -1 12.5 -1h23.5t25 -1l-12 -29q-1 0 -17 -8q1 -2 3 -2.5t5.5 -0.5t6.5 -1q5 -2 32 -1.5t41 3.5q3 0 13 3.5t14 2.5l4 -2h8q18 0 58 5q54 6 121 15t87 11q4 0 17.5 4.5t17.5 5.5q12 2 53 7t58 9 q4 16 14 82q4 21 12 81.5t13 90.5q-1 2 -23 6q6 16 18.5 47t18.5 46l-1 5q-1 4 -1 9q1 16 16 72q2 10 7 55q0 3 3.5 11t4.5 13q1 24 14 70q8 29 8 53q0 12 -2 23q-60 0 -84 6l-30 7q-31 7 -45 11q-3 0 -6.5 2.5t-8.5 6t-8 4.5q-2 1 -8.5 2t-9.5 2q-3 2 -13.5 5.5l-13.5 4.5 q-5 1 -43 18q-1 1 -2.5 3.5t-3.5 4.5t-4 3q-78 21 -135 86q-7 0 -9 2q-3 3 -6 11.5t-6 10.5q-2 2 -10 6.5t-10 6.5l-12 15q-11 16 -21 21q-45 27 -45 56q0 6 2 12q1 1 5.5 9.5t10 17t10.5 12.5q26 16 68 33q22 10 66 10q18 -3 54.5 -44t47.5 -61q3 -4 14.5 -15t16.5 -17 q3 -3 14 -10t14 -9q96 -61 164 -75q3 -1 9.5 -4.5t9.5 -4.5q27 0 45 -6q33 -5 49 0q0 7 4.5 21t5.5 18q1 6 1.5 17.5t1.5 21t3 16.5q2 8 11 34.5t10 37.5q5 21 18 31q-2 4 -8 10q6 18 6 23q0 10 4 39.5t2 44.5q-1 6 -6 12.5t-13 14t-11 11.5q-2 2 -7 5t-11.5 7t-8.5 5 q-4 3 -6.5 8.5t-5.5 13t-4 9.5q-13 2 -13 10q0 18 2 24q4 15 13 21q13 13 51 26q3 3 18 3q6 6 12 8q22 11 58 16q3 0 10.5 -1t11.5 -1l23 -6q20 -8 35 -23q3 -3 10 -15.5t10 -16.5v-9l8 -8q0 -33 9 -51q3 -7 17.5 -21t18.5 -18q29 -33 82 -106q3 -4 5 -18.5t4 -18.5 q1 -5 11.5 -18t12.5 -17q1 -3 19 -45q4 -6 4 -23v-20q0 -20 -13 -55q-16 -42 -47.5 -71t-97.5 -54q-57 -20 -94 -27q-8 -2 -35 -2q-11 -2 -16 -18q-43 -108 -62 -216q-2 -8 -10.5 -42.5t-11.5 -55.5q0 -4 12 -8q-1 -6 -8 -24t-9.5 -26.5t0.5 -15.5q0 -2 -2.5 -8.5 t-2.5 -11.5t5 -6l2 -1q-1 -1 -2 -3q-1 -3 -11.5 -10t-12.5 -11q-1 -2 -6.5 -33.5t-13.5 -71.5t-13 -61q-1 -6 -4 -20.5t-6 -28.5t-6 -24q-1 -2 -8.5 -16t-8.5 -21q-3 -15 -8 -62q-5 -22 -23 -69t-22 -60q-2 -6 -2 -32q0 -8 -10 -15v-16q-7 -33 -27 -80q-4 -13 -8 -43 q-2 -8 -2.5 -33t-1.5 -31q-12 -42 -12 -45t-11 -14l7 -14q0 -6 -8.5 -19t-10.5 -18q-3 -10 -4.5 -31t-3.5 -29t-10.5 -31.5t-10.5 -37.5q-6 -24 -6 -29q2 -21 -1.5 -38t-11 -35.5t-9.5 -28.5q-1 -5 -1 -14t-1 -16.5t-4 -12.5q-2 -7 -10 -21t-9 -20q-5 -13 -16 -86 q-2 -6 -0.5 -27t0.5 -29q-2 -11 -5 -34t-5 -35q-1 -6 -6.5 -20t-6.5 -17l5 -3q5 -3 5 -7q0 -16 -8 -66q-1 -3 1 -11t1 -13q0 -14 -10 -27q2 -4 8 -10q-1 -3 -7 -11.5t-5 -13.5q6 -13 6 -33q0 -19 -6 -44q-10 -52 -8 -62q1 -4 -4.5 -16.5t-5.5 -18.5q0 -1 2.5 -8.5t1.5 -11.5 q-1 -6 -18 -16q-14 -7 -21 -7h-2q-3 1 -12 2t-13 2q-5 1 -7 5.5t-1.5 11.5t2 13t2.5 11l2 6q0 54 12 148q1 5 -1 16t-1 17q2 7 10.5 25.5t8.5 27.5q1 3 -2 15.5t-2 17.5q1 7 3.5 24t3 25.5t-0.5 25.5q-1 11 -5 29.5t-6 33.5t-1 27q0 3 -2 5.5t-5 4.5l-4 3q-1 7 1 21.5 t5 19.5l9 20q3 0 5 -1.5t4 -4.5t3 -4q1 0 3 1q2 0 3 1t2 6q3 5 4 22t-2 29q-1 -2 -7 -11.5t-9 -14.5q-4 19 6 35q1 0 1 -2q0 -3 1 -5h8q0 3 -3 11t-3 14q-1 4 14 29q-4 32 -10 53q-1 2 2 9t2 9q-4 28 -4 52q0 19 8 43q-4 4 -4 8q0 2 3 7t3 7q-5 15 0 23q1 4 4.5 10t9 13.5 t7.5 10.5q0 -16 4 -26q9 0 12 10q1 3 2 54t2 55q1 3 4.5 5t8.5 4.5t8 4.5q9 -6 14 -21q6 0 8 2q3 2 -8 13q1 1 1.5 8t2.5 12l21 49l4 -6q1 1 3 1t3 1t2 4t-2 21t-2 26q1 5 1.5 16t1.5 19t3 11l14 36q15 -15 15 -26q1 -3 -2.5 -8t-8 -11.5t-6.5 -11.5q-3 -19 -10 -43 q-1 -4 1 -8.5t6.5 -11.5t6.5 -11q1 -2 3.5 -7.5t4 -10.5t1.5 -8q1 -3 -0.5 -9t-1.5 -8q4 0 7 3t5.5 9t3.5 7v18q0 4 1 10l2.5 15t2.5 14q1 3 -1.5 8t-2.5 8q-1 4 4 25q-4 8 -4 10q3 18 14 35q-3 4 -16 18.5t-18 24.5q-6 17 8 60l6 14q11 -4 22 0q-1 0 -4 -1.5t-5 -2t-4 -2.5 t-3 -4q-6 -15 7 -21t13 -8q14 2 21 22q5 15 -10 19q4 0 8 2q3 6 2 8q-4 -2 -4 -6q-1 0 -8 14l6 -6l10 6q-3 2 -3.5 4.5t0.5 8t1 8.5l-4 -2l-3 -1.5t-2 -1.5t-1.5 -2t-2 -2.5t-3.5 -2.5q0 5 3.5 10.5t4.5 7.5q1 3 2 15.5t2 17.5q0 1 -3 4.5t-3 5.5l2 5q2 5 2 11 q-3 -4 -8.5 -17t-12.5 -20q1 -2 7 -4.5t6 -5.5l-4 -10l-13 2l-3 -1q0 -1 -1 -3q-1 -4 0.5 -10t4 -14.5t3.5 -12.5h-10q-9 12 -4.5 29t14.5 26q-8 3 -9 17.5t3 21.5q4 11 10 15q3 0 6 -4.5t3 -8.5l3 1q0 1 1 3q4 9 -3.5 13t-13.5 4q2 10 7 46.5t10 55.5l-4 2q-4 -1 -14 -1 t-15 -1q-2 0 -9.5 -2.5l-10.5 -3.5t-13.5 0t-15.5 0q-3 -1 -9.5 -5t-9.5 -5q-35 -9 -70 -9q-12 0 -24 1q-14 -10 -45.5 -10t-40.5 -3l-5 -3q-6 -3 -11 -3q-61 -13 -180 -33q-9 2 -15 0q-21 -7 -50 -6t-34 0q-5 0 -16.5 -3t-15.5 -3q-12 4 -29 4q-20 3 -43.5 17.5t-26.5 25.5 zM178 387q18 -9 31 -6l-2 3q-2 3 -4 5.5t-6 3.5q-13 0 -19 -6zM377 303l6 10l12 -6q-1 -1 -3.5 -4.5t-4.5 -5.5q-2 1 -4 2.5t-3.5 2.5t-2.5 1zM553 59l10 17l10 -2q4 -11 -4 -23q-2 0 -7.5 3.5t-8.5 4.5zM578 -78q4 2 14 2l-4 -10q-2 0 -10 8zM580 -197q0 2 5.5 6.5t6.5 6.5 q0 -2 -1 -10t-0.5 -13.5t3.5 -9.5l-8 -19q-4 8 -1 15t3 14t-8 10zM600 -401q0 -25 2 -33q24 14 30.5 20t10.5 21q6 9 6 16q0 5 -1.5 24.5t-0.5 24.5q0 3 6.5 8t8.5 7q4 8 4 34q1 13 -5.5 36.5t-5.5 25.5q1 4 9 8q9 -27 16 -31l6 15q3 10 9 53t5 49t-5 16.5t-5 16.5l-18 2 q0 -37 -8 -49q4 -7 6 -21.5t0 -19.5q-1 -3 -3.5 -6t-2.5 -4q-8 1 -9 5.5t1 11t-1 13.5q-2 -1 -6 -2t-6 -2q-2 -9 -2 -57q-6 -6 -6 -10l-4.5 -27t-3.5 -29q1 -10 1 -20q0 -56 -20 -90q0 -1 -3.5 -2.5t-4.5 -3.5zM674 -252q4 -4 4 -8q1 3 -4 8zM715 91q0 -3 3 -5q4 -3 5 -4 q1 4 0.5 6.5t-1.5 5.5t-1 4q0 -1 -1 -0.5t-2 -1.5q-3 -2 -3 -5zM735 111q0 -7 10 -33q3 18 -2 45q-8 -4 -8 -12zM1092 1245l16 -2l8 2q61 5 68 25q1 3 1 14v14q-1 23 -5 31l-10 23q-10 22 -17 32q-20 -7 -39 -51q-10 -30 -22 -88z" />
<glyph unicode="K" horiz-adv-x="1228" d="M-23 102q2 2 14.5 13.5t28 25.5t23.5 23q9 9 36.5 38t41.5 42q24 22 59 61q2 3 13 8.5t14 8.5q5 5 11.5 19.5t10.5 20.5q8 12 15 19q5 4 16 14.5t16 14.5q7 14 11 20q12 15 28 31q3 3 3.5 11.5t3.5 10.5q9 9 34 29q6 4 29 43q2 1 6 4t6 4q4 6 4 17q1 1 5 2t6 6q4 9 17 76 t27 142t17 87q1 5 1.5 21t2.5 26q1 7 10 43.5t12.5 61t0.5 42.5q-6 0 -8 -2q-16 -8 -57 -32t-64 -37h-11q-20 -12 -49 -12q-17 0 -37 4q-44 8 -70 66q-21 48 -21 78q0 7 1 13q1 1 -0.5 3t-4 4t-3.5 4q-14 42 -14 64q0 8 2 13q3 7 17.5 19.5t23.5 15.5q4 1 26 10t33 11h43 q16 -3 21.5 -10.5t17.5 -36.5q3 -5 2.5 -20.5t1.5 -20.5q3 -10 5.5 -25t4.5 -25t9 -20t20 -14q20 10 45 34.5t37 45.5q1 3 8 8t8 8q0 1 3.5 8.5t5.5 11.5q1 3 8 9.5t8 9.5q3 6 10 25t13 28q2 3 7.5 11t9.5 14t5 10q5 7 18 51q0 1 -1 6t-1 8q7 25 18.5 73.5t16.5 68.5 q1 5 0 12t1 16.5t7 14.5q-4 14 -3 19t5 12.5t5 13.5q5 42 10 49q8 25 24 33q71 45 105 45h6q13 -3 18 -13q3 -19 3 -29t-3 -35t-4 -34q-1 -10 -10.5 -38t-11.5 -40q-1 -4 -0.5 -18t-1.5 -19q-10 -40 -25.5 -126.5t-21.5 -116.5q-3 -9 -15 -25q4 -6 4 -22q-1 -2 -5.5 -10 t-4.5 -11q0 -1 1 -7t1 -9q-44 -215 -69 -309q77 30 94 30q3 -1 9 -5t9 -5q14 11 25 41q-2 -4 0 -8q8 0 12 6q3 7 4.5 21t3.5 18q3 5 30 27.5t34 27.5q28 28 39 23q1 1 4 9t8 11q4 2 16.5 7t18.5 10q1 3 1 11t1 11q3 2 12 2.5t10 1.5q9 5 21 29q12 -2 29 24t34 27 q15 32 32.5 53t51.5 49q7 6 19 23.5t18 24.5q2 3 12 9.5t13 10.5q1 1 14 16.5t21 20.5q35 25 81 41q14 6 48 6q10 -3 12 -23q1 -9 2 -15q0 -7 -2 -9q-1 -3 -8.5 -10t-8.5 -11q-12 -26 -44 -64t-37 -46q-16 -24 -34.5 -44.5t-25.5 -29.5q-80 -99 -121 -137q-3 -3 -9 -15 l-7 -14q-8 -9 -66 -63q-6 -6 -41 -27q-3 -3 -9.5 -12t-10.5 -12q-24 -12 -27 -15q-4 -4 -19.5 -26.5t-25.5 -32.5q-39 -39 -61 -72q-3 -4 -46 -42t-50 -54q-3 -8 -9 -139q0 -5 5 -113q1 -18 1 -58.5t1.5 -71.5t4.5 -58q8 -46 38 -138q0 -2 -2.5 -6.5t-2.5 -5.5 q24 -55 54 -141q5 -17 23.5 -46t25.5 -44q14 -35 37 -62l1 -6q0 -5 5 -6q5 -2 33 4q3 0 11 3t11 3q5 0 25 -4q2 -8 8 -31t9 -37t1 -18q-1 -5 -12 -10q-17 -25 -27 -27q-4 -2 -16 -2q-4 1 -10.5 7t-10.5 7l-13 -7q-13 -7 -28.5 -13.5t-21.5 -5.5q-9 3 -16 10q-5 6 -17 16 t-16 15q-8 8 -8 18q-4 4 -11 4q-13 24 -40 78.5t-35 71.5q3 0 9.5 -1t8.5 -1q11 -18 29.5 -56.5t35 -64.5t37.5 -43q1 -1 4.5 -7t6.5 -7l14 -2l4 4q1 3 -4 16t-6 18q0 1 -4.5 5t-5.5 6q-1 1 -3 10t-4 12q-2 5 -13.5 18.5t-18 27.5t-2.5 30q-8 6 -22 38t-25 36q-2 11 -9.5 32 t-9.5 29q-5 19 -10 60q-4 8 -10 8q-4 8 -4 14q-1 1 -7 5.5t-8 6.5q6 36 4 50q-3 10 -10 20q-2 2 -1 11t-1 14q-1 3 -5 8t-5 8q-2 12 -10 35q-1 4 -2.5 15t-2.5 15q-4 7 -10 21t-10.5 23t-7.5 10q-5 1 -12 -4.5t-12.5 -11.5t-6.5 -7q0 3 -4 9.5t-4 9.5q-2 15 -5 54.5t-5 55.5 q-3 23 -15 56q-11 49 -18 51q-7 0 -23 -11q-14 -14 -22 -38q-37 -112 -45 -127q-18 -38 -25 -66q-1 -3 -9.5 -21t-10.5 -28q-2 -1 -9 -8q-4 -9 -9 -28.5t-7 -25.5q-34 -91 -65 -159q-152 -367 -179 -420q0 -9 -4 -21q0 -10 -12 -22v-12q0 -12 -10 -25q-2 -2 -2 -4t2 -7t2 -7 q-27 -24 0 -54q0 -3 -6.5 -7.5t-12.5 -6.5l-2 -6q2 -2 9.5 -3t9.5 -3q-2 -4 -10 -10t-9 -7q-1 -2 -0.5 -4t1.5 -4.5t1 -3.5q-12 -36 -39 -86q-7 -4 -23 -8q-11 -3 -17 -3q-3 0 -5 1q-5 1 -6.5 4t-5.5 4q-5 2 -20 -2l8 16q1 3 7.5 28.5t12.5 41.5q4 14 -2 25q-3 16 -20 26 q15 40 20 60q6 13 45 97t56 132q5 14 10.5 25.5t17.5 36t27 59.5q4 9 13 29t11 24q30 76 56 139q3 5 14 8q1 2 -3 5.5t-3 7.5q6 24 34 97.5t34 102.5l6 11q7 -22 10 -41q0 -2 -9 -21t-5 -26q0 -3 -6 -10.5t-7 -10.5q2 -4 5.5 -15t9.5 -18l8 19q2 10 8 43q0 3 -4 8t-4 8 q1 4 5.5 16t6.5 17q-8 2 -4.5 15t2.5 16q0 4 -5 10.5t-5 11.5q0 1 3 6t3 9v14q2 2 0 6q-18 -11 -100 -78q-10 0 -19 -6q-5 -4 -18 -17t-19 -16q-1 -1 -7.5 -2.5t-8.5 -3.5q-22 -29 -63.5 -69.5t-55.5 -67.5q-12 -2 -39 -2q-4 1 -10 2t-10 2q-5 0 -9.5 7t-3.5 11zM244 -27 q11 8 18 19q3 6 4.5 18t2 27t1.5 20l-12 2q0 -19 -9 -45q-6 -18 -6 -31q0 -5 1 -10zM352 328q0 -5 7 -15t-1 -16l11 25q4 0 4 6l2 6q0 14 -10 24zM598 299q6 0 6 4q6 -1 8 -11t1 -20t1 -16q0 -1 7 -8q6 -24 14 -60q1 -4 1 -18.5t1 -19.5q0 -18 18 -70q1 -1 3.5 -2t4.5 -3 t3 -5q0 -14 5.5 -34t14.5 -46.5t12 -36.5q-13 11 -27 40.5t-18 59.5q0 1 -3.5 5.5t-4.5 7.5q-1 2 0 9.5t0 10.5q-8 5 -14 18q0 1 1 6t1 7l-3 15t-3 18.5t0 15.5q0 4 -7.5 17t-9.5 20q-8 30 -12 96zM712 768l9 2q24 28 33 37q10 8 65 63q2 3 47 54q2 2 4 8t4 8q13 10 17 10 q11 11 46 64t40 65l-2 4q8 12 8 17q9 26 21 41l-15 4q-3 -4 -13.5 -9.5t-14.5 -9.5t-13 -16.5t-12 -15.5q-10 -8 -29 -24t-31.5 -27t-13.5 -11q-3 1 -5.5 3t-6.5 3q-11 4 -19 -4q-97 -126 -100 -139q-4 -8 -11.5 -60t-7.5 -67z" />
<glyph unicode="L" horiz-adv-x="690" d="M-188 -713q0 22 12 58q16 41 47 68.5t98 54.5q64 22 94 28q4 1 17 1t18 1q11 2 17 19q38 95 59 215q3 14 12 46.5t13 51.5q-1 2 -13 8q1 6 8 24t9 26.5t-2 15.5q0 2 3 9t3.5 10.5t-4.5 6.5h-3q0 1 1 4q2 3 12.5 9.5t11.5 9.5q2 3 7.5 34.5t13.5 72t14 61.5q0 2 6 31 t10 43q1 1 8 14.5t7 19.5q2 10 5 32t5 32q5 22 23 69t22 60v31q0 10 12 14v16q1 8 25 82q10 23 10 43q2 7 2 31t2 33q1 3 6.5 20.5t4.5 24.5q0 1 1.5 3t4 5.5t4.5 5.5q0 2 -2 6.5t-2 7.5q0 5 18 35q3 9 4 30.5t4 31.5q1 13 10 36t11 33q6 24 6 29q-2 21 1.5 38t11 35.5 t9.5 28.5q1 4 1.5 12.5t1.5 16.5t4 14q2 5 9.5 19.5t8.5 21.5q13 67 16 86q2 6 0.5 27t-0.5 29q1 9 3.5 23t4 25t3.5 21q3 13 12 35q-1 1 -5.5 5t-4.5 9q0 12 8 64q0 1 -2 10t-2 15q4 15 12 26q-1 2 -4.5 5t-3.5 5q1 2 6.5 11t3.5 14q-6 12 -6 31q-1 19 5 45q12 53 11 63 q-1 4 4 16.5t5 18.5q0 1 -1.5 6t-2 8t1.5 7q1 4 17.5 13t22.5 9q3 -1 11 -2t12 -2q7 -1 9 -8t0.5 -15.5t-3.5 -16.5t-2 -9q0 -64 -14 -146q0 -3 1.5 -14.5t0.5 -19.5t-9.5 -26t-9.5 -26q0 -1 4 -14t3 -20q0 -1 -4.5 -30t-2.5 -44q1 -11 7 -43.5t6 -46.5q0 -3 4 -8t4 -7 q4 -8 -4 -41l-8 -18q-3 0 -5 1.5t-5 4.5t-5 4q-4 -2 -8 -8q-6 -18 -2 -53q2 3 8.5 13t9.5 13q3 -10 -6 -32q-1 0 -1 1q0 3 -1 5q-6 0 -8 -2q0 -3 2.5 -11t3.5 -12t-1.5 -8.5t-7.5 -11.5t-7 -10q2 -7 6 -26t6 -26q0 -2 -3 -9t-3 -9q6 -21 6 -51q0 -19 -8 -43q4 -8 4 -11 q0 -1 -3 -5.5t-3 -6.5q3 -13 0 -22q-1 -4 -23 -37q2 9 -2 28q-9 -2 -12 -10q-1 -4 -2 -54.5t-2 -53.5q-2 -3 -10.5 -8t-10.5 -7q-14 9 -14 21q-4 0 -8 -2q-5 -5 8 -13q-1 -2 -2 -9.5t-2 -10.5l-20 -51l-7 8q-2 -2 -3 -2t-1.5 -0.5t-1.5 -3.5t1.5 -21.5t0.5 -25.5 q-1 -6 -2 -24t-2 -21l-14 -37q-14 14 -14 26q-1 3 2 8t7.5 11.5t6.5 11.5q1 6 4 20.5t4 20.5q2 8 -12 31q-1 2 -10 29q0 2 2 7.5t2 8.5q-12 0 -17 -21v-16q0 -13 -8 -41q0 -2 6 -14q0 -11 -4 -27q0 -4 4 -8q-9 -27 -14 -37q2 -3 16 -17t19 -26q6 -14 -8 -57l-7 -15h-22l5 2 q5 1 7.5 3t3.5 6q6 14 -7.5 19.5t-14.5 8.5q-13 -4 -19 -22q-5 -14 11 -19q-5 0 -9 -4q-3 -3 -2 -6q4 2 4 6q7 -4 7 -16l-5 6l-10 -4q4 -4 0 -21q7 2 11 6.5t8 6.5q-1 -6 -4.5 -11.5t-4.5 -7.5q-2 -3 -3 -15.5t-3 -17.5q2 -4 8 -10l-2 -6q-2 -5 -2 -10q3 4 8.5 17t12.5 20 q-1 1 -4 2t-5.5 3t-2.5 5l2 10l14 -2h3q0 1 1 4t-0.5 9t-4 14.5t-3.5 13.5l10 -2q9 -10 4.5 -27t-14.5 -26q8 -3 9 -18t-3 -21q-3 -9 -10 -16q-3 0 -6.5 5t-3.5 9l-2 -1q0 -1 -1 -3q-4 -9 3.5 -13t13.5 -4q-15 -89 -17 -104q-1 -3 -1.5 -6.5l-2 -14t-1.5 -14t1 -6.5 q-8 -32 -16 -84q-14 -111 -27 -172q1 -1 25 -6q-6 -15 -18.5 -45.5t-18.5 -46.5l1 -5q1 -5 1 -10q-1 -13 -7.5 -37.5t-8.5 -33.5q-1 -4 -2 -14t-2 -23t-2 -19q0 -3 -4.5 -11.5t-4.5 -12.5q-1 -24 -14 -70q-8 -30 -8 -53q0 -12 2 -23q16 0 49 -3t35 -3l31 -7q31 -7 45 -11 q3 0 10 -5t12 -7q1 -1 4.5 -1.5t8 -1.5t6.5 -2q3 -2 7 -3.5t9.5 -3.5t9.5 -3q7 -3 23 -9.5t20 -8.5q3 -3 8 -13q80 -18 138 -84q4 -2 8 -2q3 -3 6 -12t6 -12q1 -1 6 -2.5t9 -3.5t6 -4q1 -1 11.5 -16.5t20.5 -20.5q44 -29 44 -55q0 -6 -3 -13q-9 -26 -24 -39q-10 -6 -68 -32 q-14 -6 -35.5 -9.5t-29.5 -1.5q-12 2 -37 26t-41.5 43.5t-26.5 33.5q-5 8 -31 34l-28 17q-91 64 -164 78q-3 0 -8 3t-8 3q-4 1 -24 4t-24 4q-32 5 -47 -2q-1 -5 -5 -18.5t-5 -20.5q-2 -7 -3 -16.5t-1.5 -21t-1.5 -17.5q-18 -55 -20 -70q-3 -17 -19 -33q6 -6 8 -10 q-6 -12 -6 -20q0 -1 -4 -35t-2 -51q1 -4 4.5 -9.5t7 -9t10 -9.5t9.5 -9q2 -2 12.5 -9t13.5 -10q3 -2 8.5 -13.5t8.5 -14.5l6 -3q6 -3 6 -8q0 -18 -2 -26q-4 -11 -12 -19q-4 -4 -52 -28q-10 0 -18 -2l-12 -6q-34 -17 -58 -17q-14 0 -22 2q-4 1 -12.5 2t-10.5 2q-28 17 -34 23 q-2 3 -10.5 15t-12.5 18q0 1 1 4t1 4q-2 4 -8 10q0 35 -8 51q-4 6 -18 19t-19 20q-6 6 -82 105q-3 4 -4.5 18.5t-3.5 19.5q-1 5 -12 17t-13 18q-13 33 -20 45q-2 5 -2 41zM-24 -692q2 -24 6 -33q3 -5 11 -25t15 -30q21 10 39 53q1 2 5 18t9.5 37t8.5 33l-17 2q-4 1 -6.5 0 t-2.5 -3l-1 -1q-60 -6 -66 -23q-2 -2 -2 -12q0 -7 1 -16zM416 483q6 3 8 9q4 9 -8 34q-2 -12 -2 -22.5t2 -20.5zM439 512q1 -3 1 -4h2q3 0 4 4t-0.5 6t-4 3.5t-3.5 2.5q-1 -3 -1 -5t2 -7zM466 712q4 -10 5 -16l18 -4q-4 29 7 51q-11 27 -7 39q1 2 4.5 6.5t4.5 6.5q8 -1 9 -6 t-1.5 -13t-1.5 -12q3 1 7.5 2t6.5 2q4 19 0 57q8 8 8 11q1 4 3 16.5t3 22t0 16.5q0 71 21 110q1 1 3 2l3 3q2 6 1.5 17t-3.5 17q-3 -2 -8 -5.5t-7 -4.5t-5 -3.5t-4.5 -4t-4 -3t-3 -3t-2.5 -3.5t-2.5 -4t-2 -4.5t-2.5 -5.5l-4 -16q0 -5 1.5 -24.5t0.5 -24.5q-1 -3 -6.5 -8.5 l-7.5 -7.5q-4 -7 -4 -35q-1 -11 5 -34.5t5 -25.5q-2 -5 -8 -8q-9 26 -17 31l-6 -17q-3 -7 -9 -51q-5 -37 -5 -48q0 -4 5 -18zM482 860q-1 1 0 2q0 1 1 2q-1 -2 -1 -3q0 -3 5 -3q-3 0 -5 2zM567 823l8 19q3 -8 0.5 -15t-2 -15t8.5 -11q0 -1 -6 -5.5t-7 -7.5q0 3 1 11.5 t0.5 14t-3.5 9.5zM569 682l4 10q6 -3 11 -8q-6 -6 -15 -2zM586 532q0 17 6 23q1 0 16 -10l-10 -15z" />
<glyph unicode="M" horiz-adv-x="1193" d="M-140 -524q0 24 1 30q0 26 5 53t10.5 44.5t14.5 44t13 39.5q27 103 35 129q15 45 44 121t37 100q25 68 62.5 195.5t52.5 170.5q2 1 6 7l4 6q0 4 15 55q2 5 3 17t3 16q8 21 26 62t25 59q7 15 14.5 45.5t10.5 38.5q12 32 38 93t33 79q3 10 7.5 34.5t7.5 34.5t10.5 26 t9.5 21q22 68 25 84q8 32 23 108.5t20 92.5q1 5 7 14t7 13q5 24 11.5 89.5t15.5 96.5q30 18 39 18q21 3 41 -6.5t28 -31t-12 -56.5q10 -17 10 -33q-6 0 -10 -4q14 -20 16.5 -33.5t-0.5 -33.5q0 -2 -2.5 -14.5t-5 -25.5t-6.5 -20q-5 -11 -18 -31.5t-15 -27.5q-2 -12 -8 -92 q7 -10 25.5 -10t33 -1t17.5 -14q5 -22 7.5 -53.5t4 -67t2.5 -49.5v-11q0 -18 -2 -56q-2 -54 0 -64q6 -25 6 -89v-11q0 -24 -1 -42q0 -36 1 -46q0 -39 2 -49q3 6 11 19.5t14.5 25t7.5 14.5q0 3 -2.5 13.5t-1.5 13.5h8q5 0 31.5 57t28.5 68q0 4 -1 5q1 -1 -4 -3 q-9 -15 -30 -45q2 -10 -15 -27v5q0 38 25 118q3 8 14 24.5t13 22.5q-11 3 -13 9t0 16q0 6 10 56.5t27.5 121t32.5 112.5q4 11 9 31.5t8.5 30.5t15.5 22.5t32 22.5q1 2 2 10t3 10q8 12 32 60q4 7 20 29.5t19 31.5q3 7 7.5 25t7.5 24q5 9 30 41l9 21q18 18 18 24 q10 0 25.5 -7.5t21.5 -8.5q24 0 27 -2q9 -4 17.5 -13.5t10.5 -15.5q6 -21 -4 -61q0 -5 -8 -21q10 -22 2 -41q-2 -3 -7.5 -10.5t-6.5 -11.5q-2 -12 -4 -34.5t-4 -33.5q-1 -5 -7.5 -12.5t-7.5 -11.5q-10 -49 -10 -148q-4 -5 -2.5 -20t0.5 -19q-3 -3 -11 -12.5t-12 -13.5v-2v-4 l5 -5q1 -1 -1 -2t-4 -4.5t-2 -7.5h4q-6 -18 -6 -22l5 -10t4 -11q0 -8 -4.5 -25.5t-4.5 -19.5q0 -4 3.5 -11.5t2.5 -10.5q0 -7 -14 -21q-12 7 -37 2q2 21 1 40.5t-2.5 37t-0.5 20.5q0 4 13 28.5t14 27.5q0 5 -10.5 31.5t-10.5 31.5q3 13 15 25l-1 3q-1 3 -1 6t2 5l4 6 q2 14 -4 28t-4 38q0 4 12 61.5t12 61.5q0 3 1.5 10t1.5 10t-0.5 7.5t-3 7t-7.5 4.5q-4 -7 -9.5 -17t-8.5 -15.5t-7 -17.5t-8 -28q-1 -8 -11 -24.5t-11 -18.5q-1 -4 -2 -12.5t-2 -10.5q-5 -10 -20 -39.5t-21 -44.5q-15 -35 -21 -59q-3 -13 -7.5 -48.5t-10.5 -49.5 q-5 -16 -9 -33t-7.5 -40t-6.5 -36q-3 -12 -12 -37t-12 -37q4 -33 -2 -59q-19 -117 -35 -195q-8 -44 -17 -118q-3 -19 -9 -53l-10.5 -59.5t-4.5 -27.5q0 -6 2 -10.5t2 -5.5q1 -9 3 -85q1 -35 1 -58q0 -27 -2 -35q-1 -9 4 -27.5t4 -21.5q0 -3 -15.5 -31t-17.5 -41l-1 -8 q-1 -9 -4 -13.5t-9 -7.5q-6 2 -18 1.5t-19 -3.5q-33 36 -43 60q-2 4 -12.5 14t-11.5 14q-2 8 -10 34t-11 39t-7 36t-3 44.5t6 43.5l-6 12q0 7 1.5 30t0.5 32q-1 14 -12 69v17q12 24 12 63q0 1 -4 8.5t-4 12.5q5 35 2 43q-1 4 -10 18.5t-9 21.5q-1 16 0.5 63.5t-0.5 61.5 q-2 13 -2.5 37.5t-4.5 40t-15 29.5q-6 6 -6 21v16q-11 31 -43 51q-8 -8 -11 -8q-7 -27 -24 -74t-23 -68q-11 -37 -39 -108q-4 -11 -8.5 -33t-7.5 -29q-8 -29 -29.5 -85.5t-27.5 -73.5q-3 -11 -10 -42.5t-11 -41.5q-18 -42 -53 -176q0 -3 -6.5 -13t-7.5 -14 q-8 -45 -31.5 -122t-26.5 -91q-1 -2 0.5 -7.5t1.5 -6.5q-4 -9 -12 -34t-14 -36q2 -3 2 -18q-15 -47 -49 -160q-1 -4 0 -8t2.5 -7t1.5 -4q-7 -26 -11 -50.5t-5.5 -40t-3 -41.5t-3.5 -42q-1 -11 -9 -29.5t-9 -25.5q-2 -7 -29 -29.5t-45 -25.5q-23 -3 -44.5 12.5t-33.5 44.5 q-1 3 -9 12t-9 15q-1 17 -1 41zM686 768q4 0 7.5 3t8 8t7.5 7l2 17q-8 -4 -23 -19zM924 100q1 16 4 59.5t4 65.5q-1 2 -2 6t-2 5q4 23 4 63v12q0 29 4 81q4 64 4 87q-4 4 -4 15q5 27 12 65q-10 17 -10 43q2 19 18 66q2 7 -1.5 18.5t-2.5 15.5q0 16 4.5 48t4.5 47q4 11 18 18 q-4 -34 -2 -45q1 -7 0 -15.5t-3 -19t-3 -14.5q6 -7 7 -15t-0.5 -13t-5.5 -14t-5 -13q8 -46 8 -52q0 -5 -4.5 -21t-5.5 -24q0 -3 -5 -9.5t-6 -10.5q0 -5 6 -7.5t7 -6.5q2 -9 -4 -32t-7 -28q-1 -10 0.5 -20t3.5 -20l3 -15q0 -11 -5 -33.5t-6 -30.5q0 -21 4 -45q4 -33 0 -43 q-8 -28 -8 -47l4 -6v-61q0 -3 1.5 -9.5t2 -10.5t-1.5 -7q-11 -27 -10 -29q3 -2 6.5 -7.5t5.5 -6.5l-10 -10l-18 6q0 3 -2 10t-2 10zM926 -315q1 2 4 5t4 5q0 7 1 24t1 23q-2 26 -2 44q0 25 4 34q0 27 -2.5 71t-5 77.5t-2.5 35.5l4 53l18 -2q0 -3 4.5 -25.5t3.5 -33.5 q-5 -41 -2 -49q5 -10 7 -10v-31l-5 -4q2 -4 2 -13t-2 -12l-6 -4q11 -7 15.5 -25t1.5 -30l6 -4q-2 -16 -2 -31q0 -21 4 -37q7 -49 27 -106q1 -2 12 -13q2 -8 5 -28.5t5 -28.5q1 -2 7.5 -15.5t11.5 -26.5t6 -20q-1 -2 -4.5 -8t-4.5 -8q13 -26 27 -61q2 -4 2 -15t2 -14 t7.5 -6.5t6.5 -5.5q0 -26 -2 -29q4 -7 9 -14t7 -11q1 -3 2 -8q0 -6 -3 -12q-1 -2 -2.5 -4t-5 -7t-7.5 -12q15 -15 15 -32q-3 -13 -13 -39q-3 -10 -11.5 -22.5t-14.5 -12.5q-4 -1 -9.5 2t-7.5 2q-3 0 -13.5 -3t-12.5 -3q-26 21 -32.5 50.5t5.5 51.5q-2 10 -1.5 27.5 t-0.5 23.5q-3 21 -12 60t-12 55q-2 13 -11.5 42.5t-9.5 35.5q-1 12 2.5 48.5t-0.5 43.5q-1 7 -6 15.5t-6 11.5q-3 7 -2 14t0 13.5t-6 7.5z" />
<glyph unicode="N" horiz-adv-x="944" d="M-176 -492q1 26 5.5 53t8.5 43.5t12 45t11 39.5q20 96 30 129q13 46 42 125.5t34 95.5q23 69 57 197.5t46 169.5q2 2 8 14q2 16 14 53q2 6 2 17.5t2 15.5q6 21 23.5 63t23.5 60q2 5 21 84q8 24 33 87t32 85q5 11 9 36t6 33q2 11 9.5 27.5t8.5 19.5q9 37 23 84 q5 25 16.5 103.5t17.5 97.5q1 5 6.5 14t6.5 13q4 25 8 89.5t12 96.5q32 19 39 21q7 1 13 1q28 0 49 -21q13 -13 13 -31.5t-13 -41.5q8 -14 12 -32q-8 0 -10 -4q14 -19 16.5 -32.5t-0.5 -33.5q0 -34 -10 -61q-5 -11 -17 -32t-14 -28q-3 -12 -4 -27t-1 -35t-1 -30 q12 -12 27.5 -8.5t31.5 2.5t19 -14q7 -29 13 -94.5t7 -73.5q2 -14 2.5 -227.5t3.5 -221.5q5 -21 8 -58.5t4 -79.5t1 -48q5 -47 6 -49q3 8 10 21.5t12.5 24.5t5.5 13q1 6 -1.5 17t-2.5 12l11 -2q6 1 29.5 59t23.5 68q0 5 -0.5 5t-3.5 -1q-7 -13 -29 -49q2 -8 -12 -25 q-1 8 -1 17q0 37 21 104q2 10 10 186t9 180q-11 3 -13 9t0 16q0 6 8.5 56t23.5 121t28 112q3 11 7.5 32.5t8 30t14.5 22t31 23.5q1 2 1.5 10.5t2.5 10.5q24 39 31 59q4 9 20 32.5t19 31.5q1 4 5 23t7 26q2 5 7 13t12 17t10 13l6 18q19 19 19 27q10 0 26.5 -8t22.5 -9h24 q13 -6 17 -20q1 -8 -11 -22t-12 -17q-1 -4 -29.5 -43.5t-29.5 -42.5q-23 -44 -29 -78q-2 -8 -11 -24t-11 -21q-1 -3 -2.5 -11t-2.5 -11q-31 -64 -36 -82q-11 -28 -19 -62q-4 -16 -7 -50t-7 -46q-5 -15 -8.5 -33t-6.5 -40.5t-6 -37.5q-2 -9 -8.5 -193t-9.5 -198q5 -19 0 -57 q-5 -36 -15.5 -105t-13.5 -90q-4 -23 -10 -118q-2 -19 -6.5 -53t-8 -59t-3.5 -28q-1 -6 1.5 -10.5t2.5 -5.5t4 -70q4 -56 4 -91v-15q-1 -9 4.5 -27t5.5 -20q0 -3 -15 -32t-16 -42q0 -21 -12 -29q-21 4 -37 -2q-32 28 -47 58q-2 4 -12.5 13t-11.5 13q-3 11 -11.5 35t-12.5 36 t-10 38t-4.5 41t3.5 45q0 10 -6 10q0 7 1.5 29.5t0.5 31.5q-4 26 -17 70v16q13 32 8 62q0 4 -3.5 10.5t-2.5 9.5q0 6 1 16t1 16.5t-2 10.5q-1 2 -11 18t-11 23q-1 9 -1 56t-3 67q-2 13 -4.5 116.5t-8.5 198t-18 107.5q-5 7 -5.5 22.5t-0.5 16.5q-14 27 -45 47q-2 -2 -6 -4.5 t-5 -3.5q-5 -24 -20 -70t-20 -71q-3 -9 -37 -109q-5 -13 -8.5 -35t-4.5 -26q-6 -19 -25 -75t-28 -87q-4 -12 -9.5 -43t-8.5 -39q-23 -63 -45 -176q-1 -4 -7.5 -14t-7.5 -15q-7 -43 -27.5 -119.5t-23.5 -93.5q-1 -2 0.5 -7.5t1.5 -6.5q-4 -12 -11 -35.5t-11 -34.5q2 -3 2 -18 q-21 -72 -43 -160q-1 -4 2 -10t2 -8q-8 -33 -11 -58t-4 -62t-2 -52q0 -11 -7.5 -30.5t-8.5 -25.5q-2 -7 -29 -30.5t-43 -26.5q-5 -1 -10 -1q-18 0 -36 12q-22 14 -36 42q-1 4 -9 13t-9 14q-4 40 -4 71zM614 467q5 1 13 9.5t10 10.5v17q-10 -5 -23 -21v-16z" />
<glyph unicode="O" horiz-adv-x="1449" d="M-141 -293v8q1 23 7 97q8 92 21 151q1 3 13.5 31.5t17.5 42.5q72 202 158 338q5 8 14 31.5t14 31.5q2 6 13.5 19t15.5 18t17 35.5t34 42.5q0 1 -1.5 4.5t-0.5 5.5q66 102 107 170q2 2 7 7.5t7 7.5q14 19 40 61.5t42 64.5q92 134 209 279l4 5q3 5 5 8t4 7.5t1 7.5t-4 5 q2 1 13 5.5t17.5 9t10.5 9.5q4 4 8.5 14t8.5 13q3 4 3 7v4t5.5 5.5t19.5 12.5q-8 12 1.5 22.5t30.5 25t30 25.5q7 9 22.5 34t26.5 38q28 28 90 74q2 2 26.5 27t38.5 34q39 34 68 49q23 12 69 28.5t62 16.5q5 0 11.5 -2t11.5 -2q6 0 10.5 3t9.5 3q24 0 46.5 -8.5t34 -17.5 t27 -23.5t19.5 -17.5q2 -2 9 -8t13 -12.5t9 -10.5q8 -13 28 -71q0 -1 6.5 -11.5t6.5 -15.5q1 -9 1 -19q0 -23 -5 -57q-7 -48 -11 -65q-1 -4 -6 -10t-6 -9q-15 -62 -37 -108t-69 -91q-1 -1 -3 -7.5t-4 -8.5q-42 -48 -45 -51q-53 -46 -118 -88q18 -12 36 -12l7 2v2q8 2 39 2 q21 0 71 -13q30 -10 33 -14q0 -1 1.5 -5.5t3.5 -8t5 -4.5q4 -3 20 -10t19 -13q2 -2 -1 -12.5t-1 -14.5q3 -11 17 -30t16 -31q4 -23 -8.5 -50t-12.5 -40q1 -4 6 -12t5 -11q0 -14 -4 -30q-1 -4 5 -10t7 -9q2 -12 -6 -45q-1 -4 -5.5 -9.5t-5.5 -8.5h-16q-3 7 -18 14q4 22 -2 33 q0 5 10 10q-11 52 -25 78q-4 4 13 27q3 6 -0.5 17t-2.5 15q0 20 23 43q-10 9 -33.5 9t-27.5 2q-1 1 -15.5 17t-36 29t-45.5 13q-49 0 -90 -8q-4 0 -15 -5t-16 -5q-57 -6 -65 -9q-2 -1 -27 -15.5t-37 -16.5q-15 -3 -30 -7.5t-28 -8.5t-29 -11.5t-26 -12t-26.5 -13.5t-24 -13 t-24 -14t-21 -13t-21.5 -14t-19 -12q-34 -23 -101 -74.5t-96 -71.5q-7 -6 -27 -24t-26 -23q-2 -2 -6.5 -11t-6.5 -11q-5 -8 -36 -31l-3 -3q-2 -3 -5 -6.5t-7 -6.5q-2 -3 -3 -10.5t-3 -10.5q-36 -45 -63 -94q-3 -6 -5 -22t-4 -21q-26 -81 -30 -100q-1 -3 1.5 -12t2.5 -11v-8 l-6 -19q0 28 -13 46q-4 8 -12 20q-9 9 -31 20q8 8 11 21q-7 7 0 43q12 50 52.5 113t88.5 106q2 2 11 16t16 21q101 97 167 152q135 112 371 225q-7 4 -23 11t-23 11t-16 11t-11.5 15t-0.5 17q9 38 19 49q23 27 80.5 67.5t87.5 43.5q16 2 61 2q10 6 37 33q64 120 72 149 q8 30 8 67q0 17 -2 35q-6 58 -31 81q0 6 -4 14q-1 1 -5.5 5t-9.5 7.5t-9 3.5q-30 0 -92.5 -48t-136.5 -118t-83 -77q-4 -3 -23 -15.5t-28 -21.5q-3 -3 -6.5 -10.5t-7.5 -10.5q-78 -61 -201 -184q-2 -3 -3.5 -13t-4.5 -14q-10 -10 -35 -20q-2 -5 -10.5 -15.5t-12.5 -17.5 q1 -1 9 -2.5t12 -3.5q-2 -3 -6.5 -5t-11 -4t-9.5 -3q-6 -4 -10.5 -16t-17.5 -13q-2 -4 0.5 -18.5t-2.5 -18.5q-3 -2 -15.5 -11t-17.5 -15q-3 -3 -2 -12t-2 -11q-1 -1 -4.5 -9.5t-10.5 -8.5h-20q15 10 18 14h-30q-12 -13 -30 -39t-28 -35q-2 -2 -3.5 -9.5t-4.5 -10.5 q-27 -41 -29 -43l-12 -6q0 -32 -10 -46q-6 -9 -26.5 -33t-26.5 -32q1 -2 3.5 -4t2.5 -4q-3 -2 -13.5 -5.5l-13.5 -4.5q8 -4 6 -13q-2 -8 -28.5 -61.5t-46.5 -85.5q-21 -35 -72 -111q-32 -64 -57 -121q-5 -13 -6.5 -43t-6.5 -43q-2 -7 -11.5 -16t-10.5 -12q-1 -5 -1 -25 t-3.5 -35t-14.5 -22l23 4q-1 1 -5.5 2.5t-6.5 3.5q5 0 12 -5t8 -9q-3 -2 -12.5 -2t-16.5 -2q-4 -21 -18 -37l4 -8q1 -3 -4 -9t-6 -10l2 -6q-5 -5 -6 -11t0.5 -15t1.5 -13q2 -15 3.5 -66t4.5 -81q0 -11 -6 -17l6 -8t6 -9t4 -7q10 -10 31 -17q1 -5 5.5 -23.5t4.5 -29.5 q0 4 -8 4q-3 -3 -4 -8q-1 -2 0.5 -14.5t-2.5 -16.5q1 -1 6 -5t6 -5q23 -37 39 -51q2 -2 14 -5.5t15 -5.5l8 7q0 4 -5.5 9.5l-6.5 6.5q15 -5 24 -14.5t11 -15.5l3 -7q6 0 6.5 2t6.5 2q4 0 13 -4.5t22 -12t20 -11.5q-7 -6 6 -19h12q3 2 5 7t4 7q6 -6 18 -12q-14 0 -24 -4 q13 -10 28 -10h27q4 1 4 6q-1 2 -5 2t-9 -0.5t-9 0.5l33 4q9 -6 70 -6q4 -1 4 -2q4 -2 6 -2q86 0 135 10.5t148 52.5q0 8 43.5 20.5t44.5 20.5q52 25 91.5 52.5t93 75t54.5 48.5q10 9 39.5 43.5t48.5 51.5q5 9 2 12q9 10 23.5 35.5t19.5 32.5q4 5 24 22.5t24 24.5q2 3 1.5 9 t0.5 11q14 28 24 43q6 0 12 6q1 2 23 47q19 10 27.5 32t-0.5 32q13 11 30 14q0 4 -1.5 19t0 24.5t7.5 16.5q2 2 10 6.5t11 7.5q7 7 14 35q13 39 13 76q0 3 -5.5 15t-3.5 17t10.5 19t10.5 22q0 2 -5.5 10.5t-4.5 12.5q1 5 7 9t7 5q0 2 -1 6t-1 7.5t2 7.5q3 5 13.5 13.5 t11.5 12.5t-5.5 35t-5.5 35q1 9 21.5 19t32.5 12q-3 -34 -10 -91.5t-13.5 -98.5t-7.5 -46q-4 -18 -15.5 -45t-15.5 -51q-1 -2 -5.5 -20t-8.5 -25q-3 -5 -12 -15t-13 -16q-2 -3 -1.5 -4.5l2 -6t1.5 -7.5q0 -11 -20 -41q-2 -3 -2 -10t-2 -11q-2 -3 -13 -13.5t-14 -17.5 q-4 -6 -4 -21.5t-6 -23.5q-10 -18 -43 -57t-43 -57q-3 -5 -17 -33t-22 -37q-24 -30 -104 -105.5t-87 -82.5q-1 -1 -10 -5t-12 -6q-14 -9 -40 -31t-40 -32q-3 -2 -17 -6t-18 -6q-3 -1 -8.5 -8.5t-9.5 -10.5q-5 -2 -41 -16q-1 7 -23.5 -10t-47 -34.5t-28.5 -10.5 q-119 -35 -167 -41q-7 -1 -26 -7.5t-26 -7.5h-84q-1 0 -20.5 -1t-37.5 -1t-26 2q-4 1 -20.5 5t-26.5 5q-101 18 -173 89.5t-85 146.5q-1 6 -11.5 42t-12.5 50zM-80 -238q5 6 6 9q3 -13 -2 -54q-10 25 -10 33q0 4 6 12zM-78 -389q-1 -5 8.5 -15t16.5 -14q-6 12 -2 25 q-8 8 -8 14l-13 2zM-76 -125q-3 5 15 23q4 -4 4 -17q-2 -1 -9.5 -3t-9.5 -3zM-70 -94q15 9 15 22q10 -10 10 -16q-9 -6 -25 -6zM-37 2l6 23l13 6q-1 -2 -2.5 -10t-5 -12.5t-11.5 -6.5zM-31 45l2 12h15l-4 -12h-13zM0 -492l2 11q1 -2 8 -8t8 -11l-2 -12q-1 1 -6 5q-6 3 -9 7 q-2 2 -2 5q0 1 1 3zM10 133l10 19q-6 -19 -10 -19zM20 160l5 14l14 8q-2 -3 -3 -9t-4 -9t-12 -4zM63 236q-1 3 5 11t6 11q0 -15 -11 -22zM109 326q8 13 20.5 42t20.5 42q-1 -3 0 -12t0 -13q-2 -9 -9.5 -20t-18 -23t-13.5 -16zM169 454q14 12 26 17l-5 -16q-1 -4 -5 -7.5 t-9.5 -7.5t-7.5 -6q-3 -3 -8 -18q1 4 -3 10q-3 5 -3 8q0 8 15 20zM328 707q6 4 18 4q0 -13 -12 -13q0 3 -6 9zM346 721q1 5 9.5 18t9.5 15q6 6 0 16q5 10 16 14q3 0 9 -4q5 -4 5 -8q1 -6 -7 -13q-6 -5 -18 -14.5t-24 -23.5z" />
<glyph unicode="P" horiz-adv-x="937" d="M-100 -43q2 8 17.5 23t32.5 28t32 24.5t16 12.5q17 12 80 53t94 64q5 4 37 25.5t54 39t32 33.5q4 7 39 115l13.5 54t17.5 65q2 9 8.5 29.5t7.5 23.5q1 2 5 25t10 55t10 51q4 20 43 268q7 30 6 37q0 2 -15.5 14.5t-19.5 12.5q-10 0 -84 -58q-3 -2 -7.5 -12t-6.5 -12 q-29 -28 -99 -74l-12 -6q-9 -11 -39 -37t-37 -33q-1 0 -6 -4t-8 -4q-4 0 -8.5 2t-8.5 2q-2 0 -11 2t-15 2q-12 46 -10 53q3 11 14.5 29.5t26.5 38t33.5 42.5t32.5 39t26.5 30.5t13.5 15.5q21 25 39 33l4 8q58 58 90 76q34 23 72 31q3 1 21 0.5t26 5.5q24 13 272 192 q1 1 6 7.5t9 9.5q138 95 294.5 168t260.5 73q7 0 29 -10.5t32 -20.5q7 -8 16.5 -27t16.5 -28q-1 -8 -2 -33.5t-2 -29.5q-1 -3 -19 -39q-2 -5 -6 -21.5t-10 -25.5q-6 -11 -20 -33.5t-19 -32.5q-1 -2 -13.5 -15.5t-15.5 -19.5q-1 -1 -6 -2.5t-6 -3.5q-6 -10 -24 -37 q-1 -2 -8.5 -6.5t-10.5 -7.5q-15 -18 -40.5 -53.5t-35.5 -48.5q-7 -8 -27.5 -29t-29.5 -33q-1 -1 -2.5 -7.5t-3.5 -8.5q-7 -7 -22 -19t-21 -18q-2 -2 -6 -12t-6 -13q-3 -4 -16 -18.5t-17 -22.5q-4 -5 -15 -25t-18 -28q-10 -13 -46.5 -47t-49.5 -49q-6 -7 -16.5 -29.5 t-20.5 -32.5q-20 -21 -75.5 -75.5t-84.5 -85.5q-6 -6 -46.5 -51.5t-70.5 -74.5t-53 -42q-4 -3 -14.5 -16t-14.5 -17q-11 -9 -29.5 -28.5t-21.5 -28.5l-20 -84q1 -1 1 -2h5q3 0 43.5 13t44.5 13q16 0 6 -20q0 -11 -22 -33q-1 -2 -11 -7t-14 -11q-3 -3 -17 -17.5t-19 -19 t-17.5 -12t-24.5 -11.5q-16 -16 -18 -20q-7 -12 -15.5 -37.5l-9.5 -28.5q-4 -10 -13 -31.5t-13 -31.5q-4 -12 -19 -64t-22 -72q-21 -75 -29 -127q-4 -54 -23 -75q-14 -14 -59 -31h-10q-25 0 -25 10q-1 8 -1 19q0 21 4 52q6 46 10 60l34 140q0 3 5.5 10t7.5 10q0 28 10 61 q2 5 26 74q1 1 4.5 3t4.5 7l4 23q-57 -22 -80 -35q-9 -5 -34.5 -22.5t-39.5 -26.5q-6 -4 -18 -6l-13 -2q-7 -3 -21.5 -16t-19.5 -17q-22 -13 -36 -16q-8 -4 -15 -11q-12 -4 -26 -4q-16 0 -31 8q-12 6 -12 17v4zM467 410q189 171 339 334.5t306 367.5q8 11 12 31q1 1 3 2 t3.5 2t2.5 1.5t2 0.5q-6 7 1.5 21t14.5 16l4 -6l8 8q2 10 8.5 24t16.5 31.5t12 22.5q2 3 10.5 11t10.5 11q34 70 49 115q3 14 3 27q-1 18 -7 38q-12 32 -49 33q-19 0 -60.5 -18.5t-42.5 -18.5q-6 -1 -23.5 -3t-23.5 -5q-7 -4 -72.5 -41.5t-110 -64.5t-83.5 -54 q-34 -21 -72 -51q-7 -5 -19 -19.5t-18 -19.5q-7 -7 -24 -20.5t-19 -14.5q-10 -10 -12 -18q-1 -4 3.5 -30t4.5 -36q1 -5 -0.5 -17t-1.5 -15q1 -7 -3.5 -18t-4.5 -13q-1 -4 -1 -36t-1 -34q-1 -4 -13.5 -24.5t-13.5 -24.5q-14 -40 -32 -117t-21 -88l2 -6q-2 -10 -8 -32.5 t-8 -32.5q-2 -8 -17 -43t-22 -72q-5 -23 -33 -104z" />
<glyph unicode="Q" horiz-adv-x="1449" d="M-104 -293q0 12 2.5 51.5t10 102.5t17.5 102q1 3 13.5 31.5t17.5 42.5q66 196 158 338q5 8 13 31t13 32q2 3 31 37q4 6 16.5 36t32.5 42q0 1 -1.5 4.5t-0.5 5.5q12 17 109 170q2 2 7 7.5t7 7.5q12 18 38 60.5t42 65.5q81 118 211 279l3 5q4 5 6 8t4 7.5t1 7.5t-4 5 q3 2 12 6t17 8.5t12 9.5q3 3 7 13.5t9 13.5q4 8 0 10q-6 -2 -10 -2q2 3 7.5 5.5t14.5 7t15 8.5q-7 12 2.5 22.5t30.5 25t31 25.5q7 9 22.5 34t26.5 38q21 23 90 74q5 4 28.5 28t34.5 33q51 40 68 49q23 12 70 28.5t63 16.5q5 0 11 -2t12 -2t10 3t10 3q24 0 46 -8.5t34 -17.5 t28 -23.5t19 -17.5q2 -2 9 -8t13 -12.5t9 -10.5q8 -13 28 -71q1 -2 6.5 -12.5t6.5 -14.5v-8q0 -28 -6 -70q-6 -50 -9 -63q-1 -4 -7 -10t-7 -9q-10 -42 -18.5 -68.5t-30.5 -63t-55 -67.5q-1 -1 -3 -7.5t-4 -8.5q-8 -8 -22.5 -25.5t-22.5 -25.5q-53 -46 -118 -88 q18 -12 36 -12l7 2v2q8 2 36 2q29 0 72 -13q28 -7 33 -14q1 -1 5 -9t7 -9q3 -3 19.5 -10.5t19.5 -12.5q1 -2 -2 -12.5t-2 -14.5q4 -10 18.5 -29.5t16.5 -31.5q3 -22 -9.5 -48.5t-11.5 -41.5q0 -4 5.5 -12t5.5 -11q0 -10 -5 -30q-1 -4 4.5 -10t6.5 -9q4 -11 -4 -45 q-1 -4 -5.5 -9.5t-5.5 -8.5h-16q-2 5 -21 14q8 20 0 33q0 6 9 10q-6 44 -25 78q-4 9 14 27q5 3 0.5 16t-4.5 16q0 22 25 43q-12 9 -35 9t-27 2q-1 1 -16 17t-35.5 29t-44.5 13q-49 0 -90 -8q-4 0 -15 -5t-16 -5q-4 0 -18 -1t-26 -2.5t-23 -5.5q-3 -1 -15.5 -9t-25.5 -14.5 t-23 -8.5q-46 -9 -98.5 -33t-77.5 -39.5t-71 -46.5q-34 -23 -101 -74.5t-96 -71.5q-6 -4 -15.5 -12.5t-20.5 -19t-17 -15.5q-2 -2 -6.5 -11t-6.5 -11q-13 -15 -39 -31q-1 -1 -2 -3.5t-3.5 -6t-6.5 -6.5q-3 -3 -4.5 -11t-3.5 -10q-47 -66 -61 -94q-3 -6 -5 -22t-4 -21 q-15 -38 -32 -100q0 -3 3 -11.5t3 -11.5q0 -6 -2 -8l-4 -19q-5 35 -13 46q-6 12 -14 20q-6 6 -29 20q1 1 11 21q-7 7 0 43q12 50 52.5 113t88.5 106q2 2 9.5 16t14.5 21q112 104 168 152q134 110 371 225q-7 4 -22 11t-22.5 11.5t-16 11t-11 14.5t-0.5 17q9 38 19 49 q24 28 80 68t88 43q14 2 59 2q8 4 37 33q1 0 17.5 31t34 68t20.5 50q10 32 10 71q0 15 -1 31q-6 59 -32 81q0 2 -2 7t-2 7q-2 1 -10.5 8.5t-14.5 7.5q-30 0 -92.5 -48.5t-136 -118t-82.5 -76.5q-4 -3 -24 -15.5t-29 -21.5q-1 -1 -4 -9t-8 -12q-88 -67 -201 -184 q-3 -3 -4.5 -13t-5.5 -14q-5 -8 -35 -20q-1 -5 -10.5 -16t-12.5 -17q2 -1 9.5 -2.5t13.5 -3.5q-2 -3 -6.5 -5t-11 -4t-9.5 -3q-7 -4 -11.5 -16t-18.5 -13q0 -2 1 -18.5t-4 -18.5q-2 -3 -13.5 -12t-16.5 -14q-3 -3 -2 -12t-2 -11q-1 -1 -4.5 -9.5t-10.5 -8.5h-20q13 8 16 14 h-28q-12 -13 -30 -39t-28 -35q-3 -3 -4.5 -10.5t-3.5 -9.5q-4 -6 -14.5 -21.5t-14.5 -21.5l-12 -6q0 -28 -10 -46q-5 -8 -25 -30.5t-28 -34.5q0 -2 2.5 -4t1.5 -4l-25 -10q7 -7 6 -13q-2 -7 -29 -60t-47 -87q-66 -103 -71 -111q-16 -26 -58 -121q-5 -13 -7 -43t-7 -43 q-2 -6 -10.5 -15t-9.5 -13q-1 -5 -1 -25t-4 -35t-16 -22l25 4q-1 0 -6 2t-7 4q5 0 12.5 -5t8.5 -9q-3 -2 -13 -2t-18 -2q0 -18 -16 -37l4 -8q1 -3 -5 -9t-7 -10l4 -6q-5 -4 -6.5 -9.5t-1.5 -9t2 -10.5t2 -10q2 -18 3 -69t3 -78q0 -11 -4 -17l6 -8t6 -9t4 -7q10 -10 31 -17 q0 -2 4.5 -21.5t3.5 -31.5q1 3 -0.5 3.5t-5.5 0.5q-5 -3 -6 -8q-1 -2 0.5 -14.5t-2.5 -16.5q2 -1 7 -5t7 -5q15 -29 39 -51q2 -2 14 -5.5t15 -5.5l8 7q0 3 -2.5 6t-7 6t-5.5 4q16 -5 26 -14.5t11 -15.5l2 -7q6 0 7.5 2t7.5 2q3 0 53 -28q-7 -7 8 -19h12q2 2 4 7t5 7 q3 -5 16 -12q-13 0 -23 -4q13 -10 27 -10h29q4 2 4 6q-9 11 4 10q7 0 28 -4q32 -6 46 -6q6 0 6 -2t6 -2q85 0 133.5 10.5t149.5 52.5q0 4 -2.5 23.5t-0.5 28.5q-4 1 -18.5 8.5t-19.5 7.5q-7 0 -11.5 -1t-5.5 -1q-6 12 -6 33q1 16 3.5 64.5t4.5 71.5t7.5 61.5t13.5 70.5 q14 57 30 94q9 25 37 72q5 13 13 22q4 4 17.5 9.5t16.5 9.5q1 1 7 9.5t9.5 13.5t11.5 15.5t14 17.5t16 17t18 16.5t19 14.5t21 12.5t21.5 7.5t22.5 3q17 0 32 -9.5t15 -15.5q-4 -2 -13 -4t-13 -4q-13 -11 -22.5 -20.5t-17 -20t-11 -15.5t-11 -18t-10.5 -18 q-16 -25 -33 -66.5t-26 -68t-11 -35.5q-1 -3 -5.5 -28.5t-12 -67t-12.5 -66.5q0 -5 4 -18t4 -19q-2 -15 -9 -54.5t-8 -59.5q-2 -17 9 -48q32 16 61 33.5t56 38t43 33.5t43 37t34 30q11 10 41 44.5t47 50.5q4 4 4 12q8 10 22.5 34.5t20.5 33.5q4 5 22.5 22.5t22.5 24.5 q2 3 2 9.5t2 10.5q11 22 25 43l12 6q1 8 10 24.5t11 22.5q19 10 28 31.5t1 32.5q10 10 30 14q0 2 -1.5 11.5t-1.5 14t0.5 12t2.5 12.5t6 10q1 2 9 6.5t10 7.5q7 7 14 35q12 36 12 76q1 4 -3.5 16t-2.5 16q1 3 9.5 18t9.5 23q1 3 -4 11t-4 12q1 5 6 9t6 5q1 2 0.5 9.5 t1.5 11.5q2 5 12.5 13.5t11.5 12.5t-6 35t-6 35q3 9 22.5 18.5t30.5 12.5q-2 -34 -8.5 -91.5t-12.5 -98.5t-7 -46q-4 -16 -16.5 -43.5t-16.5 -52.5q-5 -32 -14 -45q-3 -5 -11 -15t-12 -16q-2 -3 -1.5 -4.5l2 -6t1.5 -7.5q-3 -18 -22 -41q-2 -3 -1 -10t-1 -11t-13.5 -14.5 t-15.5 -16.5q-3 -6 -3.5 -21t-4.5 -24q-10 -18 -43 -57t-43 -57q-3 -5 -17 -33t-22 -37q-18 -23 -51.5 -55.5t-79 -74.5t-62.5 -58q-1 -1 -10 -5t-12 -6q-15 -10 -41 -32.5t-37 -30.5q-3 -2 -17 -6t-18 -6q-4 -1 -10.5 -9t-9.5 -10q-5 -3 -39 -16q0 -14 -1.5 -33.5t-1.5 -36 t3 -33.5q2 -9 1.5 -34.5t6.5 -44.5q2 -10 17.5 -31.5t19.5 -32.5q27 -92 135 -133q16 -8 55 -8q12 0 84 14l10 -8q-7 -3 -30 -16t-35 -15q-36 -8 -57 -8h-31q-15 0 -28 5t-26 13.5t-14 8.5q-47 21 -81 54.5t-53.5 76.5t-29 76t-18.5 79q-4 15 -27 52q-118 -35 -166 -41 q-7 -1 -25.5 -7.5t-25.5 -7.5h-84q-1 0 -20.5 -1t-37.5 -1t-26 2q-3 1 -21 5t-28 5q-100 18 -171.5 89.5t-84.5 146.5q-26 90 -26 92zM-42 -238q4 6 5 9q5 -13 0 -54q-10 25 -10 33q0 4 5 12zM-39 -125q0 7 16 23q6 -12 3 -17q-2 -1 -10 -3t-9 -3zM-39 -389q-1 -1 -1 -3 q0 -4 7 -12q9 -10 17 -14q-5 18 0 25q-11 7 -11 14l-10 2zM-33 -94q13 7 17 22q11 -11 8 -16q-9 -6 -25 -6zM2 2l4 23l14 6q-1 -2 -2.5 -10t-5 -12.5t-10.5 -6.5zM8 45l2 12h13l-3 -12h-12zM37 -492l4 11q1 -3 8 -9t8 -10l-4 -12l-5 4q-6 5 -9 8.5t-2 7.5zM59 160l4 14l13 8 q-1 -3 -1.5 -9t-3.5 -9t-12 -4zM147 326q6 11 19 40.5t22 43.5q-1 -3 0 -12t0 -13q-2 -9 -9.5 -20t-18 -23t-13.5 -16zM207 454q12 11 24 17l-4 -16q0 -4 -3.5 -7.5t-9 -7.5t-7.5 -6q-3 -2 -8 -18q1 3 -3 10q-3 5 -3 8q0 6 14 20zM367 707q4 4 18 4l-2 -4q-2 -4 -4 -6.5 t-6 -2.5h-1h-1q-1 1 -2.5 4.5t-1.5 4.5zM385 721q3 13 18 33q6 6 0 16q5 10 17 14q4 0 8 -4t4 -8q0 -9 -22 -32q-20 -19 -25 -19z" />
<glyph unicode="R" horiz-adv-x="1347" d="M72 580q1 4 12.5 11t28.5 15.5t22 11.5q22 12 69 45t54 37l8 4q8 3 13 3q10 5 17.5 10.5t15.5 13t14 12.5q1 1 9.5 5t17 9.5t12.5 10.5q14 18 30 72q4 22 17 45q2 4 11 15t11 15q1 2 6.5 23t14 50.5t14.5 49.5q-2 2 -2 6q1 10 -0.5 28t-1 35t5.5 32q2 5 29 53q3 5 17 14 t15 13q2 6 5 40t2 56q0 42 -35 47q-5 0 -66.5 -7t-66.5 -7q-4 1 -27.5 4t-28.5 4q-5 0 -16 6.5t-14 7.5q-17 8 -24.5 35.5t-2.5 44.5q4 12 47 41q9 7 22.5 14t31 14.5t26.5 12.5q8 4 19.5 4t26.5 -1t20 -1q4 0 15.5 1t16.5 1q5 -1 33 -13.5t33 -13.5q17 0 59 17q2 3 8.5 23 t15.5 33t25 20q85 37 101 43q5 1 11 1q13 0 32 -4q7 -1 14 -5.5t12 -11t9.5 -14t7 -13.5t4.5 -12l2 -5q17 2 64.5 10.5t72.5 10.5q34 4 123 7.5t129 8.5q33 4 74 4q64 0 149 -10q8 0 21 -13q42 -24 53 -51q3 -6 16.5 -25t14.5 -30q0 -1 -11 -45q-1 -2 -9.5 -22.5 t-14.5 -28.5q-26 -29 -55 -66q-3 -3 -11 -15.5t-12 -17.5q-2 -3 -11.5 -6.5t-12.5 -7.5q-2 -2 -9.5 -15t-11.5 -16q-6 -4 -24.5 -13.5t-26.5 -14.5q-4 -4 -10.5 -14t-10.5 -13q-18 -18 -28 -24q-6 -3 -21.5 -11.5t-29.5 -17t-25 -17.5q-2 -2 -8 -9t-11.5 -12t-11.5 -9 q-47 -26 -69 -45q-6 -5 -80 -54q-22 -15 -47 -24q-6 -6 -7 -8q-45 -29 -155 -93q-13 -8 -45 -31.5t-51 -33.5l-54 -27q-36 -18 -89 -49t-56 -37q-7 -13 -47 -307q0 -2 2 -7.5t2 -8.5q-9 -28 -14 -58.5t-9 -76t-6 -60.5q0 -4 -2 -11.5t-5.5 -17.5t-4.5 -16q1 -1 2 -6t2 -6 q1 -7 -3.5 -21t-4.5 -18q0 -10 2.5 -35.5t3.5 -32.5l-4 -5q-4 -5 -4 -9q1 -5 21.5 -88t21.5 -125q4 -18 12.5 -52.5t11.5 -49.5q1 -3 13.5 -13.5t15.5 -15.5q1 -2 23 -57q5 -9 7.5 -31.5t8.5 -32.5l9 -7q9 -8 13 -13v-9q16 -11 37 -41l-4 -12l-14 2q-7 20 -14 25 q-31 29 -58 66.5t-41 64t-33 66t-26 51.5q-5 8 -10 43q-2 9 -9 43t-13.5 62.5t-15 60t-17 50t-15.5 19.5q-9 2 -37 -16q-2 -2 -2 -4.5v-3.5l-10 -5q-6 30 -10 127q-1 6 1.5 22t2.5 21q0 15 -13 58q0 1 -2.5 2.5t-3.5 3.5q-7 -3 -12 -14q-1 -4 -9 -34t-18.5 -73.5 t-15.5 -71.5q-1 -6 -2 -21.5t-2 -19.5q-1 -2 -3.5 -9.5t-4 -9.5t-7.5 -6.5t-16 -8.5q-12 -4 -26 -4q-3 1 -17 6t-20 6q-1 4 -6 9.5t-5 8.5q3 30 39 113q0 6 -4 14q4 28 14.5 77t14.5 69q2 9 2.5 33t3.5 38q13 42 40 120.5t38 111.5q-4 1 -16.5 5.5t-16.5 4.5 q-12 -2 -29.5 -5t-52.5 -7.5t-45 -3.5q-27 3 -47 14q-15 8 -15 20q0 3 1 7zM551 758l6 -8q6 3 61 36q44 21 101 54t86 51t98.5 62.5t71.5 45.5q15 10 46.5 37t43.5 35q70 48 92 68q13 13 34.5 33.5t35.5 34.5t22 24q13 16 45.5 53t52.5 66.5t33 64.5q3 9 3 18q-1 20 -19 33 q-26 19 -64 25q-2 0 -13 -1.5t-24.5 -2.5t-23.5 0q-7 0 -31 1t-42 -0.5t-44 -6.5q-13 -2 -44.5 -2t-41.5 -2l-49 -7q-4 -1 -65 -13.5t-99 -26.5t-55 -33q-7 -8 -13.5 -27t-9.5 -24q1 -2 1.5 -6t1.5 -5q-1 -3 -4.5 -11t-4.5 -11q-8 -11 -34 -62v-16q-6 -24 -19 -47 q-3 -6 -15 -37.5t-20 -44.5h54q12 -2 2 -27q-5 -20 -13 -22q-14 -5 -47.5 -44.5t-40.5 -60.5q-1 -5 0.5 -24.5t1.5 -22.5q-1 -5 -4.5 -11t-10 -13.5t-7.5 -8.5q-6 -8 -8.5 -26t-4.5 -23q-2 -6 -8.5 -30.5t-13.5 -34.5z" />
<glyph unicode="S" horiz-adv-x="1880" d="M-84 53q2 8 4.5 14t7 10.5t7 7.5t8 6.5t6.5 4.5q1 2 0 6.5t0 6.5q37 61 107 134t132 119q1 1 25.5 18.5t34.5 27.5q15 8 63 43t72 49q3 2 13.5 4t13.5 4l24 18t31 21q15 9 56.5 25t62.5 28q6 3 31.5 19.5t37.5 19.5q6 2 22.5 6t22.5 6q3 1 26 14t34 15q26 8 80 30.5 t77 30.5q35 11 102 20t99 17q-4 6 -33.5 49t-41 63t-27.5 59.5t-21 76.5q-1 2 -5.5 13t-6.5 18q-4 16 -5.5 32.5t-1.5 27t3 28t4.5 24t7 27t6.5 25.5q21 85 42 126q32 59 89 117l8 2q8 3 13 7q4 3 16.5 16t26.5 25t27 20q6 5 18.5 12.5t15.5 9.5q84 60 127 70q26 6 46.5 12 t26 8t14.5 3.5t15 1.5h25q51 0 72.5 -10.5t44.5 -47.5q8 -11 4 -41q0 -6 8 -18q1 -3 -1.5 -17.5t-2.5 -17.5q5 -25 4.5 -34.5t-6.5 -32.5q-12 -52 -45.5 -89.5t-71.5 -37.5q-25 0 -34 6q-15 15 -15 20q-1 19 2 63q2 33 2 55v13q-10 10 -16 14.5t-8 5.5t-6 0t-6 -1 q-36 0 -87 -15q-16 -5 -92 -47q-2 -1 -6.5 -9t-7.5 -11q-61 -49 -72 -74q-1 -3 -5 -9t-7 -12t-4 -10q-3 -6 -0.5 -9t2.5 -5q-11 -36 -11 -76q0 -123 105 -278q5 -8 15.5 -34.5t17.5 -39.5q2 -5 10 -13.5t10 -11.5q14 -2 95 -2q3 0 20.5 -2t30.5 -2l-4 -22q-2 -4 -24 -30 t-32 -42q6 -4 15.5 -21t13.5 -22q7 -9 35.5 -38.5t36.5 -45.5q4 -6 20 -23.5t21 -27.5q12 0 14 -2q6 -18 17.5 -41t20 -37.5t21.5 -36t15 -24.5q29 -43 37 -91q1 -4 -4.5 -17.5t-4.5 -18.5q2 2 5.5 11.5t3.5 10.5q12 -3 22 -33q12 -42 25 -108q9 -47 9 -73q0 -10 -1 -17 q-2 -7 -7.5 -8.5t-6.5 -2.5q-9 -25 -17 -73q-6 -12 -20 -19l-4 -18q1 -2 12 -2l-6 -23q-1 0 -4 1q-9 3 -11 -5q-1 -6 5 -20.5t4 -20.5q-1 -5 -12 -20.5t-15 -22.5q6 30 6 39q0 8 -1 23.5t-1 28t2 22.5q0 2 -2 4.5t-5 6t-5 5.5q-3 16 -3 23t3.5 25.5t3.5 23.5q1 10 -8 38.5 t-12 43.5q-9 36 -9 69q7 7 6 9q-13 91 -36 139q-3 5 -14.5 12.5t-16.5 14.5q-4 -2 -4 -4q-1 -3 -2 -7t2.5 -17.5t3.5 -17.5q-3 1 -16 27q-2 4 -2.5 18t-2.5 19q-1 3 -8.5 9t-9.5 11q6 20 -4 43l-6 -12q-3 0 -6.5 6t-3.5 13q-15 -15 -15 -29q-1 3 -7 12.5t-7 16.5q0 1 -14 10 q9 9 6 20l-6 -12q-31 23 -41 55q-5 -4 -7 -10q-35 39 -77 78q-2 2 -9.5 3.5t-9.5 4.5q-4 4 -6.5 10t-9.5 6q-8 0 -15.5 -8t-13.5 -10q-8 -3 -37 -18.5t-45 -20.5q-2 -1 -4 -5t-4 -5q-7 -3 -30.5 -14t-33.5 -17q-94 -60 -126 -65q-1 0 -3 -3t-6 -6.5t-8 -5.5 q-16 -7 -64 -25.5t-71 -29.5q-2 -1 -11 -8.5t-14 -7.5q-4 0 -3 5t-3 5q-5 0 -14 -12.5t-10 -12.5q-2 -1 -19.5 -6.5t-23.5 -7.5q-9 -4 -26 -14.5t-30.5 -18.5t-17.5 -8t-2 3q-2 2 -4 3q-8 0 -43 -35q14 -18 45.5 -24t42.5 -17l-6 -26q-70 -47 -131 -47q-13 0 -29 6t-26 12 l-9 6q-5 0 -7 -5t-7 -5q-10 0 -29 29l6 26q10 -2 27 2q66 74 108 88q85 29 283 117q22 9 76 25q3 2 10.5 9.5t11.5 10.5q10 6 32 15.5t32 15.5q3 2 23 17.5t30 21.5q16 8 44 27.5t63.5 45t46.5 33.5q-16 27 -19 29q-25 16 -38.5 33t-21 22.5t-28.5 5.5q-16 0 -37.5 -10.5 t-42.5 -13.5q-2 -2 -7 -6t-7 -6q-20 0 -39 -7q-2 -2 -7 -8t-7 -8q-11 -5 -48 -18t-57 -23q-4 -2 -14.5 -2t-15.5 -2q-11 -3 -39 -19t-37 -20q-5 -2 -21 -4t-18 -2q-12 -12 -14 -16q-108 -45 -203 -101q-15 -8 -79 -48.5t-112 -66.5q-2 -1 -8 -9t-10 -11q-9 -5 -27 -13.5 t-24 -11.5q-16 -9 -47 -33.5t-47 -35.5q-1 -1 -9 -17q-4 -3 -27 -27t-32 -26l-24.5 -24.5t-28.5 -32.5q-13 -21 -26.5 -48.5t-29.5 -63t-26 -56.5q8 -4 8.5 -21.5t-3 -42t-3.5 -30.5q-2 -2 -9 -6t-8 -5q-7 18 -7 51q1 7 1 13q2 42 8 70q6 14 23 28q-12 7 -1.5 30.5 t-0.5 37.5q-5 -6 -7 -7.5t-7 -0.5t-11 0q-5 -21 -8 -50q-7 10 -7 24q0 4 1 9zM-72 -207l4 17q17 9 27 28q6 -6 16 -6q-9 -16 -7 -35t6 -29.5t14 -27.5q5 -9 12 -35t10 -33q6 3 11.5 -1t13.5 -14.5t12 -14.5q13 -13 33 -17l3 -9q3 -9 7 -11q18 -18 43 -38t31 -20q5 0 5 1l3 3 q3 0 14.5 -7t28 -17t27.5 -14q3 -1 17 -2t20 -3q1 0 3 -2.5t5 -6t6 -5.5q2 -2 6 -2.5t10 -0.5t10 -1t9 -5t8 -5q4 -2 20 -2t23 -2q28 -3 59 -10.5t74.5 -20.5t60.5 -18q-13 -13 -24 -13q-3 0 -13 3t-18 3q-13 0 -45 1t-35 1q-4 0 -5.5 3.5t-2.5 9t-2 6.5q-42 6 -43 6 q-4 0 -7 -3t-7 -3q-3 0 -4.5 1.5t-0.5 3.5t1 4v3q-16 -2 -28 7.5t-13 9.5q-4 0 -9.5 -2.5t-9.5 -2.5q-3 0 -21.5 7.5t-27.5 7.5q8 8 0 8q-5 0 -3.5 -5t-2.5 -5t-12.5 16.5t-12.5 16.5q-5 0 -7 -4.5t-7 -4.5q-2 0 -38 18t-52 19q0 1 1 5t1 7t-2 5q-3 1 -12.5 1t-12.5 1t-8 10 t-6 10q0 1 -2.5 1t-6.5 0.5t-7 2.5t-7.5 15.5t-9.5 17.5q-3 1 -14.5 5t-16.5 7q-19 17 -45 64q-3 8 -10 20.5t-10 19.5t-7.5 19.5t-3.5 20l3 22.5h-19zM582 -586q0 4 4.5 11.5t9.5 7.5t9 -5.5t9 -5.5q4 0 7.5 5.5t7.5 5.5q5 0 7.5 -5.5t6.5 -5.5h342q5 0 7 1t4 4t3 4 q10 1 50 5.5t65 10.5q99 22 164 47q23 9 47 21t56.5 29.5t48.5 25.5l6 -10q-7 -6 -31 -15q-10 -4 -37.5 -24t-40.5 -27q-6 -3 -20.5 -4.5t-18.5 -3.5q-95 -49 -244 -70q-5 -1 -34 -8.5t-33 -7.5q-5 0 -145 -2t-144 -2q-3 0 -5 1t-2.5 1.5t-2 3.5t-2.5 4q-26 -6 -36 -6 t-30.5 6.5t-27.5 7.5zM1417 506q1 -4 4.5 -11.5t3.5 -9.5l11 2q-3 19 -19 19zM1444 524q1 -3 4 -9.5t5 -13.5t1 -12h19q-1 3 -6 15.5t-5 19.5h-18zM1466 481q3 -2 9.5 -12t9.5 -12l4 16q-7 10 -15 10q-4 0 -8 -2zM1468 -416l9 31l8 6q4 4 4 17q4 1 29 22q17 11 36.5 38.5 t26.5 53.5q11 1 18 9t9.5 15.5t5.5 24t4 19.5q1 -4 5 -19.5t3 -21.5q-9 -23 -63 -101q-11 -15 -25 -29t-38.5 -36t-31.5 -29zM1507 479q0 -5 2.5 -10t5 -8.5t3.5 -3.5l6 22h-17zM1538 317q0 -10 12 -30q-13 13 -13 24q0 3 1 6zM1612 137q4 -10 7.5 -27t10.5 -26q0 -2 -3 -9 t-3 -9q7 -5 14 -25q2 12 2 25q0 22 -6 47l15 10q-7 7 3 37q10 27 9 32q0 14 -19 66l-6 -20q-1 -6 2 -9.5t2 -5.5q-12 -41 -8 -55q1 -6 3.5 -15t3.5 -13t-1 -11q-2 -9 -2 -10q0 5 -1.5 8t-5 5t-5.5 2.5t-6.5 1.5t-5.5 1z" />
<glyph unicode="T" horiz-adv-x="1347" d="M45 1243q13 31 66 53q37 15 68 16q13 0 24 -3q26 -5 50 -30t13 -50q-6 -13 -25.5 -20.5t-38.5 -10.5t-20 -4q-18 -23 4 -54.5t45 -39.5q11 -13 31 -25.5t55 -29.5t43 -21q3 -2 18 -5t19 -5q6 -3 17.5 -10.5t17.5 -10.5q21 -6 65.5 -16.5t63.5 -15.5q11 -4 30 -11.5 t33 -13t17 -6.5q2 0 53.5 -12t55.5 -13q41 -10 57 -12q9 0 33 8q1 0 7.5 -1.5t10.5 -0.5q2 0 7.5 3t8.5 3q3 1 29 4.5t35 8.5q6 1 18 8t15 8q4 2 18 5t19 5q2 1 6.5 6t7.5 6q74 39 92 52q30 15 33 24q1 3 -2.5 14t-3.5 13q1 4 7 24.5t7 30.5q1 5 0.5 19.5t1.5 17.5 q3 11 9.5 44t13 59.5t14.5 48.5q1 2 -0.5 11.5t0.5 14.5q1 6 10.5 30t9.5 38q0 9 9 49l-2 5q-2 5 -2 9l4 6q4 6 4 9v71q-1 10 -14.5 21.5t-16.5 15.5q10 22 10 62v43q13 81 25 120q2 4 6 14.5t6 14.5q13 27 24 35q13 10 44 24q3 0 9.5 -2t10.5 -2q3 2 13 6q9 4 14 3h2 q18 -5 24 -13q28 -32 48 -67q2 -2 16 -37q2 -2 -0.5 -10t-1.5 -11q0 -7 4 -30t4 -33q1 -11 16 -74q1 -3 -1.5 -11.5t-2.5 -10.5l6 -7q5 -7 5 -10q-3 -20 -3 -44q0 -17 2 -36q4 -46 23 -71q-9 -30 -33 -50.5t-57 -13.5q-7 2 -18 17t-11 26q0 3 8.5 18.5t8.5 24.5 q1 2 -1.5 10.5t-2.5 12.5q0 3 4 12t4 14q4 32 4 49q0 28 -4 64q-1 6 -7 21.5t-8 23.5q-2 6 -2 29q0 7 -2 10.5t-7.5 7.5t-8.5 8q-2 -2 -5.5 -8t-4.5 -8q-15 -62 -31 -102q-8 -23 -30 -74.5t-31 -75.5q1 -2 3.5 -3.5t2.5 -2.5q-13 -33 -31 -121q-4 -23 -20.5 -77t-18.5 -77 q-2 -17 -10.5 -55.5t-11.5 -56.5l1 -2q1 -1 5 -2q14 0 39 20q4 4 10.5 17t7.5 14q22 20 65 55.5t54 44.5q2 -2 11 -6t11 -6q3 -23 -12 -53q-1 -4 -35 -58q-1 -2 -8 -5.5t-10 -6.5t-7 -11.5t-7 -12.5q-1 -1 -10 -5.5t-13 -7.5q-2 -2 -4.5 -5.5t-6 -8.5t-5.5 -8q-1 -1 -7.5 -3 t-7.5 -3q-6 -8 -26.5 -29t-22.5 -25q-10 -23 -16 -75q-1 -7 -13 -36.5t-6 -45.5q1 0 13.5 -5.5t23.5 -11t18.5 -16t2.5 -21.5q-4 -6 -14.5 -10t-16.5 -2l-23 8l-8 -16q-1 -2 -6 -28t-13 -63.5t-14 -62.5q-6 -18 -16 -28l4 -7q4 2 12 0q-1 -6 -10 -20t-10 -20 q-1 -5 0.5 -16.5t1.5 -12.5q0 -3 -4 -11.5t-4 -11.5q0 -5 1 -24.5t0 -34t-3 -25.5q-1 -3 -8 -26.5t-11 -36.5q-19 -82 -28 -109q-9 -11 -16.5 -30t-11 -32t-8.5 -41t-7 -36q-1 -5 -8.5 -21.5t-8.5 -25.5l3 -5q4 -5 3 -9q-4 -16 -18.5 -49t-19.5 -50q0 -1 1 -9t1 -15.5 t-2 -12.5q-1 -5 -6 -14.5t-8 -18t-1 -14.5q-6 -11 -10.5 -31.5t-5.5 -23.5t-14.5 -15.5t-14.5 -15.5q-2 -3 -2 -15.5t-2 -16.5q-8 -28 -14 -52q-2 -6 -5 -26t-6 -31q-2 -9 -15.5 -34.5t-14.5 -39.5q-3 -42 -29 -98q-1 -3 -8.5 -14t-9.5 -15q-1 -1 -7.5 -15t-13.5 -26 t-19 -22q-10 -8 -20 -8h-4q-2 1 -14.5 11t-18.5 11q10 10 11 14q2 4 10 42t10 42l21 48q6 -6 0 -15q4 0 8 -8l71 156q-1 2 -2 6.5t-2 5.5q3 5 5.5 18.5t5.5 18.5q34 70 34 102q0 3 7 10.5t8 10.5q5 19 18 57t17 51q2 6 4 21.5t4 21.5q2 9 12.5 34t11.5 34q3 26 16 61t15 45 q12 40 21 93q1 3 0.5 16.5t1.5 19.5q2 9 13 37.5t13 44.5q9 48 17 127q0 1 4 10t4 15q1 6 -0.5 19.5t-1.5 17.5q0 1 1.5 3.5t2.5 6t0 6.5q-17 86 -31 88q-5 1 -5 -2q0 -1 -1 -2q-2 17 -12 35t-30.5 43.5t-21.5 26.5q-14 17 -45 43q-17 14 -46.5 33t-35.5 20q-3 0 -26.5 -2 t-32.5 -2q-7 1 -28.5 4t-31 3t-30.5 -3q-3 -1 -13 2t-16 2q-52 -6 -108 -23q0 -10 10 -20q28 -28 66 -51q0 -8 8 -11q4 -2 15 -7t15 -7v-10l-4 -10q-22 16 -55 24q-4 1 -7 0t-7 0q-5 1 -13 9l-10 10q-4 2 -15.5 4t-15.5 4q-60 34 -63 59q-6 32 -2 39q5 12 32.5 22t63.5 19 t45 12q6 2 21.5 -1t23.5 7q-23 5 -32 9q-3 1 -13.5 2t-15.5 2q-11 3 -33 8q-5 1 -39.5 10t-52.5 13q-1 1 -3 5t-7 5q-4 1 -10.5 -1t-10.5 -1q-2 0 -27 8t-36 10q-11 4 -29 7.5t-33.5 6t-17.5 3.5q-4 1 -26.5 13t-26.5 13h-23q-4 1 -12 11t-12 12q-2 1 -27 6.5t-37 11.5 q-2 2 -8 14q-1 1 -6.5 3t-10 4t-6.5 4q-21 24 -55 75q-2 2 -2 4.5t1 5.5l1 3q-2 4 -8 10q-1 1 -3 15q-2 10 -1 16q0 32 14 61zM907 57l6 11q2 -2 0.5 -6.5t-6.5 -4.5zM940 774q28 -23 76 -57q0 55 -23 59q-6 1 -14 0.5t-21 -1.5t-18 -1zM965 294q7 8 8 11q-2 -5 -3 -17.5 t-3 -17.5q-3 0 -7 4t-4 8q0 2 9 12zM973 315v11q0 34 16 77q2 6 1 24.5t1 21.5l8 6q1 -11 1 -21q0 -26 -7 -53q-1 -4 -5.5 -17t-8.5 -26t-6 -23zM993 844q6 -1 21 -2t20 -2q-2 3 -2.5 12.5t-1.5 11.5l-12 4q-25 -20 -25 -24zM997 481l9 23q-1 -3 0.5 -11t1.5 -10 q-5 -2 -11 -2zM1001 532q3 7 6 18t7 25l6 21q0 -62 -4 -70l-8 -6q0 1 -3.5 5.5t-3.5 6.5zM1198 1083q-1 1 -1 3q0 5 6 17q8 16 5 21q1 -3 6 -6.5t7 -3.5l-13 -31q-6 2 -10 0zM1268 1415q1 3 1 9.5t1 9.5q2 4 16 4q-1 -2 -4.5 -7.5t-3.5 -6t4 -3.5l-6 -14q-2 0 -5 3.5t-3 4.5 z" />
<glyph unicode="U" horiz-adv-x="1697" d="M-82 804q4 20 0 27q6 8 8 20.5t-2 20.5q11 21 28.5 42t41 45.5t35.5 39.5q17 4 35 14.5t41.5 28.5t35.5 25q30 19 140.5 98t169.5 109q6 2 14 14t18 8q229 160 371 232q117 84 223 84q23 0 45 -4l17 -13q6 -16 8 -39t2.5 -53t1.5 -45q-94 -317 -240 -620q-9 -40 -41 -110 t-41 -107q-23 -25 -45.5 -82t-38.5 -80q3 -18 -12 -50t-10 -49q-21 -5 -25.5 -30.5t-11.5 -32.5q-55 -116 -78 -209q-4 -50 -4 -91q0 -78 14 -124q0 -9 3 -18q3 -6 6 -15q11 -9 32 -12q29 3 63.5 24.5t50 35t54.5 51.5q8 7 11 10q265 303 428 608q0 21 24 57q21 31 22 55 q0 4 -1 7l22 24q102 190 140 338q21 28 40 105.5t52 107.5q18 8 39.5 28.5t34 34.5t32.5 21.5t35 -10.5q-1 -20 -7.5 -39.5t-22.5 -52t-19 -39.5q-9 -4 -6 -16.5t0 -18.5q-18 -41 -38 -119t-36 -116q-12 -57 -61.5 -217.5t-57.5 -247.5q-14 -28 -34.5 -107t-43.5 -116 q-6 -25 -25 -89.5t-27 -100.5q-5 -24 -5 -53q0 -15 1 -31q4 -48 30 -77q34 -13 39 -35q-63 -61 -90 -76q-31 -18 -59 -18q-9 0 -17 2q-35 100 -35 179q4 17 16.5 65t18.5 74q-31 -31 -33 -37q-24 -32 -31 -39q-109 -109 -190 -160q-3 -2 -19.5 -17t-25.5 -18q-7 -3 -36 -19 t-44.5 -23.5t-37.5 -15.5t-36 -9q-4 -1 -18.5 -8t-22.5 -9q-6 -2 -39 -2q-60 20 -73 29q-15 10 -41 47q-4 3 -14.5 13.5t-16.5 13.5q-14 44 -14 103q0 87 30 208q6 25 17.5 78.5t21.5 93t21 74.5l43 141q1 2 11.5 26t12.5 34q8 34 24.5 78.5t28.5 71t34.5 75t25.5 53.5 q2 4 7.5 21.5t8.5 25.5q1 2 10 16t11 21q5 9 11 28t11 27q2 -3 7.5 -2.5t19.5 2.5q20 58 22 88q10 28 37 109.5t43 126.5q-7 25 -1 50.5t2.5 52.5t-25.5 40q-56 -1 -108 -22t-129.5 -69t-96.5 -58q-34 -31 -129.5 -100t-140.5 -117q-36 -14 -67.5 -33.5t-64 -49t-51.5 -49 t-55.5 -61t-50.5 -57.5q-9 -35 -51 -57q-11 1 -23 -5.5t-19 -13t-17.5 -8t-18.5 9.5q-23 -10 -28 0q-3 6 -3 15q1 7 2 15zM682 -221l4 -4q14 -4 41 -13l27 -2h2q5 0 21 3q20 4 47.5 13t45.5 19q81 45 156 109q18 14 34 28.5t41.5 39t31.5 30.5q30 25 53 59q18 24 28 39 q6 17 13 29l14 14l2 2q0 1 29 119q-2 8 -6 10l-4 2q-2 0 -4 -1q-4 -2 -8.5 -5.5t-9.5 -7t-9 -4.5q-35 -43 -126.5 -167.5t-150.5 -188.5q-55 -58 -128 -92q-67 -31 -132 -31h-12z" />
<glyph unicode="V" horiz-adv-x="933" d="M190 451q6 49 13 69q-4 8 -4 12q16 152 16 216q0 16 9.5 73.5t11.5 77.5q4 36 4 99v56v44v51q3 15 20 53q21 13 43 37t40 38.5t40 14.5q16 0 22.5 -8t12.5 -33t12 -41q0 -7 -4.5 -22.5t-3.5 -20.5q1 -7 6 -23.5t6 -23.5q1 -4 -5.5 -21.5t-6.5 -23.5q1 -28 -2.5 -52.5 t-11 -52t-9.5 -40.5q-26 -170 -28 -193q-1 -7 1.5 -35.5t0.5 -44.5q-19 -113 -19 -221q0 -48 4 -96q1 -13 0.5 -62t1.5 -63q2 -17 11 -67t12 -74q3 -42 14 -125.5t17 -83.5q19 0 47 53t35 76q1 2 4 30t6 44q1 9 7.5 31.5t8.5 33.5q0 1 -1.5 3.5t-0.5 8.5q1 4 7 20t14.5 39 t13.5 38q0 2 9 31t11 44q0 23 3 31q1 5 12 23.5t14 27.5q10 28 30.5 94.5t27.5 88.5q2 5 12 18t14 21q7 15 12 32t10.5 42.5t8.5 35.5q1 2 8 8.5t10 10.5q2 4 4 12t4 12t11.5 17.5t11.5 21.5q5 18 17.5 55t17.5 54q18 0 20 -4q-2 -5 -10 -23.5t-10 -26.5q-3 -9 -5.5 -33 t-6.5 -36q-3 -6 -13.5 -24t-13.5 -27q-2 -5 -4 -20.5t-4 -22.5q-4 -20 -32 -91t-34 -90q-2 -4 -2 -24q-5 -34 -14 -48t-10 -22q-5 -17 -14 -48.5t-15.5 -54t-7.5 -26.5q-1 -5 -1 -13t-1 -12q0 -14 -6.5 -47t-2.5 -51q10 19 22.5 50.5t26.5 69.5t21 54q12 29 30 88.5t29 87.5 q2 5 10.5 18.5t10.5 20.5q4 13 12 49t15 56q30 67 34 86q2 2 7.5 4t7.5 4q7 14 8 18q4 20 -2 29q0 4 5.5 15t6.5 14q1 4 1.5 16.5t2 24t4.5 20.5l-2 8q-1 8 0 13q40 213 45 225q1 4 6.5 23t13 45t11.5 43q10 50 16 65q5 14 20.5 46.5t20.5 51.5q7 27 39.5 89.5t36.5 72.5 q10 7 28 26t32.5 31.5t23.5 12.5q13 0 19 -13q1 -3 6 -49q0 -5 -2.5 -13.5t-6 -19t-4.5 -16.5q-1 -3 -0.5 -11.5t-1.5 -14.5l-5 -15t-9.5 -27t-7.5 -22q-1 -2 -6 -9.5t-8 -12.5q-2 -4 -3.5 -15.5t-3.5 -15.5q-2 -5 -13 -36.5t-19 -49.5q-31 -78 -33 -84q-4 -14 -18 -44.5 t-15 -33.5q0 -2 -2 -14t-4 -17q-3 -8 -12 -29t-13 -30q-4 -10 -19.5 -58t-27.5 -73q-16 -22 -22 -33q-26 -59 -41 -70q-1 -2 -1.5 -9t-2.5 -13q-3 -3 -11 -10t-12 -11q0 -22 -2 -34q-20 -20 -22 -29q-4 -14 -14 -53.5t-15 -55.5q-1 -3 -15.5 -32t-13.5 -43q-9 -9 -10 -11 q-2 -6 -4 -22.5t-4 -24.5q-3 -8 -12.5 -30t-12.5 -33q-1 -1 -4.5 -2.5t-5.5 -3.5q-2 -22 -22.5 -64.5t-24.5 -54.5q-4 -10 -9.5 -36.5t-9.5 -37.5q-1 -5 -7.5 -17.5t-8.5 -17.5q-9 -30 -30.5 -99.5t-32.5 -107.5q-5 -15 -13 -52.5t-14 -57.5q-17 -53 -41 -143l-9.5 -19 t-8.5 -20q-1 -4 0 -27.5t0 -32.5q0 -4 -2.5 -11.5t-6 -17t-4.5 -14.5q-1 -7 -1 -31.5t-3 -35.5q-1 -7 -6.5 -24.5t-7.5 -25.5q-1 -2 0.5 -8.5t1.5 -11.5t-6.5 -21.5t-7.5 -21.5t-7 -51q-1 -4 0.5 -16.5t-0.5 -18.5q-16 -67 -16 -86q0 -2 1.5 -11.5t0.5 -15.5 q-3 -10 -16.5 -34t-18.5 -29q-11 -16 -28 -19q-7 -2 -32.5 -5.5t-39.5 -6.5q-2 0 -20 -7t-23 -7q-8 0 -14 6q-3 2 -6 1.5t-8.5 -2t-8.5 -1.5q-9 -1 -18 15q-7 13 -7 24q0 5 14 35q13 28 17 41q8 29 25.5 81t30.5 90.5t14 43.5q1 1 -3.5 27t-10.5 60.5t-7 43.5q-1 6 1 28.5 t1 32.5q-2 24 -4 60t-2 43q-3 24 -13 73t-13 74q-3 19 -10.5 68t-10.5 72.5t-6 60.5q-2 28 -2 53v18q0 12 -10 88q0 1 2 9t2 12q-4 27 -4 47q0 25 6 41q-1 1 -2.5 1.5t-3.5 1.5t-3.5 3.5t-2.5 5.5q-5 73 -5 94v5z" />
<glyph unicode="W" horiz-adv-x="1329" d="M139 -838q1 30 17.5 96.5t19.5 90.5q0 4 -3 12.5t-3 13.5q1 16 12.5 92t14.5 107q2 20 2 82q0 4 -2.5 19.5t-1.5 25.5q0 10 4 35t4 35q-1 15 -7.5 74.5t-7.5 91.5q-1 11 2.5 39.5t2.5 41.5q-1 12 -6.5 53t-6.5 62q0 5 3 17t3 18q0 33 2 51q0 12 -4 12q0 43 4 169 q3 98 2 158v32q0 3 -4 85t-4 130q0 3 8 127q0 8 1 38t1.5 44t4.5 41.5t10 54.5q8 33 26 74q2 6 13.5 15.5t13.5 12.5q24 33 51.5 53.5t48.5 20.5q16 0 36 -20t20 -27q-1 -7 1.5 -24.5t0.5 -28.5q-4 -16 -11.5 -42.5t-11.5 -42t-8.5 -40.5t-5.5 -51q0 -1 -2 -4t-4.5 -7.5 t-3.5 -7.5q-4 -94 -4 -155q0 -10 -11 -21q2 -11 2.5 -35t1.5 -32q-6 -6 -6 -15q-2 -18 -4.5 -92t-9.5 -117q0 -4 3 -13t3 -13q-6 -86 -6 -145v-27q1 -10 -3.5 -41t-4.5 -41q1 -18 2.5 -50t2.5 -57.5t1 -48.5q0 -5 -3.5 -27.5t-2.5 -33.5q4 -72 4 -97v-8v-19v-49q0 -14 1 -26 q0 -31 -3 -43q4 0 8 -8q38 23 61 59q2 2 7.5 17.5t13.5 23.5q16 16 25 33t17.5 41t16.5 39q9 19 22 65.5t19 61.5q3 6 17 22t18 23q3 4 5 11.5t4 17t3 14.5q1 4 7.5 12t7.5 12q14 28 10 62q0 8 4 16q1 2 16.5 30t22.5 44q3 10 8 32t8 31q6 3 11 13q3 27 15 59t19.5 47 t32.5 56.5t27 44.5q3 4 17 15.5t18 16.5q24 33 65 68q17 -4 37 4q9 -6 4 -27q-2 -13 4.5 -39.5t5.5 -29.5t-12.5 -22.5t-13.5 -28.5q-9 -36 -33 -102t-29 -81q0 -1 -4.5 -6t-5.5 -10q-1 -3 -4.5 -28.5t-8.5 -59t-9 -53.5q-2 -12 -12.5 -56t-12.5 -63q-4 -25 -9 -58 t-12 -74.5t-10 -62.5q-9 -41 -18 -61q-1 -12 0 -36t0 -34q-1 -9 -7 -49t-5 -61q0 -13 -7.5 -48t-9.5 -49v-59q1 -14 7 -42.5t7 -35.5q0 -3 -2 -11t-2 -11q0 -1 6 -17t5 -24q-2 -15 -2 -27t0.5 -16t3.5 -16t4 -15q8 3 11.5 7t6.5 16.5t4 15.5q1 5 8.5 62t8.5 61q5 25 16 40.5 t14 28.5l-4 4q0 5 6 17q-9 9 -6 22q1 6 21 35t22 33q1 4 -5 26t-5 27q27 54 37 103q19 -4 39 6q10 -10 8 -19q-1 -4 -7 -12t-7 -12q-2 -5 -4 -20.5t-5 -24.5q-1 -3 -6.5 -11t-7.5 -12q-1 -3 -1 -10.5t-1 -11.5h-4q-1 -6 1 -9.5t1 -5.5q-2 0 -6 -4v-4l-2 -2q9 -18 14 -23 q-1 -5 -6 -18.5t-4 -21.5q-34 -96 -41 -150q-1 -4 3 -11.5t3 -11.5q-1 -8 -7 -31t-7 -36q-1 -4 2.5 -12t3.5 -11q3 -11 -14 -41v-20q-15 -60 -17 -64q-7 -14 -39 -32q-5 -2 -16 -4t-12 -2q-2 -1 -22.5 -12t-31.5 -13q2 5 -12 22q2 13 0 19q-1 3 -9 17t-9 20q0 6 2 24t2 25 q-1 9 -10 29.5t-11 27.5q-4 28 -14 56q-1 2 1.5 10t2.5 12q-17 6 -25 17t-9 19.5t1 30t2 31.5v11q-1 38 5 100q6 71 13 118.5t9 57.5q0 1 1 3.5t1 4t1 3.5l1.5 3t1.5 2.5t2 2.5t2 2.5t3 2.5t4 2.5t5 2.5q0 4 -5 19t-5 24q0 84 17 123q10 -14 6 -25q2 -7 7 -21.5t7 -21.5 q2 0 3 -2v2q1 2 1 4q1 3 1 11q0 16 -4 54q-6 54 -13 54l-10 -4q1 4 7 15t7 16q1 4 -1.5 13.5t-7 23t-5.5 18.5q-1 -4 -7.5 -22t-11.5 -29q-3 -8 -16 -49.5t-28 -82t-28 -63.5q-4 -8 -19 -63t-21 -70t-20 -52t-27.5 -69t-26.5 -55q-10 -19 -42 -22t-44 -15q-20 -76 -21 -94 q-1 -8 5.5 -28.5t7.5 -26.5q1 -11 -2.5 -32t-6.5 -30q-7 -34 -18 -48q-7 -9 -21 -22q4 -4 11 -4q-3 -6 -21 -34q3 -10 3 -20q-1 -31 -27 -55q-34 -32 -68 -32q-16 0 -35 14zM621 -72q5 -11 16 -16l4 18q-2 1 -7.5 8t-8.5 7zM908 6q6 32 10 47q1 2 9.5 16t8.5 21q0 56 2 64 q5 20 25 45q10 57 10 67q5 5 10 15q8 25 25 89t28 95q15 40 19 63q5 10 6 11q9 30 35 127q1 4 6 12t6 10l20 10l7 -10q-2 -1 -8 -7.5t-9 -8.5q-3 -4 2 -27q0 -5 -12 -29q-15 -40 -23 -63q-2 -4 -6 -8q-6 -21 -6 -45q0 -15 -16 -43q-18 -41 -19 -49q-1 -4 -4 -27.5t-8 -36.5 q-21 -43 -25 -55q-1 -4 -2.5 -27.5t-7.5 -34.5q-2 -3 -8.5 -7t-7.5 -9q-1 -4 1 -10.5t1 -10.5q-2 -8 -2.5 -23.5t-1.5 -19.5q-1 -3 -5 -11t-10 -20.5t-10 -21.5q0 -3 1 -12.5t1 -14t-4.5 -13t-13.5 -17.5q-6 -41 -10 -49q-5 -10 -15 -45q-3 -1 -7 5q-3 4 -3 9zM1120 713 l15 53q0 3 13 37t31.5 81t26.5 74q0 8 3.5 20t11 31t10.5 27q7 21 14 49q0 2 -2.5 4.5t-3.5 4.5q6 2 9.5 7.5t6 14.5t5.5 14q2 2 7 8t9 11.5t6 11.5q9 13 18 47.5t13 44.5q2 6 21 38t24 44q9 19 33 61t34 64q1 3 4 13t7 20t8 18q-3 25 13 55t48 54q3 1 13.5 -0.5t13.5 -1.5 l6 4q5 4 10 4q6 0 11.5 -11.5t5.5 -19.5v-39q-5 -19 -29 -36q3 -7 6.5 -12.5t3 -6t-1.5 -10.5q-2 -7 -5 -11.5t-10.5 -12.5t-12.5 -15q1 -5 -9 -31q-1 -2 -8 -7t-10 -9q-3 -2 -7 -13.5t-7 -15.5q-6 -9 -22.5 -32t-25.5 -35q0 -1 1.5 -7t1.5 -8q-5 -9 -26 -37t-22 -30 l-30 -60q-1 -2 -8 -7.5t-9 -8.5q-29 -45 -61 -111q-14 -28 -29 -71q-2 0 -4 -4q-2 -12 -13.5 -32t-23.5 -28l4 -4q0 -12 -8 -24l2 -5q-7 -27 -8 -30q-2 0 -4 -2.5t-4.5 -6t-3.5 -4.5q-4 -5 -15 -51q-2 -11 -14.5 -35t-13.5 -26z" />
<glyph unicode="X" horiz-adv-x="864" d="M-110 -640q1 10 2 18t3 21t3 17q1 2 1 11t1 12q0 3 4.5 10.5t5.5 11.5q47 158 74 224q2 4 10 18t10 21q3 10 11.5 31.5t11.5 31.5q3 7 15.5 27t18.5 34q23 54 48 105t53 103.5t41 80.5q23 50 53 109q1 1 7 9t7 11q3 6 10 21.5t9 19.5q3 5 16 27t17 31q2 3 4 13.5t4 14.5 q1 2 5 8.5t5 10.5q1 3 -4 19.5t-12 39.5t-9 35q-2 5 -3 18t-3 19q-1 8 -7 22t-7 19q-1 4 -3 26t-7 35v21q-1 3 -6.5 16t-6.5 20q-1 5 -1 18.5t-1 18.5q-8 31 -30 152q0 1 -3.5 12t-5.5 17q-1 3 0 15t0 17q-4 16 -4 29q-2 6 -14 61q0 1 -7 13t-7 18q0 9 2 17q12 41 47 63 q61 37 71 37q2 0 9.5 -3t13.5 -3q14 -5 22.5 -21t15.5 -40t11 -33q1 -5 8.5 -17t8.5 -14q10 -20 10 -31q2 -8 2 -37q1 -8 -9 -26.5t-10 -20.5q-2 -12 -1 -19.5t4 -22t4 -21.5q0 -5 4 -13q2 -18 7 -63.5t7 -71.5l4 -4q2 -13 8 -43t9.5 -55.5t3.5 -44.5l2 -1l4 -1 q8 0 15.5 14.5t8.5 15.5l15 15q6 8 24 49q12 31 15 35q1 2 7.5 7.5t8.5 8.5q17 34 27 64q21 15 32 57q12 6 17 16q8 18 16 47q2 -4 6 -4q6 15 6 33l4 -6q5 7 10 20t10.5 31t8.5 27q1 1 7 10t7 12q0 29 5 54q1 7 8 23.5t8 19.5t-2.5 8t-3.5 8q3 9 14 20q7 15 17 44t14 38 q1 2 6 13t6 16q1 4 5.5 16t6.5 17q37 108 72 180q2 5 8.5 28.5t12.5 34.5q6 25 18 37q1 1 5.5 6.5t9 10t8.5 6.5q5 4 17.5 8.5t14.5 5.5t13 7.5t19.5 10t14.5 3.5q7 0 9 -4l6 6q12 -3 18 -19q4 -10 3 -19q0 -5 -1 -9q-1 -2 -9.5 -22.5t-20.5 -48t-19 -44.5 q-13 -30 -64.5 -146t-76.5 -171q-2 -4 -6.5 -11t-11 -15.5t-9.5 -12.5q-8 -15 -18 -47.5t-19 -49.5q-11 -20 -34 -56.5t-31 -51.5q-53 -89 -94 -144q-1 -1 -1.5 -5.5t-1.5 -6.5q-24 -24 -28 -29q-2 -2 -2 -12q-1 -5 -27 -26q4 -22 -4 -33q-10 -18 -32.5 -57.5t-37.5 -66 t-16 -30.5q-2 -2 -1.5 -25.5t3.5 -37.5q3 -13 5.5 -30.5t5.5 -41.5t5 -39q2 -6 9.5 -15t11.5 -9h14q11 0 21 10q10 12 10 49q0 4 14 39q0 1 6 35q8 4 11 4q5 0 9 -8t1 -15q-1 -2 -4 -5t-4 -5q-2 -2 -2 -4.5t1 -6t1 -5.5q0 -5 -5 -22t-5 -23q0 -2 2 -6t2 -7q0 -2 -2 -9.5 t-2 -10.5q0 -1 7 -12t7 -17q1 -14 -11 -44.5t-12 -45.5q0 -3 6 -10t5 -10q-1 -13 -17 -91q-1 -1 0.5 -3t3.5 -5t2 -6q-3 -98 -12 -199q-7 -2 -19.5 -6t-21.5 -6t-18 -2q-19 0 -25 4q-2 9 -10 61t-14 78q-1 2 -9 11t-10 16q-29 81 -37 143q0 7 -8 7q6 17 4 20 q-4 7 -14.5 17.5t-14.5 17.5q-18 -12 -34 -31q-20 -27 -43 -65q-2 -3 -7 -14.5t-6 -14.5l-27 -40.5t-32 -51.5q-1 -3 -3.5 -11t-5.5 -16t-7 -14q-5 -9 -22 -37.5t-27 -46t-22.5 -42t-19.5 -42.5q-1 -3 -10 -13.5t-12 -15.5q-1 -3 -6 -21t-10 -26q-19 -29 -41.5 -88.5 t-40.5 -81.5q-3 -18 -12.5 -52t-17 -60t-7.5 -29q-4 -22 -6 -50t12 -51.5t43 -23.5q17 0 38.5 11.5t31.5 14.5q2 -2 2 -8q-1 -4 -7.5 -10t-11.5 -8q-2 -4 -9.5 -5t-8.5 -1q-38 -17 -80 -17q-5 0 -12 -0.5t-9.5 -0.5t-7 1t-6.5 3t-5.5 7t-7 11.5t-9.5 17.5q-3 5 -4 13v9v10z M432 971q3 12 14 12q10 0 16 -10t3 -19q-4 -4 -16 -4q-11 0 -15 7q-3 5 -3 9q0 3 1 5zM596 535q-2 6 -2 12.5t2 13.5q2 9 16 41h15q0 -13 11 -16q0 -2 -4 -8t-5 -9q-8 -13 -4 -34q0 -4 -7 -11q-2 1 -10.5 4.5t-11.5 6.5zM668 772q0 21 4 33q0 3 7.5 13t8.5 13q7 7 27 15 q3 -9 -8 -31q-14 -3 -16.5 -14.5t-0.5 -23.5t-6 -23q-11 16 -16 18zM729 918l2 12q8 -2 8 -12h-10z" />
<glyph unicode="Y" horiz-adv-x="813" d="M167 -513q0 19 -1 37v27q0 32 2 69q4 52 14 89q0 2 -4 4q10 40 10 70q1 20 5.5 45.5t12.5 58.5t11 52q3 1 8 12q-1 19 2.5 40.5t11.5 60t13 65.5q0 4 5.5 16.5t6.5 16.5q7 34 17.5 91.5t17.5 100t8 45.5q41 121 78 209q5 13 17 39t21.5 47t10.5 25q3 10 0 20 q-1 3 -6.5 11.5t-7.5 13.5q-1 2 -0.5 10t-1.5 10q-3 4 -8.5 10t-13 12.5t-9.5 8.5q-2 3 -3 13.5t-3 14.5q0 1 -5.5 5t-6.5 6q-28 63 -31 69q-2 3 -2 27q-7 4 -12.5 17t-11.5 30.5t-11 26.5l1 4q2 3 2.5 5.5t-1.5 6.5q-20 28 -37 117q-18 76 -18 96v4q8 31 70.5 66t91.5 35 q51 0 57 -58q1 -14 -1.5 -42t-2.5 -38l4 -5q4 -5 4 -9q1 -16 4.5 -32.5t10 -38.5t8.5 -31q28 -99 57 -144q5 3 8 8q9 27 30.5 70.5t28.5 71.5q2 12 14 33t13 24q3 5 14.5 20.5t14.5 20.5q11 19 30.5 61.5t28.5 59.5l45 75t49 81l7 5q7 5 8 9q9 18 18 33q0 1 2.5 3t6 4.5 t5.5 4.5q2 3 7 14.5t10 14.5q11 8 24.5 19t20.5 17t18 11.5t23 9.5q4 2 12 9t12 9q18 6 29 6q12 0 14 -4q1 -1 7.5 0t7.5 0q9 -2 24 -22q1 -1 1 -3t-1 -5q-1 -4 -4.5 -9t-5.5 -8q-2 -4 -5.5 -20.5t-6.5 -24.5q-3 -5 -18 -23.5t-21 -29.5q-12 -23 -23.5 -40t-24 -33.5 t-18.5 -24.5q-2 -2 -4 -9.5t-4 -9.5q-7 -10 -23.5 -30.5t-23.5 -30.5q-1 -2 -3 -14t-7 -17q-18 -26 -37 -70q-4 -12 -12 -26t-19 -32.5t-16 -27.5q-2 -3 -12.5 -26.5t-21.5 -45.5t-19 -34q-4 -7 -4 -37q0 -9 -2.5 -12t-5 -2t-3.5 0q-1 -3 4 -4q7 -1 -6 -27q-5 -11 -8 -12 q0 -58 -6 -82l-41 -168q-1 -4 -2 -5t-2 -0.5t-2 -0.5q4 -16 -36.5 -46t-59.5 -30q-4 0 -4.5 2t-4.5 2q-22 0 -37.5 -18t-27.5 -48.5t-14 -33.5q-14 -20 -31 -64q-87 -209 -115 -284q-15 -41 -49 -146q-1 -2 -5 -9t-5 -11q-1 -3 -1 -21t-1 -26q0 -2 -7 -23t-8 -33 q-1 -5 -7.5 -20.5t-8.5 -22.5q-3 -21 -8 -74t-6 -63q-1 -7 -7 -26t-8 -27q-1 -4 1.5 -14.5t2.5 -14.5q-5 -77 -5 -106q0 -9 1 -13q8 -49 17 -80q1 -5 28 -59q2 -5 7 -10.5t14.5 -14t13.5 -12.5q10 -10 70 -14q2 -2 4 -6l-2 -8q-30 -17 -45 -17q-4 0 -31 14.5t-31 14.5t-7 -3 t-7 -3q-7 0 -20 5t-19 11q-15 15 -33 66q-1 4 -6.5 13.5t-9.5 18.5q-2 8 -2 14z" />
<glyph unicode="Z" horiz-adv-x="1445" d="M201 -387q2 9 12 34.5t12 39.5q1 5 14.5 15t14.5 19q1 15 9 51.5t9 51.5q0 5 -7 11.5t-9 10.5q-2 9 -2 29t2 51q0 7 8 31q6 22 10 29q2 6 10.5 15.5t10.5 16.5q2 6 3 15t1.5 21t1.5 18q5 36 57 109.5t54 109.5q1 19 40 71.5t42 75.5q1 6 20 24.5t21 22.5q4 9 27 30.5 t36 29.5q3 1 134 139t134 139q25 8 49 37t41 39q27 17 71 41t76 40t36 17q3 2 39 33t39 33q2 1 19.5 3.5t20.5 4.5q3 1 11 12.5t12 12.5q2 1 3 -0.5t1 -4t1 -4t3 -0.5q3 2 6 10.5t6 10.5t6.5 -3t6.5 -3q3 1 21.5 14t37.5 27.5t21 15.5q5 1 13 3.5t30 12.5t40 22t36 33t24 46 q4 14 -5 34t-20 31q-2 3 -30 17q-1 1 -5.5 14t-9.5 14q-3 0 -10 -2t-10 -2q-4 1 -24 25t-23 25t-18 -3.5t-19 -3.5q-3 0 -15 9t-16 10q-3 1 -22 -2.5t-21 -3.5q-3 1 -5.5 7t-4.5 7q-36 5 -88 18q-2 0 -17.5 -1t-27 -1.5t-17.5 0.5q-3 0 -22 10t-21 11q-3 0 -14.5 -3 t-15.5 -3q-16 0 -43.5 7.5t-34.5 8.5q-6 1 -22.5 -4.5t-18.5 -5.5h-39q-4 1 -16 11t-22.5 17.5t-22 4.5t-17.5 -23q-1 -4 -44 2.5t-91.5 6.5t-62.5 -21q-7 -11 -109 -12h-23q-79 0 -86 6q-31 23 -71 23h-6q-3 0 -5 -1q-40 0 -65 21q-10 10 -10 49q-4 26 8 57q5 19 23.5 32.5 t31.5 17t17 3.5q4 -1 12.5 -11t13.5 -13q26 -16 36 -26q3 -4 17 -6q10 -2 17 -3q4 0 90.5 -13.5t89.5 -12.5q2 -1 15.5 0.5t31 4t27.5 1.5q106 -11 166 -31q3 0 9 5t9 5q6 -2 104.5 -16.5t104.5 -14.5q1 0 19.5 -7t35 -13t19.5 -6q3 -1 9 4t9 4q3 0 87.5 -18.5t88.5 -18.5 q3 -1 3 -8t3 -8q3 0 13 5t14 5q3 -1 6.5 -7t5.5 -7q49 -19 154 -72q7 -4 18.5 -16t25 -28t19.5 -22q7 -7 11 -36q1 -10 1 -19q0 -19 -5 -39q-12 -43 -33 -67q-31 -35 -90 -66q-129 -65 -160 -72q-2 -1 -3.5 4t-4.5 3q-3 -1 -6.5 -13t-5.5 -14q-15 -10 -51.5 -40t-53.5 -42 q-3 -2 -8.5 -13.5t-7.5 -13.5q-11 -10 -45 -31t-47 -40q-8 -13 -27.5 -27.5t-26.5 -28.5q-2 -3 -20.5 -10.5t-20.5 -9.5q-12 -17 -36.5 -45t-30.5 -31q-3 -2 -6.5 0t-6.5 0q-2 -1 -32 -55q-2 -4 -24.5 -17t-24.5 -22q-16 -44 -98 -140t-158 -192.5t-86 -150.5q0 -3 -2.5 -8 t-5.5 -10t-6.5 -10.5t-6 -10.5t-3.5 -9.5t0.5 -7.5t6.5 -4q23 -7 67 -7q48 0 122 8q125 14 162 14h8q171 -13 172 -13q4 0 51.5 -10.5t103 -25t72.5 -23.5q5 -3 52 -25.5t63 -34.5q2 -2 1.5 -14t-3.5 -20q-8 -24 -23 -19q-19 0 -43 8q-4 1 -13 18t-12 17q-4 1 -56 -6t-56 -6 q-3 1 -13 11t-14 11q-2 0 -5.5 -6t-6.5 -11.5t-6 -4.5q-1 0 -16.5 7t-29.5 12t-18 3q-49 -13 -72 -13q-7 0 -12 1q-3 1 -67.5 8.5t-67.5 8.5q-11 2 -55 -4.5t-58 -4.5q-2 0 -7.5 5t-8.5 6q-4 0 -8 -9q-10 -9 -37 -11.5t-46.5 -1.5t-29.5 -1q-3 -1 -10 -5t-12 -6t-8 -1 q-4 0 -4 4q0 1 -0.5 2t-2.5 2q-6 0 -61 -33q-35 -19 -78 -92q-22 -35 -57.5 -99t-40.5 -77q-13 -46 -37 -52q-5 -1 -11 -1q-17 0 -29 15q-13 17 -13 32v6z" />
<glyph unicode="[" horiz-adv-x="702" d="M96 -139q0 7 1 21.5t1 21.5q0 2 2 6l9 20q2 7 4 12.5t3.5 10t2.5 6.5l12 12q21 21 23 49q0 19 2 27q5 33 7.5 70t4 83.5t2.5 67.5q1 22 11 75t12 71q1 9 0 28.5t0 32.5q0 15 6 49t6 49q2 12 -6 29q-6 30 -6 33q-2 80 38.5 227.5t47.5 190.5q1 5 -5 34q-6 30 -6 37 q-4 2 -5 4.5t1 6.5t5 8l7.5 10t6.5 10q14 17 20 33q9 21 2 31q-1 1 2 8q3 4 10.5 12.5t10.5 12.5q27 31 18 55q6 10 13.5 26t7.5 17q15 30 18 35q4 5 29 26q12 12 14 15q18 18 21 22q-23 10 -35 66q-10 40 -11 43v4q127 -10 127 -27q1 -2 2 -2q10 0 19 6l8 4 q175 -46 229 -65q15 -5 17 -6q-50 0 -98 8q-13 0 -33 -4l-15 -4l-6 -2l-6 2l-14 8q-15 6 -27 10q-83 13 -110 -57q-1 -4 -12.5 -36t-26 -73t-23.5 -67q0 -4 -1 -13t-1 -12q-2 -7 -8.5 -31.5t-16.5 -60.5t-18 -66q-34 -128 -29 -157l-71 -351q-4 -8 -4 -38q2 -8 2 -21l1 -2 q2 -2 -1 -2q-18 -56 -27 -98q-11 -79 -24 -138q-3 -15 -7.5 -101.5t-3.5 -106.5q-4 -12 17 -19q6 -2 26 -6q1 0 5 -0.5t5.5 -1l4.5 -1.5t4 -2t2 -3t0.5 -5.5t-2.5 -7.5q98 -21 102 -22q27 -6 33 -10q8 -4 12 -8l17 -17q23 -23 41 -39q-3 -3 -3 -4h-2q-15 -12 -59 -12 q-12 0 -39 -10q-8 -4 -10 -4q-3 6 -10 8q-6 0 -38.5 -14.5t-41.5 -20.5q-23 -9 -49 -39q-4 -3 -8 -7t-9 -9.5t-8 -8.5q-4 -4 -13 -12.5t-14 -13.5q-11 1 -17 2t-7 2t-1.5 2t-3 2t-9.5 2q-27 3 -30 9q-1 2 -1 5q0 8 -15 23l-2 2q-2 0 -2 2q-4 12 -4 33z" />
<glyph unicode="\" horiz-adv-x="950" d="M25 1407q7 15 14 19.5t27 -1.5q28 -13 56.5 -35t62 -53t48.5 -43q72 -56 132 -134.5t127 -181.5t114 -163q19 -24 39.5 -74t32.5 -69q27 -45 49 -84.5t39.5 -78t27.5 -61.5t26.5 -65.5t23.5 -60.5q9 -23 36 -76.5t39.5 -91t8.5 -68.5q0 -3 -0.5 -18t-2 -21.5t-5.5 -14 t-13.5 -4t-23.5 16.5q-11 10 -38 23t-42.5 28.5t-14.5 40.5q1 80 -37.5 193t-95.5 213q-48 84 -76.5 138t-28 58t-9 19t-14.5 19t-49 59.5t-109 140.5q-94 122 -285 317q-23 25 -34 37.5t-21 35.5t-4 40z" />
<glyph unicode="]" horiz-adv-x="702" d="M96 -133q20 1 60 -2.5t41 -3.5q11 -3 32 4l15 4h6l6 -2l12 -6q18 -11 29 -11q82 -14 109 58q1 4 12 35.5t25.5 73t23.5 67.5q0 3 1 12.5t1 12.5q1 3 17.5 59.5t27.5 97.5q31 133 29 156l69 350q7 15 4 39q0 4 -1 12t-1 11l-2 2q-1 2 2 2q21 55 27 98q8 59 25 135 q4 13 8 96t4 113q0 13 -16 18q-4 2 -13.5 4.5t-13.5 4.5q-2 0 -7.5 1t-7 1.5l-6 2t-2.5 4.5t2 9q-33 7 -68 15l-34 8q-27 6 -33 10l-10 10q-8 5 -16 16q-4 4 -10 9.5t-15.5 14t-17.5 15.5q1 0 2 1t2 1v2q19 13 59 13q11 0 41 10q1 1 4 2t4 2q4 -8 13 -8q13 0 79 33 q28 14 50 39q3 4 10.5 12.5t11.5 13.5q17 17 27 25q23 -2 26 -4t13 -4q30 -3 30 -15q0 -3 1 -6t3 -5.5t3.5 -3.5t5 -3.5t4.5 -3.5l2 -2l2 -2q2 -6 2 -33q0 -31 -2 -43q0 -4 -2 -8l-6 -21q-3 -7 -7.5 -15t-5.5 -11q-2 -3 -6 -7.5t-6 -7.5q-17 -17 -20 -47q-2 -10 -2 -29 q-7 -43 -17 -219q-1 -22 -10.5 -76.5t-11.5 -70.5q-1 -7 0.5 -28t-0.5 -32q0 -17 -6 -51t-7 -47q0 -4 3.5 -15t2.5 -16q-44 -226 -77 -450q-2 -11 2 -33q1 -4 4 -17t4 -22q4 -2 5 -4.5t-1.5 -6t-5.5 -7t-7.5 -9.5l-7.5 -10q-3 -5 -9.5 -16t-8.5 -16q-13 -22 -2 -33 q1 -1 -4 -6q-3 -4 -10.5 -12.5t-10.5 -12.5q-25 -33 -18 -55q-12 -27 -20 -43q-6 -17 -19 -37q-6 -9 -27 -25q-10 -10 -16 -14q-5 -5 -18 -23q20 -10 32 -67q1 -4 5 -19.5t6 -21.5l2 -6q-37 3 -63 6.5t-38 6.5t-19 6t-7.5 4.5t-1 3.5t-2.5 3q-7 0 -19 -8q-4 -2 -6 -2 q-159 38 -231 64q-15 5 -17 6z" />
<glyph unicode="^" horiz-adv-x="477" d="M45 1044q-2 19 21 64q4 7 9.5 17t10 19t8.5 19q12 42 43 70q10 9 32 26.5t32 26.5q11 10 33.5 15t31.5 10q8 5 41 -6t37 -11q9 1 20 -6t18 -15.5t17 -21t13 -16.5q7 -7 14.5 -10.5t9 -7t0.5 -15.5q0 -5 1.5 -18.5t0.5 -20.5q-2 -9 6 -27t5 -26q-2 -4 -4 -21.5t-9 -23.5 q-11 -6 -16 10q-10 50 -101 131q-7 7 -33 13.5t-28 7.5q-6 3 -13 3.5t-14.5 -2t-12 -4.5t-13 -7.5t-11 -7.5t-10.5 -9q-3 -2 -7.5 -5.5t-8 -6t-7 -6t-5.5 -6.5q-3 -6 -5.5 -18.5t-3.5 -16.5q-1 -5 -4 -10t-8 -11t-8 -10q-4 -5 -12.5 -15.5t-13 -18.5t-5.5 -17 q-1 -6 -7 -21.5t-5 -27.5q1 -6 -4.5 -12.5t-11.5 -6.5q-7 1 -11 4t-6.5 10t-3 11.5t-1.5 15t-1 12.5z" />
<glyph unicode="_" horiz-adv-x="684" d="M-61 -84q0 8 10.5 14.5t23.5 6.5q5 0 44 4t51 2q14 -5 41 0.5t34 5.5q3 0 69 -3t113.5 -4t67.5 1q34 13 96.5 14t136 -3t103.5 -3q23 1 39.5 -15t13.5 -36q-2 -10 -13.5 -25.5t-23.5 -15.5q-7 0 -25.5 6.5t-25.5 7.5q-134 12 -235.5 10t-250.5 -10t-185 -8 q-19 0 -53.5 16t-30.5 35z" />
<glyph unicode="`" horiz-adv-x="460" d="M112.5 1373q0.5 21 0.5 24q1 6 0 17.5t0 20.5t6 15q3 1 12 4.5t13 3.5t14 -4q2 -28 13.5 -57t31.5 -43q5 -15 14.5 -27t22 -25t18.5 -20q3 -3 16 -23t27 -26q-1 -10 9.5 -16t8.5 -15q7 0 8.5 -3.5t0.5 -7.5t2 -7q2 -6 7.5 -16.5t6.5 -18.5q-3 -4 -5 -12t-5.5 -11.5 t-11.5 -3.5l2 2q-11 7 -31.5 23.5t-28.5 21.5q-2 5 -9 12.5t-9 12.5q-4 6 -21 20t-22 25q-7 3 -15 13.5t-12 13.5q-3 -1 -7 5t-7 7q-5 5 -15.5 11.5t-16 12.5t-3.5 15q-6 4 -7 17t-3 16q-5 2 -4.5 23z" />
<glyph unicode="a" horiz-adv-x="512" d="M-2 -31q-1 6 -1 13q0 33 19 79q26 59 39 91q3 8 11.5 27.5t12.5 29.5t11.5 25.5t15 28t15.5 24.5q59 91 145 129q6 2 11 2q9 0 13 -10q6 -14 3 -31q-23 -114 -84 -129q-3 -1 -12 -2.5t-12 -2.5t-10 -2.5t-10.5 -3.5t-8 -5t-7.5 -6.5t-6 -8.5q-21 -41 -37 -100 q-1 -6 -4.5 -18.5t-5.5 -20.5t-3 -17.5t2.5 -15t10.5 -6.5q30 -4 51 15t43 63t29 53q11 16 21.5 33t22.5 40t18 33v15q10 8 28.5 29t34.5 31.5t35 8.5q8 -1 9.5 -5.5t-1.5 -11t-7 -14t-8 -16t-5 -14.5q-1 -21 -7 -49.5t-10.5 -47t-5.5 -45t8 -44.5q8 -21 41 -21q15 0 35 4 q4 2 13 7t16 7.5t14 2.5q9 0 9 -14q0 -19 -9 -25q-72 -55 -107 -68q-22 -8 -42 -8q-18 0 -35 6q-40 13 -53 88q-4 5 -10 3t-15 -9q-13 -12 -46 -48t-59.5 -56.5t-58.5 -30.5q-10 -4 -21 -4q-6 -1 -14 1q-18 4 -22 21z" />
<glyph unicode="b" horiz-adv-x="407" d="M-44 240q0 6 10 18t19.5 21t21 20t16.5 18q66 87 161 240q2 4 6 11.5t7 13.5q17 38 45.5 126.5t50.5 133.5q10 20 59 44q25 12 36 12q8 0 9 -7v-2q-1 -41 -33 -107q-34 -68 -40 -92q-10 -35 -61 -152t-56 -186q-1 -14 10 -17.5t33 -4t35 -4.5l15 -5t16.5 -6t15.5 -7.5 t13 -9t9.5 -11.5t4.5 -14.5t-3 -16.5q-5 -13 -5.5 -22.5t2 -20.5t3.5 -16l-22 -119q-9 -2 -12 -16.5t-5 -18.5q-9 -20 -33 -54t-30 -44q-46 -70 -109 -105q-24 -12 -46 -12q-12 0 -23 4q-28 9 -40.5 39.5t-4.5 62.5q1 4 1 8t1 7q16 49 30 182q4 49 35 135q4 11 10 36.5 t13 41.5q2 8 2.5 16t-2 14t-8.5 5q-24 -3 -50 -40t-34 -44q-9 -7 -20 -29t-21 -34.5t-21 -6.5q-11 7 -11 15zM147 -47q6 -3 13.5 -3t15.5 3q16 6 25 18q64 71 64 141q0 10 -1 19q-1 7 -5 18t-5 19q0 18 -22 28q-7 3 -12 4q-13 0 -19 -18q-4 -12 -14 -34.5t-16 -41.5t-9 -40 q0 -6 -4 -14t-4 -13q1 -9 -4 -23q-6 -14 -11 -26q-4 -10 -4 -19q0 -14 12 -18z" />
<glyph unicode="c" horiz-adv-x="360" d="M28 98q2 32 2 34t6 34.5t11 58.5q3 19 15.5 55t15.5 54q6 37 38 87t40 71q10 27 37 44q17 11 34 11q10 0 21 -4l35 -35q15 -78 16 -92v-5q0 -63 -47 -155q-27 -57 -66 -66q-10 -3 -7 7q1 4 7 15q11 21 11 28q0 9 6 25.5t7.5 24t-7.5 19.5q-12 11 -33 4.5t-27 -22.5 q-7 -17 -15 -36t-11.5 -27.5t-8 -21.5t-6 -21t-2.5 -22t-1 -29t1 -38q2 -31 16.5 -57.5t39.5 -32.5q11 -5 28 -2.5t27.5 5t27 10.5t27 14.5t27.5 16.5t29 16q7 3 7 0q0 -12 -38 -48q-6 -5 -10 -8q-3 -2 -14 -10t-16 -11t-15 -10t-16.5 -10.5t-15.5 -8t-17.5 -7t-16.5 -4.5 q-3 -1 -15 -3.5t-16.5 -3t-15 -2t-15.5 -1.5t-14 0.5t-14 2.5t-11.5 6t-11.5 9q-25 25 -28 84q-2 15 -2 33q0 12 1 24z" />
<glyph unicode="d" horiz-adv-x="475" d="M-17 118q1 10 21 29q39 37 225 191h9q19 24 56 45.5t66 46t41 64.5q6 21 20 74t22.5 82t26.5 70t40 71q6 9 13 26t14.5 27t21.5 14q7 2 57 30q22 10 33 10q14 0 15 -13q0 -26 -8.5 -55.5t-17.5 -49.5t-26 -54.5t-24 -49.5q-14 -28 -44 -80t-44 -80q-8 -18 -24.5 -47 t-28.5 -54.5t-17 -49.5q-4 -14 -4 -15q-13 -31 -23 -67t-21 -81.5t-17 -68.5q-10 -33 -23 -137q-3 -23 -3 -46q0 -74 30 -145l30 -75q6 -16 23.5 -31t32.5 -24t24.5 -25t-0.5 -33q-5 -12 -18.5 -21t-26.5 -8q-6 1 -12 -2q-2 -1 -3 -1q-2 0 -3 3q-5 13 -31 52t-27 65 q-1 14 -12.5 30.5t-13.5 24.5q-3 6 -9.5 19.5t-9.5 20.5t-7 18t-5.5 21.5t-1.5 21.5q1 32 -1.5 63t-7.5 69t-7 64v23q1 55 -14 56q-5 0 -11 -3q-23 -13 -55.5 -47.5t-60 -54t-54.5 -11.5q-16 4 -16 22t9 38.5t16 46.5t3 41q-2 9 -8.5 9.5t-16.5 -5.5t-18.5 -13t-19 -17 t-14.5 -13q-16 -16 -19 -20q-21 -3 -21 9zM154 100q0 -4 8 -4q1 0 2 -1q6 0 10 3q22 16 44 40.5t31.5 37t35.5 49.5q3 4 15.5 19.5t18.5 23.5q7 8 13 22q5 11 5 20q0 13 -11 24q-6 6 -12 7h-3q-5 -1 -9 -3q-6 -4 -12.5 -9t-13.5 -14t-12 -16.5t-11.5 -16.5t-10.5 -14 q-5 -6 -19.5 -24.5t-20.5 -27t-17 -25.5t-16 -29t-10 -29t-5 -33z" />
<glyph unicode="e" horiz-adv-x="372" d="M14 176q-1 8 0 14q0 9 2 13q3 10 6 17.5t6.5 15.5t6 13t8 13t7.5 12t9.5 13t10 12.5t12.5 15.5t14 17q81 95 164 151q15 8 29 8q9 0 19 -4q24 -10 26 -34v-10q0 -30 -10 -61q-12 -36 -29.5 -62t-49.5 -58t-52 -48.5t-56 -45.5q-4 -3 -7 -7.5t-4.5 -8.5t-1.5 -10.5v-10.5 t1.5 -11t2.5 -10t3 -11t2 -9q10 -33 64 -33q24 1 44.5 24t32.5 50t30 47t38 15q16 -4 16 -17q0 -34 -110 -129l-1 -1l-1 -1q-54 -47 -76 -55q-1 0 -15 -5t-18.5 -6.5t-17 -5t-18.5 -3.5t-15.5 0.5t-15.5 4t-11 9.5q-44 55 -44 137q0 14 1 29q0 6 -2 26zM142 246 q2 -10 14 -10h3q17 0 29 12q13 13 18 26.5t11.5 40.5t9.5 35l-6 31q-6 1 -10.5 1t-8.5 -1q-8 -2 -14 -10t-9 -13.5t-7.5 -18t-5.5 -15.5q-24 -56 -24 -74v-4z" />
<glyph unicode="f" horiz-adv-x="372" d="M-246 729v5q0 23 23 42q26 20 55 23q15 1 28.5 -4.5t30 -17t25.5 -15.5q7 -4 28 -17t33 -18q55 -24 123 -27h14q60 0 109 19q14 5 19 19.5t8 36t8 32.5q49 105 80 141q70 74 113 96q11 5 21 5q23 0 42 -25q23 -25 28 -58q1 -7 1 -15q0 -26 -15 -54q-15 -26 -39 -42.5 t-49 -18.5q-6 0 -10 2.5t-6.5 8t-3.5 11t-1 15t0.5 16t1.5 16.5t1 15q0 10 -13 10t-22 -6q-51 -35 -51 -78q0 -10 -4.5 -29t-7.5 -32.5t3.5 -26.5t24.5 -17q10 -4 27 -4q15 0 37 3q45 6 61 5q15 0 40 8.5t36 10.5q9 2 45 -2q5 -1 28 -5.5t33 -6.5q6 -2 6 -7q0 -4 -3 -10 q-1 -1 -3.5 2t-3.5 2q-11 -3 -28 -15.5t-27 -16.5t-31 2q-26 14 -60.5 14t-78.5 -14q-10 -3 -31.5 -9t-35.5 -10t-30.5 -14.5t-27.5 -24.5q-5 -7 -12.5 -11t-13.5 -15q-32 -49 -62 -146q-10 -30 -39.5 -93.5t-40.5 -98.5q-4 -13 -27 -82.5t-32 -108.5q-12 -45 -12 -92 q0 -59 18 -121q13 -45 47 -79t76 -46q41 -13 73 -13q8 0 15 1q4 1 4 -2q0 -7 -13 -14q-3 -1 -5 -2q-7 -2 -13 -2.5t-14 -2.5q-14 -5 -28 -5q-20 0 -41 10q-36 15 -54 32t-47 49q-68 76 -68 163q0 21 4 42q5 23 7 51q14 275 118 445q8 14 14.5 30.5t14 39.5t10.5 32 q2 6 10.5 18.5t11 18.5t-0.5 17q-3 8 -10.5 12t-18.5 4.5t-20 0t-23 -2.5t-20 -2q-8 -1 -26.5 -4.5t-25.5 -3.5q-30 0 -104 -4q-25 -5 -56 -5h-10q-37 1 -57 17q-6 5 -16 6.5t-15 5.5q-6 5 -19.5 11t-21 13t-8.5 17z" />
<glyph unicode="g" horiz-adv-x="458" d="M-209 -991q-2 13 -2 28q0 58 31 142q33 88 43 104q5 8 12.5 24.5t14.5 27t18 18.5l16 39q32 36 64.5 75.5t73 91t63.5 79.5q3 4 6.5 7t6 5t5 5.5t4.5 8.5q8 18 50.5 62.5t44.5 76.5q4 26 8 39q56 170 67 273q1 4 3.5 11.5t1 10t-8.5 4.5h-16q-9 -8 -30.5 -28.5t-34 -30.5 t-31.5 -23t-38 -17.5t-40 -2.5q-24 3 -37 20q-14 15 -5.5 31.5t22 26.5t31.5 26t24 29q18 40 48.5 84.5t55 73t66.5 76.5q58 68 123 79h4q9 0 9 -8q0 -13 -24 -47l-8 -10q-25 -29 -67 -82q-13 -15 -52.5 -50t-62 -66t-25.5 -66q0 -6 7.5 -8.5t11.5 2.5q120 83 139 169 q10 38 44 69q27 26 54 26q6 0 13 -2q12 -3 14 -12q1 -3 1 -7q0 -7 -3 -17q-6 -14 -14 -27t-17.5 -29t-13.5 -25q-2 -4 -3 -13t-3 -14q-22 -45 -47.5 -133.5t-38.5 -122.5q-17 -40 6 -49h8q10 10 27 41.5t31.5 48.5t29.5 6q10 -8 11.5 -18t-7.5 -24t-16 -23t-25 -27.5 t-22 -23.5q-87 -97 -131 -187q-8 -16 -17.5 -50t-17.5 -50q-6 -12 -11 -35t-6 -27q-13 -33 -39.5 -104t-42.5 -108q-48 -121 -76 -166q-28 -42 -61 -68q-5 -5 -5 0q2 17 23 43q7 7 11 10q14 7 16.5 12.5t2.5 13.5t5 17q26 38 43.5 125.5t36.5 122.5l-2 4q0 8 8.5 29t8.5 31 q0 12 7 27.5t13.5 26t8 23t-10.5 19.5q-9 6 -20 -3t-24.5 -27t-18.5 -23q-30 -27 -75.5 -85t-66.5 -79q-9 -9 -23.5 -32t-17.5 -26q-46 -61 -77 -155l-5 -4q3 -28 -10 -58q-6 -12 -1 -31.5t3 -27.5q-4 -15 -4 -27q0 -33 27 -51q5 -3 18.5 -2.5t18.5 -1.5q2 0 -2 -5 q-1 -2 -2 -3l-5 4q-2 -4 -4.5 -7.5t-6.5 -6.5t-6.5 -5.5t-8 -5t-7.5 -3.5t-8 -3.5t-8 -3.5h-2q-7 0 -24 8l-4 -4l-19 17l8 8q0 5 -6 2z" />
<glyph unicode="h" horiz-adv-x="550" d="M-84 227l10 49q16 51 88 171.5t76 130.5l21 20q10 26 16.5 70.5t11.5 76t27 64.5t63 51q14 6 21.5 8.5t20.5 5.5q5 1 8 1q7 1 10 -3q5 -6 2 -20q-2 -6 -2 -18v-6q0 -27 -23.5 -71t-23.5 -69v-6l-11 -14q-4 -38 -11 -81t-17 -95l-15 -78q-10 -35 -10 -47q0 -8 -6 -27 t-8 -28.5t6 -18.5q14 -8 26.5 4t27 27t30.5 12l25 16q4 -6 10 -3t10 9q21 23 66 39q9 1 14 -7.5t2 -14.5q-5 -7 -2 -21t2 -18q0 -35 -13.5 -84.5t-26.5 -87t-18 -86.5q-1 -11 -1 -21q0 -36 14 -61q18 -40 54 -58q34 -16 73 -17q3 1 7 1q42 2 91 2q6 0 6 -3q0 -7 -42 -30 q-12 -7 -50 -26q-3 -2 -11 2.5t-9 -0.5q-6 -8 -15 -12.5t-13.5 -5.5t-17 -2t-14.5 -1q-6 -1 -12 -1q-47 0 -98 36q-2 1 -13.5 9t-14.5 10.5t-11.5 9t-12.5 11t-8.5 11.5t-7.5 15q-7 30 -6 47.5t6 52.5t6 49q1 8 7 27.5t6 32.5q-1 12 4.5 34t7 33t-7.5 25q-7 7 -20.5 3.5 t-22.5 0.5l-4 -4q1 -3 5 -4.5t7.5 -1.5t6 -1.5t1.5 -4.5q-36 -99 -92 -179q-22 -33 -57 -57t-56 -4q-14 9 -12 30t10 38.5t17 42t10 40.5q0 14 5.5 40.5t6.5 33.5q2 29 16 93q13 60 13 95q0 17 -11 15q-10 -2 -16 -10q-1 -2 -20.5 -21.5t-48 -60t-62.5 -105.5z" />
<glyph unicode="i" horiz-adv-x="372" d="M29 132q34 49 47 71q2 4 14.5 17.5t15.5 25.5q8 24 24.5 54.5t21.5 41.5q14 31 49.5 55.5t72.5 32.5l11 -18q-3 -14 -31.5 -101t-28.5 -135v-84q-1 -23 7.5 -36t23.5 -11q18 1 40.5 26t39.5 31q7 1 6 -7q-1 -20 -23 -47q-3 -4 -6 -7q-16 -14 -26.5 -22.5t-27.5 -21.5 t-30.5 -19.5t-29.5 -11.5q-12 -4 -24 -4h-7q-15 2 -29 9q-13 7 -18.5 31.5t-9 45.5t-15 34t-44.5 -3t-89 -65q-16 -14 -16 -9q0 7 82 127zM276 696q14 30 47 52t66 22l6 -22q3 -4 12 -12.5t14 -14.5t5 -15t-10 -18q-49 -45 -94 -53h-5q-19 0 -33 20q-11 15 -11 28q0 7 3 13z " />
<glyph unicode="j" horiz-adv-x="387" d="M-410 -1001q-2 17 -2 35q0 71 35 157q3 8 12 36.5t17 47t18 35.5q5 8 14.5 26t18 30t21.5 22l18 43q36 40 72.5 84.5t82 102.5t70.5 89q4 5 9.5 10t8.5 9.5t7 11.5q9 19 57 70.5t51 87.5q0 12 9 43q66 207 75 305q1 8 -3 18t-1 21q2 7 13 41.5t15 45.5t15.5 41t19.5 43 t22.5 36.5t29 37t35 28.5t43.5 26q7 3 14.5 -5t5.5 -14q-13 -68 -47 -112q-4 -5 -4.5 -15.5t-3.5 -15.5q-24 -52 -52.5 -153t-41.5 -136q-9 -20 -9 -33q0 -18 15 -24h8q29 26 81.5 90t86.5 94q46 5 45 -12q-1 -19 -61 -66q-32 -26 -65 -60.5t-50.5 -57t-52.5 -70t-47 -62.5 q-15 -22 -37 -71q-51 -99 -64 -148q-6 -20 -16.5 -56t-19 -65t-17.5 -53q-50 -143 -131 -289q-4 -7 -13.5 -28.5t-15 -31t-17.5 -20t-26 -12.5q-8 -1 -7 6q1 18 27 45q7 8 13 11q15 8 18 14t3 14.5t6 18.5q29 43 49 141t43 139l-4 4q0 9 9.5 31.5t10.5 34.5q0 13 8 31 t14.5 29.5t8 26.5t-11.5 22q-11 7 -23.5 -3.5t-26.5 -31t-22 -27.5q-31 -29 -82 -92t-78 -90q-4 -4 -45 -66q-54 -70 -88 -176l-6 -4q2 -8 2 -16q0 -22 -12 -49q-8 -11 -2 -33.5t4 -32.5q-4 -17 -4 -31q0 -38 28 -55q6 -4 21.5 -3.5t21.5 -2.5q2 -1 0.5 -3t-4.5 -5l-4 4 q-14 -26 -57 -39q-3 -1 -7 -1q-10 0 -22 9l-6 -4l-19 16l11 11q-8 4 -11 4zM328 696q14 30 46.5 52t65.5 22l6 -22q3 -4 12 -12.5t14 -14.5t5 -15t-10 -18q-49 -45 -94 -53h-5q-19 0 -32 20q-11 15 -11 28q0 7 3 13z" />
<glyph unicode="k" horiz-adv-x="620" d="M-30 100q14 16 29.5 27t33.5 27t26 30q22 38 41.5 81t41 93.5t34.5 79.5q46 94 51 111l15 45t16 47.5t15 43t18 47t19 42.5t22 45q14 27 48 41q22 9 42 9q11 0 22 -3l5 -4q-29 -67 -79 -190.5t-67 -163.5q-4 -8 -13 -25t-16 -30.5t-12.5 -28t-3 -23t13.5 -10.5 q16 -3 35.5 3t43.5 20.5t41.5 27t45 33.5t39.5 29q22 17 59.5 41t49.5 33q14 9 26.5 17t32.5 17.5t27.5 8t11.5 -10.5q1 -20 -17.5 -32.5t-49 -23.5t-42.5 -19q-25 -17 -130 -81t-146 -104q-25 -24 -25 -62q0 -57 56 -147q34 -55 98 -75q37 -11 78 -11q29 0 59 6q14 7 15 7 q3 -1 3 -7t-3.5 -14.5t-8.5 -11.5q-61 -35 -178 -47q-7 -1 -13 -1q-28 1 -54 11q-32 12 -51.5 29t-49 45.5t-47.5 42.5q-14 12 -17 -15v-14q-1 -10 -1 -14q-2 -23 -8.5 -45.5t-16.5 -51t-16 -49.5t-32.5 -41.5t-50.5 -24.5q-4 -1 -7 0q-18 0 -25 15q-8 25 -1 55.5t19.5 54.5 t19.5 54t-1 53q-6 15 -28 -14q-28 -38 -36 -41q-7 -3 -12 4q-10 16 -10 28q-1 14 15 31z" />
<glyph unicode="l" horiz-adv-x="483" d="M-32 222q0 10 6 18q6 10 12 17t15 17t13 17q12 18 57.5 84.5t67.5 107.5q19 34 32 106.5t19 90.5q4 12 10 40t13 42q12 28 22 84t28 97t59 65l12 8q24 19 35 19q6 0 7 -7q0 -4 -1 -12q-7 -34 -27 -105t-26 -108q-20 -122 -29 -150q-16 -40 -19 -49q-61 -205 -73 -375 q-2 -22 -2 -42q0 -85 34 -146q11 -20 36.5 -28.5t43.5 7.5t55.5 59t57.5 62l2 6q1 -2 5 -7t6.5 -8.5t2.5 -9t-6 -9.5l-18 -18t-22 -21t-21 -15q-18 -11 -46.5 -39t-52.5 -42q-16 -9 -33 -10q-9 0 -18 3q-42 14 -59 109q-4 25 -14 72q-11 46 -17 86q-5 30 -5 59q0 10 1 20 q0 7 -0.5 13.5t-3 15t-7 10.5t-11.5 0q-32 -15 -65.5 -69t-55.5 -70l-11 -18q-9 12 -9 23z" />
<glyph unicode="m" horiz-adv-x="1005" d="M-143 -426q11 29 40 76.5t35 58.5q21 39 64 139q23 54 34.5 84t24 77t15.5 89l10 11q19 67 49 129q2 6 6.5 23.5t5.5 21.5q8 23 28 69t28 70q5 18 13 36.5t20.5 43t17.5 35.5q10 23 28.5 71.5t32 79.5t35.5 68.5t52.5 61.5t68.5 36q6 2 11 2q22 0 23 -35q0 -8 -9 -88 q-4 -33 -1 -49q2 -8 -7.5 -23.5t-6.5 -23.5q1 -3 7 -8.5t7.5 -8t-2.5 -6.5q-21 -12 -35.5 -28t-23 -38.5t-12.5 -38.5t-8.5 -45.5t-6.5 -41.5q-14 -68 -14 -98v-7q0 -21 -16 -61q-3 -10 1.5 -24.5t12.5 -10.5q10 6 16 18t10 30t7 26q8 16 18 49q5 15 19 68.5t28 79.5 q5 10 16 36t21.5 43t26.5 31q1 1 6 5.5t7.5 6.5l7.5 6t8 6l7.5 5t8 4t7 1.5t7 -0.5t6.5 -3q7 -6 12 -14t8 -18t5 -18t2 -21.5v-20.5t-2 -23.5t-3 -21.5t-4 -22.5t-3 -20.5q-1 -7 -5 -22.5t-6 -24.5t0 -19q8 -17 -2 -40t-10 -38q1 -26 1 -46q0 -34 -3 -54h16q28 39 77.5 125 t96.5 147.5t107 102.5q13 9 21.5 8t11 -9.5t4 -20t0.5 -24t0 -20.5q1 -9 1 -20q-1 -53 -17 -152q-15 -91 -14 -146q0 -17 1 -30q1 -21 16 -32t38 -9q2 0 7 0.5t7 1t7 1t7.5 1.5t6.5 2t6.5 3t5.5 4.5t5 6t3 7.5h8q-18 -37 -74 -93q-27 -27 -68 -27q-9 0 -18 1q-8 1 -13 0.5 t-8 0t-5 3.5q-28 41 -28 108q0 33 7 72q2 13 2 25.5t2 19.5q23 86 25 152q2 14 -2 29t-15 10q-30 -13 -48.5 -39t-36 -66.5t-29.5 -60.5q-33 -53 -51.5 -82t-51 -71.5t-65.5 -74.5q-7 -7 -21 -7t-18 7q-9 11 -10.5 28.5t1 31.5t7.5 36t6 31q6 31 13 90t10 80q1 7 5 25t5 27 t-0.5 21t-7.5 20q-7 7 -21 -13q-33 -98 -41 -145q-2 -14 -11.5 -38t-12.5 -36q-3 -9 -7.5 -36.5t-11.5 -41.5q-10 -19 -20 -69t-29 -72q-8 -9 -27.5 -40t-38 -45t-45.5 -11l-16 18l12 193q12 27 18 89t19 89l-4 4q2 15 10.5 53.5t10.5 57.5q1 8 4.5 22t6.5 26.5t5 24.5 t-1.5 19t-12.5 8q-18 1 -30 -9.5t-17 -23.5t-11 -35.5t-10 -31.5q-54 -119 -109 -320q-4 -15 -18.5 -49.5t-17.5 -54.5q-6 -37 -18 -73.5t-31.5 -85.5t-26.5 -69q-13 -37 -20.5 -130t-28.5 -132q-7 -12 -18.5 -18.5t-19.5 -8t-28 -4.5q-8 -1 -15 -1q-33 0 -46 30 q-9 20 -9 41q0 19 7 39z" />
<glyph unicode="n" horiz-adv-x="540" d="M-22 -42q2 4 9 16q19 33 17 46q-3 16 5.5 38.5t8.5 33.5q0 26 6 51.5t15.5 56t13.5 50.5q1 7 8 48t10 54t14 46t23 49t34 36.5t51 34.5q4 2 17 14q11 10 19 9h2q8 -2 9.5 -5.5t-1 -9t-6.5 -11t-8.5 -12t-5.5 -11.5q-4 -12 -12.5 -29t-12.5 -30.5t-1 -29.5q5 -27 39 -2 l15 12q25 20 36 25q12 5 33 22.5t39 25.5t34 1q8 -4 11.5 -11.5t3 -13.5t-2.5 -19t-2 -17q-2 -32 -8 -68.5t-12 -62t-16 -69t-15 -64.5q-4 -17 -5.5 -36t0.5 -36.5t10 -28.5t22 -10q26 1 50 17t37.5 32t35 46.5t30.5 41.5t18 19.5t12.5 12t8.5 12t11 24.5q12 27 46 64 q20 19 19 8q-16 -85 -110.5 -183t-190.5 -151q-34 -17 -45 -8q-37 31 -44 77q-3 17 -3 38q0 37 8 83q12 74 12 97q0 5 -1 10t-1 8t3.5 18t2.5 23t-8 12q-17 6 -27 -2t-20 -28t-16 -27q-33 -40 -59 -92t-51.5 -114.5t-45.5 -98.5q-22 -43 -65 -43h-1q-4 0 -5 4q0 3 2 7z" />
<glyph unicode="o" horiz-adv-x="448" d="M58 120q7 46 8 62q4 38 9 57t10.5 22.5t15 10.5t16.5 19q17 29 31 49t23 32.5t26 25.5t25.5 19t37.5 24t47 30q7 5 14 5q17 0 35 -27q25 -38 25 -72v-12q-1 -43 -7 -81q-8 -44 -15 -67.5t-28 -76.5t-32 -83q-6 -19 -15 -32.5t-23 -29t-21 -24.5q-13 -18 -35.5 -33 t-44.5 -18h-10q-39 0 -58 21q-22 25 -32 58q-9 31 -10 52q0 20 8 69zM164 71q4 -25 33 -36q4 -1 8 -1q8 0 13 6q7 8 13.5 25.5t12.5 24.5q21 27 36 60t19 66q1 7 1 13q0 25 -12 45q-16 25 -52 31q-8 1 -15 1q-12 0 -20 -4q-13 -7 -17 -21.5t-5 -34.5l1 -47q0 -23 -10 -61 q-8 -32 -8 -53q1 -8 2 -14z" />
<glyph unicode="p" horiz-adv-x="751" d="M31 -592q4 44 23.5 137t23.5 142q10 20 25 63.5t24 63.5q8 24 38 111t44 134q9 35 -15 31q-21 -3 -40 -20q-12 -4 -42 -19q-43 -22 -58 -22q-5 0 -7 3t-2 7q37 16 77.5 45t61 47.5t66.5 61.5q4 17 23 43t24 38q9 16 32 21.5t29 11.5q30 9 66.5 43t64.5 45q51 35 146 54 h14q62 0 90 -33q-1 -8 1 -23t1 -27.5t-8 -23.5q0 -35 -8 -49q-51 -115 -111 -168q-4 -8 2 -15.5t15 -9.5q1 0 9 -1t13 0t9 5l4 -4q50 8 57.5 7.5t58.5 3.5q3 -1 3 -7q0 -2 -1 -6q-1 -11 0 -14q-17 -7 -39 -9.5t-43 -15.5q-86 -9 -163.5 -41.5t-145.5 -46.5 q-17 -11 -46.5 -18.5t-54 -19t-38.5 -35.5q-27 -59 -62 -191.5t-67 -195.5q-2 -7 -6 -24.5t-7 -26t-9 -20t-16.5 -18.5t-25.5 -10q-4 2 -11 -2t-11 -6h-2zM315 25l9 -9q12 -1 24 -1q50 0 86 21q44 27 92 89q84 109 95 221q-11 31 -54 35q-21 -6 -36.5 -13.5t-31 -23t-23 -24 t-27.5 -35.5q-12 -19 -39 -60.5t-41.5 -66t-31 -62t-22.5 -71.5z" />
<glyph unicode="q" horiz-adv-x="780" d="M23 -61q-14 0 -14 10q0 14 28 47q8 9 23 26q30 34 38 46q5 8 16.5 15t16.5 15q25 35 82 91t70 71q10 12 40.5 42t43.5 50q37 56 83.5 95.5t122.5 91.5q9 4 15 4q4 0 6 -3q5 -6 12.5 -21.5t16.5 -20.5l63 37q15 -17 16.5 -42.5t-5.5 -47.5t-15.5 -51t-9.5 -46 q-1 -4 -4.5 -8.5t-3.5 -7.5l4 -6q-11 -13 -10.5 -34t-4.5 -38q-14 -33 -22 -55q-4 -14 -4.5 -42t-5.5 -42q-19 -47 -19 -68q0 -11 11.5 -15.5t23.5 1.5q34 16 65.5 53t63.5 77.5t63 59.5q12 7 16 -15q2 -11 2 -21q0 -24 -10 -46q-1 -3 -3 -6q-19 -27 -64 -62t-79.5 -69.5 t-43.5 -71.5q-3 -13 5.5 -21t20 -11.5t23 -12t13.5 -22.5q1 -4 4 -26.5l4 -30t3 -26.5t1.5 -31t-2 -28.5t-4.5 -31.5l-6 -6l4 -4q-4 -12 -22.5 -75t-27 -85t-27 -68t-39.5 -78.5t-48 -62.5q-29 -32 -53 -32q-4 0 -9 1q-28 6 -34 31q-10 32 -10 88q0 17 1 37q0 11 8 42.5 t9 39.5q1 21 -1 54t-1.5 62.5t8.5 55.5q15 48 33 143q2 10 -5.5 13.5t-18.5 3t-22.5 -1.5t-19 1.5t-6.5 10.5q4 21 23.5 46.5t33 49.5t7.5 49q-4 14 -2 26t1.5 22.5t-8.5 13.5q-15 7 -30.5 -1t-27.5 -22t-27 -28t-27 -17q-10 -2 -34 -15t-40.5 -12t-28.5 27q-7 17 -3.5 42 t11 47.5t7.5 44.5t-15 32t-28 0.5t-30.5 -38.5t-21.5 -34q-13 -16 -36.5 -51t-38 -53.5t-39 -35t-51.5 -15.5zM395 90l62 51q-2 28 24 66q21 28 36 86t36 82l-2 59q-31 -12 -50 -37t-35 -68t-24 -57q-52 -97 -52 -153q0 -16 5 -29zM465 -637q2 -23 15 -41q7 -10 18 -10 q8 0 16 4q27 15 41 47q33 87 45 109t20 42t18 49.5t13 39.5q22 52 22 104q0 25 -5 50q-16 77 -78 114q-7 4 -12 4q-6 0 -9 -5q-6 -8 -7.5 -25.5t-2.5 -20.5q-10 -22 -18 -70.5t-13 -62.5q-64 -199 -64 -305q0 -12 1 -23z" />
<glyph unicode="r" horiz-adv-x="403" d="M-11 139q0 8 3 11q113 102 178 260q2 4 5 11t4.5 10t4 9t3 9.5t1.5 8.5t1 9.5t-1 9.5q-1 8 -10.5 22.5t-7.5 24.5q3 32 39 51q6 4 19.5 16t25.5 19q9 5 18 5q4 0 7 -1q18 -8 11.5 -22.5t-5 -36.5t25.5 -33q47 -21 65 -63q9 -21 9 -43q0 -23 -10 -47l-4 -4l4 -3 q-6 -26 -21.5 -60.5t-28.5 -63.5t-23.5 -60.5t-10 -63.5t13.5 -61q2 -3 5 -7l4.5 -6t1.5 -5t-3 -6q-2 -2 -8.5 -9t-8.5 -9t-8 -8.5t-9 -8.5t-9 -7t-9.5 -6.5t-9 -4t-10 -2.5t-10 0.5t-10.5 2.5q-27 11 -29 51v12q0 31 11 54q3 9 11.5 49.5t23.5 59.5q3 4 3.5 20.5t4.5 22.5 q11 11 16 35q1 3 4 15t3.5 15t3 13.5t2.5 14.5t1 13t0.5 14t-1.5 13t-3.5 15t-5.5 14q-6 15 -18 18q-9 3 -13.5 0.5t-9.5 -12.5t-6 -11q-10 -14 -24.5 -43t-24.5 -43q-6 -8 -25 -33t-27 -35t-26 -31t-30.5 -33.5t-31 -27.5t-36.5 -26q-5 -3 -5 8z" />
<glyph unicode="s" horiz-adv-x="618" d="M20 98q-5 -1 -5 1.5t5 9.5q21 28 58 57q5 4 8 6q138 77 217 264q5 12 18 45t19 48t20.5 42.5t27.5 43t33 33.5t44 30q10 5 28 17.5t33 22.5t30 16q8 3 14 3t10 -3q10 -6 12 -25q1 -23 -20 -44.5t-50 -33.5q-41 -18 -69.5 -58.5t-34.5 -83.5q-1 -7 1.5 -32t0.5 -39 q-2 -16 -2 -36.5t2 -45.5q2 -10 12 -18t17 -1q71 55 108 115q9 13 22.5 44t27.5 51.5t34 27.5q14 4 15 -18v-6q0 -37 -23 -80l-12 -19q-3 -3 -19.5 -20t-22 -23.5t-19.5 -22t-21 -25t-16 -23.5t-15 -27q-4 -8 -27 -33.5t-22 -44.5q1 -8 4.5 -28t4.5 -31t-2.5 -26t-12.5 -26 q-90 -106 -163 -106h-7q-2 0 -11.5 0.5t-13 1t-12 2t-12.5 4.5t-9 6.5t-6.5 10t-1.5 14.5q1 21 18.5 39.5t38 30t36 29.5t14.5 38q-2 55 -35 129q-7 12 -17.5 10.5t-17.5 -10.5q-17 -20 -35 -45q-39 -57 -92.5 -101t-106.5 -57z" />
<glyph unicode="t" horiz-adv-x="757" d="M-55 45q9 24 36.5 49t60.5 48.5t81 73.5t90 114q31 47 60 101.5t62 121.5t54 106q11 19 20 41t19 50.5t16 42.5q4 8 17 32.5t18 40.5q2 6 6 19t8.5 23t10.5 18q7 8 2.5 18t-12.5 10q-50 -4 -91 -4q-81 0 -124 17q-19 10 -7 28q8 9 24 33.5t31 38.5t33 14q22 1 82 -23 q42 -16 71 -17q12 0 22 3q21 7 33 27t16.5 42t18 47.5t36.5 39.5q50 30 68 30q4 0 7 -2q6 -3 5 -14q-1 -20 -23 -64q-18 -37 -19 -60q0 -5 1 -9q1 -9 7.5 -14t16 -6.5t21 -2t22.5 0.5t21 0q1 0 39.5 0.5t42.5 -0.5h5q21 1 85 7q31 3 52 3q28 0 38 -6q3 -1 3 -4q0 -8 -32 -31 q-8 -7 -14 -10q-31 -24 -79 -34q-43 -9 -81 -8h-8h-12q-36 0 -78 -5q-49 -6 -82 -23q-19 -10 -28 -30.5t-14 -53.5t-9 -45q-7 -23 -26 -72.5t-27 -76.5q-61 -206 -76 -244q-76 -211 -103 -367v-20t6.5 -17t18.5 -4q15 3 28.5 9.5t28 18t23.5 19.5t24.5 26t20.5 25t21.5 29 t19.5 25q12 15 29.5 60.5t32.5 68.5t30 4q16 -21 16.5 -42t-10 -38.5t-29.5 -37.5t-38 -36.5t-40 -37t-32 -37.5q-58 -84 -143 -123q-8 -3 -26 -15t-27 -15q-4 -1 -9 -1q-7 0 -18 2q-16 8 -23 22t-6 33.5t4 35t10 40t9 35.5q21 98 71 246q3 9 10 27.5t10.5 30t6 26.5 t-1.5 26t-14 19q-12 8 -21 -4.5t-18 -35.5t-15 -30q-10 -11 -22.5 -39t-22.5 -39q-12 -13 -40 -44t-44 -48t-41.5 -41t-48.5 -41q-15 -11 -35.5 -27.5t-40 -29.5t-61.5 -39h-10z" />
<glyph unicode="u" horiz-adv-x="694" d="M-27 49q4 28 29 63t54.5 66.5t35.5 42.5q5 8 35 76q2 5 2 25.5t8 27.5q28 22 66 60q24 27 43 22l8 -53q-2 -18 -11 -60t-10 -69q-1 -6 3 -18t4 -17q1 -6 1 -13.5t-0.5 -15.5t-0.5 -12q0 -74 53 -76q5 0 10 1.5t8.5 3t7 5t5.5 6t5 7t4 6.5t4 7.5t3 6.5q1 3 7 18t11 21 q9 11 16 22t13.5 27t9 22.5t9.5 29t8 24.5q19 54 75 88q11 7 28.5 24t27.5 17q2 0 2 -4q2 -4 2 -10q0 -2 1 -5t1 -5q-1 -7 -6 -39t-7 -45t-5.5 -42t-4.5 -46.5t-0.5 -41t2.5 -42.5q1 -7 2.5 -22.5t3 -23t5 -18t10 -17t16.5 -10.5q7 -3 14 -2q29 0 60 45q2 3 6 10.5t6 10.5 q4 6 13 26.5t16 28.5q6 1 9 0t3 -3.5t-2 -6l-6 -10.5q-28 -54 -86 -123q-46 -54 -104 -57q-4 -1 -7 -3q-3 -1 -5 -3l-1 -1h-2q-4 1 -13 4.5t-13 4.5q-6 3 -11.5 10t-7.5 12t-5.5 16t-4.5 13q-6 18 -10 27t-16.5 20t-28.5 8q-23 -5 -52.5 -36t-33.5 -34q-40 -30 -76 -30h-6 q-19 1 -33.5 15t-20 26.5t-16.5 42.5q-4 12 -4 39q0 13 -1 22t-9.5 20t-24.5 9q-22 -4 -37.5 -17t-33.5 -39t-27 -36q-3 -3 -10 -12q-13 -15 -13 -11z" />
<glyph unicode="v" horiz-adv-x="841" d="M29 18q-20 12 -20 26t21 31q13 10 47 30q63 39 81 61q37 46 93 126.5t79 110.5q28 37 66 119t67 119q53 65 104 70q6 1 8.5 -3.5t1.5 -13.5t-2 -14t-4 -14q-15 -52 -30 -80q-22 -38 -41.5 -115.5t-26.5 -95.5q-18 -55 -18 -114v-17q1 -6 -1 -21t-0.5 -22.5t9.5 -7.5 q30 0 48.5 18t36.5 57t25 49q75 120 82 132q48 84 109 176q5 7 46 60.5t58 84.5q14 28 69 75q13 11 16 11v-1q0 -1 -5 -7q-19 -23 -34 -62.5t-35 -74.5t-58 -60q-33 -20 -45 -88l-20 -18q-8 -16 -31 -58t-33 -65q-8 -18 -28.5 -47.5t-26.5 -40.5q-31 -53 -47 -79.5t-47 -68 t-60 -67.5q-33 -29 -77 -41q-26 -4 -37 0q-35 16 -39 78q-1 24 2.5 46t11 52.5t10.5 44.5q10 29 -10 31q-8 1 -14.5 -2t-13.5 -12t-8.5 -12t-8.5 -15q-6 -12 -16 -25t-16.5 -20t-23 -23t-18.5 -18q-13 -15 -30.5 -40.5t-30.5 -47.5t-31 -46.5t-33 -37.5q-14 -13 -34 -19 q-6 -2 -13 -3q-13 0 -24 9z" />
<glyph unicode="w" horiz-adv-x="806" d="M-29 621q-7 1 -7 2q0 2 14 5q7 2 26 6q53 11 68 17q47 20 80 20q16 0 30 -5q11 -4 19 -11.5t17 -21.5t13 -19q16 -20 20.5 -48.5t4.5 -65.5t4 -56q0 -3 1 -10.5t1 -11.5q0 -7 -3.5 -26.5t-2 -30t11.5 -11.5q5 -1 9 1.5t6.5 8.5t4 11t3 13.5t2.5 10.5q5 24 20 46.5 t26.5 33t40.5 34t36 28.5q5 4 12.5 -3t9.5 -14v-6q0 -28 -8 -70q-8 -46 -16 -81q-7 -29 -7 -62q1 -6 1 -12q2 -39 18 -64q10 -14 21 -14.5t21.5 11t20 25t21.5 31t20 25.5q7 9 19 28t18 27q66 88 130.5 145.5t133.5 61.5q12 1 14 -20v-8q0 -17 -6 -36q-8 -23 -22 -28 q-109 -38 -182 -133q-6 -8 -42.5 -56t-51.5 -64.5t-47 -49.5t-62 -50.5t-63 -27.5q-13 -4 -24 1.5t-17.5 15t-16 20t-18.5 14.5q-13 4 -23 -4.5t-20.5 -24.5t-18.5 -22q-7 -5 -20.5 -16t-25.5 -19.5t-27 -13.5q-7 -2 -12 -3q-4 0 -8 3q-6 5 -6 16t1.5 25t3 27t-1.5 22 q-1 3 2.5 8.5t3.5 6.5l-4 4l6 6q0 10 2.5 60.5t-0.5 62.5q-1 6 -1 32t-3 41q-9 54 -9 98.5t-2.5 76.5t-39.5 55t-119 33z" />
<glyph unicode="x" horiz-adv-x="694" d="M-215 -393q-9 14 -9 32q0 28 23 64q17 23 55 59.5t52 51.5q40 45 94 116q37 49 54 72.5t42 66t39 81.5l10 6q6 16 22.5 37.5t27.5 35.5t18 37.5t-6 44.5q-11 26 -13 62q0 12 -1 23q0 22 2 42l-13 35l-8 207q26 52 29 65q1 4 1.5 8t1.5 5.5t5 3.5q5 2 13 12q7 10 11 14 q1 1 4 2q4 0 9 -4q12 -16 9.5 -42t-11.5 -48.5t-10 -46t14 -33.5q16 -12 23 -22.5t7.5 -15.5t-2.5 -18t-4 -17q-7 -39 -7 -74q0 -50 14 -92l2 -6q12 5 20.5 12.5t18.5 23t14 21.5q16 19 41 51.5t35 44.5q14 18 44.5 61.5t50.5 68t50.5 55t64.5 46t72 17.5h1q26 0 26 -28 q0 -19 -11 -50q-19 -52 -46 -86q-76 -91 -183 -137q-7 -3 -29 -8.5t-30 -13.5q-42 -51 -74 -103q-3 -5 -12.5 -18t-13 -20.5t-7.5 -18.5t0.5 -21.5t16.5 -19.5q39 -34 51 -62q8 -19 22 -31.5t35 -24t31 -19.5q3 -3 12.5 -0.5t14.5 0.5q6 -2 16 0t14 0q23 -5 41 -2 q55 8 102.5 38t69.5 78q3 6 12 25.5t15 28.5q5 9 3.5 20.5t-0.5 19.5t9 5q12 -4 16 -12q2 -4 2 -9t-2 -11q-4 -12 -9 -21.5t-13.5 -23t-11.5 -18.5q-4 -6 -19 -32t-22 -36.5t-20.5 -29.5t-28 -31.5t-31.5 -21.5q-65 -36 -123 -36q-38 0 -72 15q-13 6 -26 9q-31 9 -76 37.5 t-55 33.5l-56 29q-24 -22 -51 -66q-17 -24 -45.5 -76t-46.5 -77q-124 -170 -172 -316q-9 -31 -49 -45q-11 -3 -23.5 -3.5t-17.5 -2.5h-1q-7 0 -15 8q-10 10 -19 9l-2 14z" />
<glyph unicode="y" horiz-adv-x="595" d="M-156 -1075q-2 15 -2 30q0 68 35 158q3 10 11.5 36t16 44t17.5 35q4 7 11 21t11 21t12 17t17 17l17 43q36 39 71 81.5t80 100t68 86.5q17 17 24 29q10 21 37 47.5t47 52.5t23 53q0 25 8 41q3 11 17 56t19.5 64t15 54.5t14.5 64.5t8 58q3 24 -4 39q-5 9 12 42q8 14 2 14 q-2 0 -4 -1q-27 -11 -60 -44.5t-57.5 -63t-57.5 -47.5q-20 -11 -39 -11q-13 0 -26 5q-31 11 -31 49q0 36 15 92q15 58 16 84q0 3 1 20.5t1.5 25.5t3 22.5t6 26t9.5 20.5q8 15 20.5 23t29.5 15t26 13q16 10 25 10q7 0 9 -6q3 -12 3 -25.5t-1.5 -24t-7 -26.5t-9 -24.5t-11 -26 t-10.5 -23.5t-11 -63q-2 -10 -12 -37t-9 -43.5t17 -30.5q6 -8 15 -3t13.5 10t12 15t10.5 13q10 10 72.5 87t108.5 108q15 10 36 39t39 46q12 12 25 12q6 0 12 -3q13 -6 15.5 -17t-3 -25.5t-13.5 -28t-18.5 -30.5t-14.5 -26q-2 -5 -3.5 -15t-3.5 -16q-23 -50 -51.5 -147 t-42.5 -133q-16 -43 8 -56h9q27 24 77.5 86.5t85.5 91.5q23 0 23 -16q0 -24 -41 -59q-40 -34 -81 -80.5t-62 -74.5t-64 -87q-14 -20 -37 -68q-45 -89 -63 -145q-35 -123 -51 -170q-44 -126 -127 -278q-3 -6 -12 -27.5t-14.5 -31t-16.5 -20t-25 -12.5q-18 -2 4 31 q15 21 27 29q14 8 16.5 14t3 14.5t6.5 18.5q28 42 47 137t41 135l-4 4q1 8 10.5 30t10.5 34q0 13 7.5 30.5t14.5 28.5t8 25.5t-12 21.5q-10 7 -22 -3t-26.5 -31t-20.5 -27q-32 -29 -81 -91t-73 -87q-11 -11 -27.5 -36t-17.5 -26q-53 -73 -86 -172l-6 -4q5 -23 -10 -61 q-6 -12 -1 -34t3 -32q-3 -15 -3 -28q0 -37 27 -56q7 -4 21.5 -3.5t21.5 -0.5q2 -2 -6 -8l-4 4q-11 -25 -53 -39q-3 -1 -6 -1q-10 0 -23 9l-6 -4l-19 17l9 8q-3 6 -9 6z" />
<glyph unicode="z" horiz-adv-x="569" d="M-190 -905q-2 14 -2 30q0 66 34 156q3 9 11.5 36t16 44t17.5 33q5 9 11.5 22t10.5 20.5t12 17.5t18 18l16 43q35 38 71.5 82t79 98t68.5 86q4 5 9.5 10.5t8.5 9.5t7 9q10 21 56 70t48 83q4 30 8 43q3 10 17 53t19 61t14 52t12 61t2 54q0 10 -9 -9q-4 -7 -12 -27 q-4 -11 -6 -15q-11 -38 -35 -52q-7 -4 -37.5 -24.5t-48.5 -26.5l-4 4q4 14 23.5 78.5t25.5 95.5q5 30 17 81t16 73l-10 12q-22 -8 -41 -40t-23 -36q-37 -40 -59 -114q0 -11 -10 -23q-4 -4 -8 -14.5t-8 -17t-11 -5.5q-16 1 -16.5 28.5t8.5 47.5q3 10 15 25t16 22 q35 72 92 148q10 14 31 45.5t33 48t32.5 40t43 40.5t50.5 30q6 4 13 4q3 0 7 -1q12 -2 9 -17q-7 -38 -41.5 -122t-36.5 -136q-1 -7 3 -7q3 0 10 4q6 2 8 3l10 8q9 1 16 1q35 0 51 -30q6 -12 6 -29q0 -34 -26 -85q-8 -15 -2 -49t-8 -49q-1 -1 -6 3t-7 1q-8 -16 -9 -33t12 -31 h8q23 20 50 59t54 71t60 48q19 8 19 -12q0 -28 -36 -63q-91 -84 -209 -242q-14 -20 -37 -68q-50 -107 -61 -145q-37 -130 -51 -170q-53 -144 -127 -281q-3 -6 -12 -26.5t-14.5 -29.5t-17.5 -19.5t-26 -12.5q-8 -1 -7 6q1 18 27 44q7 7 13 10q14 8 17 14t3.5 14.5t6.5 18.5 q26 40 46 135t42 135l-4 4q0 8 9 30.5t9 35.5q0 12 8 29.5t14.5 28.5t8 25.5t-10.5 20.5q-11 7 -23 -2.5t-26.5 -30.5t-19.5 -26q-33 -29 -83 -91.5t-73 -86.5q-10 -10 -25.5 -34t-19.5 -30q-52 -68 -86 -168l-4 -6q1 -5 1 -12q0 -20 -11 -51q-6 -11 -1 -33t3 -31 q-4 -16 -4 -30q0 -37 28 -54q5 -4 19.5 -3.5t21.5 -2.5q1 -2 0 -3.5t-4 -4.5l-4 4q-15 -25 -55 -37q-3 -1 -7 -1q-10 0 -22 9l-4 -4l-20 17l10 10l-3 1q-3 2 -5 1z" />
<glyph unicode="{" horiz-adv-x="702" d="M96 -139q0 7 1 21.5t1 21.5q0 2 2 6l9 20q2 7 4 12.5t3.5 10t2.5 6.5l12 12q21 21 23 49q0 19 2 27q5 33 7.5 70t4 83.5t2.5 67.5q1 22 11 75t12 71q1 9 0 28.5t0 32.5q0 15 6 49t6 49q2 12 -6 29q-6 30 -6 33q0 37 2 53q0 39 -13 43q-5 0 -20 -10l-4 -6q-1 -1 -1.5 -2.5 t-1.5 -2.5t-3 -1v4l-2 4q-2 5 -7 35q-1 3 -1.5 9.5t-1.5 11.5t-3 9l6 11q8 8 22.5 18.5t18.5 9.5q11 0 31 -20l10 8q1 1 2 3t2 3v2l4 8q14 38 46 228q1 5 -5 34q-6 30 -6 37q-4 2 -5 4.5t1 6.5t5 8l7.5 10t6.5 10q14 17 20 33q9 21 2 31q-1 1 2 8q3 4 10.5 12.5t10.5 12.5 q27 31 18 55q6 10 13.5 26t7.5 17q15 30 18 35q4 5 29 26q12 12 14 15q18 18 21 22q-23 10 -35 66q-10 40 -11 43v4q127 -10 127 -27q1 -2 2 -2q10 0 19 6l8 4q175 -46 229 -65q15 -5 17 -6q-50 0 -98 8q-13 0 -33 -4l-15 -4l-6 -2l-6 2l-14 8q-15 6 -27 10q-83 13 -110 -57 q-1 -4 -12.5 -36t-26 -73t-23.5 -67q0 -4 -1 -13t-1 -12q-2 -7 -8.5 -31.5t-16.5 -60.5t-18 -66q-34 -128 -29 -157l-71 -351q-4 -8 -4 -38q2 -8 2 -21l1 -2q2 -2 -1 -2q-18 -56 -27 -98q-11 -79 -24 -138q-3 -15 -7.5 -101.5t-3.5 -106.5q-4 -12 17 -19q6 -2 26 -6 q1 0 5 -0.5t5.5 -1l4.5 -1.5t4 -2t2 -3t0.5 -5.5t-2.5 -7.5q98 -21 102 -22q27 -6 33 -10q8 -4 12 -8l17 -17q23 -23 41 -39q-3 -3 -3 -4h-2q-15 -12 -59 -12q-12 0 -39 -10q-8 -4 -10 -4q-3 6 -10 8q-6 0 -38.5 -14.5t-41.5 -20.5q-23 -9 -49 -39q-4 -3 -8 -7t-9 -9.5 t-8 -8.5q-4 -4 -13 -12.5t-14 -13.5q-11 1 -17 2t-7 2t-1.5 2t-3 2t-9.5 2q-27 3 -30 9q-1 2 -1 5q0 8 -15 23l-2 2q-2 0 -2 2q-4 12 -4 33z" />
<glyph unicode="|" horiz-adv-x="358" d="M112.5 100q-2.5 20 10.5 35q43 65 70 182t32 232q4 97 8.5 157.5t6.5 63.5t2 21t-2 24t-10.5 77t-18.5 177q-13 152 -72 420q-24 102 8 125q28 21 46 -4q17 -26 29 -60t24.5 -79.5t17.5 -61.5q31 -86 40.5 -185t11.5 -220t12 -199q3 -30 -7 -83t-10 -77q0 -65 -5 -125.5 t-9.5 -89.5t-16 -91t-14.5 -79q-4 -22 -9 -83t-14.5 -98.5t-29.5 -62.5l-6 -9l-7 -10.5t-7 -10t-8 -8.5t-8 -4t-8 2t-8 10.5t-7 19.5q-4 13 -15 31.5t-17.5 30.5t-9 32z" />
<glyph unicode="}" horiz-adv-x="702" d="M96 -133q20 1 60 -2.5t41 -3.5q11 -3 32 4l15 4h6l6 -2l12 -6q18 -11 29 -11q82 -14 109 58q1 4 12 35.5t25.5 73t23.5 67.5q0 3 1 12.5t1 12.5q1 3 17.5 59.5t27.5 97.5q31 133 29 156l69 350q7 15 4 39q0 4 -1 12t-1 11l-2 2q-1 2 2 2q21 55 27 98q8 59 25 135 q4 13 8 96t4 113q0 13 -16 18q-4 2 -13.5 4.5t-13.5 4.5q-2 0 -7.5 1t-7 1.5l-6 2t-2.5 4.5t2 9q-33 7 -68 15l-34 8q-27 6 -33 10l-10 10q-8 5 -16 16q-4 4 -10 9.5t-15.5 14t-17.5 15.5q1 0 2 1t2 1v2q19 13 59 13q11 0 41 10q1 1 4 2t4 2q4 -8 13 -8q13 0 79 33 q28 14 50 39q3 4 10.5 12.5t11.5 13.5q17 17 27 25q23 -2 26 -4t13 -4q30 -3 30 -15q0 -3 1 -6t3 -5.5t3.5 -3.5t5 -3.5t4.5 -3.5l2 -2l2 -2q2 -6 2 -33q0 -31 -2 -43q0 -4 -2 -8l-6 -21q-3 -7 -7.5 -15t-5.5 -11q-2 -3 -6 -7.5t-6 -7.5q-17 -17 -20 -47q-2 -10 -2 -29 q-7 -43 -17 -219q-1 -22 -10.5 -76.5t-11.5 -70.5q-1 -7 0.5 -28t-0.5 -32q0 -17 -6 -51t-7 -47q0 -1 6 -31q7 -14 7 -32v-54q-1 -16 3 -28.5t9 -12.5q11 0 18 11l4 4q4 8 9 6v-2l2 -6q4 -20 4 -35q5 -25 6 -29l-6 -10q-31 -31 -41 -29q-10 0 -31 21l-8 -10q-4 -4 -4 -7 l-2 -2q0 -4 -2 -6q-5 -14 -21.5 -95.5t-23.5 -133.5q-2 -11 2 -33q1 -4 4 -17t4 -22q4 -2 5 -4.5t-1.5 -6t-5.5 -7t-7.5 -9.5l-7.5 -10q-3 -5 -9.5 -16t-8.5 -16q-13 -22 -2 -33q1 -1 -4 -6q-3 -4 -10.5 -12.5t-10.5 -12.5q-25 -33 -18 -55q-12 -27 -20 -43q-6 -17 -19 -37 q-6 -9 -27 -25q-10 -10 -16 -14q-5 -5 -18 -23q20 -10 32 -67q1 -4 5 -19.5t6 -21.5l2 -6q-37 3 -63 6.5t-38 6.5t-19 6t-7.5 4.5t-1 3.5t-2.5 3q-7 0 -19 -8q-4 -2 -6 -2q-159 38 -231 64q-15 5 -17 6z" />
<glyph unicode="~" horiz-adv-x="663" d="M68 1339q4 8 16 16.5t14 10.5q13 1 34 18t36 17q28 35 102 18l27 -22q3 -2 8 -4.5t8.5 -5.5t5.5 -7q3 0 47 -15.5t70 -4.5q8 3 24 7.5t28 9.5t20 14q49 15 70 2q4 -23 0 -35q-6 -5 -26.5 -11.5t-27.5 -19.5q-8 -4 -30.5 -10t-32.5 -14q-12 -3 -37.5 -10.5t-42.5 -11.5 t-39 -3t-39 10q-34 6 -65 33q-11 4 -36 9t-36 9q-17 0 -46.5 -6.5t-43.5 -7.5q-3 2 -4.5 7t-3.5 7z" />
<glyph unicode="&#xa1;" horiz-adv-x="505" d="M67 -112q-2 7 9 24q39 15 66 49.5t52.5 79.5t47.5 68q12 50 19.5 77.5t10 32t4.5 9.5t4.5 12.5t9.5 38t19 88.5q-6 35 -3.5 106.5t-2.5 106.5q0 46 29 61q10 -1 16.5 0t13 -0.5t13.5 -5.5q10 -14 17 -51.5t24 -53.5q10 -55 -12.5 -154.5t-20.5 -148.5q-7 -13 -20.5 -38 t-20.5 -39q-5 -19 -10.5 -35.5t-13.5 -32.5l-13 -26t-17 -26.5t-15 -21.5t-18 -23.5t-17 -21.5q-5 -8 -17 -31.5t-19 -35t-22 -26.5t-33 -24q-3 -1 -12 -6t-15 -7.5t-13.5 -4t-12.5 3t-8 14.5q-1 8 -9 21.5t-10 20.5zM295 723l12 65q15 0 17 7q2 6 1.5 8t-5 6.5t-5.5 7.5h-6 q7 17 22.5 26t38.5 14.5t33 10.5q-1 -4 7 -12l22 16q0 -6 8.5 -14.5t11.5 -13t-8 -15.5q3 -10 3 -13.5t-5 -14.5t-6 -13q-13 -22 -53.5 -36t-54.5 -29h-33z" />
<glyph unicode="&#xa2;" />
<glyph unicode="&#xa3;" />
<glyph unicode="&#xa4;" horiz-adv-x="421" d="M86 1071q2 38 15 81t36 67q49 49 56 59q19 27 35 40.5t44 28t41 23.5l6 2q7 0 13 -10.5t14 -11.5q10 -2 12 -15t0 -27t2 -24q2 -15 3.5 -27t-6 -29.5t-14 -31t-19 -32t-22.5 -31.5t-24.5 -30t-24.5 -27.5t-22 -24t-18 -19.5q-1 -2 -15.5 -18t-21.5 -21q-10 -10 -29 -10 q-21 0 -36 14.5t-17 32.5q-1 12 -4.5 22.5t-3.5 18.5zM206 1174q-5 -38 9 -35q28 11 45 55q18 45 -4 55q-4 2 -10 2h-8q-23 -21 -32 -77z" />
<glyph unicode="&#xa5;" horiz-adv-x="813" d="M111 281q2 8 12 14t22 6q4 0 44 5t51 1q17 -7 29 -3.5t18 6.5t9 13.5t4 19t3 22t4 22.5q3 13 -2 19.5t-18 6t-26.5 -3t-31 -5.5t-28.5 -3q-18 0 -53 16.5t-31 35.5q0 8 11 14t24 6q5 0 43.5 4t50.5 2q14 -5 41.5 0.5t34.5 5.5q4 0 20 -4q22 63 43 115q5 13 17 39t21.5 47 t10.5 25q3 10 0 20q-1 3 -6.5 11.5t-7.5 13.5q-1 2 -0.5 10t-1.5 10q-3 4 -8.5 10t-13 12.5t-9.5 8.5q-2 3 -3 13.5t-3 14.5q0 1 -5.5 5t-6.5 6q-28 63 -31 69q-2 3 -2 27q-7 4 -12.5 17t-11.5 30.5t-11 26.5l1 4q2 3 2.5 5.5t-1.5 6.5q-20 28 -37 117q-21 87 -18 100 q8 31 70.5 66t91.5 35q51 0 57 -58q1 -14 -1.5 -42t-2.5 -38l4 -5q4 -5 4 -9q1 -16 4.5 -32.5t10 -38.5t8.5 -31q28 -99 57 -144q5 3 8 8q9 27 30.5 70.5t28.5 71.5q2 12 14 33t13 24q3 5 14.5 20.5t14.5 20.5q11 19 30.5 61.5t28.5 59.5l45 75t49 81l7 5q7 5 8 9 q9 18 18 33q0 1 2.5 3t6 4.5t5.5 4.5q2 3 7 14.5t10 14.5q11 8 24.5 19t20.5 17t18 11.5t23 9.5q4 2 12 9t12 9q18 6 29 6q12 0 14 -4q1 -1 7.5 0t7.5 0q9 -2 24 -22q2 -2 0 -8q-1 -4 -4.5 -9t-5.5 -8q-2 -4 -5.5 -20.5t-6.5 -24.5q-3 -5 -18 -23.5t-21 -29.5 q-12 -23 -23.5 -40t-24 -33.5t-18.5 -24.5q-2 -2 -4 -9.5t-4 -9.5q-7 -10 -23.5 -30.5t-23.5 -30.5q-1 -2 -3 -14t-7 -17q-18 -26 -37 -70q-4 -12 -12 -26t-19 -32.5t-16 -27.5q-2 -3 -12.5 -26.5t-21.5 -45.5t-19 -34q-4 -7 -4 -37q0 -9 -2.5 -12t-5 -2t-3.5 0q-1 -3 4 -4 q7 -1 -6 -27q-5 -11 -8 -12q0 -58 -6 -82l-41 -168q-1 -4 -2 -5t-2 -0.5t-2 -0.5q4 -16 -36.5 -46t-59.5 -30q-4 0 -4.5 2t-4.5 2q-22 0 -37.5 -18t-27.5 -48.5t-14 -33.5q-1 -1 -3.5 -4t-3.5 -4q53 -7 95 -5q23 1 39.5 -15t13.5 -36q-2 -10 -13.5 -25.5t-23.5 -15.5 q-7 0 -25.5 7t-25.5 8q-77 10 -126 -21q-36 -23 -18 -45q29 -36 172 -29q25 2 41.5 -13.5t12.5 -37.5q-2 -10 -13 -25.5t-22 -15.5q-9 0 -27 7t-24 8q-22 3 -56 9q-70 11 -87 4q-18 -8 -35 -53q-3 -8 -10 -27q-5 -12 -7 -19q-15 -41 -49 -146q-1 -2 -5 -9t-5 -11 q-1 -3 -1 -21t-1 -26q0 -2 -7 -23t-8 -33q-1 -5 -7.5 -20.5t-8.5 -22.5q-3 -21 -8 -74t-6 -63q-1 -7 -7 -26t-8 -27q-1 -4 1.5 -14.5t2.5 -14.5q-6 -103 -4 -119q8 -49 17 -80q1 -5 28 -59q2 -5 7 -10.5t14.5 -14t13.5 -12.5q10 -10 70 -14q2 -2 4 -6l-2 -8q-30 -17 -45 -17 q-4 0 -31 14.5t-31 14.5t-7 -3t-7 -3q-7 0 -20 5t-19 11q-15 15 -33 66q-1 4 -6.5 13.5t-9 19t-2.5 16.5q2 46 0.5 89t2 95.5t13.5 89.5q0 2 -4 4q10 40 10 70q1 20 5.5 45.5t12.5 58.5t11 52q3 1 8 12q-1 19 2.5 40.5t11.5 60t13 65.5q0 4 5.5 16.5t6.5 16.5q3 17 7.5 34.5 t6 24.5t3.5 15t-0.5 9t-4.5 3t-10 0t-16 -3t-22.5 -2.5t-30.5 -1.5q-18 0 -53.5 16.5t-32.5 35.5z" />
<glyph unicode="&#xa6;" />
<glyph unicode="&#xa7;" />
<glyph unicode="&#xa8;" horiz-adv-x="761" d="M172 1380q14 30 47 52t66 22l6 -22q3 -4 12 -12.5t14 -14.5t4.5 -15t-10.5 -18q-49 -45 -94 -53q-22 -3 -37.5 20t-7.5 41zM457 1374q14 30 46.5 52t65.5 22l6 -23q3 -4 12 -12.5t14 -14t5 -14.5t-10 -18q-49 -45 -94 -53q-22 -3 -37.5 20t-7.5 41z" />
<glyph unicode="&#xa9;" />
<glyph unicode="&#xaa;" horiz-adv-x="512" d="M70 735q-3 31 14 62q5 10 15.5 29.5t15.5 29.5q23 54 49 92q51 65 112 86q13 5 18 -4.5t3 -21.5q-18 -76 -64 -86q-43 -7 -51 -21q-18 -26 -28 -67q-1 -2 -2.5 -6.5l-2.5 -7.5l-2.5 -7.5t-2 -7.5t-1 -7.5t0 -7t1.5 -5t3.5 -4t5.5 -1.5q22 -4 38 9.5t33 43t23 37.5 q10 13 26 38t21 32v10q7 5 21.5 20t26.5 22t26 5q14 -1 0 -23q-2 -3 -2.5 -4.5t-2 -3.5t-2 -3.5t-1.5 -3.5t-1 -3q-1 -16 -8 -43.5t-8.5 -41.5t6.5 -40q11 -24 58 -10q5 1 15.5 5.5t18.5 4.5q6 0 5.5 -10.5t-5.5 -15.5q-2 -1 -16 -10t-17.5 -11t-16.5 -9.5t-19 -9.5 t-17.5 -6t-19 -4.5t-18 0t-19.5 3.5q-33 12 -41 59q0 3 -2 3.5t-5 -1t-5.5 -3t-5.5 -3.5q-11 -9 -35.5 -33t-45 -38t-46.5 -21q-12 -4 -27 -0.5t-16 14.5z" />
<glyph unicode="&#xab;" horiz-adv-x="638" d="M78 696q-2 9 15 39t18 35q2 12 13.5 21.5t33 19.5t24.5 12q8 4 13 9.5t5.5 7.5t5.5 3.5t13 -1.5q7 -2 20.5 -3t18.5 -3q9 -4 28.5 -0.5t26.5 -1.5q4 -3 20 -8.5t21 -12.5q5 -14 -14 -14q-50 0 -147 -72q-8 -6 -20 -28.5t-15 -26.5q-16 -25 12 -78q2 -4 5 -11.5t6 -12.5 t7 -9t15 -8t16 -8q4 -1 8 -4t6 -6t6 -8.5t7 -8.5q6 -5 13.5 -14.5t14.5 -15.5t15 -9q7 -3 21.5 -12t25.5 -10q6 0 10 -7t4 -14q-3 -8 -10.5 -11.5t-13 -3t-18 2.5t-15.5 2q-21 2 -57 33q-6 5 -15.5 13t-17.5 14.5t-17 11.5q-41 23 -59 57q-33 64 -39 74q-6 12 -6 34t-4 33z M324 655q-2 9 14.5 39t17.5 35q2 12 14 21.5t33.5 19.5t24.5 12q8 4 13 9.5t5.5 7.5t5.5 3.5t13 -1.5q7 -2 20.5 -3t18.5 -3q9 -4 28.5 -0.5t26.5 -1.5q4 -3 20 -8.5t21 -12.5q5 -14 -14 -14q-51 0 -148 -72q-8 -6 -20 -28.5t-15 -26.5q-6 -9 -7 -18.5t3.5 -22t7 -18 t9.5 -19.5q2 -4 5 -11.5t6 -12.5t7 -9t15 -8t16 -8q4 -1 8 -4t6 -6t6 -8.5t7 -8.5q6 -5 13.5 -14.5t14.5 -15.5t15 -9q7 -3 21.5 -12t25.5 -10q6 0 10 -7t4 -14q-3 -8 -10.5 -11.5t-13 -3t-18 2.5t-15.5 2q-23 2 -58 33q-4 3 -20.5 17.5t-28.5 21.5q-41 23 -59 57 q-33 64 -39 74q-6 12 -6 34t-4 33z" />
<glyph unicode="&#xac;" />
<glyph unicode="&#xad;" horiz-adv-x="684" d="M111 281q2 8 12 14t22 6q4 0 44 5t51 1q14 -3 40.5 2.5t34.5 5.5q7 0 22 -5t23 -3q35 13 67 14t73.5 -3t72.5 -3q25 2 41.5 -13.5t12.5 -37.5q-2 -10 -13 -25.5t-22 -15.5q-9 0 -27 7t-24 8q-114 12 -152.5 10t-93 -10.5t-98.5 -8.5q-18 0 -53.5 16.5t-32.5 35.5z" />
<glyph unicode="&#xae;" />
<glyph unicode="&#xaf;" />
<glyph unicode="&#xb0;" horiz-adv-x="421" d="M100 1219q2 38 15.5 81t36.5 66q41 41 55 61t29.5 34.5t26.5 21t31 17.5t34 20h6q7 0 12.5 -11t13.5 -12q9 -2 11 -13.5t1.5 -27.5t2.5 -24q8 -21 0 -48.5t-29 -58t-39.5 -53.5t-46 -53t-33.5 -37q-31 -37 -37 -41q-8 -8 -28 -8q-21 0 -36 14.5t-17 32.5q-1 10 -5 21 t-4 18zM221 1325q-5 -40 8 -37q28 10 45 54q17 45 -3 57q-5 2 -11 2t-8 -2q-22 -19 -31 -74z" />
<glyph unicode="&#xb1;" />
<glyph unicode="&#xb2;" />
<glyph unicode="&#xb3;" />
<glyph unicode="&#xb4;" horiz-adv-x="460" d="M113 1149q2 7 7 17.5t7 17.5q4 3 3 7t0 7.5t7 3.5q-2 9 9.5 15t9.5 16q13 6 26.5 25.5t18.5 23.5q5 7 18 20t21.5 25t13.5 27q38 26 47 100q8 4 12 4t13 -3.5t14 -4.5q5 -6 5.5 -15t-1 -20.5t-0.5 -17.5q0 -3 1 -24.5t-5 -22.5q-2 -3 -3 -16t-7 -17q3 -9 -2 -15 t-16.5 -13t-16.5 -11q-2 -1 -6 -7t-8 -5q-3 -3 -7 -9t-9 -10.5t-11 -7.5q-5 -11 -22 -25t-21 -20q-2 -6 -9 -13.5t-9 -11.5q-6 -4 -26.5 -21t-33.5 -24l2 -2q-8 0 -11.5 3.5t-5.5 11.5t-5 12z" />
<glyph unicode="&#xb5;" />
<glyph unicode="&#xb6;" />
<glyph unicode="&#xb7;" />
<glyph unicode="&#xb8;" />
<glyph unicode="&#xb9;" />
<glyph unicode="&#xba;" horiz-adv-x="448" d="M82 778q-1 16 0 27t6 31.5t6 29.5q4 28 9.5 37.5t16.5 14t19 12.5q15 17 27 28t20.5 18.5t22.5 14.5t23.5 11t33 14t41.5 18q20 8 42 -12.5t24 -40.5q0 -30 -6.5 -55.5t-13.5 -39.5t-24.5 -44t-27.5 -49q-6 -12 -14.5 -20.5t-21 -16.5t-17.5 -13q-31 -27 -72 -30 q-39 -3 -59 10q-16 12 -25 25.5t-10 29.5zM181 818q-4 -12 1.5 -23t26.5 -15q12 -3 18.5 2t12.5 16t10 15q19 15 32 34.5t17 38.5t-10 33.5t-47 18.5q-24 3 -35.5 -5t-11.5 -22v-32q1 -12 -4.5 -30.5t-9.5 -30.5z" />
<glyph unicode="&#xbb;" horiz-adv-x="673" d="M78 455q-3 7 1.5 9.5t12.5 2.5q51 0 148 72q8 6 19.5 30t12.5 25q18 25 -10 78q-2 4 -5 11.5t-6 12.5t-7 9q-5 5 -16.5 9.5t-14.5 6.5q-5 2 -9.5 6t-9.5 11t-8 10q-6 5 -13.5 14.5t-14.5 16t-15 9.5q-6 2 -20.5 11t-26.5 10q-6 0 -11 7t-3 13q4 15 23.5 16t33.5 -3 q8 -1 17 -5.5t13 -7.5t15.5 -12t12.5 -10q4 -3 20.5 -17.5t28.5 -21.5q41 -23 59 -57q29 -56 39 -72q6 -14 6 -36.5t4 -33.5q2 -9 -14.5 -38.5t-17.5 -34.5q-2 -12 -14 -22t-33.5 -20t-24.5 -12q-8 -4 -13 -9.5t-5.5 -7t-5.5 -2.5t-13 3q-5 1 -13.5 1t-15 1t-10.5 4 q-8 3 -29 -1.5t-26 1.5q-3 2 -19.5 8.5t-21.5 14.5zM365 434q-3 7 1.5 9.5t12.5 2.5q50 0 147 72q8 6 20 30t13 25q18 25 -10 78q-15 30 -19 33q-5 5 -16 9.5t-14 6.5q-5 2 -9.5 6t-9.5 11t-8 10q-4 3 -18 20t-25 21q-5 2 -20 10.5t-27 9.5q-6 0 -11 7.5t-3 13.5q2 7 6 10.5 t11.5 4t12.5 0.5t14.5 -1.5t12.5 -1.5q8 -1 16.5 -5.5t13 -8t14.5 -11.5t13 -10q48 -38 49 -38q42 -24 60 -58q29 -55 39 -72q7 -14 7 -36t3 -33q2 -9 -15 -39t-18 -35q-2 -12 -13.5 -21.5t-33 -19.5t-24.5 -12q-8 -4 -13 -9.5t-5.5 -7t-5.5 -2.5t-13 3q-5 1 -13.5 1t-15 1 t-10.5 4q-8 3 -29 -1.5t-26 1.5q-3 2 -19.5 8t-21.5 14z" />
<glyph unicode="&#xbc;" />
<glyph unicode="&#xbd;" />
<glyph unicode="&#xbe;" />
<glyph unicode="&#xbf;" horiz-adv-x="466" d="M143 148.5q3 24.5 7 36.5t12.5 31t11.5 32t3 31.5t9 35.5q0 1 15 37t28.5 69.5t12.5 35.5q-2 8 -15 31t-10 44t31 52q8 9 35.5 -33t33.5 -62q8 -36 -2 -64.5t-31.5 -60t-29.5 -55.5q-18 -60 -14 -78q3 -11 13.5 -18.5t20.5 -5.5q11 2 22 -8t15 -11q4 0 5 -3t0.5 -8 t0.5 -7q7 -35 -3.5 -86.5t-37.5 -67.5q-28 -12 -59 19q-3 2 -7.5 2.5t-11.5 0.5t-12 1q-26 7 -39 61q-7 24 -4 48.5zM172 766q9 26 4.5 50.5t5.5 44.5t43 24q8 1 24 4t26.5 5t24.5 1.5t26 -4.5q5 -2 8.5 -4.5t5.5 -6.5t3 -7.5t0 -9.5t-1.5 -10t-2.5 -10.5t-3.5 -10.5t-4 -11 t-3.5 -10q-8 -24 -26 -33t-48 -12.5t-47 -11.5q-9 -4 -23.5 -1t-11.5 13z" />
<glyph unicode="&#xc0;" horiz-adv-x="1523" d="M-20 539q1 1 0.5 5t1.5 9q9 26 74 70t91 53q46 17 91 37q156 65 309 90q16 3 67.5 12.5t69.5 11.5q11 1 58 5.5t71 7.5q28 59 33 78l55 135q1 3 16.5 37.5t35.5 80t32 70.5q21 47 64 162q2 6 5.5 21.5t4.5 17.5q7 19 25.5 39.5t43.5 31.5q11 5 23 9l16.5 5.5t10 5t8 8.5 t6.5 15q7 22 12 99l4 6q3 6 2 8q0 34 2 41q4 9 9.5 23t12 33t9.5 28q-3 7 0 14q2 5 15 13.5t24 11.5q56 18 74 16q29 -5 40 -49t3 -69q-2 -5 -15 -32t-14 -42q-1 -12 0 -71t2 -138t0 -127q-1 -28 -7 -89t-7 -77q-5 -75 -35 -170q-3 -11 -12 -56t-17 -63q-3 -7 -4 -26.5 t-4 -28.5l29 -6q1 0 14.5 1.5t18.5 0.5q11 0 94 -23q2 -1 11 -6t18.5 -10.5t13.5 -9.5q18 -24 20 -27q3 -3 3.5 -11t-0.5 -19.5t-1 -12.5q0 -2 3 -10.5t1 -11.5q-6 -25 -24 -43q-9 -9 -37 -29q-1 -1 -8 -2.5t-10 -3.5q-6 -3 -22 -16t-24 -17q-10 0 -16 -2q-1 0 -14.5 -10.5 t-25.5 -16.5t-21 -4l-3 1q2 2 -1 3q-3 0 -10 -7t-11 -9q-12 -8 -26 -13t-21.5 -10.5t-13.5 -21.5q-5 -19 -2 -31q8 -18 11 -32t3 -34.5v-25.5q0 -3 4.5 -8.5t5.5 -9.5q0 -1 -1 -4t-1.5 -5.5t0.5 -5.5q10 -15 16 -34t8 -27.5t5.5 -35.5t3.5 -30t5.5 -12t6.5 -14q0 -8 6.5 -56 t5.5 -71q0 -12 7.5 -40.5t3.5 -41.5q-4 -7 -8 -29l3 -6q3 -6 3 -10v-21q-1 -3 -8 -18.5t-7 -20.5q-1 -8 1 -24.5t1 -24.5q0 -9 -4 -20t-11 -26.5t-9 -20.5q-1 -3 -1 -11t-1 -14q-2 -14 -12 -41l-11 -27q-4 -7 -23 -39.5t-22 -35.5q-23 -14 -53 -19q-8 -8 -16 -6q-9 2 -13 10 q1 4 8 18t7 21q1 5 -2 14t-3 11q2 4 7 24q0 14 -5 57.5t-4 67.5q0 2 3 15t2 18q0 15 -3.5 51.5t-3.5 55.5q0 2 4 10l5 10l-5 10q14 124 15 166q0 2 -1.5 11t-2 15.5t1.5 16.5q2 20 8 69t8 68q1 2 -8 37q0 5 8 21q4 34 2 55q0 2 -3.5 15.5t-4.5 21.5l2 6q2 6 2 10 q0 3 -3.5 10l-4.5 9q-1 -1 -4 -6q-9 -22 -10.5 -77.5t-4.5 -66.5q0 -3 -6 -16t-6 -19q-1 -10 -1 -36.5t-1 -38.5t-7.5 -39t-8.5 -41q0 -1 2 -7t2 -10q-2 -14 -9 -54t-8 -60q0 -1 2 -8t1 -11q-2 -13 -3.5 -41.5t-3.5 -42.5q0 -6 6 -22.5t7 -24.5q3 -99 -2 -182q-1 2 -10.5 15 t-14.5 20v20q0 6 -1 30.5t-1 35.5q1 16 0.5 67.5t1.5 61.5q0 1 -1.5 18.5t-0.5 28.5q11 164 23 239q1 8 1 39.5t1 42.5q1 3 3.5 11.5t4.5 17.5t2 16q-1 20 9.5 81t6.5 75q-4 0 -24 -4q-15 -4 -51.5 -17t-55.5 -18q-6 -2 -20 -3t-21 -3q-18 -5 -67.5 -14.5t-82.5 -22 t-59 -35.5q-20 -18 -39.5 -54t-30.5 -67.5t-19 -59.5l-9 -28q-6 -17 -2 -21t9.5 -6.5t4.5 -6.5q-1 -2 -15.5 -7.5t-17.5 -9.5q-10 -14 -33 -67t-34 -74q-8 -19 -39 -98q-6 -15 -17.5 -37.5t-22.5 -43.5l-11 -20q0 -1 -8 -23t-16.5 -47.5t-18 -53t-12.5 -38.5 q-89 -289 -117 -389q-5 -2 -15 -8t-17.5 -10t-10.5 -4q-3 1 -19 2t-20 2q-5 0 -9 4t-3 8q2 5 10 21t10 24q1 3 0 11.5t0 11.5q5 13 16.5 41.5t20 51t12.5 42.5q8 31 66 180q2 7 6.5 24t11.5 38q2 8 9 26.5t10 26.5q2 3 1.5 9t0.5 9q3 10 14 31t14 27q2 7 4 27.5t2 23.5 q0 4 6 15t7 14t1 10t1 10q7 29 21.5 73.5t17.5 49.5q1 3 14.5 36t52 127t82.5 203l1 2q-1 2 -5 3q-2 0 -29.5 -7t-42.5 -8q-23 -1 -77.5 -1t-79.5 -1q-4 0 -19.5 -2.5t-19.5 -1.5q-4 0 -55.5 5t-55.5 5q-2 1 -10 4.5t-15 6t-10 2.5q-16 2 -22 -13q-7 -18 5 -50.5t28 -57.5 q1 -2 6 -5t6 -5q2 -2 5.5 -9.5t6.5 -9.5q7 -4 25 -16.5t34 -22.5t29 -14q64 -29 74 -31q45 0 53 -2q6 0 6 -16q-12 2 -36.5 4.5t-28.5 3.5q-3 0 -16.5 5t-29 11t-16.5 6h-20q-3 0 -12 8.5t-13 8.5q-3 1 -5.5 -2t-6.5 -2q-3 1 -14 9t-15 11q-2 1 -10.5 2t-11.5 2 q-21 13 -37 35q-2 2 -10 4t-10 4q-70 82 -72 119l2 6q2 6 2 10q0 2 0.5 10t0.5 13t-2 11.5t-5 9.5q-1 1 -27.5 16t-34.5 24q-16 19 -27.5 46.5t-8.5 46.5zM49 539q-5 -13 29 -47.5t49 -40.5q56 87 298 179l6 3t5 2l6 2q41 17 99 33q11 3 55.5 16.5t62.5 18.5q17 5 50 13 t49 13q15 4 18 12q1 4 2 11t2 10q-6 1 -19 4.5t-18 3.5h-49q-174 5 -391 -78q-7 -3 -26 -8t-25 -8q-12 -6 -48.5 -22.5t-49.5 -24.5q-90 -55 -105 -92zM180 416q1 -1 20.5 -10t24.5 -11q4 0 5.5 1.5t5.5 0.5q2 -1 15.5 -9.5t18.5 -8.5q5 -1 12 1l7 1q79 -13 162 -10 q38 0 120 12q3 0 14.5 1t19 3t11.5 6q12 15 22 32.5t21 41t17 35.5q2 2 2.5 10.5t1.5 9.5q24 42 25 45t0.5 11t1.5 8q27 35 24 63q-21 0 -31 1.5t-33 -2.5l-34.5 -6t-36 -8t-36.5 -9.5t-36.5 -10.5t-36.5 -10q-2 -1 -9.5 -5.5t-10.5 -4.5q-37 -8 -115 -45t-119 -68 q-26 -21 -53 -65zM774 422q172 33 354 92q-1 8 -2 24.5t-2 22.5t-6.5 18t-5.5 17q-1 4 4 13.5t4 11.5q-5 2 -9 13.5t-5 12.5q-5 8 -16.5 22t-14.5 19q-3 4 -8 7t-10.5 6t-7.5 4q-24 16 -25 16q-3 1 -27 -3.5t-54.5 -9.5t-45.5 -6q-23 -40 -48.5 -102t-35.5 -82 q-3 -6 -16.5 -30.5t-14.5 -28.5q-2 -4 -8 -37zM952 823q13 -3 35.5 -10.5l42 -14t21.5 -7.5q9 -2 63.5 6t63.5 12q38 228 22 432q0 9 -20 19q-30 -57 -85 -159.5t-92 -172.5t-38 -72zM1120 745q22 -34 41 -43l6 17q3 6 -2 22q-1 0 -4.5 3.5t-7.5 3.5q-5 1 -17 -1t-16 -2z M1150.5 2169q0.5 21 0.5 24q1 6 0 18t0 21t6 15q3 1 12 4.5t13 3.5t14 -4q2 -28 13.5 -57.5t31.5 -43.5q5 -15 14.5 -27t22 -24.5t18.5 -19.5q3 -3 16 -23t27 -26q-1 -10 10 -16t9 -15q7 0 8.5 -3.5t0 -8t1.5 -7.5q2 -6 7.5 -16t6.5 -18q-3 -4 -5 -12t-5.5 -11.5t-11.5 -3.5 l2 2q-11 7 -31 23t-28 22q-2 5 -9.5 12.5t-9.5 12.5q-4 6 -21 20t-22 25q-7 3 -15 13t-12 13q-3 -1 -7 5.5t-7 7.5q-5 5 -15.5 11.5t-16 12.5t-3.5 15q-6 4 -7 16.5t-3 15.5q-5 2 -4.5 23zM1171 -61q-2 -21 11 -70q1 -3 -1 -26.5t1.5 -43t19.5 -22.5q15 0 27 4q20 38 12 100 q0 9 5 30.5t5 29.5q0 5 -1 16.5t-1 15.5q0 20 -5.5 56.5t-6.5 52.5l4 14q0 3 -2 8.5t-4.5 12t-3.5 8.5q-3 7 -9 30.5t-10 34.5q-2 3 -0.5 15.5t0.5 15.5q-6 6 -12 6q-2 -10 -8 -129q-1 -13 -8.5 -45.5t-7.5 -52.5q0 -9 -2.5 -30.5t-2.5 -30.5zM1174 659q0 -29 24 -63 q6 8 6.5 22.5t1.5 18.5q0 1 5 18.5t9 36t3 35t-11 18.5h-24q-2 -5 -7.5 -14t-6.5 -12q10 -7 10 -12q-11 -43 -10 -48zM1247 551q28 4 101 33q10 4 49 37q2 0 7.5 1t6.5 1q17 17 37 47q5 10 4 22t-16 19q-2 1 -9.5 2t-9.5 2q-3 1 -6.5 6.5t-5.5 5.5q-1 1 -53 18 q-2 0 -12 -1.5t-15 -0.5q-4 0 -10 6t-10 7h-27l-4 -11q-1 -13 -2.5 -38t-3.5 -45t-6 -37q-15 -67 -15 -74z" />
<glyph unicode="&#xc1;" horiz-adv-x="1523" d="M-20 539q1 1 0.5 5t1.5 9q9 26 74 70t91 53q46 17 91 37q156 65 309 90q16 3 67.5 12.5t69.5 11.5q11 1 58 5.5t71 7.5q28 59 33 78l55 135q1 3 16.5 37.5t35.5 80t32 70.5q21 47 64 162q2 6 5.5 21.5t4.5 17.5q7 19 25.5 39.5t43.5 31.5q11 5 23 9l16.5 5.5t10 5t8 8.5 t6.5 15q7 22 12 99l4 6q3 6 2 8q0 34 2 41q4 9 9.5 23t12 33t9.5 28q-3 7 0 14q2 5 15 13.5t24 11.5q56 18 74 16q29 -5 40 -49t3 -69q-2 -5 -15 -32t-14 -42q-1 -12 0 -71t2 -138t0 -127q-1 -28 -7 -89t-7 -77q-5 -75 -35 -170q-3 -11 -12 -56t-17 -63q-3 -7 -4 -26.5 t-4 -28.5l29 -6q1 0 14.5 1.5t18.5 0.5q11 0 94 -23q2 -1 11 -6t18.5 -10.5t13.5 -9.5q18 -24 20 -27q3 -3 3.5 -11t-0.5 -19.5t-1 -12.5q0 -2 3 -10.5t1 -11.5q-6 -25 -24 -43q-9 -9 -37 -29q-1 -1 -8 -2.5t-10 -3.5q-6 -3 -22 -16t-24 -17q-10 0 -16 -2q-1 0 -14.5 -10.5 t-25.5 -16.5t-21 -4l-3 1q2 2 -1 3q-3 0 -10 -7t-11 -9q-12 -8 -26 -13t-21.5 -10.5t-13.5 -21.5q-5 -19 -2 -31q8 -18 11 -32t3 -34.5v-25.5q0 -3 4.5 -8.5t5.5 -9.5q0 -1 -1 -4t-1.5 -5.5t0.5 -5.5q10 -15 16 -34t8 -27.5t5.5 -35.5t3.5 -30t5.5 -12t6.5 -14q0 -8 6.5 -56 t5.5 -71q0 -12 7.5 -40.5t3.5 -41.5q-4 -7 -8 -29l3 -6q3 -6 3 -10v-21q-1 -3 -8 -18.5t-7 -20.5q-1 -8 1 -24.5t1 -24.5q0 -9 -4 -20t-11 -26.5t-9 -20.5q-1 -3 -1 -11t-1 -14q-2 -14 -12 -41l-11 -27q-4 -7 -23 -39.5t-22 -35.5q-23 -14 -53 -19q-8 -8 -16 -6q-9 2 -13 10 q1 4 8 18t7 21q1 5 -2 14t-3 11q2 4 7 24q0 14 -5 57.5t-4 67.5q0 2 3 15t2 18q0 15 -3.5 51.5t-3.5 55.5q0 2 4 10l5 10l-5 10q14 124 15 166q0 2 -1.5 11t-2 15.5t1.5 16.5q2 20 8 69t8 68q1 2 -8 37q0 5 8 21q4 34 2 55q0 2 -3.5 15.5t-4.5 21.5l2 6q2 6 2 10 q0 3 -3.5 10l-4.5 9q-1 -1 -4 -6q-9 -22 -10.5 -77.5t-4.5 -66.5q0 -3 -6 -16t-6 -19q-1 -10 -1 -36.5t-1 -38.5t-7.5 -39t-8.5 -41q0 -1 2 -7t2 -10q-2 -14 -9 -54t-8 -60q0 -1 2 -8t1 -11q-2 -13 -3.5 -41.5t-3.5 -42.5q0 -6 6 -22.5t7 -24.5q3 -99 -2 -182q-1 2 -10.5 15 t-14.5 20v20q0 6 -1 30.5t-1 35.5q1 16 0.5 67.5t1.5 61.5q0 1 -1.5 18.5t-0.5 28.5q11 164 23 239q1 8 1 39.5t1 42.5q1 3 3.5 11.5t4.5 17.5t2 16q-1 20 9.5 81t6.5 75q-4 0 -24 -4q-15 -4 -51.5 -17t-55.5 -18q-6 -2 -20 -3t-21 -3q-18 -5 -67.5 -14.5t-82.5 -22 t-59 -35.5q-20 -18 -39.5 -54t-30.5 -67.5t-19 -59.5l-9 -28q-6 -17 -2 -21t9.5 -6.5t4.5 -6.5q-1 -2 -15.5 -7.5t-17.5 -9.5q-10 -14 -33 -67t-34 -74q-8 -19 -39 -98q-6 -15 -17.5 -37.5t-22.5 -43.5l-11 -20q0 -1 -8 -23t-16.5 -47.5t-18 -53t-12.5 -38.5 q-89 -289 -117 -389q-5 -2 -15 -8t-17.5 -10t-10.5 -4q-3 1 -19 2t-20 2q-5 0 -9 4t-3 8q2 5 10 21t10 24q1 3 0 11.5t0 11.5q5 13 16.5 41.5t20 51t12.5 42.5q8 31 66 180q2 7 6.5 24t11.5 38q2 8 9 26.5t10 26.5q2 3 1.5 9t0.5 9q3 10 14 31t14 27q2 7 4 27.5t2 23.5 q0 4 6 15t7 14t1 10t1 10q7 29 21.5 73.5t17.5 49.5q1 3 14.5 36t52 127t82.5 203l1 2q-1 2 -5 3q-2 0 -29.5 -7t-42.5 -8q-23 -1 -77.5 -1t-79.5 -1q-4 0 -19.5 -2.5t-19.5 -1.5q-4 0 -55.5 5t-55.5 5q-2 1 -10 4.5t-15 6t-10 2.5q-16 2 -22 -13q-7 -18 5 -50.5t28 -57.5 q1 -2 6 -5t6 -5q2 -2 5.5 -9.5t6.5 -9.5q7 -4 25 -16.5t34 -22.5t29 -14q64 -29 74 -31q45 0 53 -2q6 0 6 -16q-12 2 -36.5 4.5t-28.5 3.5q-3 0 -16.5 5t-29 11t-16.5 6h-20q-3 0 -12 8.5t-13 8.5q-3 1 -5.5 -2t-6.5 -2q-3 1 -14 9t-15 11q-2 1 -10.5 2t-11.5 2 q-21 13 -37 35q-2 2 -10 4t-10 4q-70 82 -72 119l2 6q2 6 2 10q0 2 0.5 10t0.5 13t-2 11.5t-5 9.5q-1 1 -27.5 16t-34.5 24q-16 19 -27.5 46.5t-8.5 46.5zM49 539q-5 -13 29 -47.5t49 -40.5q56 87 298 179l6 3t5 2l6 2q41 17 99 33q11 3 55.5 16.5t62.5 18.5q17 5 50 13 t49 13q15 4 18 12q1 4 2 11t2 10q-6 1 -19 4.5t-18 3.5h-49q-174 5 -391 -78q-7 -3 -26 -8t-25 -8q-12 -6 -48.5 -22.5t-49.5 -24.5q-90 -55 -105 -92zM180 416q1 -1 20.5 -10t24.5 -11q4 0 5.5 1.5t5.5 0.5q2 -1 15.5 -9.5t18.5 -8.5q5 -1 12 1l7 1q79 -13 162 -10 q38 0 120 12q3 0 14.5 1t19 3t11.5 6q12 15 22 32.5t21 41t17 35.5q2 2 2.5 10.5t1.5 9.5q24 42 25 45t0.5 11t1.5 8q27 35 24 63q-21 0 -31 1.5t-33 -2.5l-34.5 -6t-36 -8t-36.5 -9.5t-36.5 -10.5t-36.5 -10q-2 -1 -9.5 -5.5t-10.5 -4.5q-37 -8 -115 -45t-119 -68 q-26 -21 -53 -65zM774 422q172 33 354 92q-1 8 -2 24.5t-2 22.5t-6.5 18t-5.5 17q-1 4 4 13.5t4 11.5q-5 2 -9 13.5t-5 12.5q-5 8 -16.5 22t-14.5 19q-3 4 -8 7t-10.5 6t-7.5 4q-24 16 -25 16q-3 1 -27 -3.5t-54.5 -9.5t-45.5 -6q-23 -40 -48.5 -102t-35.5 -82 q-3 -6 -16.5 -30.5t-14.5 -28.5q-2 -4 -8 -37zM952 823q13 -3 35.5 -10.5l42 -14t21.5 -7.5q9 -2 63.5 6t63.5 12q38 228 22 432q0 9 -20 19q-30 -57 -85 -159.5t-92 -172.5t-38 -72zM1120 745q22 -34 41 -43l6 17q3 6 -2 22q-1 0 -4.5 3.5t-7.5 3.5q-5 1 -17 -1t-16 -2z M1171 -61q-2 -21 11 -70q1 -3 -1 -26.5t1.5 -43t19.5 -22.5q15 0 27 4q20 38 12 100q0 9 5 30.5t5 29.5q0 5 -1 16.5t-1 15.5q0 20 -5.5 56.5t-6.5 52.5l4 14q0 3 -2 8.5t-4.5 12t-3.5 8.5q-3 7 -9 30.5t-10 34.5q-2 3 -0.5 15.5t0.5 15.5q-6 6 -12 6q-2 -10 -8 -129 q-1 -13 -8.5 -45.5t-7.5 -52.5q0 -9 -2.5 -30.5t-2.5 -30.5zM1174 659q0 -29 24 -63q6 8 6.5 22.5t1.5 18.5q0 1 5 18.5t9 36t3 35t-11 18.5h-24q-2 -5 -7.5 -14t-6.5 -12q10 -7 10 -12q-11 -43 -10 -48zM1247 551q28 4 101 33q10 4 49 37q2 0 7.5 1t6.5 1q17 17 37 47 q5 10 4 22t-16 19q-2 1 -9.5 2t-9.5 2q-3 1 -6.5 6.5t-5.5 5.5q-1 1 -53 18q-2 0 -12 -1.5t-15 -0.5q-4 0 -10 6t-10 7h-27l-4 -11q-1 -13 -2.5 -38t-3.5 -45t-6 -37q-15 -67 -15 -74z" />
<glyph unicode="&#xc2;" horiz-adv-x="1523" d="M-20 539q1 1 0.5 5t1.5 9q9 26 74 70t91 53q46 17 91 37q156 65 309 90q16 3 67.5 12.5t69.5 11.5q11 1 58 5.5t71 7.5q28 59 33 78l55 135q1 3 16.5 37.5t35.5 80t32 70.5q21 47 64 162q2 6 5.5 21.5t4.5 17.5q7 19 25.5 39.5t43.5 31.5q11 5 23 9l16.5 5.5t10 5t8 8.5 t6.5 15q7 22 12 99l4 6q3 6 2 8q0 34 2 41q4 9 9.5 23t12 33t9.5 28q-3 7 0 14q2 5 15 13.5t24 11.5q56 18 74 16q29 -5 40 -49t3 -69q-2 -5 -15 -32t-14 -42q-1 -12 0 -71t2 -138t0 -127q-1 -28 -7 -89t-7 -77q-5 -75 -35 -170q-3 -11 -12 -56t-17 -63q-3 -7 -4 -26.5 t-4 -28.5l29 -6q1 0 14.5 1.5t18.5 0.5q11 0 94 -23q2 -1 11 -6t18.5 -10.5t13.5 -9.5q18 -24 20 -27q3 -3 3.5 -11t-0.5 -19.5t-1 -12.5q0 -2 3 -10.5t1 -11.5q-6 -25 -24 -43q-9 -9 -37 -29q-1 -1 -8 -2.5t-10 -3.5q-6 -3 -22 -16t-24 -17q-10 0 -16 -2q-1 0 -14.5 -10.5 t-25.5 -16.5t-21 -4l-3 1q2 2 -1 3q-3 0 -10 -7t-11 -9q-12 -8 -26 -13t-21.5 -10.5t-13.5 -21.5q-5 -19 -2 -31q8 -18 11 -32t3 -34.5v-25.5q0 -3 4.5 -8.5t5.5 -9.5q0 -1 -1 -4t-1.5 -5.5t0.5 -5.5q10 -15 16 -34t8 -27.5t5.5 -35.5t3.5 -30t5.5 -12t6.5 -14q0 -8 6.5 -56 t5.5 -71q0 -12 7.5 -40.5t3.5 -41.5q-4 -7 -8 -29l3 -6q3 -6 3 -10v-21q-1 -3 -8 -18.5t-7 -20.5q-1 -8 1 -24.5t1 -24.5q0 -9 -4 -20t-11 -26.5t-9 -20.5q-1 -3 -1 -11t-1 -14q-2 -14 -12 -41l-11 -27q-4 -7 -23 -39.5t-22 -35.5q-23 -14 -53 -19q-8 -8 -16 -6q-9 2 -13 10 q1 4 8 18t7 21q1 5 -2 14t-3 11q2 4 7 24q0 14 -5 57.5t-4 67.5q0 2 3 15t2 18q0 15 -3.5 51.5t-3.5 55.5q0 2 4 10l5 10l-5 10q14 124 15 166q0 2 -1.5 11t-2 15.5t1.5 16.5q2 20 8 69t8 68q1 2 -8 37q0 5 8 21q4 34 2 55q0 2 -3.5 15.5t-4.5 21.5l2 6q2 6 2 10 q0 3 -3.5 10l-4.5 9q-1 -1 -4 -6q-9 -22 -10.5 -77.5t-4.5 -66.5q0 -3 -6 -16t-6 -19q-1 -10 -1 -36.5t-1 -38.5t-7.5 -39t-8.5 -41q0 -1 2 -7t2 -10q-2 -14 -9 -54t-8 -60q0 -1 2 -8t1 -11q-2 -13 -3.5 -41.5t-3.5 -42.5q0 -6 6 -22.5t7 -24.5q3 -99 -2 -182q-1 2 -10.5 15 t-14.5 20v20q0 6 -1 30.5t-1 35.5q1 16 0.5 67.5t1.5 61.5q0 1 -1.5 18.5t-0.5 28.5q11 164 23 239q1 8 1 39.5t1 42.5q1 3 3.5 11.5t4.5 17.5t2 16q-1 20 9.5 81t6.5 75q-4 0 -24 -4q-15 -4 -51.5 -17t-55.5 -18q-6 -2 -20 -3t-21 -3q-18 -5 -67.5 -14.5t-82.5 -22 t-59 -35.5q-20 -18 -39.5 -54t-30.5 -67.5t-19 -59.5l-9 -28q-6 -17 -2 -21t9.5 -6.5t4.5 -6.5q-1 -2 -15.5 -7.5t-17.5 -9.5q-10 -14 -33 -67t-34 -74q-8 -19 -39 -98q-6 -15 -17.5 -37.5t-22.5 -43.5l-11 -20q0 -1 -8 -23t-16.5 -47.5t-18 -53t-12.5 -38.5 q-89 -289 -117 -389q-5 -2 -15 -8t-17.5 -10t-10.5 -4q-3 1 -19 2t-20 2q-5 0 -9 4t-3 8q2 5 10 21t10 24q1 3 0 11.5t0 11.5q5 13 16.5 41.5t20 51t12.5 42.5q8 31 66 180q2 7 6.5 24t11.5 38q2 8 9 26.5t10 26.5q2 3 1.5 9t0.5 9q3 10 14 31t14 27q2 7 4 27.5t2 23.5 q0 4 6 15t7 14t1 10t1 10q7 29 21.5 73.5t17.5 49.5q1 3 14.5 36t52 127t82.5 203l1 2q-1 2 -5 3q-2 0 -29.5 -7t-42.5 -8q-23 -1 -77.5 -1t-79.5 -1q-4 0 -19.5 -2.5t-19.5 -1.5q-4 0 -55.5 5t-55.5 5q-2 1 -10 4.5t-15 6t-10 2.5q-16 2 -22 -13q-7 -18 5 -50.5t28 -57.5 q1 -2 6 -5t6 -5q2 -2 5.5 -9.5t6.5 -9.5q7 -4 25 -16.5t34 -22.5t29 -14q64 -29 74 -31q45 0 53 -2q6 0 6 -16q-12 2 -36.5 4.5t-28.5 3.5q-3 0 -16.5 5t-29 11t-16.5 6h-20q-3 0 -12 8.5t-13 8.5q-3 1 -5.5 -2t-6.5 -2q-3 1 -14 9t-15 11q-2 1 -10.5 2t-11.5 2 q-21 13 -37 35q-2 2 -10 4t-10 4q-70 82 -72 119l2 6q2 6 2 10q0 2 0.5 10t0.5 13t-2 11.5t-5 9.5q-1 1 -27.5 16t-34.5 24q-16 19 -27.5 46.5t-8.5 46.5zM49 539q-5 -13 29 -47.5t49 -40.5q56 87 298 179l6 3t5 2l6 2q41 17 99 33q11 3 55.5 16.5t62.5 18.5q17 5 50 13 t49 13q15 4 18 12q1 4 2 11t2 10q-6 1 -19 4.5t-18 3.5h-49q-174 5 -391 -78q-7 -3 -26 -8t-25 -8q-12 -6 -48.5 -22.5t-49.5 -24.5q-90 -55 -105 -92zM180 416q1 -1 20.5 -10t24.5 -11q4 0 5.5 1.5t5.5 0.5q2 -1 15.5 -9.5t18.5 -8.5q5 -1 12 1l7 1q79 -13 162 -10 q38 0 120 12q3 0 14.5 1t19 3t11.5 6q12 15 22 32.5t21 41t17 35.5q2 2 2.5 10.5t1.5 9.5q24 42 25 45t0.5 11t1.5 8q27 35 24 63q-21 0 -31 1.5t-33 -2.5l-34.5 -6t-36 -8t-36.5 -9.5t-36.5 -10.5t-36.5 -10q-2 -1 -9.5 -5.5t-10.5 -4.5q-37 -8 -115 -45t-119 -68 q-26 -21 -53 -65zM774 422q172 33 354 92q-1 8 -2 24.5t-2 22.5t-6.5 18t-5.5 17q-1 4 4 13.5t4 11.5q-5 2 -9 13.5t-5 12.5q-5 8 -16.5 22t-14.5 19q-3 4 -8 7t-10.5 6t-7.5 4q-24 16 -25 16q-3 1 -27 -3.5t-54.5 -9.5t-45.5 -6q-23 -40 -48.5 -102t-35.5 -82 q-3 -6 -16.5 -30.5t-14.5 -28.5q-2 -4 -8 -37zM952 823q13 -3 35.5 -10.5l42 -14t21.5 -7.5q9 -2 63.5 6t63.5 12q38 228 22 432q0 9 -20 19q-30 -57 -85 -159.5t-92 -172.5t-38 -72zM1120 745q22 -34 41 -43l6 17q3 6 -2 22q-1 0 -4.5 3.5t-7.5 3.5q-5 1 -17 -1t-16 -2z M1130 1823q-2 18 21 63q2 4 13 23t16 33q11 41 43 69q10 9 31.5 26.5t31.5 26.5q11 10 34 15t32 10q8 5 41 -5.5t37 -10.5q12 1 24 -8.5t26.5 -29.5t16.5 -22q7 -8 14.5 -11t9.5 -6.5t1 -15.5q0 -5 1.5 -18t0.5 -20q-2 -9 5.5 -27.5t4.5 -26.5q-2 -5 -3.5 -22t-8.5 -23 q-11 -7 -17 10q-11 52 -100 132q-7 7 -33 13t-29 7q-25 11 -67 -22q-1 -1 -3 -2l-3 -3q-3 -2 -8 -5.5t-8.5 -6t-7 -6t-5.5 -6.5q-3 -6 -4.5 -18t-3.5 -17q-1 -5 -4 -10t-8.5 -11t-8.5 -10q-3 -5 -11.5 -15.5t-13 -18.5t-5.5 -17q-1 -6 -7.5 -22t-5.5 -27q1 -6 -4.5 -12.5 t-11.5 -6.5q-7 1 -11 4t-6.5 10.5t-3 12t-1.5 15t-1 12.5zM1171 -61q-2 -21 11 -70q1 -3 -1 -26.5t1.5 -43t19.5 -22.5q15 0 27 4q20 38 12 100q0 9 5 30.5t5 29.5q0 5 -1 16.5t-1 15.5q0 20 -5.5 56.5t-6.5 52.5l4 14q0 3 -2 8.5t-4.5 12t-3.5 8.5q-3 7 -9 30.5t-10 34.5 q-2 3 -0.5 15.5t0.5 15.5q-6 6 -12 6q-2 -10 -8 -129q-1 -13 -8.5 -45.5t-7.5 -52.5q0 -9 -2.5 -30.5t-2.5 -30.5zM1174 659q0 -29 24 -63q6 8 6.5 22.5t1.5 18.5q0 1 5 18.5t9 36t3 35t-11 18.5h-24q-2 -5 -7.5 -14t-6.5 -12q10 -7 10 -12q-11 -43 -10 -48zM1247 551 q28 4 101 33q10 4 49 37q2 0 7.5 1t6.5 1q17 17 37 47q5 10 4 22t-16 19q-2 1 -9.5 2t-9.5 2q-3 1 -6.5 6.5t-5.5 5.5q-1 1 -53 18q-2 0 -12 -1.5t-15 -0.5q-4 0 -10 6t-10 7h-27l-4 -11q-1 -13 -2.5 -38t-3.5 -45t-6 -37q-15 -67 -15 -74z" />
<glyph unicode="&#xc3;" horiz-adv-x="1523" d="M-20 539q1 1 0.5 5t1.5 9q9 26 74 70t91 53q46 17 91 37q156 65 309 90q16 3 67.5 12.5t69.5 11.5q11 1 58 5.5t71 7.5q28 59 33 78l55 135q1 3 16.5 37.5t35.5 80t32 70.5q21 47 64 162q2 6 5.5 21.5t4.5 17.5q7 19 25.5 39.5t43.5 31.5q11 5 23 9l16.5 5.5t10 5t8 8.5 t6.5 15q7 22 12 99l4 6q3 6 2 8q0 34 2 41q4 9 9.5 23t12 33t9.5 28q-3 7 0 14q2 5 15 13.5t24 11.5q56 18 74 16q29 -5 40 -49t3 -69q-2 -5 -15 -32t-14 -42q-1 -12 0 -71t2 -138t0 -127q-1 -28 -7 -89t-7 -77q-5 -75 -35 -170q-3 -11 -12 -56t-17 -63q-3 -7 -4 -26.5 t-4 -28.5l29 -6q1 0 14.5 1.5t18.5 0.5q11 0 94 -23q2 -1 11 -6t18.5 -10.5t13.5 -9.5q18 -24 20 -27q3 -3 3.5 -11t-0.5 -19.5t-1 -12.5q0 -2 3 -10.5t1 -11.5q-6 -25 -24 -43q-9 -9 -37 -29q-1 -1 -8 -2.5t-10 -3.5q-6 -3 -22 -16t-24 -17q-10 0 -16 -2q-1 0 -14.5 -10.5 t-25.5 -16.5t-21 -4l-3 1q2 2 -1 3q-3 0 -10 -7t-11 -9q-12 -8 -26 -13t-21.5 -10.5t-13.5 -21.5q-5 -19 -2 -31q8 -18 11 -32t3 -34.5v-25.5q0 -3 4.5 -8.5t5.5 -9.5q0 -1 -1 -4t-1.5 -5.5t0.5 -5.5q10 -15 16 -34t8 -27.5t5.5 -35.5t3.5 -30t5.5 -12t6.5 -14q0 -8 6.5 -56 t5.5 -71q0 -12 7.5 -40.5t3.5 -41.5q-4 -7 -8 -29l3 -6q3 -6 3 -10v-21q-1 -3 -8 -18.5t-7 -20.5q-1 -8 1 -24.5t1 -24.5q0 -9 -4 -20t-11 -26.5t-9 -20.5q-1 -3 -1 -11t-1 -14q-2 -14 -12 -41l-11 -27q-4 -7 -23 -39.5t-22 -35.5q-23 -14 -53 -19q-8 -8 -16 -6q-9 2 -13 10 q1 4 8 18t7 21q1 5 -2 14t-3 11q2 4 7 24q0 14 -5 57.5t-4 67.5q0 2 3 15t2 18q0 15 -3.5 51.5t-3.5 55.5q0 2 4 10l5 10l-5 10q14 124 15 166q0 2 -1.5 11t-2 15.5t1.5 16.5q2 20 8 69t8 68q1 2 -8 37q0 5 8 21q4 34 2 55q0 2 -3.5 15.5t-4.5 21.5l2 6q2 6 2 10 q0 3 -3.5 10l-4.5 9q-1 -1 -4 -6q-9 -22 -10.5 -77.5t-4.5 -66.5q0 -3 -6 -16t-6 -19q-1 -10 -1 -36.5t-1 -38.5t-7.5 -39t-8.5 -41q0 -1 2 -7t2 -10q-2 -14 -9 -54t-8 -60q0 -1 2 -8t1 -11q-2 -13 -3.5 -41.5t-3.5 -42.5q0 -6 6 -22.5t7 -24.5q3 -99 -2 -182q-1 2 -10.5 15 t-14.5 20v20q0 6 -1 30.5t-1 35.5q1 16 0.5 67.5t1.5 61.5q0 1 -1.5 18.5t-0.5 28.5q11 164 23 239q1 8 1 39.5t1 42.5q1 3 3.5 11.5t4.5 17.5t2 16q-1 20 9.5 81t6.5 75q-4 0 -24 -4q-15 -4 -51.5 -17t-55.5 -18q-6 -2 -20 -3t-21 -3q-18 -5 -67.5 -14.5t-82.5 -22 t-59 -35.5q-20 -18 -39.5 -54t-30.5 -67.5t-19 -59.5l-9 -28q-6 -17 -2 -21t9.5 -6.5t4.5 -6.5q-1 -2 -15.5 -7.5t-17.5 -9.5q-10 -14 -33 -67t-34 -74q-8 -19 -39 -98q-6 -15 -17.5 -37.5t-22.5 -43.5l-11 -20q0 -1 -8 -23t-16.5 -47.5t-18 -53t-12.5 -38.5 q-89 -289 -117 -389q-5 -2 -15 -8t-17.5 -10t-10.5 -4q-3 1 -19 2t-20 2q-5 0 -9 4t-3 8q2 5 10 21t10 24q1 3 0 11.5t0 11.5q5 13 16.5 41.5t20 51t12.5 42.5q8 31 66 180q2 7 6.5 24t11.5 38q2 8 9 26.5t10 26.5q2 3 1.5 9t0.5 9q3 10 14 31t14 27q2 7 4 27.5t2 23.5 q0 4 6 15t7 14t1 10t1 10q7 29 21.5 73.5t17.5 49.5q1 3 14.5 36t52 127t82.5 203l1 2q-1 2 -5 3q-2 0 -29.5 -7t-42.5 -8q-23 -1 -77.5 -1t-79.5 -1q-4 0 -19.5 -2.5t-19.5 -1.5q-4 0 -55.5 5t-55.5 5q-2 1 -10 4.5t-15 6t-10 2.5q-16 2 -22 -13q-7 -18 5 -50.5t28 -57.5 q1 -2 6 -5t6 -5q2 -2 5.5 -9.5t6.5 -9.5q7 -4 25 -16.5t34 -22.5t29 -14q64 -29 74 -31q45 0 53 -2q6 0 6 -16q-12 2 -36.5 4.5t-28.5 3.5q-3 0 -16.5 5t-29 11t-16.5 6h-20q-3 0 -12 8.5t-13 8.5q-3 1 -5.5 -2t-6.5 -2q-3 1 -14 9t-15 11q-2 1 -10.5 2t-11.5 2 q-21 13 -37 35q-2 2 -10 4t-10 4q-70 82 -72 119l2 6q2 6 2 10q0 2 0.5 10t0.5 13t-2 11.5t-5 9.5q-1 1 -27.5 16t-34.5 24q-16 19 -27.5 46.5t-8.5 46.5zM49 539q-5 -13 29 -47.5t49 -40.5q56 87 298 179l6 3t5 2l6 2q41 17 99 33q11 3 55.5 16.5t62.5 18.5q17 5 50 13 t49 13q15 4 18 12q1 4 2 11t2 10q-6 1 -19 4.5t-18 3.5h-49q-174 5 -391 -78q-7 -3 -26 -8t-25 -8q-12 -6 -48.5 -22.5t-49.5 -24.5q-90 -55 -105 -92zM180 416q1 -1 20.5 -10t24.5 -11q4 0 5.5 1.5t5.5 0.5q2 -1 15.5 -9.5t18.5 -8.5q5 -1 12 1l7 1q79 -13 162 -10 q38 0 120 12q3 0 14.5 1t19 3t11.5 6q12 15 22 32.5t21 41t17 35.5q2 2 2.5 10.5t1.5 9.5q24 42 25 45t0.5 11t1.5 8q27 35 24 63q-21 0 -31 1.5t-33 -2.5l-34.5 -6t-36 -8t-36.5 -9.5t-36.5 -10.5t-36.5 -10q-2 -1 -9.5 -5.5t-10.5 -4.5q-37 -8 -115 -45t-119 -68 q-26 -21 -53 -65zM774 422q172 33 354 92q-1 8 -2 24.5t-2 22.5t-6.5 18t-5.5 17q-1 4 4 13.5t4 11.5q-5 2 -9 13.5t-5 12.5q-5 8 -16.5 22t-14.5 19q-3 4 -8 7t-10.5 6t-7.5 4q-24 16 -25 16q-3 1 -27 -3.5t-54.5 -9.5t-45.5 -6q-23 -40 -48.5 -102t-35.5 -82 q-3 -6 -16.5 -30.5t-14.5 -28.5q-2 -4 -8 -37zM952 823q13 -3 35.5 -10.5l42 -14t21.5 -7.5q9 -2 63.5 6t63.5 12q38 228 22 432q0 9 -20 19q-30 -57 -85 -159.5t-92 -172.5t-38 -72zM1038 1982q3 8 15.5 16t15.5 11q13 1 34 18t36 17q28 35 102 18l27 -22q3 -2 8 -4.5 t8.5 -5.5t5.5 -7q3 0 47 -15.5t70 -4.5q8 3 24 7.5t28 9.5t20 14q48 14 69 2q4 -23 0 -35q-6 -5 -26 -11.5t-27 -19.5q-7 -4 -30 -10t-33 -14q-12 -3 -37.5 -10.5t-42.5 -11.5t-39 -3t-39 10q-36 6 -66 33q-12 4 -36 9t-35 9q-17 0 -46.5 -6.5t-43.5 -7.5q-3 2 -5 7t-4 7z M1120 745q22 -34 41 -43l6 17q3 6 -2 22q-1 0 -4.5 3.5t-7.5 3.5q-5 1 -17 -1t-16 -2zM1171 -61q-2 -21 11 -70q1 -3 -1 -26.5t1.5 -43t19.5 -22.5q15 0 27 4q20 38 12 100q0 9 5 30.5t5 29.5q0 5 -1 16.5t-1 15.5q0 20 -5.5 56.5t-6.5 52.5l4 14q0 3 -2 8.5t-4.5 12 t-3.5 8.5q-3 7 -9 30.5t-10 34.5q-2 3 -0.5 15.5t0.5 15.5q-6 6 -12 6q-2 -10 -8 -129q-1 -13 -8.5 -45.5t-7.5 -52.5q0 -9 -2.5 -30.5t-2.5 -30.5zM1174 659q0 -29 24 -63q6 8 6.5 22.5t1.5 18.5q0 1 5 18.5t9 36t3 35t-11 18.5h-24q-2 -5 -7.5 -14t-6.5 -12q10 -7 10 -12 q-11 -43 -10 -48zM1247 551q28 4 101 33q10 4 49 37q2 0 7.5 1t6.5 1q17 17 37 47q5 10 4 22t-16 19q-2 1 -9.5 2t-9.5 2q-3 1 -6.5 6.5t-5.5 5.5q-1 1 -53 18q-2 0 -12 -1.5t-15 -0.5q-4 0 -10 6t-10 7h-27l-4 -11q-1 -13 -2.5 -38t-3.5 -45t-6 -37q-15 -67 -15 -74z" />
<glyph unicode="&#xc4;" horiz-adv-x="1523" d="M-20 539q1 1 0.5 5t1.5 9q9 26 74 70t91 53q46 17 91 37q156 65 309 90q16 3 67.5 12.5t69.5 11.5q11 1 58 5.5t71 7.5q28 59 33 78l55 135q1 3 16.5 37.5t35.5 80t32 70.5q21 47 64 162q2 6 5.5 21.5t4.5 17.5q7 19 25.5 39.5t43.5 31.5q11 5 23 9l16.5 5.5t10 5t8 8.5 t6.5 15q7 22 12 99l4 6q3 6 2 8q0 34 2 41q4 9 9.5 23t12 33t9.5 28q-3 7 0 14q2 5 15 13.5t24 11.5q56 18 74 16q29 -5 40 -49t3 -69q-2 -5 -15 -32t-14 -42q-1 -12 0 -71t2 -138t0 -127q-1 -28 -7 -89t-7 -77q-5 -75 -35 -170q-3 -11 -12 -56t-17 -63q-3 -7 -4 -26.5 t-4 -28.5l29 -6q1 0 14.5 1.5t18.5 0.5q11 0 94 -23q2 -1 11 -6t18.5 -10.5t13.5 -9.5q18 -24 20 -27q3 -3 3.5 -11t-0.5 -19.5t-1 -12.5q0 -2 3 -10.5t1 -11.5q-6 -25 -24 -43q-9 -9 -37 -29q-1 -1 -8 -2.5t-10 -3.5q-6 -3 -22 -16t-24 -17q-10 0 -16 -2q-1 0 -14.5 -10.5 t-25.5 -16.5t-21 -4l-3 1q2 2 -1 3q-3 0 -10 -7t-11 -9q-12 -8 -26 -13t-21.5 -10.5t-13.5 -21.5q-5 -19 -2 -31q8 -18 11 -32t3 -34.5v-25.5q0 -3 4.5 -8.5t5.5 -9.5q0 -1 -1 -4t-1.5 -5.5t0.5 -5.5q10 -15 16 -34t8 -27.5t5.5 -35.5t3.5 -30t5.5 -12t6.5 -14q0 -8 6.5 -56 t5.5 -71q0 -12 7.5 -40.5t3.5 -41.5q-4 -7 -8 -29l3 -6q3 -6 3 -10v-21q-1 -3 -8 -18.5t-7 -20.5q-1 -8 1 -24.5t1 -24.5q0 -9 -4 -20t-11 -26.5t-9 -20.5q-1 -3 -1 -11t-1 -14q-2 -14 -12 -41l-11 -27q-4 -7 -23 -39.5t-22 -35.5q-23 -14 -53 -19q-8 -8 -16 -6q-9 2 -13 10 q1 4 8 18t7 21q1 5 -2 14t-3 11q2 4 7 24q0 14 -5 57.5t-4 67.5q0 2 3 15t2 18q0 15 -3.5 51.5t-3.5 55.5q0 2 4 10l5 10l-5 10q14 124 15 166q0 2 -1.5 11t-2 15.5t1.5 16.5q2 20 8 69t8 68q1 2 -8 37q0 5 8 21q4 34 2 55q0 2 -3.5 15.5t-4.5 21.5l2 6q2 6 2 10 q0 3 -3.5 10l-4.5 9q-1 -1 -4 -6q-9 -22 -10.5 -77.5t-4.5 -66.5q0 -3 -6 -16t-6 -19q-1 -10 -1 -36.5t-1 -38.5t-7.5 -39t-8.5 -41q0 -1 2 -7t2 -10q-2 -14 -9 -54t-8 -60q0 -1 2 -8t1 -11q-2 -13 -3.5 -41.5t-3.5 -42.5q0 -6 6 -22.5t7 -24.5q3 -99 -2 -182q-1 2 -10.5 15 t-14.5 20v20q0 6 -1 30.5t-1 35.5q1 16 0.5 67.5t1.5 61.5q0 1 -1.5 18.5t-0.5 28.5q11 164 23 239q1 8 1 39.5t1 42.5q1 3 3.5 11.5t4.5 17.5t2 16q-1 20 9.5 81t6.5 75q-4 0 -24 -4q-15 -4 -51.5 -17t-55.5 -18q-6 -2 -20 -3t-21 -3q-18 -5 -67.5 -14.5t-82.5 -22 t-59 -35.5q-20 -18 -39.5 -54t-30.5 -67.5t-19 -59.5l-9 -28q-6 -17 -2 -21t9.5 -6.5t4.5 -6.5q-1 -2 -15.5 -7.5t-17.5 -9.5q-10 -14 -33 -67t-34 -74q-8 -19 -39 -98q-6 -15 -17.5 -37.5t-22.5 -43.5l-11 -20q0 -1 -8 -23t-16.5 -47.5t-18 -53t-12.5 -38.5 q-89 -289 -117 -389q-5 -2 -15 -8t-17.5 -10t-10.5 -4q-3 1 -19 2t-20 2q-5 0 -9 4t-3 8q2 5 10 21t10 24q1 3 0 11.5t0 11.5q5 13 16.5 41.5t20 51t12.5 42.5q8 31 66 180q2 7 6.5 24t11.5 38q2 8 9 26.5t10 26.5q2 3 1.5 9t0.5 9q3 10 14 31t14 27q2 7 4 27.5t2 23.5 q0 4 6 15t7 14t1 10t1 10q7 29 21.5 73.5t17.5 49.5q1 3 14.5 36t52 127t82.5 203l1 2q-1 2 -5 3q-2 0 -29.5 -7t-42.5 -8q-23 -1 -77.5 -1t-79.5 -1q-4 0 -19.5 -2.5t-19.5 -1.5q-4 0 -55.5 5t-55.5 5q-2 1 -10 4.5t-15 6t-10 2.5q-16 2 -22 -13q-7 -18 5 -50.5t28 -57.5 q1 -2 6 -5t6 -5q2 -2 5.5 -9.5t6.5 -9.5q7 -4 25 -16.5t34 -22.5t29 -14q64 -29 74 -31q45 0 53 -2q6 0 6 -16q-12 2 -36.5 4.5t-28.5 3.5q-3 0 -16.5 5t-29 11t-16.5 6h-20q-3 0 -12 8.5t-13 8.5q-3 1 -5.5 -2t-6.5 -2q-3 1 -14 9t-15 11q-2 1 -10.5 2t-11.5 2 q-21 13 -37 35q-2 2 -10 4t-10 4q-70 82 -72 119l2 6q2 6 2 10q0 2 0.5 10t0.5 13t-2 11.5t-5 9.5q-1 1 -27.5 16t-34.5 24q-16 19 -27.5 46.5t-8.5 46.5zM49 539q-5 -13 29 -47.5t49 -40.5q56 87 298 179l6 3t5 2l6 2q41 17 99 33q11 3 55.5 16.5t62.5 18.5q17 5 50 13 t49 13q15 4 18 12q1 4 2 11t2 10q-6 1 -19 4.5t-18 3.5h-49q-174 5 -391 -78q-7 -3 -26 -8t-25 -8q-12 -6 -48.5 -22.5t-49.5 -24.5q-90 -55 -105 -92zM180 416q1 -1 20.5 -10t24.5 -11q4 0 5.5 1.5t5.5 0.5q2 -1 15.5 -9.5t18.5 -8.5q5 -1 12 1l7 1q79 -13 162 -10 q38 0 120 12q3 0 14.5 1t19 3t11.5 6q12 15 22 32.5t21 41t17 35.5q2 2 2.5 10.5t1.5 9.5q24 42 25 45t0.5 11t1.5 8q27 35 24 63q-21 0 -31 1.5t-33 -2.5l-34.5 -6t-36 -8t-36.5 -9.5t-36.5 -10.5t-36.5 -10q-2 -1 -9.5 -5.5t-10.5 -4.5q-37 -8 -115 -45t-119 -68 q-26 -21 -53 -65zM774 422q172 33 354 92q-1 8 -2 24.5t-2 22.5t-6.5 18t-5.5 17q-1 4 4 13.5t4 11.5q-5 2 -9 13.5t-5 12.5q-5 8 -16.5 22t-14.5 19q-3 4 -8 7t-10.5 6t-7.5 4q-24 16 -25 16q-3 1 -27 -3.5t-54.5 -9.5t-45.5 -6q-23 -40 -48.5 -102t-35.5 -82 q-3 -6 -16.5 -30.5t-14.5 -28.5q-2 -4 -8 -37zM952 823q13 -3 35.5 -10.5l42 -14t21.5 -7.5q9 -2 63.5 6t63.5 12q38 228 22 432q0 9 -20 19q-30 -57 -85 -159.5t-92 -172.5t-38 -72zM1120 745q22 -34 41 -43l6 17q3 6 -2 22q-1 0 -4.5 3.5t-7.5 3.5q-5 1 -17 -1t-16 -2z M1122 1995q14 30 47 51.5t66 21.5l6 -22q3 -4 12 -12.5t14 -14t5 -14.5t-10 -18q-50 -46 -95 -54q-22 -3 -37.5 20.5t-7.5 41.5zM1171 -61q-2 -21 11 -70q1 -3 -1 -26.5t1.5 -43t19.5 -22.5q15 0 27 4q20 38 12 100q0 9 5 30.5t5 29.5q0 5 -1 16.5t-1 15.5q0 20 -5.5 56.5 t-6.5 52.5l4 14q0 3 -2 8.5t-4.5 12t-3.5 8.5q-3 7 -9 30.5t-10 34.5q-2 3 -0.5 15.5t0.5 15.5q-6 6 -12 6q-2 -10 -8 -129q-1 -13 -8.5 -45.5t-7.5 -52.5q0 -9 -2.5 -30.5t-2.5 -30.5zM1174 659q0 -29 24 -63q6 8 6.5 22.5t1.5 18.5q0 1 5 18.5t9 36t3 35t-11 18.5h-24 q-2 -5 -7.5 -14t-6.5 -12q10 -7 10 -12q-11 -43 -10 -48zM1247 551q28 4 101 33q10 4 49 37q2 0 7.5 1t6.5 1q17 17 37 47q5 10 4 22t-16 19q-2 1 -9.5 2t-9.5 2q-3 1 -6.5 6.5t-5.5 5.5q-1 1 -53 18q-2 0 -12 -1.5t-15 -0.5q-4 0 -10 6t-10 7h-27l-4 -11q-1 -13 -2.5 -38 t-3.5 -45t-6 -37q-15 -67 -15 -74zM1407 1989q14 30 47 51.5t66 21.5l6 -22q3 -4 12 -12.5t14 -14.5t4.5 -15t-10.5 -18q-49 -45 -94 -53q-22 -3 -37.5 20.5t-7.5 41.5z" />
</font>
</defs>
</svg>
