<svg xmlns="http://www.w3.org/2000/svg" xmlns:xlink="http://www.w3.org/1999/xlink" version="1.1" id="womp-invite" x="0px" y="0px" viewBox="0 0 209.8 28.1" style="enable-background:new 0 0 209.8 28.1;" xml:space="preserve">
<style type="text/css">
	.invite-svg-back{fill-rule:evenodd;clip-rule:evenodd;fill:#ED4641;}
	.invite-svg-text{fill:#F2F2F2;}
</style>
<g>
	<g>
		<path class="invite-svg-back" d="M1.1 24.9c0-0.1 0.2-0.2 0.2-0.2c-0.1-0.7-0.2-1.4-0.4-2.1c-0.1-0.4 0-0.8 0.1-1.2c0-0.4-0.3-0.8-0.4-1.2 c0-0.2 0-0.4 0-0.6c0-0.3-0.2-0.6-0.2-0.9c0-0.7 0-1.4 0-2.1c0-0.3-0.2-0.7-0.2-1c0-0.2 0.1-0.3 0.1-0.5c0-0.6 0.2-1.2 0.1-1.8 c-0.1-0.4 0.3-0.7 0.2-1c-0.1-0.2-0.2-0.3-0.3-0.5c0.4-0.2 0.2-0.5 0-0.7c0.1-0.2 0.2-0.4 0.3-0.6c0.1-0.2 0.2-0.4 0.2-0.6 c0 0 0-0.1 0-0.1c-0.4-0.7 0.1-1.4 0-2.1c-0.1-0.6 0-1.2 0-1.8c0-0.7 0.1-1.5 0.1-2.2c0-0.3-0.1-0.7-0.1-1C0.7 2.5 0.7 2.3 0.8 2 c0-0.1 0-0.3 0-0.4c0-0.2-0.1-0.3-0.1-0.5c0-0.4 0.1-0.7 0.1-1.2c1.7 0.1 3.2 0.2 4.8 0.2c0.5 0 1-0.1 1.5-0.1c0.3 0 0.7 0 1.1 0 c0.8 0 1.6 0.2 2.3 0.1c0.9-0.1 1.6 0.2 2.5 0.1c0.4 0 0.7 0 1.1 0c1.3 0 2.5 0.1 3.8 0.1c0.5 0 1 0.1 1.5 0.1 c0.8 0 1.6 0.1 2.4 0.1c0.7 0 1.4 0 2.1 0c1.3 0 2.7 0.1 4 0.1c0.6 0 1.3 0 1.9-0.1c0.4 0 0.8 0 1.2 0c0.9 0.1 1.9 0.1 2.8-0.1 c0.3-0.1 0.9 0.1 1.3 0.1c0.3 0 0.6 0.1 0.8 0.1c0.8 0 1.7-0.1 2.5-0.1c1.7 0 3.3 0.1 5 0.2C43.8 1 44.3 1 44.7 1 C46 1 47.3 1 48.6 1C49.5 1 50.3 1 51.2 1C52.3 1 53.5 1 54.6 1c1.2 0 2.3 0 3.5 0c0.2 0 0.4 0 0.6 0.1c0.6 0.1 0.9-0.2 1.4-0.4 c0 0.3 0.2 0.5 0.7 0.3c0.1 0 0.2 0 0.2 0c1.7 0 3.5 0 5.2 0.1c0.9 0 1.8 0.1 2.6 0c0.9-0.1 1.8 0 2.7 0c0.9 0 1.8 0 2.7-0.1 c0.7 0 1.4 0 2.1-0.1c0.6 0 1.1-0.1 1.7-0.1c0.6 0 1.3 0 1.9 0c1.5 0 3-0.1 4.5-0.2c0.6 0 1.3 0.1 1.9 0.1c0.9 0 1.8-0.1 2.6-0.1 c0.5 0 1.1 0 1.6-0.1c0.7-0.2 1.5 0.2 2.2-0.2c0.4-0.2 1.1 0 1.7 0c0.6 0 1.2 0.1 1.8 0.1c1.4 0 2.8 0 4.3 0c1.3 0 2.6 0 3.8 0 c0.9 0 1.7 0 2.6 0c0.8 0 1.7 0.1 2.5 0.1c0.5 0 1 0 1.6 0c0.6 0 1.2 0 1.8 0c0.7 0 1.5 0.1 2.2 0.1c0.9 0 1.9-0.1 2.8 0 c1.1 0 2.2 0.1 3.2 0.1c0.1 0 0.2-0.1 0.2-0.1c0.7 0 1.4 0 2 0.1c0 0 0-0.1 0-0.1c0.2 0 0.5 0.1 0.7 0.1c1.8 0 3.7-0.1 5.5-0.1 c1.4 0 2.8 0 4.2 0c1 0 1.9 0.2 2.9 0.2c0.9-0.1 1.7 0.1 2.5 0.1c1.1 0 2.1 0 3.2 0c0.8 0 1.7 0.1 2.5 0.1c1.4 0 2.7 0 4.1 0.1 c0.8 0 1.6 0 2.3 0c0.9 0 1.8 0 2.6 0c0.6 0 1.2 0.1 1.7 0.1c0.8 0 1.5-0.1 2.3-0.1c0.9 0 1.9 0 2.8 0c0.7 0 1.4 0 2 0 c0.7 0 1.4 0.1 2.1 0.1c0.9 0.1 1.9 0.1 2.8-0.1c0.2 0 0.4 0.1 0.6 0.1c0.5 0 1 0 1.6 0c0.8 0 1.6-0.1 2.4 0c0.4 0.1 0.8 0 1.2 0 c0.8 0 1.6 0 2.4 0c1.1 0 2.1 0 3.2 0c0.8 0 1.7 0 2.5 0c0.8 0 1.6 0 2.4-0.1c0.6 0 1.2-0.1 1.8-0.2c0.4 0 0.8 0 1.1 0 c0.3 0 0.6 0.1 0.9 0.1c1.1 0 2.1 0.1 3.2 0.1c1.3 0 2.7-0.1 4-0.1c1.3 0 2.7 0 4 0c0.9 0 1.9 0 2.8 0c0.9 0 1.7 0 2.6 0 c0.4 0 0.9-0.1 1.3-0.1c0.5 0 0.9 0.1 1.4 0.1c0.6 0 1.2 0 1.9 0c0 0.5 0 1 0 1.6c0 0.3 0.1 0.6 0.1 0.9c0 0.5 0 1-0.1 1.5 c-0.1 1-0.3 2-0.5 3c-0.1 0.6-0.2 1.3-0.3 1.9c-0.1 0.9-0.1 1.8-0.2 2.7c0 0.1 0.2 0.2 0.2 0.2c-0.1 0.2-0.3 0.3-0.2 0.4 c0 0.4 0.1 0.8 0.1 1.2c0 0.8-0.1 1.6-0.1 2.5c0 0.5 0.3 1 0.3 1.5c0.1 0.3 0 0.6 0 1c0.1 0.4 0.1 0.8 0.3 1.3 c0.1 0.4 0.3 0.8 0.4 1.2c0.1 0.3 0 0.6 0.1 0.9c0 0.2 0.2 0.3 0.3 0.5c0 0.1-0.1 0.2-0.1 0.2c0.1 0.2 0.2 0.5 0.2 0.7 c0.1 0.6-0.2 0.7-1.1 0.7c-0.9 0-1.8 0.1-2.7 0.1c-0.1 0-0.2 0-0.3 0c-0.5 0-1 0-1.5-0.1c-1 0-1.9 0-2.9 0c-0.7 0-1.3 0-2 0.1 c-0.1 0-0.2 0-0.2 0c-0.6-0.3-1.4-0.1-2.1-0.2c-1.4 0-2.9-0.1-4.3 0c-1.1 0-2.2 0.2-3.4 0.2c-0.8 0-1.6-0.1-2.3-0.1 c-0.9 0-1.7 0-2.6 0c-0.6 0-1.2-0.2-1.7 0c-0.8 0.2-1.7 0.1-2.5 0.1c-0.8 0-1.7 0.4-2.6 0c-0.4-0.1-1 0-1.5 0 c-0.7 0-1.4-0.1-2.1-0.1c-1 0-2.1 0.1-3.1 0.1c-1.5 0.1-3 0.2-4.5 0.1c-0.8-0.1-1.7 0.1-2.6 0.1c-0.5 0-1.1 0-1.6 0 c-0.4 0-0.9 0-1.3 0c-0.7 0-1.5-0.1-2.2 0c-0.2 0-0.4 0.1-0.7 0.2c-0.1 0-0.3 0-0.6-0.1c-0.1 0-0.2-0.1-0.3-0.1 c-0.1 0-0.2-0.1-0.4-0.1c-0.2 0-0.4 0.1-0.6 0.1c-0.6 0-1.1-0.1-1.7-0.2c-0.4 0-0.9-0.1-1.3-0.1c-0.6 0.1-1.3 0-1.9 0 c-0.8 0.1-1.6 0-2.4 0.1c-1 0.1-2.2-0.1-3.3-0.2c-0.2 0-0.5 0.1-0.8 0.1c-0.5 0-1.1 0-1.6-0.1c-1 0-2.1 0-3.1-0.1 c-0.8 0-1.5-0.2-2.2-0.2c-0.5 0-0.9 0.1-1.4 0.1c-0.6 0-1.2 0-1.9 0c-0.9 0-1.9 0-2.8 0c-1.4 0.1-2.7 0-4.1 0.1 c-0.2 0-0.3 0.1-0.4 0.1c-0.5 0-1-0.1-1.4-0.1c-0.5 0-1 0-1.6 0c-0.4 0-0.8 0.1-1.2 0.1c-0.4 0-0.7 0-1.1 0 c-0.8 0-1.6-0.1-2.3 0.2c-0.1 0-0.3 0-0.5 0c-0.1 0-0.2-0.1-0.2-0.1c-0.6 0.2-1.1 0-1.6-0.1c-0.9-0.1-1.8 0.3-2.7 0 c-0.2-0.1-0.5 0.1-0.8 0.1c-0.3 0-0.6 0.2-0.8-0.1c0 0-0.3 0-0.4 0c-0.6 0-1.1 0-1.7 0c-0.8 0-1.6 0.1-2.5 0.1c-1 0-2 0.1-3 0.1 c-0.8 0-1.6 0.1-2.4 0.1c-0.7 0-1.4 0.2-2 0.1c-0.4-0.1-0.7 0.1-1.1 0c-0.3-0.1-0.7 0.1-1.1 0.1c-0.4 0-0.9 0-1.3-0.1 c-0.2 0-0.3 0.1-0.5 0.1c-0.4 0-0.8 0.2-1.1 0.1c-0.6-0.1-1.2 0-1.8 0.1c-0.9 0-1.9 0-2.8 0c-0.7 0-1.3 0.1-2 0.1 c-0.7 0-1.4 0-2.2 0c-0.1 0-0.3 0-0.4 0c-0.4 0.1-0.8 0.1-1.1 0.1c-0.5 0.1-1 0-1.5 0c-0.7 0-1.4 0-2 0.1c-0.5 0-1 0.1-1.5 0.1 c-0.2 0-0.3 0-0.5 0c-0.8-0.1-1.6-0.2-2.4 0.1c-0.1 0-0.3-0.1-0.5-0.1c-0.5 0-1 0-1.5 0.1c-0.1 0-0.2 0.1-0.4 0.2 c0-0.1 0.1-0.1 0.1-0.2c-0.7 0-1.3-0.1-1.9 0.2c-0.1 0.1-0.4 0.1-0.5 0.1c-0.7-0.3-1.5 0-2.2 0c-0.5 0-1 0-1.4 0 c-0.3 0-0.5 0.1-0.8 0.1c-0.5 0-1.1 0-1.6 0c-1.1 0-2.1-0.1-3.2-0.1c-0.6 0-1.2 0.1-1.7 0c-1-0.2-2-0.1-3-0.2 c-0.2 0-0.4 0.1-0.7 0.1c-0.3-0.2-0.8-0.3-1.3 0c-0.1 0-0.3 0.1-0.3 0.1c-0.8-0.4-1.7 0-2.5-0.1c-0.6-0.1-1.3 0.1-2-0.1 c-0.1 0-0.4 0-0.6 0c-0.3 0-0.7 0.2-0.8 0.1c-0.5-0.3-1 0.1-1.5 0c-0.5-0.1-1.1 0-1.6 0c-0.7 0-1.3 0-2 0c-0.6 0-1.1-0.1-1.7 0 c-0.9 0.2-1.8-0.2-2.7 0c0 0 0 0.1 0 0.1c-0.7 0-1.3-0.1-2-0.1c-0.2 0-0.5 0-0.7 0C37.9 26 37 26 36.2 26c-0.7 0-1.3 0-2 0 c-0.2 0-0.4-0.1-0.6-0.1c-1.1 0-2.2-0.1-3.3-0.1c-1.2 0.1-2.4 0-3.6 0c-1.4 0-2.7-0.1-4.1-0.1c-1.5 0-3 0-4.5 0.1c0 0-0.1 0-0.1 0 c-0.8 0.1-1.6 0.2-2.4 0.2c-1 0-1.9 0-2.9-0.1c-1.1 0-2.2 0-3.3 0c-0.7 0-1.3 0.1-2 0c-0.1 0-0.5 0.1-0.8 0.1 c-1.3 0-2.5 0.1-3.8 0.1c-0.4 0-0.9 0-1.3 0c0-0.2 0-0.5 0-0.7C1.5 25.2 1.2 25 1.1 24.9z"/>
	</g>
</g>
<g>
	<path class="invite-svg-text" d="M22.2 15.2c-0.1 0-0.2 0-0.3 0c-0.1 0-0.2-0.1-0.3-0.1h0C21.5 15 21.3 15 21.2 15c0 0-0.1 0-0.1 0 c0 0-0.1 0-0.1 0c-0.2 0-0.5 0.1-0.8 0.2s-0.6 0.2-1 0.4c-0.3 0.2-0.7 0.3-1 0.5c-0.4 0.2-0.7 0.4-1 0.6c-0.5 0.3-0.8 0.6-0.9 0.9 C16 17.7 16 17.9 15.9 18c0 0.2-0.1 0.4-0.1 0.6v0c0 0.3-0.2 0.6-0.4 0.8s-0.4 0.2-0.7 0.2c-0.3 0-0.5-0.1-0.7-0.3 c-0.2-0.2-0.3-0.5-0.3-0.8c0-0.2 0-0.3 0-0.5c0-0.2 0-0.4 0-0.5v-1.1c0-0.4 0-0.7 0-1s0-0.6 0.1-0.9c-0.1-0.1-0.2-0.2-0.2-0.4 c0-0.1 0-0.2 0.1-0.3c0.1-0.2 0.3-0.5 0.4-0.8v0c0.1-0.2 0.2-0.4 0.4-0.5c0.2-0.1 0.3-0.1 0.5-0.1c0 0 0.1 0 0.2 0 c0.1 0 0.2 0 0.3 0c0.2 0.1 0.3 0.2 0.5 0.3c0.1 0.2 0.2 0.3 0.2 0.6c0 0 0 0.1 0 0.1c0 0 0 0.1 0 0.1c0 0.2-0.1 0.4-0.1 0.7 c0 0.3-0.1 0.5-0.1 0.8c0 0 0.1 0 0.1 0c0 0 0 0 0.1-0.1c0 0 0.1-0.1 0.1-0.1c0.3-0.2 0.7-0.5 1.2-0.7c0.4-0.2 0.9-0.4 1.4-0.6 c0.5-0.2 0.9-0.3 1.4-0.5c0.5-0.1 0.9-0.2 1.2-0.2h0.1c0.3 0 0.6 0 0.9 0.1s0.4 0.2 0.6 0.3c0.3 0.2 0.4 0.5 0.4 0.8 c0 0.3-0.1 0.5-0.2 0.7h0C22.8 15.1 22.5 15.2 22.2 15.2z"/>
	<path class="invite-svg-text" d="M34.5 17.8c0 0.2-0.1 0.4-0.2 0.5c-0.1 0.2-0.3 0.3-0.5 0.4h0c-0.1 0-0.3 0.1-0.4 0.1c-0.1 0-0.3 0.1-0.5 0.2 c-0.3 0.1-0.7 0.3-1.1 0.4c-0.4 0.2-0.9 0.3-1.3 0.4c-0.5 0.1-1 0.2-1.5 0.3s-1 0.1-1.5 0.1c-0.4 0-0.8 0-1.2-0.1 c-0.7-0.1-1.3-0.4-1.7-0.8c-0.6-0.6-0.9-1.3-0.9-2.1c0-0.2 0-0.3 0-0.5c0-0.1 0-0.3 0.1-0.4c0.2-0.9 0.4-1.7 0.8-2.4 c0.4-0.7 0.7-1.3 1.1-1.8c0.8-0.9 1.4-1.5 2-1.8h0c0.2-0.1 0.5-0.2 0.8-0.3c0.3-0.1 0.6-0.1 0.9-0.1c0.4 0 0.8 0.1 1.1 0.3 c0.3 0.2 0.6 0.5 0.7 0.8c0.1 0.3 0.2 0.7 0.2 1.1c0 0.4 0 0.8-0.1 1.1c-0.1 0.5-0.4 1-0.8 1.4s-0.8 0.8-1.3 1.2 c-0.5 0.4-1 0.6-1.6 0.9s-1.1 0.4-1.7 0.4c0 0.2 0.1 0.4 0.2 0.6s0.3 0.2 0.6 0.3c0.2 0.1 0.5 0.1 0.8 0.1c0.7 0 1.5-0.1 2.3-0.4 c0.8-0.3 1.5-0.5 2.2-0.7c0.2-0.1 0.4-0.2 0.6-0.2c0.2-0.1 0.4-0.1 0.5-0.2c0 0 0.1 0 0.1 0c0 0 0.1 0 0.2 0c0.2 0 0.4 0.1 0.5 0.2 c0.2 0.1 0.3 0.3 0.4 0.4v0C34.5 17.4 34.5 17.6 34.5 17.8z M29.4 12.5c0 0 0-0.1 0-0.2c0-0.1 0-0.1 0-0.1c0 0-0.1 0-0.2 0 c-0.1 0-0.2 0-0.3 0.1c-0.1 0-0.2 0.1-0.3 0.1h0c-0.2 0.1-0.4 0.3-0.6 0.5c-0.3 0.3-0.5 0.6-0.8 0.9c-0.3 0.4-0.5 0.8-0.6 1.2 c0.3-0.1 0.6-0.2 0.9-0.4c0.3-0.1 0.6-0.3 0.8-0.5c0.3-0.2 0.5-0.4 0.7-0.6c0.2-0.2 0.3-0.4 0.4-0.7v0 C29.3 12.7 29.4 12.6 29.4 12.5z"/>
	<path class="invite-svg-text" d="M45 18.5c-0.2 0.7-0.4 1.4-0.5 2.1c-0.2 0.7-0.3 1.4-0.4 2c-0.1 0.6-0.1 1.2-0.1 1.6c0 0.1 0 0.2 0 0.2 c0 0.1 0 0.2 0 0.3c0.1 0.1 0.3 0.2 0.4 0.4c0.1 0.2 0.2 0.4 0.2 0.6v0c0 0.3-0.1 0.6-0.3 0.9c-0.2 0.3-0.5 0.4-0.8 0.4h-0.1 c-0.6 0-0.9-0.2-1.2-0.7c-0.2-0.4-0.4-0.8-0.4-1.3c0-0.1 0-0.2 0-0.3c0-0.1 0-0.2 0-0.4c0-0.5 0-1 0.1-1.6c0.1-0.6 0.2-1.2 0.3-1.8 c0.1-0.6 0.2-1.1 0.3-1.7c0.1-0.5 0.3-1 0.4-1.4c0 0 0 0 0 0s0 0 0 0c0 0 0 0 0 0c-0.1 0.1-0.3 0.2-0.6 0.3s-0.6 0.4-0.9 0.6 c-0.2 0.1-0.5 0.3-0.7 0.5c-0.2 0.2-0.5 0.3-0.7 0.5c-0.3 0.2-0.6 0.3-0.9 0.4c-0.3 0.1-0.6 0.1-0.8 0.1c-0.5 0-1-0.2-1.4-0.5 c-0.5-0.4-0.7-1.1-0.7-2v-0.2c0-0.7 0.2-1.4 0.4-2.1c0.2-0.7 0.5-1.3 0.8-1.8c0.5-0.8 1.1-1.5 1.7-2.1s1.3-1 2-1.4 c0.7-0.4 1.3-0.6 2-0.6c0.7 0 1.3 0.3 1.7 0.9c0.1 0.3 0.2 0.5 0.2 0.7s0 0.3-0.1 0.5s-0.2 0.3-0.3 0.4c-0.3 0.2-0.5 0.3-0.7 0.3 c-0.2 0-0.5-0.1-0.7-0.3c-0.1-0.1-0.2-0.1-0.3-0.1c-0.1 0-0.2 0-0.3 0c-0.1 0-0.2 0.1-0.4 0.1c-0.3 0.1-0.5 0.3-0.8 0.5 c-0.3 0.2-0.6 0.4-0.8 0.7c-0.3 0.2-0.5 0.5-0.7 0.8c-0.2 0.3-0.4 0.5-0.6 0.8c-0.3 0.4-0.4 0.8-0.6 1.2c-0.1 0.4-0.2 0.8-0.2 1.2 c0 0 0 0.1 0 0.2c0 0.1 0 0.2 0.1 0.3c0 0.1 0.1 0.1 0.1 0.2c0 0 0.1 0.1 0.2 0.1c0.1 0 0.3-0.1 0.5-0.2c0.1 0 0.2-0.1 0.2-0.2 c0.1-0.1 0.2-0.1 0.2-0.2c0.4-0.2 0.7-0.5 1.1-0.7c0.4-0.3 0.8-0.5 1.2-0.7c0.4-0.2 0.7-0.4 1.1-0.6s0.6-0.3 0.9-0.4 c0.1 0 0.2 0 0.2 0s0.1 0 0.2 0c0.3 0 0.6 0.1 0.9 0.3c0.1 0.1 0.3 0.3 0.4 0.4c0.1 0.2 0.2 0.3 0.2 0.6c0 0.2 0 0.3-0.1 0.5 C45.4 17.2 45.2 17.8 45 18.5z"/>
	<path class="invite-svg-text" d="M62.1 17.9c0 0.2 0 0.3-0.1 0.5c-0.1 0.2-0.2 0.3-0.4 0.4c-0.4 0.2-0.8 0.4-1.4 0.6c-0.5 0.2-1.1 0.3-1.7 0.4 c-0.1 0-0.2 0-0.3 0c-0.1 0-0.2 0-0.3 0c-0.5 0-1-0.1-1.4-0.3c-0.5-0.2-0.8-0.5-1.1-0.8c-0.1-0.2-0.2-0.3-0.3-0.5s-0.1-0.4-0.2-0.6 c-0.3 0.4-0.6 0.7-1 1c-0.4 0.3-0.7 0.6-1.1 0.8c-1 0.6-1.9 0.9-2.8 0.9c-0.3 0-0.6 0-0.9-0.1h0c-1-0.2-1.7-0.8-2-1.8 c-0.1-0.3-0.2-0.6-0.2-0.9S47 17 47 16.7c0-0.7 0.1-1.4 0.2-2.1c0.1-0.7 0.3-1.2 0.4-1.6c0.1-0.3 0.3-0.5 0.5-0.6 c0.2-0.1 0.5-0.2 0.7-0.2c0.3 0 0.5 0.1 0.7 0.2c0.2 0.2 0.3 0.4 0.3 0.7c0 0.1 0 0.1 0 0.2c0 0 0 0.1 0 0.2l0 0 c-0.2 0.5-0.3 1-0.4 1.5c-0.1 0.6-0.1 1.1-0.1 1.6c0 0.4 0 0.8 0.1 1.1c0.1 0.3 0.3 0.5 0.6 0.6c0.1 0 0.3 0 0.4 0 c0.2 0 0.4 0 0.7-0.1s0.5-0.2 0.7-0.4c0.9-0.6 1.6-1.3 2.2-2.1c0.6-0.8 1-1.5 1.2-2.2c0.1-0.2 0.3-0.4 0.4-0.5 C55.8 13 56 13 56.2 13c0 0 0.1 0 0.1 0c0 0 0.1 0 0.2 0l0 0c0.2 0 0.4 0.2 0.6 0.3s0.2 0.4 0.2 0.6c0 0 0 0.1 0 0.1 c0 0 0 0.1 0 0.2v0c-0.2 0.7-0.3 1.4-0.3 1.9c0 0.2 0 0.5 0 0.6c0 0.2 0.1 0.4 0.1 0.5v0c0.1 0.2 0.2 0.4 0.3 0.5 c0.1 0.1 0.3 0.1 0.5 0.1c0 0 0.1 0 0.1 0c0 0 0.1 0 0.1 0c0.4 0 0.8-0.1 1.2-0.3s0.8-0.3 1.1-0.5c0.2-0.1 0.4-0.2 0.6-0.2 c0.4 0 0.7 0.2 0.9 0.6C62.1 17.6 62.1 17.7 62.1 17.9z"/>
	<path class="invite-svg-text" d="M71.5 17.8c0 0.2-0.1 0.4-0.2 0.5c-0.1 0.2-0.3 0.3-0.5 0.4h0c-0.1 0-0.3 0.1-0.4 0.1c-0.1 0-0.3 0.1-0.5 0.2 c-0.3 0.1-0.7 0.3-1.1 0.4c-0.4 0.2-0.9 0.3-1.3 0.4c-0.5 0.1-1 0.2-1.5 0.3s-1 0.1-1.5 0.1c-0.4 0-0.8 0-1.2-0.1 c-0.7-0.1-1.3-0.4-1.7-0.8c-0.6-0.6-0.9-1.3-0.9-2.1c0-0.2 0-0.3 0-0.5c0-0.1 0-0.3 0.1-0.4c0.2-0.9 0.4-1.7 0.8-2.4 c0.4-0.7 0.7-1.3 1.1-1.8c0.8-0.9 1.4-1.5 2-1.8h0c0.2-0.1 0.5-0.2 0.8-0.3c0.3-0.1 0.6-0.1 0.9-0.1c0.4 0 0.8 0.1 1.1 0.3 c0.3 0.2 0.6 0.5 0.7 0.8c0.1 0.3 0.2 0.7 0.2 1.1c0 0.4 0 0.8-0.1 1.1c-0.1 0.5-0.4 1-0.8 1.4s-0.8 0.8-1.3 1.2 c-0.5 0.4-1 0.6-1.6 0.9s-1.1 0.4-1.7 0.4c0 0.2 0.1 0.4 0.2 0.6s0.3 0.2 0.6 0.3c0.2 0.1 0.5 0.1 0.8 0.1c0.7 0 1.5-0.1 2.3-0.4 c0.8-0.3 1.5-0.5 2.2-0.7c0.2-0.1 0.4-0.2 0.6-0.2c0.2-0.1 0.4-0.1 0.5-0.2c0 0 0.1 0 0.1 0c0 0 0.1 0 0.2 0c0.2 0 0.4 0.1 0.5 0.2 c0.2 0.1 0.3 0.3 0.4 0.4v0C71.4 17.4 71.5 17.6 71.5 17.8z M66.3 12.5c0 0 0-0.1 0-0.2c0-0.1 0-0.1 0-0.1c0 0-0.1 0-0.2 0 c-0.1 0-0.2 0-0.3 0.1c-0.1 0-0.2 0.1-0.3 0.1h0c-0.2 0.1-0.4 0.3-0.6 0.5c-0.3 0.3-0.5 0.6-0.8 0.9c-0.3 0.4-0.5 0.8-0.6 1.2 c0.3-0.1 0.6-0.2 0.9-0.4c0.3-0.1 0.6-0.3 0.8-0.5c0.3-0.2 0.5-0.4 0.7-0.6c0.2-0.2 0.3-0.4 0.4-0.7v0 C66.3 12.7 66.3 12.6 66.3 12.5z"/>
	<path class="invite-svg-text" d="M78 11.8c-0.3 0-0.6-0.1-1-0.3c-0.2 0-0.5 0-0.8 0.1s-0.7 0.2-1 0.3c-0.3 0.1-0.7 0.3-1 0.5s-0.6 0.3-0.9 0.5 c-0.3 0.2-0.5 0.4-0.5 0.6c0 0.1 0.2 0.2 0.4 0.4c0.1 0.1 0.2 0.1 0.4 0.2c0.1 0.1 0.2 0.1 0.4 0.2c0.3 0.2 0.6 0.3 1 0.5 c0.3 0.2 0.7 0.4 1.1 0.7c0.4 0.3 0.7 0.7 0.8 1.1c0.2 0.4 0.2 0.9 0.2 1.3c0 0.5-0.1 0.9-0.2 1.4s-0.3 0.8-0.6 1.2 c-0.4 0.6-0.9 1.2-1.4 1.7c-0.6 0.5-1.2 1-2 1.5c-0.3 0.2-0.7 0.3-1.2 0.3c-0.4 0-0.8-0.1-1.2-0.3c-0.3-0.1-0.5-0.3-0.6-0.5 c-0.1-0.2-0.2-0.4-0.2-0.6c0-0.1 0-0.2 0-0.3c0-0.1 0.1-0.2 0.1-0.3c0.1-0.2 0.2-0.3 0.3-0.4c0.1-0.1 0.3-0.2 0.6-0.2 c0.1 0 0.2 0 0.4 0c0.1 0 0.2 0.1 0.4 0.2c0.1 0.1 0.1 0.1 0.2 0.1c0.1 0 0.2 0 0.3-0.1c0.5-0.3 1-0.7 1.4-1.1 c0.5-0.4 0.8-0.9 1.1-1.3c0.2-0.2 0.3-0.5 0.3-0.7c0.1-0.2 0.1-0.4 0.1-0.7v-0.1c0-0.3-0.1-0.5-0.3-0.7c-0.3-0.2-0.6-0.4-1-0.7 c-0.4-0.2-0.9-0.4-1.4-0.7c-0.1 0-0.1-0.1-0.2-0.1c0 0-0.1 0-0.2-0.1c-0.6-0.2-1-0.5-1.3-0.9c-0.3-0.4-0.4-0.8-0.4-1.2 c0-0.4 0.1-0.8 0.4-1.2c0.3-0.4 0.7-0.8 1.3-1.2h0c0.3-0.2 0.6-0.4 1-0.6s0.8-0.4 1.3-0.6s0.9-0.3 1.4-0.5c0.5-0.1 1-0.2 1.4-0.2 h0.1c0.3 0 0.6 0.1 0.9 0.2s0.5 0.3 0.6 0.5v0c0.2 0.2 0.3 0.5 0.3 0.8c0 0.2-0.1 0.5-0.2 0.7C78.6 11.7 78.3 11.8 78 11.8z"/>
	<path class="invite-svg-text" d="M86.6 13.8c-0.2 0.2-0.4 0.3-0.8 0.3c-0.1 0-0.3 0-0.5 0c-0.2 0-0.4 0-0.7 0c-0.3 0-0.6 0-0.9 0 c-0.3 0-0.6 0-1 0c0 0.4 0 0.8 0 1.3c0 0.4 0.1 0.9 0.1 1.3s0.1 0.8 0.2 1.2s0.1 0.7 0.2 1l0 0c0 0.1 0 0.1 0 0.2c0 0 0 0.1 0 0.1 c0 0.3-0.1 0.5-0.2 0.7c-0.2 0.2-0.3 0.3-0.6 0.3l0 0c-0.1 0-0.1 0-0.2 0c0 0-0.1 0-0.1 0c-0.2 0-0.5-0.1-0.7-0.2 c-0.2-0.1-0.4-0.4-0.4-0.7c-0.2-0.6-0.3-1.4-0.4-2.3c-0.1-0.9-0.1-1.8-0.1-2.8h-1.4c-0.3 0-0.6-0.1-0.8-0.3s-0.2-0.5-0.2-0.7 c0-0.3 0.1-0.5 0.2-0.7c0.2-0.2 0.4-0.4 0.8-0.4h0.6c0.1 0 0.3 0 0.4 0c0.1 0 0.3 0 0.4 0c0-0.5 0-1 0.1-1.6c0-0.6 0.1-1.2 0.2-1.8 c0.1-0.6 0.2-1.3 0.3-1.9c0.1-0.6 0.2-1.2 0.3-1.8c-0.1-0.1-0.1-0.2-0.1-0.4c0-0.1 0-0.2 0-0.3l0 0c0-0.2 0.1-0.4 0.3-0.7 c0 0 0.1-0.1 0.1-0.2c0-0.1 0-0.1 0-0.1l0-0.2c0 0 0.1-0.1 0.1-0.2s0-0.1 0-0.1l0 0c0.2-0.4 0.5-0.6 0.9-0.6c0.2 0 0.4 0.1 0.6 0.2 l0 0c0.2 0.1 0.3 0.3 0.5 0.5C84 3 84 3.2 84 3.5v0.1C84 3.8 84 3.9 84 4c0 0.1-0.1 0.2-0.2 0.4l0 0c-0.1 0.5-0.2 1.1-0.4 1.7 c-0.1 0.6-0.2 1.3-0.3 2s-0.2 1.3-0.2 2c-0.1 0.7-0.1 1.3-0.1 1.8c0.3 0 0.6 0 1.1 0s0.9 0.1 1.3 0.1c0.6 0 1 0.1 1.3 0.2 c0.3 0.1 0.4 0.4 0.4 0.9C86.8 13.4 86.7 13.6 86.6 13.8z"/>
	<path class="invite-svg-text" d="M111.3 17.8c0 0.2 0 0.4-0.1 0.5c-0.1 0.2-0.2 0.3-0.4 0.4c-0.5 0.3-1.1 0.5-1.8 0.8s-1.3 0.4-1.9 0.5 c-0.1 0-0.2 0-0.3 0s-0.2 0-0.3 0c-0.5 0-0.9-0.1-1.2-0.2c-0.3-0.2-0.6-0.4-0.8-0.8v0c-0.1-0.2-0.2-0.4-0.3-0.7 c-0.1-0.3-0.1-0.6-0.1-0.8c0 0-0.1 0-0.1 0.1c-0.2 0.1-0.5 0.3-0.8 0.6c-0.3 0.3-0.6 0.5-1 0.8c-0.2 0.2-0.4 0.3-0.6 0.5 c-0.2 0.2-0.4 0.3-0.6 0.5c-0.7 0.5-1.3 0.7-1.9 0.7c-0.5 0-0.9-0.2-1.3-0.5c-0.4-0.4-0.7-1-0.7-1.7c0-0.7 0.2-1.4 0.5-2 c0.2-0.5 0.5-0.9 0.9-1.4s0.7-0.9 1.1-1.2c0.4-0.4 0.8-0.7 1.2-1.1c0.4-0.3 0.7-0.6 1.1-0.8c0.4-0.2 0.8-0.5 1.4-0.8 c0.5-0.3 1.1-0.4 1.7-0.4c0.3 0 0.6 0.1 1 0.2c0.3 0.1 0.7 0.3 1 0.6c0.2 0.1 0.3 0.3 0.3 0.4c0.1 0.1 0.1 0.3 0.1 0.4 c0 0.2 0 0.4-0.1 0.5c-0.1 0.2-0.3 0.3-0.4 0.4c-0.2 0.1-0.4 0.2-0.6 0.2c-0.2 0-0.5-0.1-0.7-0.2c-0.1-0.1-0.2-0.2-0.4-0.2 c-0.1 0-0.3-0.1-0.4-0.1c-0.4 0-1 0.2-1.6 0.6c-0.3 0.2-0.6 0.4-0.9 0.7c-0.3 0.3-0.7 0.6-1 0.9s-0.6 0.7-0.9 1.1 c-0.3 0.4-0.5 0.7-0.7 1.1c0 0.1-0.1 0.2-0.1 0.3c0 0.1 0 0.2 0 0.4c0 0.1 0 0.2 0 0.2c0 0 0 0 0 0c0.1 0 0.2-0.1 0.4-0.2L100 18 c0.3-0.2 0.5-0.4 0.9-0.7c0.3-0.3 0.7-0.5 1-0.8c0.3-0.3 0.7-0.5 1-0.8s0.6-0.4 0.9-0.6v0c0.4-0.3 0.8-0.4 1.2-0.4 c0.3 0 0.6 0.1 0.8 0.3s0.3 0.5 0.3 0.9v0.4c0 0.2 0 0.4 0 0.6s0 0.3 0.1 0.4c0.1 0.2 0.2 0.4 0.3 0.5c0.1 0.1 0.3 0.1 0.4 0.1h0.1 c0.2 0 0.4-0.1 0.7-0.1c0.3-0.1 0.5-0.1 0.8-0.2s0.5-0.2 0.8-0.3s0.5-0.2 0.6-0.3c0.2-0.1 0.4-0.1 0.5-0.1c0.3 0 0.6 0.1 0.8 0.4v0 C111.2 17.4 111.3 17.6 111.3 17.8z"/>
	<path class="invite-svg-text" d="M126.7 18.1c-0.1 0.2-0.3 0.3-0.5 0.4c-0.1 0-0.2 0.1-0.3 0.1c-0.1 0-0.2 0-0.3 0h-0.2 c-0.2 0.1-0.4 0.2-0.6 0.2h0c-0.3 0.1-0.6 0.2-0.9 0.3c-0.3 0.1-0.6 0.2-0.9 0.4c-0.6 0.3-1.2 0.4-1.7 0.4c-0.6 0-1.1-0.1-1.5-0.4 s-0.8-0.7-1.1-1.3c-0.2-0.5-0.4-0.9-0.5-1.4c-0.1-0.5-0.2-0.8-0.2-1.2v0c0-0.1 0-0.1 0-0.2c0 0 0-0.1 0-0.1c0-0.1-0.1-0.2-0.2-0.2 c0 0-0.1 0-0.1 0c-0.1 0-0.2 0-0.4 0.1c-0.1 0.1-0.2 0.1-0.4 0.2h0c0 0-0.1 0.1-0.3 0.3c-0.2 0.2-0.4 0.4-0.7 0.5v0 c-0.2 0.2-0.4 0.4-0.7 0.6c-0.2 0.2-0.4 0.4-0.7 0.5c-0.2 0.1-0.4 0.3-0.6 0.5c-0.2 0.2-0.4 0.4-0.6 0.6c-0.2 0.2-0.4 0.4-0.5 0.6 c-0.2 0.2-0.3 0.4-0.4 0.5c-0.1 0.3-0.3 0.4-0.5 0.5c-0.2 0.1-0.4 0.1-0.6 0.1c-0.1 0-0.2 0-0.3 0c-0.1 0-0.2 0-0.3-0.1 c-0.3-0.1-0.4-0.3-0.5-0.5s-0.1-0.4-0.1-0.6v-2.5c0-0.2 0-0.4 0-0.6c0-0.2 0-0.4 0-0.6v-0.6c-0.2-0.1-0.4-0.3-0.4-0.6 c0-0.2 0.1-0.3 0.2-0.6c0.1-0.2 0.2-0.4 0.3-0.5c0.2-0.2 0.5-0.4 0.9-0.4h0.1c0.2 0 0.4 0.1 0.6 0.2c0.2 0.1 0.3 0.3 0.4 0.6 c0 0 0 0.1 0 0.2c0 0.1 0 0.1 0 0.2c0 0.2 0 0.4 0 0.7s0 0.5 0 0.8v1.1c0.2-0.2 0.3-0.3 0.5-0.5c0.2-0.1 0.3-0.3 0.5-0.4 c0 0 0.1-0.1 0.1-0.1c0 0 0.1-0.1 0.1-0.1c0.3-0.3 0.6-0.6 1-0.9c0.3-0.3 0.7-0.5 1-0.8c0.3-0.3 0.7-0.5 1.2-0.6s0.9-0.2 1.2-0.2 h0.1c0.5 0 0.9 0.1 1.2 0.4c0.3 0.3 0.6 0.7 0.7 1.3c0.1 0.6 0.2 1.1 0.3 1.5c0.1 0.4 0.2 0.8 0.3 1.1c0.1 0.3 0.4 0.5 0.8 0.5 c0.2 0 0.5 0 0.7-0.1c0.1 0 0.2-0.1 0.4-0.2c0.1-0.1 0.2-0.1 0.4-0.1h0c0.4-0.2 0.9-0.3 1.3-0.5c0.5-0.2 0.9-0.3 1.2-0.4 c0.1 0 0.2 0 0.3 0c0.3 0 0.6 0.1 0.8 0.3c0.2 0.2 0.3 0.5 0.3 0.8v0C126.9 17.7 126.8 17.9 126.7 18.1z"/>
	<path class="invite-svg-text" d="M144.2 18.4c-0.2 0.2-0.4 0.3-0.8 0.4c-0.2 0-0.5 0.1-0.9 0.2c-0.4 0.1-0.8 0.3-1.2 0.4 c-0.4 0.1-0.8 0.3-1.2 0.4c-0.4 0.1-0.7 0.2-1.1 0.3c-0.5 0.1-0.9 0.2-1.3 0.2c-0.6 0-1.1-0.2-1.5-0.5c-0.4-0.3-0.6-0.8-0.9-1.6 c0-0.2-0.1-0.4-0.1-0.6c0-0.2 0-0.5 0-0.7c0-0.2 0-0.3 0-0.5s0-0.3 0-0.4c0-0.4 0.1-0.7 0.2-1.1c0.1-0.3 0.2-0.7 0.2-1 c-0.1-0.1-0.1-0.2-0.1-0.3c0-0.1 0-0.1 0-0.2c0 0 0-0.1 0-0.1c0.1-0.2 0.2-0.4 0.3-0.6c0.1-0.2 0.3-0.4 0.4-0.5 c0.2-0.2 0.5-0.3 0.8-0.3c0.2 0 0.3 0 0.5 0.1c0.2 0.1 0.4 0.2 0.5 0.3c0.1 0.2 0.2 0.3 0.2 0.5c0 0.1 0 0.3-0.1 0.4 c-0.2 0.3-0.3 0.7-0.5 1.3c-0.2 0.5-0.3 1-0.3 1.6v0.4c0 0.4 0 0.8 0.1 1c0.1 0.3 0.3 0.5 0.6 0.5c0.1 0 0.1 0 0.2 0 c0.1 0 0.1 0 0.2 0c0.2 0 0.5-0.1 0.8-0.2c0.3-0.1 0.6-0.2 0.9-0.4c0.5-0.2 1.1-0.4 1.6-0.6c0.5-0.2 1-0.3 1.4-0.3h0 c0.4 0 0.6 0.1 0.8 0.3c0.2 0.2 0.3 0.5 0.3 0.8v0C144.4 18 144.3 18.2 144.2 18.4z M140.6 8.5c0 0.2-0.1 0.5-0.2 0.7 c-0.1 0.2-0.3 0.4-0.5 0.6c-0.3 0.2-0.6 0.3-0.9 0.3c-0.2 0-0.4 0-0.6-0.1c-0.2-0.1-0.4-0.2-0.6-0.4c-0.3-0.3-0.5-0.7-0.5-1.1 c0-0.2 0.1-0.4 0.2-0.7c0.1-0.2 0.3-0.4 0.5-0.6c0.3-0.2 0.6-0.3 0.9-0.3c0.3 0 0.6 0.1 0.9 0.3h0C140.4 7.6 140.6 8 140.6 8.5z"/>
	<path class="invite-svg-text" d="M159.1 18.1c-0.1 0.2-0.3 0.3-0.5 0.4c-0.1 0-0.2 0.1-0.3 0.1c-0.1 0-0.2 0-0.3 0h-0.2 c-0.2 0.1-0.4 0.2-0.6 0.2h0c-0.3 0.1-0.6 0.2-0.9 0.3c-0.3 0.1-0.6 0.2-0.9 0.4c-0.6 0.3-1.2 0.4-1.7 0.4c-0.6 0-1.1-0.1-1.5-0.4 s-0.8-0.7-1.1-1.3c-0.2-0.5-0.4-0.9-0.5-1.4c-0.1-0.5-0.2-0.8-0.2-1.2v0c0-0.1 0-0.1 0-0.2c0 0 0-0.1 0-0.1c0-0.1-0.1-0.2-0.2-0.2 c0 0-0.1 0-0.1 0c-0.1 0-0.2 0-0.4 0.1c-0.1 0.1-0.2 0.1-0.4 0.2h0c0 0-0.1 0.1-0.3 0.3c-0.2 0.2-0.4 0.4-0.7 0.5v0 c-0.2 0.2-0.4 0.4-0.7 0.6c-0.2 0.2-0.4 0.4-0.7 0.5c-0.2 0.1-0.4 0.3-0.6 0.5c-0.2 0.2-0.4 0.4-0.6 0.6c-0.2 0.2-0.4 0.4-0.5 0.6 c-0.2 0.2-0.3 0.4-0.4 0.5c-0.1 0.3-0.3 0.4-0.5 0.5c-0.2 0.1-0.4 0.1-0.6 0.1c-0.1 0-0.2 0-0.3 0c-0.1 0-0.2 0-0.3-0.1 c-0.3-0.1-0.4-0.3-0.5-0.5s-0.1-0.4-0.1-0.6v-2.5c0-0.2 0-0.4 0-0.6c0-0.2 0-0.4 0-0.6v-0.6c-0.2-0.1-0.4-0.3-0.4-0.6 c0-0.2 0.1-0.3 0.2-0.6c0.1-0.2 0.2-0.4 0.3-0.5c0.2-0.2 0.5-0.4 0.9-0.4h0.1c0.2 0 0.4 0.1 0.6 0.2c0.2 0.1 0.3 0.3 0.4 0.6 c0 0 0 0.1 0 0.2c0 0.1 0 0.1 0 0.2c0 0.2 0 0.4 0 0.7s0 0.5 0 0.8v1.1c0.2-0.2 0.3-0.3 0.5-0.5c0.2-0.1 0.3-0.3 0.5-0.4 c0 0 0.1-0.1 0.1-0.1c0 0 0.1-0.1 0.1-0.1c0.3-0.3 0.6-0.6 1-0.9c0.3-0.3 0.7-0.5 1-0.8c0.3-0.3 0.7-0.5 1.2-0.6s0.9-0.2 1.2-0.2 h0.1c0.5 0 0.9 0.1 1.2 0.4c0.3 0.3 0.6 0.7 0.7 1.3c0.1 0.6 0.2 1.1 0.3 1.5c0.1 0.4 0.2 0.8 0.3 1.1c0.1 0.3 0.4 0.5 0.8 0.5 c0.2 0 0.5 0 0.7-0.1c0.1 0 0.2-0.1 0.4-0.2c0.1-0.1 0.2-0.1 0.4-0.1h0c0.4-0.2 0.9-0.3 1.3-0.5c0.5-0.2 0.9-0.3 1.2-0.4 c0.1 0 0.2 0 0.3 0c0.3 0 0.6 0.1 0.8 0.3c0.2 0.2 0.3 0.5 0.3 0.8v0C159.3 17.7 159.2 17.9 159.1 18.1z"/>
	<path class="invite-svg-text" d="M166.8 14.9c-0.2 0.2-0.4 0.4-0.8 0.4c-0.1 0-0.2 0-0.3 0c-0.1 0-0.2 0-0.3 0c-0.1 0-0.2 0-0.2 0s-0.2 0-0.2 0 c-0.2 0.6-0.5 1.3-0.8 2s-0.6 1.4-1 1.9c-0.6 1.1-1.3 1.6-2 1.6c-0.7 0-1.4-0.5-2-1.5c-0.1-0.2-0.3-0.5-0.4-0.8 c-0.1-0.3-0.3-0.6-0.4-0.9c-0.2-0.6-0.3-1.2-0.4-1.8c-0.1-0.6-0.2-1.3-0.3-1.9c-0.1-0.1-0.1-0.2-0.2-0.3c0-0.1 0-0.3 0-0.4 c0-0.1 0-0.2 0-0.3c0 0 0-0.1 0-0.1c0 0 0 0 0 0c0 0 0 0 0 0c0-0.1 0-0.1 0-0.1c0 0 0-0.1 0-0.1c0.1-0.4 0.2-0.6 0.4-0.8 c0.2-0.2 0.5-0.3 0.7-0.3h0c0.2 0 0.5 0.1 0.6 0.3c0.2 0.2 0.3 0.4 0.4 0.8c0 0.2 0 0.5 0.1 0.9c0 0.3 0.1 0.7 0.1 1.1 c0.1 0.4 0.1 0.8 0.2 1.2c0.1 0.4 0.2 0.8 0.3 1.2h0c0 0.2 0.1 0.4 0.2 0.5s0.1 0.3 0.2 0.4v0c0.2 0.3 0.3 0.4 0.3 0.4 c0 0 0.1 0 0.2-0.1c0.1 0 0.1-0.1 0.2-0.3c0.3-0.5 0.6-1.1 0.9-1.7c0.3-0.6 0.5-1.2 0.7-1.8c-0.1-0.2-0.2-0.4-0.2-0.7 c0-0.5 0.3-0.9 0.9-1.1c0.1-0.1 0.3-0.1 0.5-0.1c0.2 0 0.4 0.1 0.6 0.2c0.2 0.1 0.3 0.3 0.4 0.5c0.1 0 0.2 0 0.3 0h0.5 c0 0 0.1 0 0.1 0c0 0 0.1 0 0.1 0c0.3 0 0.5 0.1 0.7 0.3c0.1 0.2 0.2 0.4 0.2 0.7C167.1 14.4 167 14.6 166.8 14.9z"/>
	<path class="invite-svg-text" d="M176.5 18.4c-0.2 0.2-0.4 0.3-0.8 0.4c-0.2 0-0.5 0.1-0.9 0.2c-0.4 0.1-0.8 0.3-1.2 0.4 c-0.4 0.1-0.8 0.3-1.2 0.4c-0.4 0.1-0.7 0.2-1.1 0.3c-0.5 0.1-0.9 0.2-1.3 0.2c-0.6 0-1.1-0.2-1.5-0.5c-0.4-0.3-0.6-0.8-0.9-1.6 c0-0.2-0.1-0.4-0.1-0.6c0-0.2 0-0.5 0-0.7c0-0.2 0-0.3 0-0.5s0-0.3 0-0.4c0-0.4 0.1-0.7 0.2-1.1c0.1-0.3 0.2-0.7 0.2-1 c-0.1-0.1-0.1-0.2-0.1-0.3c0-0.1 0-0.1 0-0.2c0 0 0-0.1 0-0.1c0.1-0.2 0.2-0.4 0.3-0.6c0.1-0.2 0.3-0.4 0.4-0.5 c0.2-0.2 0.5-0.3 0.8-0.3c0.2 0 0.3 0 0.5 0.1c0.2 0.1 0.4 0.2 0.5 0.3c0.1 0.2 0.2 0.3 0.2 0.5c0 0.1 0 0.3-0.1 0.4 c-0.2 0.3-0.3 0.7-0.5 1.3c-0.2 0.5-0.3 1-0.3 1.6v0.4c0 0.4 0 0.8 0.1 1c0.1 0.3 0.3 0.5 0.6 0.5c0.1 0 0.1 0 0.2 0 c0.1 0 0.1 0 0.2 0c0.2 0 0.5-0.1 0.8-0.2c0.3-0.1 0.6-0.2 0.9-0.4c0.5-0.2 1.1-0.4 1.6-0.6c0.5-0.2 1-0.3 1.4-0.3h0 c0.4 0 0.6 0.1 0.8 0.3c0.2 0.2 0.3 0.5 0.3 0.8v0C176.8 18 176.7 18.2 176.5 18.4z M172.9 8.5c0 0.2-0.1 0.5-0.2 0.7 c-0.1 0.2-0.3 0.4-0.5 0.6c-0.3 0.2-0.6 0.3-0.9 0.3c-0.2 0-0.4 0-0.6-0.1c-0.2-0.1-0.4-0.2-0.6-0.4c-0.3-0.3-0.5-0.7-0.5-1.1 c0-0.2 0.1-0.4 0.2-0.7c0.1-0.2 0.3-0.4 0.5-0.6c0.3-0.2 0.6-0.3 0.9-0.3c0.3 0 0.6 0.1 0.9 0.3h0C172.7 7.6 172.9 8 172.9 8.5z"/>
	<path class="invite-svg-text" d="M181.7 13.8c-0.2 0.2-0.4 0.3-0.8 0.3c-0.1 0-0.3 0-0.5 0c-0.2 0-0.4 0-0.7 0c-0.3 0-0.6 0-0.9 0 c-0.3 0-0.6 0-1 0c0 0.4 0 0.8 0 1.3c0 0.4 0.1 0.9 0.1 1.3s0.1 0.8 0.2 1.2s0.1 0.7 0.2 1l0 0c0 0.1 0 0.1 0 0.2c0 0 0 0.1 0 0.1 c0 0.3-0.1 0.5-0.2 0.7c-0.2 0.2-0.3 0.3-0.6 0.3l0 0c-0.1 0-0.1 0-0.2 0c0 0-0.1 0-0.1 0c-0.2 0-0.5-0.1-0.7-0.2 c-0.2-0.1-0.4-0.4-0.4-0.7c-0.2-0.6-0.3-1.4-0.4-2.3c-0.1-0.9-0.1-1.8-0.1-2.8h-1.4c-0.3 0-0.6-0.1-0.8-0.3s-0.2-0.5-0.2-0.7 c0-0.3 0.1-0.5 0.2-0.7c0.2-0.2 0.4-0.4 0.8-0.4h0.6c0.1 0 0.3 0 0.4 0c0.1 0 0.3 0 0.4 0c0-0.5 0-1 0.1-1.6c0-0.6 0.1-1.2 0.2-1.8 c0.1-0.6 0.2-1.3 0.3-1.9c0.1-0.6 0.2-1.2 0.3-1.8c-0.1-0.1-0.1-0.2-0.1-0.4c0-0.1 0-0.2 0-0.3l0 0c0-0.2 0.1-0.4 0.3-0.7 c0 0 0.1-0.1 0.1-0.2c0-0.1 0-0.1 0-0.1l0-0.2c0 0 0.1-0.1 0.1-0.2s0-0.1 0-0.1l0 0c0.2-0.4 0.5-0.6 0.9-0.6c0.2 0 0.4 0.1 0.6 0.2 l0 0c0.2 0.1 0.3 0.3 0.5 0.5c0.1 0.2 0.2 0.4 0.2 0.7v0.1c0 0.2 0 0.3-0.1 0.5c0 0.1-0.1 0.2-0.2 0.4l0 0 c-0.1 0.5-0.2 1.1-0.4 1.7c-0.1 0.6-0.2 1.3-0.3 2s-0.2 1.3-0.2 2c-0.1 0.7-0.1 1.3-0.1 1.8c0.3 0 0.6 0 1.1 0s0.9 0.1 1.3 0.1 c0.6 0 1 0.1 1.3 0.2c0.3 0.1 0.4 0.4 0.4 0.9C182 13.4 181.9 13.6 181.7 13.8z"/>
	<path class="invite-svg-text" d="M192.6 17.8c0 0.2-0.1 0.4-0.2 0.5c-0.1 0.2-0.3 0.3-0.5 0.4h0c-0.1 0-0.3 0.1-0.4 0.1c-0.1 0-0.3 0.1-0.5 0.2 c-0.3 0.1-0.7 0.3-1.1 0.4c-0.4 0.2-0.9 0.3-1.3 0.4c-0.5 0.1-1 0.2-1.5 0.3s-1 0.1-1.5 0.1c-0.4 0-0.8 0-1.2-0.1 c-0.7-0.1-1.3-0.4-1.7-0.8c-0.6-0.6-0.9-1.3-0.9-2.1c0-0.2 0-0.3 0-0.5c0-0.1 0-0.3 0.1-0.4c0.2-0.9 0.4-1.7 0.8-2.4 c0.4-0.7 0.7-1.3 1.1-1.8c0.8-0.9 1.4-1.5 2-1.8h0c0.2-0.1 0.5-0.2 0.8-0.3c0.3-0.1 0.6-0.1 0.9-0.1c0.4 0 0.8 0.1 1.1 0.3 c0.3 0.2 0.6 0.5 0.7 0.8c0.1 0.3 0.2 0.7 0.2 1.1c0 0.4 0 0.8-0.1 1.1c-0.1 0.5-0.4 1-0.8 1.4s-0.8 0.8-1.3 1.2 c-0.5 0.4-1 0.6-1.6 0.9s-1.1 0.4-1.7 0.4c0 0.2 0.1 0.4 0.2 0.6s0.3 0.2 0.6 0.3c0.2 0.1 0.5 0.1 0.8 0.1c0.7 0 1.5-0.1 2.3-0.4 c0.8-0.3 1.5-0.5 2.2-0.7c0.2-0.1 0.4-0.2 0.6-0.2c0.2-0.1 0.4-0.1 0.5-0.2c0 0 0.1 0 0.1 0c0 0 0.1 0 0.2 0c0.2 0 0.4 0.1 0.5 0.2 c0.2 0.1 0.3 0.3 0.4 0.4v0C192.6 17.4 192.6 17.6 192.6 17.8z M187.5 12.5c0 0 0-0.1 0-0.2c0-0.1 0-0.1 0-0.1c0 0-0.1 0-0.2 0 c-0.1 0-0.2 0-0.3 0.1c-0.1 0-0.2 0.1-0.3 0.1h0c-0.2 0.1-0.4 0.3-0.6 0.5c-0.3 0.3-0.5 0.6-0.8 0.9c-0.3 0.4-0.5 0.8-0.6 1.2 c0.3-0.1 0.6-0.2 0.9-0.4c0.3-0.1 0.6-0.3 0.8-0.5c0.3-0.2 0.5-0.4 0.7-0.6c0.2-0.2 0.3-0.4 0.4-0.7v0 C187.4 12.7 187.5 12.6 187.5 12.5z"/>
</g>
<g>
</g>
<g>
</g>
<g>
</g>
<g>
</g>
<g>
</g>
<g>
</g>
<g>
</g>
<g>
</g>
<g>
</g>
<g>
</g>
<g>
</g>
<g>
</g>
<g>
</g>
<g>
</g>
<g>
</g>
</svg>
